<svg width="121" height="58" xmlns="http://www.w3.org/2000/svg"><g fill="none" fill-rule="evenodd" opacity=".299"><g fill="#672BD1"><ellipse cx="4.205" cy="4.528" rx="4.205" ry="4.528"/><ellipse cx="25.609" cy="4.528" rx="4.205" ry="4.528"/><ellipse cx="48.543" cy="4.528" rx="4.205" ry="4.528"/><ellipse cx="4.205" cy="4.528" rx="4.205" ry="4.528"/><ellipse cx="25.609" cy="4.528" rx="4.205" ry="4.528"/><ellipse cx="48.543" cy="4.528" rx="4.205" ry="4.528"/></g><g transform="translate(0 23.773)" fill="#672BD1"><ellipse cx="4.205" cy="4.528" rx="4.205" ry="4.528"/><ellipse cx="25.609" cy="4.528" rx="4.205" ry="4.528"/><ellipse cx="48.543" cy="4.528" rx="4.205" ry="4.528"/><ellipse cx="4.205" cy="4.528" rx="4.205" ry="4.528"/><ellipse cx="25.609" cy="4.528" rx="4.205" ry="4.528"/><ellipse cx="48.543" cy="4.528" rx="4.205" ry="4.528"/></g><g transform="translate(0 47.545)" fill="#652BD2"><ellipse cx="4.205" cy="4.528" rx="4.205" ry="4.528"/><ellipse cx="25.609" cy="4.528" rx="4.205" ry="4.528"/><ellipse cx="48.543" cy="4.528" rx="4.205" ry="4.528"/><ellipse cx="4.205" cy="4.528" rx="4.205" ry="4.528"/><ellipse cx="25.609" cy="4.528" rx="4.205" ry="4.528"/><ellipse cx="48.543" cy="4.528" rx="4.205" ry="4.528"/></g><g fill="#672BD1"><g transform="translate(67.338)"><ellipse cx="4.205" cy="4.528" rx="4.205" ry="4.528"/><ellipse cx="25.609" cy="4.528" rx="4.205" ry="4.528"/><ellipse cx="48.543" cy="4.528" rx="4.205" ry="4.528"/><ellipse cx="4.205" cy="4.528" rx="4.205" ry="4.528"/><ellipse cx="25.609" cy="4.528" rx="4.205" ry="4.528"/><ellipse cx="48.543" cy="4.528" rx="4.205" ry="4.528"/></g><g transform="translate(67.338 23.773)"><ellipse cx="4.205" cy="4.528" rx="4.205" ry="4.528"/><ellipse cx="25.609" cy="4.528" rx="4.205" ry="4.528"/><ellipse cx="48.543" cy="4.528" rx="4.205" ry="4.528"/><ellipse cx="4.205" cy="4.528" rx="4.205" ry="4.528"/><ellipse cx="25.609" cy="4.528" rx="4.205" ry="4.528"/><ellipse cx="48.543" cy="4.528" rx="4.205" ry="4.528"/></g><g transform="translate(67.338 47.545)"><ellipse cx="4.205" cy="4.528" rx="4.205" ry="4.528"/><ellipse cx="25.609" cy="4.528" rx="4.205" ry="4.528"/><ellipse cx="48.543" cy="4.528" rx="4.205" ry="4.528"/><ellipse cx="4.205" cy="4.528" rx="4.205" ry="4.528"/><ellipse cx="25.609" cy="4.528" rx="4.205" ry="4.528"/><ellipse cx="48.543" cy="4.528" rx="4.205" ry="4.528"/></g></g></g></svg>