<svg width="225" height="293" viewBox="0 0 225 293" fill="none" xmlns="http://www.w3.org/2000/svg">
<path d="M123.185 144.075H131.588C141.181 144.075 148.959 136.481 148.959 127.112V120.968" stroke="#341E61" stroke-width="1.64952"/>
<path d="M124.54 41.0938L124.497 248.059" stroke="#341E61" stroke-width="1.64952"/>
<path fill-rule="evenodd" clip-rule="evenodd" d="M120.261 61.9243H103.721H103.544H87.0035C96.085 67.0138 102.425 88.689 103.544 92.7445V93.4004C103.544 93.4004 103.575 93.2833 103.632 93.0681C103.691 93.2833 103.721 93.4004 103.721 93.4004V92.7445C104.839 88.689 111.18 67.0138 120.261 61.9243Z" fill="#9579E9"/>
<path fill-rule="evenodd" clip-rule="evenodd" d="M120.261 61.9243C111.18 67.0138 104.839 88.689 103.721 92.7445V93.4004C103.721 93.4004 103.691 93.2833 103.632 93.0681C103.575 93.2833 103.544 93.4004 103.544 93.4004V92.7445C102.425 88.689 96.085 67.0138 87.0035 61.9243C87.0035 61.9243 98.3449 69.0343 103.104 79.2511C103.104 79.2511 99.5207 70.8903 103.762 63.1918C103.762 63.1918 107.497 70.0192 104.203 79.2511C104.203 79.2511 109.941 64.2539 120.261 61.9243Z" fill="#5438A1"/>
<path fill-rule="evenodd" clip-rule="evenodd" d="M99.4753 82.1157C99.4753 82.1157 102.511 90.1124 103.171 93.3996C103.171 93.3996 106.899 83.0559 107.196 82.1157C107.196 82.1157 103.153 83.9988 103.153 86.9128C103.153 86.9128 102.148 82.3042 99.4753 82.1157Z" fill="#9579E9"/>
<path d="M123.184 109.414H119.912C110.429 109.414 102.742 101.82 102.742 92.4517V86.3066" stroke="#341E61" stroke-width="1.64952"/>
<path fill-rule="evenodd" clip-rule="evenodd" d="M99.4736 82.1157C99.4736 82.1157 103.068 83.0917 103.068 88.3107C103.068 88.3107 102.168 94.6764 103.631 100.526C103.631 100.526 102.129 98.5041 102.168 92.7266L99.4736 82.1157Z" fill="#672EBB"/>
<path fill-rule="evenodd" clip-rule="evenodd" d="M124.073 79.1963H148.826H149.091H173.843C160.253 86.8128 150.764 119.25 149.091 125.319V126.3C149.091 126.3 149.045 126.126 148.958 125.804C148.871 126.126 148.826 126.3 148.826 126.3V125.319C147.152 119.25 137.664 86.8128 124.073 79.1963Z" fill="#9579E9"/>
<path fill-rule="evenodd" clip-rule="evenodd" d="M124.073 79.1963C137.664 86.8128 147.152 119.25 148.826 125.319V126.3C148.826 126.3 148.871 126.126 148.958 125.804C149.045 126.126 149.091 126.3 149.091 126.3V125.319C150.764 119.25 160.253 86.8128 173.843 79.1963C173.843 79.1963 156.871 89.8365 149.749 105.126C149.749 105.126 155.111 92.614 148.765 81.0924C148.765 81.0924 143.174 91.3105 148.105 105.126C148.105 105.126 139.518 82.6825 124.073 79.1963Z" fill="#5438A1"/>
<path fill-rule="evenodd" clip-rule="evenodd" d="M154.736 108.724C154.736 108.724 150.193 120.691 149.206 125.61C149.206 125.61 143.626 110.131 143.182 108.724C143.182 108.724 149.232 111.542 149.232 115.903C149.232 115.903 150.736 109.006 154.736 108.724Z" fill="#9579E9"/>
<path fill-rule="evenodd" clip-rule="evenodd" d="M142.738 108.256C142.738 108.256 148.844 109.95 148.844 117.785C148.844 117.785 149.774 131.966 146.345 134.918C146.345 134.918 149.076 126.583 147.391 122.184L142.738 108.256Z" fill="#672EBB"/>
<path fill-rule="evenodd" clip-rule="evenodd" d="M101.854 22.92C101.854 35.1912 111.802 45.1387 124.073 45.1387C136.344 45.1387 146.292 35.1912 146.292 22.92C146.292 10.6487 136.344 0.701172 124.073 0.701172C111.802 0.701172 101.854 10.6487 101.854 22.92Z" fill="#5438A1"/>
<path d="M118.205 13.7012C119.098 13.7012 119.902 13.9292 120.614 14.3852C121.326 14.8243 121.886 15.4492 122.295 16.2598C122.72 17.0705 122.932 18.0163 122.932 19.0972C122.932 20.1781 122.72 21.1323 122.295 21.9598C121.886 22.7874 121.318 23.4376 120.591 23.9105C119.879 24.3665 119.083 24.5945 118.205 24.5945C117.326 24.5945 116.523 24.3665 115.795 23.9105C115.083 23.4376 114.523 22.7874 114.114 21.9598C113.705 21.1323 113.5 20.1781 113.5 19.0972C113.5 18.0163 113.705 17.0705 114.114 16.2598C114.523 15.4492 115.083 14.8243 115.795 14.3852C116.523 13.9292 117.326 13.7012 118.205 13.7012ZM121.568 32.4478H118.273L127.364 13.9545H130.659L121.568 32.4478ZM118.205 16.7665C117.78 16.7665 117.439 16.9776 117.182 17.3998C116.924 17.8052 116.795 18.3709 116.795 19.0972C116.795 19.8403 116.924 20.4314 117.182 20.8705C117.455 21.3096 117.795 21.5292 118.205 21.5292C118.629 21.5292 118.97 21.3096 119.227 20.8705C119.5 20.4314 119.636 19.8403 119.636 19.0972C119.636 18.3709 119.5 17.8052 119.227 17.3998C118.97 16.9776 118.629 16.7665 118.205 16.7665ZM130.773 21.8078C131.667 21.8078 132.47 22.0358 133.182 22.4918C133.894 22.931 134.455 23.5558 134.864 24.3665C135.288 25.1772 135.5 26.1229 135.5 27.2038C135.5 28.2847 135.288 29.2389 134.864 30.0665C134.455 30.8941 133.886 31.5443 133.159 32.0172C132.447 32.4732 131.652 32.7012 130.773 32.7012C129.894 32.7012 129.091 32.4732 128.364 32.0172C127.652 31.5443 127.091 30.8941 126.682 30.0665C126.273 29.2389 126.068 28.2847 126.068 27.2038C126.068 26.1229 126.273 25.1772 126.682 24.3665C127.091 23.5558 127.652 22.931 128.364 22.4918C129.091 22.0358 129.894 21.8078 130.773 21.8078ZM130.773 24.8732C130.348 24.8732 130.008 25.0843 129.75 25.5065C129.492 25.9118 129.364 26.4776 129.364 27.2038C129.364 27.9469 129.492 28.5381 129.75 28.9772C130.023 29.4163 130.364 29.6358 130.773 29.6358C131.197 29.6358 131.538 29.4163 131.795 28.9772C132.068 28.5381 132.205 27.9469 132.205 27.2038C132.205 26.4776 132.068 25.9118 131.795 25.5065C131.538 25.0843 131.197 24.8732 130.773 24.8732Z" fill="#9579E9"/>
<path fill-rule="evenodd" clip-rule="evenodd" d="M180.063 60.3717C180.063 61.8434 181.257 63.0376 182.73 63.0376C184.202 63.0376 185.396 61.8434 185.396 60.3717C185.396 58.8993 184.202 57.7051 182.73 57.7051C181.257 57.7051 180.063 58.8993 180.063 60.3717Z" fill="#9579E9"/>
<path fill-rule="evenodd" clip-rule="evenodd" d="M144.363 62.1491C144.363 63.6207 145.557 64.8149 147.029 64.8149C148.502 64.8149 149.695 63.6207 149.695 62.1491C149.695 60.6766 148.502 59.4824 147.029 59.4824C145.557 59.4824 144.363 60.6766 144.363 62.1491Z" fill="#EAE7FC"/>
<path fill-rule="evenodd" clip-rule="evenodd" d="M0.500012 150.23C0.500012 151.702 1.69378 152.896 3.16665 152.896C4.63875 152.896 5.83252 151.702 5.83252 150.23C5.83252 148.758 4.63875 147.563 3.16665 147.563C1.69378 147.563 0.500012 148.758 0.500012 150.23Z" fill="#46C2C3"/>
<path fill-rule="evenodd" clip-rule="evenodd" d="M173.843 13.4293C173.843 14.901 175.037 16.0952 176.509 16.0952C177.982 16.0952 179.175 14.901 179.175 13.4293C179.175 11.9569 177.982 10.7627 176.509 10.7627C175.037 10.7627 173.843 11.9569 173.843 13.4293Z" fill="#5438A1"/>
<path fill-rule="evenodd" clip-rule="evenodd" d="M82.3008 186.574H79.6345V94.1436H82.3008V186.574Z" fill="#9579E9"/>
<path fill-rule="evenodd" clip-rule="evenodd" d="M205.258 128.505C205.258 128.505 211.639 155.204 182.056 156.945C182.056 156.945 177.995 131.408 205.258 128.505Z" fill="#9579E9"/>
<path fill-rule="evenodd" clip-rule="evenodd" d="M205.258 185.385C205.258 185.385 211.639 212.084 182.056 213.825C182.056 213.825 177.995 188.288 205.258 185.385Z" fill="#46C2C3"/>
<path fill-rule="evenodd" clip-rule="evenodd" d="M104.829 161.689C104.829 161.689 111.21 188.388 81.6257 190.129C81.6257 190.129 77.5658 164.592 104.829 161.689Z" fill="#9579E9"/>
<path fill-rule="evenodd" clip-rule="evenodd" d="M157.758 126.737C157.758 126.737 185.038 125.417 181.26 155.168C181.26 155.168 155.545 154.4 157.758 126.737Z" fill="#9579E9"/>
<path fill-rule="evenodd" clip-rule="evenodd" d="M56.6627 161.698C56.6627 161.698 83.9423 160.378 80.165 190.129C80.165 190.129 54.45 189.361 56.6627 161.698Z" fill="#9579E9"/>
<path fill-rule="evenodd" clip-rule="evenodd" d="M27.3345 138.59C27.3345 138.59 54.6142 137.27 50.8368 167.022C50.8368 167.022 25.1219 166.253 27.3345 138.59Z" fill="#9579E9"/>
<path fill-rule="evenodd" clip-rule="evenodd" d="M26.4455 102.151C26.4455 102.151 53.725 100.831 49.9477 130.583C49.9477 130.583 24.232 129.814 26.4455 102.151Z" fill="#9579E9"/>
<path fill-rule="evenodd" clip-rule="evenodd" d="M157.98 185.716C157.98 185.716 185.259 184.396 181.482 214.148C181.482 214.148 155.766 213.379 157.98 185.716Z" fill="#46C2C3"/>
<path fill-rule="evenodd" clip-rule="evenodd" d="M183.07 94.7319C183.07 94.7319 203.44 112.335 181.291 131.171C181.291 131.171 163.405 113.129 183.07 94.7319Z" fill="#9579E9"/>
<path fill-rule="evenodd" clip-rule="evenodd" d="M104.385 127.917C104.385 127.917 110.765 154.616 81.182 156.357C81.182 156.357 77.1213 130.82 104.385 127.917Z" fill="#9579E9"/>
<path fill-rule="evenodd" clip-rule="evenodd" d="M57.1065 115.645C57.1065 115.645 84.3862 114.324 80.6088 144.076C80.6088 144.076 54.8939 143.308 57.1065 115.645Z" fill="#9579E9"/>
<path fill-rule="evenodd" clip-rule="evenodd" d="M82.6395 86.145C82.6395 86.145 103.011 103.748 80.861 122.584C80.861 122.584 62.9748 104.541 82.6395 86.145Z" fill="#9579E9"/>
<path fill-rule="evenodd" clip-rule="evenodd" d="M73.7241 73.7031C73.7241 73.7031 80.1051 100.402 50.5213 102.143C50.5213 102.143 46.4606 76.6051 73.7241 73.7031Z" fill="#9579E9"/>
<path fill-rule="evenodd" clip-rule="evenodd" d="M26.4455 65.7129C26.4455 65.7129 53.725 64.3919 49.9477 94.1441C49.9477 94.1441 24.232 93.3759 26.4455 65.7129Z" fill="#9579E9"/>
<path fill-rule="evenodd" clip-rule="evenodd" d="M51.1958 186.574H49.4183V66.5928H51.1958V186.574Z" fill="#9579E9"/>
<path fill-rule="evenodd" clip-rule="evenodd" d="M182.73 213.825H180.952V124.061H182.73V213.825Z" fill="#9579E9"/>
<path fill-rule="evenodd" clip-rule="evenodd" d="M51.5336 37.2637C51.5336 37.2637 71.9038 54.8664 49.7544 73.7025C49.7544 73.7025 31.8681 55.6595 51.5336 37.2637Z" fill="#9579E9"/>
<path fill-rule="evenodd" clip-rule="evenodd" d="M224.501 183.908L211.22 212.833C206.307 223.532 202.719 234.762 200.027 246.22C196.514 261.171 186.593 273.651 173.321 280.636H173.711V292.336H61.1037V280.636H61.4921C48.2206 273.651 38.2996 261.171 34.7869 246.22C32.0946 234.762 28.5077 223.532 23.5944 212.833L10.3124 183.908H224.501Z" fill="#58409F"/>
<path fill-rule="evenodd" clip-rule="evenodd" d="M30.6259 223.856L52.3441 216.249C55.4988 215.145 57.1707 211.661 56.08 208.469C54.9886 205.275 51.546 203.582 48.392 204.687C47.649 204.948 46.9721 205.355 46.41 205.846L29.0433 221.082C28.3704 221.672 28.297 222.702 28.8806 223.383C29.3239 223.902 30.0223 224.066 30.6259 223.856Z" fill="#D8C7E5"/>
<path fill-rule="evenodd" clip-rule="evenodd" d="M29.1573 228.423L46.5241 243.659C49.0466 245.871 52.8631 245.595 55.05 243.042C57.2361 240.489 56.9626 236.625 54.4409 234.413C53.8461 233.891 53.1589 233.502 52.4589 233.254L30.7399 225.648C29.8988 225.352 28.9803 225.804 28.6893 226.656C28.4685 227.304 28.6758 227.998 29.1573 228.423Z" fill="#D8C7E5"/>
<path fill-rule="evenodd" clip-rule="evenodd" d="M120.565 248.975L124.542 228.093C125.119 225.06 123.159 222.127 120.164 221.543C117.169 220.958 114.273 222.942 113.696 225.975C113.56 226.69 113.57 227.418 113.696 228.093L117.672 248.975C117.826 249.784 118.599 250.313 119.397 250.158C120.005 250.038 120.453 249.554 120.565 248.975Z" fill="#D8C7E5"/>
<path fill-rule="evenodd" clip-rule="evenodd" d="M123.465 252.239L143.311 245.285C146.193 244.275 147.722 241.09 146.724 238.171C145.727 235.252 142.582 233.705 139.7 234.714C139.02 234.953 138.402 235.326 137.888 235.774L122.018 249.702C121.403 250.241 121.337 251.183 121.87 251.806C122.275 252.28 122.913 252.43 123.465 252.239Z" fill="#D8C7E5"/>
<path fill-rule="evenodd" clip-rule="evenodd" d="M122.122 256.413L137.993 270.341C140.298 272.363 143.785 272.111 145.783 269.778C147.78 267.443 147.531 263.912 145.227 261.888C144.683 261.411 144.055 261.056 143.415 260.83L123.569 253.875C122.8 253.606 121.961 254.019 121.695 254.798C121.493 255.39 121.682 256.025 122.122 256.413Z" fill="#E8E1F9"/>
<path fill-rule="evenodd" clip-rule="evenodd" d="M117.882 257.322L113.906 278.204C113.329 281.238 115.288 284.171 118.283 284.755C121.278 285.34 124.174 283.356 124.752 280.323C124.888 279.608 124.878 278.879 124.752 278.204L120.775 257.322C120.621 256.514 119.849 255.984 119.05 256.141C118.442 256.26 117.994 256.743 117.882 257.322Z" fill="#E8E1F9"/>
<path fill-rule="evenodd" clip-rule="evenodd" d="M114.982 254.058L95.1356 261.012C92.2537 262.022 90.7259 265.207 91.7226 268.126C92.72 271.045 95.8651 272.593 98.7471 271.583C99.427 271.344 100.044 270.972 100.559 270.523L116.429 256.596C117.043 256.056 117.11 255.114 116.577 254.491C116.172 254.018 115.533 253.867 114.982 254.058Z" fill="#E8E1F9"/>
<path fill-rule="evenodd" clip-rule="evenodd" d="M116.326 249.885L100.455 235.957C98.1501 233.934 94.6635 234.186 92.6654 236.52C90.6681 238.855 90.9168 242.386 93.2213 244.409C93.7652 244.886 94.3931 245.242 95.033 245.468L114.88 252.422C115.648 252.691 116.487 252.279 116.754 251.5C116.956 250.908 116.766 250.273 116.326 249.885Z" fill="#D8C7E5"/>
<path fill-rule="evenodd" clip-rule="evenodd" d="M181.326 186.575L197.221 200.681C199.53 202.73 203.023 202.475 205.024 200.111C207.025 197.747 206.775 194.17 204.467 192.121C203.922 191.637 203.294 191.277 202.652 191.048L182.775 184.005C182.005 183.732 181.165 184.151 180.898 184.939C180.696 185.539 180.886 186.182 181.326 186.575Z" fill="#D8C7E5"/>
<path fill-rule="evenodd" clip-rule="evenodd" d="M177.08 187.496L173.097 208.645C172.52 211.718 174.482 214.688 177.482 215.28C180.481 215.873 183.381 213.863 183.96 210.791C184.097 210.067 184.086 209.329 183.96 208.645L179.977 187.496C179.823 186.677 179.05 186.14 178.249 186.299C177.64 186.419 177.193 186.909 177.08 187.496Z" fill="#D8C7E5"/>
<path fill-rule="evenodd" clip-rule="evenodd" d="M174.175 184.191L154.298 191.234C151.411 192.257 149.88 195.482 150.879 198.439C151.878 201.396 155.028 202.963 157.915 201.94C158.596 201.698 159.214 201.321 159.729 200.867L175.625 186.761C176.24 186.214 176.306 185.259 175.773 184.629C175.367 184.15 174.727 183.997 174.175 184.191Z" fill="#D8C7E5"/>
<path fill-rule="evenodd" clip-rule="evenodd" d="M28.977 42.5967C28.977 54.8679 38.9253 64.8155 51.1958 64.8155C63.467 64.8155 73.4146 54.8679 73.4146 42.5967C73.4146 30.3255 63.467 20.3779 51.1958 20.3779C38.9253 20.3779 28.977 30.3255 28.977 42.5967Z" fill="#5438A1"/>
<path opacity="0.7" d="M50.8026 53.1942L45.6899 44.2755V42.1736H47.3942C48.0758 42.1736 48.6723 42.0789 49.1836 41.8896C49.7138 41.6813 50.1493 41.3878 50.4901 41.0091C50.8499 40.6303 51.0961 40.1759 51.2286 39.6457H45.6899V37.5438H51.2002C51.0866 37.0515 50.8878 36.616 50.6037 36.2373C50.3386 35.8586 49.9789 35.5651 49.5244 35.3568C49.0889 35.1295 48.5587 35.0159 47.9338 35.0159H45.6899V32.9141H58.4999V35.0159H54.0406C54.3625 35.3757 54.6276 35.7639 54.8359 36.1805C55.0631 36.597 55.2146 37.0515 55.2903 37.5438H58.4999V39.6457H55.3471C55.1578 41.0469 54.6181 42.1452 53.7281 42.9405C52.8382 43.7169 51.6925 44.2471 50.2913 44.5311L55.8584 53.1942H50.8026Z" fill="#9579E9"/>
</svg>
