<svg xmlns="http://www.w3.org/2000/svg" fill="none" viewBox="29.99 37.32 40.27 25.36"><path d="M53.86 55.59H44.54m18.636 0h5.591v-5.87a1.863 1.863 0 0 0-1.565-1.844l-9.616-1.603-5.032-6.71a1.863 1.863 0 0 0-1.491-.745h-13.53a3.728 3.728 0 0 0-3.354 2.05l-1.491 3.038a11.182 11.182 0 0 0-1.193 5.013v6.672h3.727" stroke="#9E4178" stroke-width="3" stroke-linecap="round" stroke-linejoin="round"/><path d="M39.883 61.182a4.659 4.659 0 1 0 0-9.318 4.659 4.659 0 0 0 0 9.318ZM58.518 61.182a4.659 4.659 0 1 0 0-9.318 4.659 4.659 0 0 0 0 9.318Z" stroke="#9E4178" stroke-width="3" stroke-linecap="round" stroke-linejoin="round"/></svg>