<svg width="65" height="65" xmlns="http://www.w3.org/2000/svg"><g fill-rule="nonzero" fill="none"><path d="M25.481 38.014a2.5 2.5 0 013.176 3.858l-.138.114-17 13a2.5 2.5 0 01-3.176-3.858l.138-.114 17-13z" fill="#3B2969"/><path d="M38.5 9.5c-10.476 0-19 8.265-19 18.5s8.524 18.5 19 18.5 19-8.265 19-18.5-8.524-18.5-19-18.5zm0 5c7.749 0 14 6.062 14 13.5s-6.251 13.5-14 13.5-14-6.062-14-13.5 6.251-13.5 14-13.5z" fill="#C6CCFF"/><path d="M38.5 18a4.5 4.5 0 100 9 4.5 4.5 0 000-9zm0 2a2.5 2.5 0 110 5 2.5 2.5 0 010-5zM41.302 28h-4.604C33.56 28 31 30.453 31 33.5s2.56 5.5 5.698 5.5h4.604C44.44 39 47 36.547 47 33.5S44.44 28 41.302 28zm-4.604 2h4.604C43.354 30 45 31.577 45 33.5S43.354 37 41.302 37h-4.604C34.646 37 33 35.423 33 33.5s1.646-3.5 3.698-3.5z" fill="#FFF"/></g></svg>