<svg width="65" height="65" xmlns="http://www.w3.org/2000/svg"><g fill="none" fill-rule="evenodd"><path d="M39.585 37.004c0-6.844-5.48-12.48-12.387-12.583-7.07-.104-12.721 5.552-12.773 12.428-.052 7.058 5.55 12.716 12.536 12.737 6.966.02 12.612-5.607 12.624-12.582m-3.664 17.973l-1.919-1.98c-.298-.309-.6-.613-.89-.928-.098-.107-.18-.114-.308-.064-1.081.427-2.2.715-3.348.883-.196.03-.194.16-.225.28a456.239 456.239 0 00-.902 3.62c-.037.149-.09.213-.25.212-.712-.007-1.425-.008-2.138 0-.166.001-.23-.06-.269-.218-.295-1.209-.602-2.414-.898-3.623-.043-.177-.113-.251-.306-.281A15.018 15.018 0 0121.192 52c-.158-.063-.23 0-.323.096-.87.902-1.744 1.8-2.61 2.708-.114.12-.195.14-.339.056-.603-.35-1.211-.692-1.821-1.03-.156-.087-.193-.183-.14-.362.352-1.193.686-2.39 1.036-3.584.052-.177.027-.278-.124-.398a14.977 14.977 0 01-2.355-2.348c-.115-.143-.21-.182-.396-.128-1.2.354-2.406.687-3.608 1.038-.163.048-.242.018-.322-.125-.343-.616-.69-1.23-1.046-1.838-.086-.147-.06-.227.056-.338.9-.861 1.791-1.732 2.692-2.593.135-.129.157-.231.088-.407-.4-1.022-.68-2.077-.84-3.163-.032-.218-.118-.313-.339-.366-1.194-.287-2.382-.596-3.575-.888-.157-.039-.227-.096-.225-.266.007-.697.009-1.394-.001-2.091-.002-.184.06-.26.24-.303 1.208-.294 2.414-.602 3.621-.9.155-.038.234-.093.262-.27.175-1.131.453-2.237.88-3.3.06-.15.014-.227-.089-.325-.898-.863-1.792-1.73-2.689-2.595-.056-.055-.125-.098-.214-.168.42-.721.82-1.414 1.234-2.098.031-.051.177-.073.253-.052 1.213.339 2.425.684 3.633 1.037.17.05.265.022.377-.12a15.01 15.01 0 012.385-2.384c.124-.099.16-.18.113-.336-.355-1.217-.697-2.437-1.053-3.653-.044-.151-.023-.227.112-.304.674-.386 1.343-.78 1.91-1.11.532.487 1.022.914 1.488 1.367.488.476.955.975 1.425 1.47.094.099.172.128.306.075a15.008 15.008 0 013.3-.879c.175-.026.237-.103.275-.26.298-1.207.606-2.412.9-3.621.043-.177.113-.247.3-.244.697.01 1.394.008 2.091.002.167-.002.231.062.27.222.294 1.2.603 2.396.89 3.598.05.204.137.282.338.312a14.69 14.69 0 013.252.871c.157.063.23 0 .323-.096.875-.908 1.753-1.815 2.63-2.72.044-.046.092-.086.167-.155.668.389 1.337.78 2.01 1.167.133.077.152.158.108.308-.352 1.209-.69 2.422-1.042 3.632-.046.16-.023.253.111.36.882.708 1.682 1.5 2.384 2.386.106.135.197.162.358.115 1.201-.352 2.407-.69 3.607-1.043.179-.053.273-.02.362.138.375.661.758 1.317 1.103 1.915-.393.422-.738.814-1.106 1.183-.556.555-1.122 1.1-1.696 1.636-.152.141-.172.258-.098.447.41 1.036.68 2.111.85 3.21.026.176.096.241.253.28 1.207.298 2.412.606 3.62.899.177.043.248.107.246.293-.008.768-.004 1.535-.004 2.313l-2.092.524c-.584.146-1.168.294-1.753.435-.161.04-.242.101-.271.29a15.205 15.205 0 01-.874 3.277c-.055.141-.033.222.076.327.9.86 1.792 1.73 2.689 2.595.056.055.122.101.218.18-.414.71-.812 1.402-1.227 2.083-.034.056-.194.076-.278.053-1.206-.336-2.41-.678-3.611-1.03-.17-.05-.265-.022-.377.12a15.244 15.244 0 01-2.386 2.384c-.125.1-.156.18-.11.336.353 1.21.69 2.422 1.045 3.63.051.173.015.26-.133.344-.66.378-1.315.763-1.99 1.156" fill="#3B2969" fill-rule="nonzero"/><g transform="translate(40 7)"><path d="M14.663 9.002A5.66 5.66 0 009.09 3.34a5.648 5.648 0 00-5.748 5.592c-.023 3.176 2.498 5.722 5.642 5.732a5.664 5.664 0 005.68-5.662m-2.512 7.196c-.134-.138-.27-.275-.4-.417-.045-.048-.082-.051-.14-.029-.486.192-.99.322-1.506.398-.088.013-.087.072-.1.126-.138.542-.274 1.085-.407 1.629-.016.066-.04.095-.112.095-.32-.003-.642-.004-.962 0-.075 0-.104-.027-.121-.098-.133-.544-.272-1.086-.405-1.63-.019-.08-.05-.114-.138-.127a6.758 6.758 0 01-1.474-.395c-.07-.028-.103 0-.145.043-.391.406-.785.81-1.174 1.219-.052.054-.088.062-.153.025a49.834 49.834 0 00-.82-.464c-.07-.039-.086-.082-.062-.163.158-.536.308-1.075.466-1.612.023-.08.012-.125-.056-.18a6.74 6.74 0 01-1.06-1.056c-.052-.064-.094-.082-.178-.057-.54.159-1.083.309-1.623.467-.074.021-.11.008-.146-.057-.154-.277-.31-.553-.47-.827-.039-.066-.027-.102.025-.152.405-.387.806-.78 1.212-1.167.06-.058.07-.104.04-.183a6.468 6.468 0 01-.379-1.423c-.014-.098-.053-.141-.152-.165-.538-.129-1.073-.268-1.61-.4-.07-.017-.101-.043-.1-.119.003-.314.003-.628-.001-.941 0-.083.027-.117.108-.137.544-.132 1.086-.27 1.63-.404.07-.018.105-.042.117-.122a6.715 6.715 0 01.397-1.485c.027-.067.005-.102-.04-.146-.405-.389-.807-.779-1.21-1.168C.975 5.05.944 5.032.904 5c.189-.324.369-.636.555-.943.014-.024.08-.034.114-.024.546.152 1.091.308 1.635.467.077.022.119.01.17-.054a6.755 6.755 0 011.073-1.073c.056-.045.072-.081.05-.152-.159-.547-.313-1.096-.473-1.643-.02-.068-.01-.102.05-.137.303-.174.604-.351.86-.5.24.22.46.412.67.616.219.214.429.438.64.66.043.046.078.059.138.035.48-.19.976-.318 1.486-.396.078-.012.106-.046.123-.116.134-.544.273-1.086.405-1.63.02-.08.05-.111.135-.11.314.005.627.004.941 0 .075 0 .104.029.122.1.132.54.27 1.08.4 1.62.022.092.062.127.152.14a6.61 6.61 0 011.463.392c.071.029.104 0 .146-.043.394-.409.789-.816 1.184-1.224.019-.02.04-.038.075-.07.3.175.601.352.904.525.06.035.068.071.049.14-.159.543-.311 1.09-.47 1.633-.02.072-.01.114.05.163.397.318.757.674 1.073 1.073.048.06.089.073.161.052.541-.158 1.083-.31 1.624-.47.08-.023.123-.008.163.063.168.297.34.593.496.861-.177.19-.332.367-.498.533-.25.25-.505.495-.763.736-.068.064-.078.116-.044.201.184.466.306.95.382 1.445.012.079.044.108.114.126.544.134 1.086.272 1.63.404.079.02.11.048.11.132-.004.345-.002.69-.002 1.04l-.941.237c-.263.065-.526.132-.79.196-.072.017-.108.045-.121.13a6.842 6.842 0 01-.393 1.475c-.025.063-.015.1.034.147.405.387.806.778 1.21 1.167.025.025.055.046.098.081-.186.32-.366.631-.552.938-.015.025-.087.034-.125.023a128.97 128.97 0 01-1.625-.463c-.077-.022-.12-.01-.17.054a6.86 6.86 0 01-1.073 1.073c-.057.045-.07.08-.05.151.159.544.31 1.09.47 1.634.023.078.007.117-.06.155-.296.17-.592.343-.895.52l-.864-.892z" fill="#FFF" fill-rule="nonzero"/><circle stroke="#FFF" stroke-width="3" cx="9" cy="9" r="5.897"/></g></g></svg>