<svg width="65" height="65" xmlns="http://www.w3.org/2000/svg"><g fill-rule="nonzero" fill="none"><path d="M32.509 9.641c-4.033 0-7.28 3.787-9.152 9.478l-.206.652c-.233.77-.443 1.572-.626 2.402l-.15.718c-.05.242-.095.485-.14.731l-.124.743-.112.755a40.56 40.56 0 00-.099.766l-.085.777-.038.392-.064.791-.027.399-.044.804-.029.813-.014.82v.825l.014.82.03.812.043.805.027.399.064.791.038.392.085.777c.03.257.064.512.099.766l.112.755.125.743c.044.245.09.49.138.73l.151.719c.183.83.393 1.632.626 2.402l.206.652c1.873 5.691 5.119 9.478 9.152 9.478 4.032 0 7.278-3.787 9.151-9.478l.206-.652c.234-.77.443-1.573.626-2.402l.151-.718c.048-.242.094-.486.138-.731l.125-.743.112-.755c.036-.254.069-.51.1-.766l.084-.777.038-.392.064-.791c.01-.133.019-.266.027-.4l.044-.804.029-.812.015-.82.001-.413-.001-.412-.015-.82-.03-.813-.043-.804a43.76 43.76 0 00-.027-.399l-.064-.791a42.393 42.393 0 00-.038-.392l-.085-.777a40.56 40.56 0 00-.099-.766l-.112-.755-.125-.743c-.044-.246-.09-.49-.138-.73l-.15-.719a32.379 32.379 0 00-.627-2.402l-.206-.652c-1.873-5.691-5.119-9.478-9.151-9.478zm0 4.186c2.273 0 4.63 3.629 5.87 9.063l.152.704.14.722c.376 2.072.593 4.36.593 6.778 0 2.703-.271 5.243-.733 7.501l-.152.703c-1.24 5.435-3.597 9.064-5.87 9.064-2.274 0-4.632-3.629-5.871-9.064l-.152-.703c-.462-2.258-.732-4.798-.732-7.5 0-2.418.216-4.707.593-6.779l.139-.722.152-.704c1.24-5.434 3.597-9.063 5.87-9.063z" fill="#7962BE"/><path d="M12.468 19.524c-1.738 3.01-.996 6.858 1.52 10.744l.355.53a25.8 25.8 0 001.407 1.853l.448.526c.153.176.31.35.469.525l.487.522a36.679 36.679 0 003.011 2.807l.604.495c.204.164.411.327.62.49l.638.482a46.516 46.516 0 004.502 2.954 46.516 46.516 0 004.809 2.422l.736.31c.245.1.49.198.734.293l.731.276a35.244 35.244 0 005.32 1.508l.681.125c5.97 1.023 10.916-.096 13.01-3.721 2.092-3.625.588-8.468-3.283-13.127l-.448-.527a35.244 35.244 0 00-3.967-3.853l-.604-.495a42.08 42.08 0 00-.62-.49l-.637-.482a46.516 46.516 0 00-4.503-2.954 46.516 46.516 0 00-4.809-2.422l-.736-.31c-.245-.1-.49-.198-.734-.293l-.73-.276a36.679 36.679 0 00-3.937-1.204l-.696-.16c-.231-.052-.46-.1-.689-.144l-.68-.125a25.8 25.8 0 00-2.308-.292l-.636-.042c-4.624-.237-8.327 1.045-10.065 4.055zm3.625 2.093c1.277-2.212 5.687-2.632 11.169-1.153l.69.195a33 33 0 01.35.105l.706.224c2.368.782 4.885 1.896 7.402 3.35 4.153 2.397 7.506 5.257 9.753 7.982l.397.494c2.432 3.117 3.375 6.007 2.364 7.758-1.011 1.751-3.985 2.38-7.9 1.831l-.626-.096c-3.484-.584-7.637-2.057-11.79-4.455-2.518-1.453-4.74-3.077-6.602-4.736l-.548-.5a33 33 0 01-.265-.25l-.514-.5c-4.022-4.008-5.863-8.037-4.586-10.249z" fill="#3B2969"/><path d="M52.55 19.524c-1.738-3.01-5.442-4.292-10.066-4.055l-.636.042a25.8 25.8 0 00-2.308.292l-.68.125c-.228.045-.458.092-.689.143l-.695.161c-1.283.312-2.6.715-3.937 1.204l-.73.276c-.245.095-.49.192-.735.293l-.736.31c-1.598.69-3.21 1.499-4.81 2.422a46.516 46.516 0 00-4.501 2.954l-.637.483c-.21.162-.417.325-.62.489l-.605.495a35.244 35.244 0 00-3.967 3.853l-.448.527c-3.87 4.659-5.375 9.502-3.282 13.127s7.039 4.744 13.01 3.72l.68-.124c1.71-.335 3.498-.84 5.32-1.508l.731-.276c.244-.095.489-.193.734-.293l.736-.31c1.598-.69 3.21-1.5 4.81-2.422a46.516 46.516 0 004.502-2.954l.636-.483c.21-.162.417-.325.62-.489l.605-.495a36.679 36.679 0 003.011-2.807l.488-.522c.159-.175.315-.35.468-.525l.448-.526a25.8 25.8 0 001.407-1.853l.354-.53c2.517-3.886 3.259-7.734 1.521-10.744zm-3.626 2.093c1.277 2.212-.563 6.24-4.586 10.249l-.514.5a33 33 0 01-.265.25l-.548.5c-1.86 1.66-4.084 3.283-6.601 4.736-4.153 2.398-8.307 3.871-11.79 4.455l-.626.096c-3.916.548-6.89-.08-7.9-1.831-1.012-1.751-.069-4.641 2.364-7.758l.396-.494c2.247-2.725 5.6-5.585 9.753-7.983 2.517-1.453 5.035-2.567 7.403-3.349l.705-.224a33 33 0 01.35-.105l.69-.195c5.483-1.48 9.892-1.06 11.169 1.153z" fill="#FFF"/></g></svg>