<svg width="65" height="65" xmlns="http://www.w3.org/2000/svg"><g fill-rule="nonzero" fill="none"><path d="M54 16.5H11A2.5 2.5 0 008.5 19v31a2.5 2.5 0 002.5 2.5h43a2.5 2.5 0 002.5-2.5V19a2.5 2.5 0 00-2.5-2.5zm-2.5 5v26h-38v-26h38z" fill="#3B2969"/><path d="M41 9.5H24a2.5 2.5 0 00-2.5 2.5v7a2.5 2.5 0 002.5 2.5h17a2.5 2.5 0 002.5-2.5v-7A2.5 2.5 0 0041 9.5zm-2.5 5v2h-12v-2h12z" fill="#3B2969"/><path d="M54 16.5H11A2.5 2.5 0 008.5 19v14a2.5 2.5 0 002.5 2.5h43a2.5 2.5 0 002.5-2.5V19a2.5 2.5 0 00-2.5-2.5zm-2.5 5v9h-38v-9h38z" fill="#7962BE"/></g></svg>