<svg width="65" height="65" xmlns="http://www.w3.org/2000/svg"><g fill-rule="nonzero" fill="none"><path d="M46.601 12.583a2.5 2.5 0 013.91 3.113l-.112.14-31.5 36.79a2.5 2.5 0 01-3.91-3.112l.112-.14 31.5-36.79z" fill="#7962BE"/><path d="M19.222 10.242a2.5 2.5 0 013.677 3.385l-.121.13-7.263 7.344 7.063 7.141a2.5 2.5 0 01.102 3.406l-.122.13a2.5 2.5 0 01-3.406.102l-.13-.122-8.8-8.899a2.5 2.5 0 01-.12-3.385l.12-.13 9-9.102z" fill="#FFF"/><path d="M46.778 53.758a2.5 2.5 0 01-3.677-3.385l.121-.13 7.263-7.344-7.063-7.141a2.5 2.5 0 01-.102-3.406l.122-.13a2.5 2.5 0 013.406-.102l.13.122 8.8 8.899a2.5 2.5 0 01.12 3.385l-.12.13-9 9.102z" fill="#3B2969"/></g></svg>