<svg width="65" height="65" xmlns="http://www.w3.org/2000/svg"><g fill-rule="nonzero" fill="none"><path d="M47.19 12.414c1.297 1.538 2.136 3.326 2.594 5.296.064.277.153.404.442.498 4.017 1.318 6.622 4.048 7.525 8.261a10.94 10.94 0 01-4.902 11.616c-1.768 1.105-3.69 1.635-5.765 1.625-1.825-.01-3.651-.007-5.477-.005v-3.96l5.425.001c4.828 0 8.238-4.668 6.684-9.234-1-2.937-3.176-4.425-6.147-4.79-1.204-.15-1.216-.144-1.323-1.39-.18-2.095-.871-3.968-2.223-5.584-3.109-3.717-8.967-4.07-12.505-.774-1.157 1.078-1.918 2.408-2.582 3.814-.164.346-.348.407-.69.342-.795-.152-1.594-.33-2.4-.384-3.117-.21-6.112 2.046-6.82 5.143-.237 1.033-.357 2.093-.535 3.166-.97-.123-1.891-.347-2.811-.339-3.36.027-5.672 3.536-4.492 6.74.761 2.07 2.56 3.283 4.892 3.284l10.955.003v3.967c-3.85.005-7.7.01-11.551-.01-4.249-.023-8.054-3.634-8.436-7.938-.344-3.888 1.152-6.839 4.398-8.869 1-.625 2.112-.977 3.282-1.09.402-.04.587-.2.713-.593.753-2.346 2.149-4.215 4.148-5.6 1.997-1.385 4.208-2.03 6.626-1.85.32.023.471-.1.635-.342 2.154-3.177 5.114-5.113 8.86-5.586 4.592-.58 8.452.99 11.48 4.582z" fill="#3B2969"/><path d="M26.5 30.714a2 2 0 011.995 1.851l.005.15v19a2 2 0 01-3.995.149l-.005-.15v-19a2 2 0 012-2z" fill="#7962BE"/><path d="M35.5 26.714a2 2 0 011.995 1.851l.005.15v9a2 2 0 01-3.995.149l-.005-.15v-9a2 2 0 012-2z" fill="#FFF"/><path d="M42.5 30.714a2 2 0 011.995 1.851l.005.15v11a2 2 0 01-3.995.149l-.005-.15v-11a2 2 0 012-2z" fill="#7962BE"/><path d="M26.5 51.714a3.5 3.5 0 100 7 3.5 3.5 0 000-7zm0 2a1.5 1.5 0 110 3 1.5 1.5 0 010-3zM42.5 43.714a3.5 3.5 0 100 7 3.5 3.5 0 000-7zm0 2a1.5 1.5 0 110 3 1.5 1.5 0 010-3zM35 37.714a3 3 0 100 6 3 3 0 000-6zm0 2a1 1 0 110 2 1 1 0 010-2z" fill="#FFF"/></g></svg>