<svg width="65" height="65" xmlns="http://www.w3.org/2000/svg"><g fill-rule="nonzero" fill="none"><path d="M13.5 33.052a2.5 2.5 0 012.495 2.335l.005.165v16a2.5 2.5 0 01-4.995.164L11 51.552v-16a2.5 2.5 0 012.5-2.5zM26.5 25.052a2.5 2.5 0 012.495 2.335l.005.165v25a2.5 2.5 0 01-4.995.164L24 52.552v-25a2.5 2.5 0 012.5-2.5z" fill="#3B2969"/><path d="M38.5 16.052a2.5 2.5 0 012.495 2.335l.005.165v33a2.5 2.5 0 01-4.995.164L36 51.552v-33a2.5 2.5 0 012.5-2.5z" fill="#7962BE"/><path d="M51.5 10.052a2.5 2.5 0 012.495 2.335l.005.165v40a2.5 2.5 0 01-4.995.164L49 52.552v-40a2.5 2.5 0 012.5-2.5z" fill="#FFF"/></g></svg>