<svg width="147" height="556" viewBox="0 0 147 556" fill="none" xmlns="http://www.w3.org/2000/svg">
<path d="M119.507 478.844H20.5904L0.535156 505.358L34.867 555.326H103.871L140.242 505.358L119.507 478.844Z" fill="#D6B9A6"/>
<path d="M26.1396 475.165L75.5491 315.326M75.5491 315.326V0.442871M75.5491 315.326L127.246 475.165" stroke="#6937B7" stroke-width="2.16477"/>
<path d="M105.211 360.067C105.219 360.421 105.236 360.747 105.26 361.039C105.055 360.866 105.001 360.548 105.211 360.067C105.116 356.063 106.131 348.419 110.995 343.393C117.612 336.555 132.832 333.688 142.317 313.615C143.126 320.967 140.509 337.967 123.568 347.143C110.268 354.347 105.978 358.306 105.211 360.067Z" fill="#2A1D57"/>
<path d="M105.211 388.739C105.219 389.093 105.236 389.418 105.26 389.711C105.055 389.537 105.001 389.22 105.211 388.739C105.116 384.735 106.131 377.091 110.995 372.065C117.612 365.227 132.832 362.359 142.317 342.287C143.126 349.639 140.509 366.639 123.568 375.815C110.268 383.019 105.978 386.978 105.211 388.739Z" fill="#2A1D57"/>
<path d="M105.211 468.739C105.219 469.093 105.236 469.418 105.26 469.711C105.055 469.537 105.001 469.22 105.211 468.739C105.116 464.735 106.131 457.091 110.995 452.065C117.612 445.227 132.832 442.359 142.317 422.287C143.126 429.639 140.509 446.639 123.568 455.815C110.268 463.019 105.978 466.978 105.211 468.739Z" fill="#2A1D57"/>
<path d="M98.8753 398.303C98.8669 398.657 98.8498 398.983 98.8259 399.276C99.0313 399.102 99.0853 398.785 98.8753 398.303C98.9704 394.3 97.9545 386.655 93.0909 381.629C86.4735 374.791 71.2535 371.924 61.7685 351.851C60.9597 359.204 63.5773 376.203 80.5178 385.379C93.818 392.584 98.1082 396.543 98.8753 398.303Z" fill="#2A1D57"/>
<path d="M48.2479 395.418C48.2389 395.795 48.2207 396.141 48.1953 396.452C48.4136 396.267 48.471 395.93 48.2479 395.418C48.3489 391.165 47.2694 383.041 42.1013 377.701C35.0697 370.435 18.8971 367.388 8.81848 346.059C7.95906 353.872 10.7404 371.935 28.7413 381.686C42.874 389.341 47.4327 393.548 48.2479 395.418Z" fill="#2A1D57"/>
<path d="M98.8753 459.549C98.8669 459.903 98.8498 460.229 98.8259 460.522C99.0313 460.348 99.0853 460.031 98.8753 459.549C98.9704 455.546 97.9545 447.901 93.0909 442.875C86.4735 436.037 71.2535 433.17 61.7685 413.097C60.9597 420.45 63.5773 437.449 80.5178 446.625C93.818 453.83 98.1082 457.789 98.8753 459.549Z" fill="#2A1D57"/>
<path d="M48.2479 460.498C48.2389 460.874 48.2207 461.22 48.1953 461.532C48.4136 461.347 48.471 461.01 48.2479 460.498C48.3489 456.244 47.2694 448.121 42.1013 442.781C35.0697 435.515 18.8971 432.468 8.81848 411.139C7.95906 418.952 10.7404 437.015 28.7413 446.765C42.874 454.421 47.4327 458.628 48.2479 460.498Z" fill="#2A1D57"/>
<path d="M101.59 317.469V468.912" stroke="#2A1D57" stroke-width="2.16477"/>
<circle cx="101.59" cy="313.614" r="6.17826" fill="#2A1D57"/>
<path d="M51.1318 360.041L51.1318 470.447" stroke="#2A1D57" stroke-width="2.16477"/>
<circle cx="51.1323" cy="359.434" r="6.56496" fill="#2A1D57"/>
<circle cx="101.59" cy="297.409" r="4.53698" fill="#2A1D57"/>
<circle cx="83.8482" cy="346.724" r="6.17826" fill="#2A1D57"/>
<circle cx="101.59" cy="285.527" r="3.1108" fill="#2A1D57"/>
<circle cx="101.59" cy="274.28" r="2.3187" fill="#2A1D57"/>
<circle cx="118.706" cy="433.062" r="6.17826" fill="#2A1D57"/>
<circle cx="51.1325" cy="346.048" r="4.82095" fill="#2A1D57"/>
<circle cx="51.1327" cy="335.922" r="3.30551" fill="#2A1D57"/>
<circle cx="51.1318" cy="328.152" r="2.46383" fill="#2A1D57"/>
<path d="M126.224 469.844H27.3072L7.25195 496.358L41.5838 546.326H110.587L146.959 496.358L126.224 469.844Z" fill="#2A1D57"/>
<mask id="mask0_401_16232" style="mask-type:alpha" maskUnits="userSpaceOnUse" x="7" y="469" width="140" height="78">
<path d="M126.224 469.844H27.3072L7.25195 496.358L41.5838 546.326H110.587L146.959 496.358L126.224 469.844Z" fill="#2A1D57"/>
</mask>
<g mask="url(#mask0_401_16232)">
<rect x="-4.64551" y="491.939" width="155.683" height="8.83765" fill="white"/>
</g>
</svg>
