<svg width="65" height="65" xmlns="http://www.w3.org/2000/svg"><g fill-rule="nonzero" fill="none"><path d="M21 10.5H4A2.5 2.5 0 001.5 13v17A2.5 2.5 0 004 32.5h17a2.5 2.5 0 002.5-2.5V13a2.5 2.5 0 00-2.5-2.5zm-2.5 5v12h-12v-12h12z" fill="#7962BE"/><path d="M21 35.5H4A2.5 2.5 0 001.5 38v16A2.5 2.5 0 004 56.5h17a2.5 2.5 0 002.5-2.5V38a2.5 2.5 0 00-2.5-2.5zm-2.5 5v11h-12v-11h12z" fill="#3B2969"/><path d="M51 18a2 2 0 01.15 3.995L51 22H30a2 2 0 01-.15-3.995L30 18h21zM51 41a2 2 0 01.15 3.995L51 45H30a2 2 0 01-.15-3.995L30 41h21zM62 12a2 2 0 01.15 3.995L62 16H30a2 2 0 01-.15-3.995L30 12h32zM62 35a2 2 0 01.15 3.995L62 39H30a2 2 0 01-.15-3.995L30 35h32zM36 52a2 2 0 01.15 3.995L36 56h-6a2 2 0 01-.15-3.995L30 52h6z" fill="#FFF"/></g></svg>