<svg width="455" height="344" viewBox="0 0 455 344" fill="none" xmlns="http://www.w3.org/2000/svg">
<path d="M159.5 16.2584C148.159 6.70237 144.71 9.86139 134.5 10.2584L118 10.2393L0.5 137.758V270.758H263.5L454.5 63.2584L451.5 59.2584L438.5 38.7584L447.97 26.2584V13.0857L405.5 0.758423L393 13.0857L352 0.758423L334 19.2584L290 0.758423L270.5 23.2584L263.5 0.758423L245.5 20.2584L226.5 0.758423L215.5 11.2584L173.5 1.25842L159.5 16.2584Z" fill="#F06B55"/>
<path d="M324 97.1124L341 106.612L367 109.612L355 123.112L365 134.112L341.5 159.112L367.5 158.612L197.5 343.988H0V269.612L162 97.1124L201.5 100.726L203.928 109.691L215.5 97.1124H245.5L253 107.874L259 109.958L271.5 97.1124H313.5V109.612L324 97.1124Z" fill="#FCB66E"/>
<path d="M136.956 27.2801H162.206V56.5265C162.206 57.6601 161.979 58.6236 161.526 59.4171C161.129 60.1539 160.421 60.7774 159.4 61.2875C155.603 62.9879 150.927 63.8381 145.372 63.8381C138.571 63.8381 132.506 62.4778 127.178 59.7572C121.907 56.9799 117.77 53.1824 114.766 48.3647C111.818 43.4903 110.345 38.0208 110.345 31.9561C110.345 25.8915 111.762 20.4503 114.596 15.6325C117.486 10.7582 121.482 6.96066 126.583 4.24006C131.741 1.46279 137.607 0.0741577 144.182 0.0741577C150.814 0.0741577 156.538 1.15106 161.356 3.30486V17.1629C159.315 15.9159 156.878 14.9524 154.044 14.2723C151.267 13.5921 148.405 13.252 145.457 13.252C139.846 13.252 135.113 14.7824 131.259 17.843C127.462 20.847 125.563 25.5514 125.563 31.9561C125.563 38.5309 127.575 43.3486 131.599 46.4093C135.624 49.4699 140.668 51.0003 146.733 51.0003L149.028 50.9153V39.2677H136.956V27.2801Z" fill="white"/>
<path d="M216.19 0.924341V13.7621H187.283V24.8146H213.724V37.5673H187.283V50.2351H216.19V62.9879H173.255V0.924341H216.19Z" fill="white"/>
<path d="M226.392 0.924341H239.57L255.298 24.7295C258.982 30.2841 261.986 35.2152 264.31 39.5228C263.743 33.9682 263.46 29.0371 263.46 24.7295V0.924341H277.488V62.9879H264.31L249.602 40.713C244.897 33.4014 241.497 28.0453 239.4 24.6445C240.08 30.5958 240.42 35.867 240.42 40.458V62.9879H226.392V0.924341Z" fill="white"/>
<path d="M311.258 0.924341C317.153 0.924341 322.509 2.28464 327.327 5.00523C332.144 7.72583 335.942 11.4666 338.719 16.2277C341.553 20.932 342.97 26.2032 342.97 32.0411C342.97 37.8791 341.553 43.1502 338.719 47.8546C335.942 52.5589 332.144 56.2714 327.327 58.992C322.509 61.6559 317.153 62.9879 311.258 62.9879H289.408V0.924341H311.258ZM311.258 50.2351C314.432 50.2351 317.266 49.4983 319.76 48.0246C322.254 46.551 324.209 44.4538 325.626 41.7332C327.043 39.0127 327.752 35.782 327.752 32.0411C327.752 28.3003 327.043 25.0696 325.626 22.349C324.209 19.5717 322.254 17.4463 319.76 15.9726C317.266 14.499 314.432 13.7621 311.258 13.7621H303.436V50.2351H311.258Z" fill="white"/>
<path d="M395.276 0.924341V13.7621H366.37V24.8146H392.811V37.5673H366.37V50.2351H395.276V62.9879H352.342V0.924341H395.276Z" fill="white"/>
<path d="M438.806 62.9879L426.053 40.9681H419.507V62.9879H405.479V0.924341H430.304C434.782 0.924341 438.806 1.68951 442.377 3.21984C445.947 4.6935 448.753 6.93232 450.794 9.93631C452.834 12.9403 453.854 16.5961 453.854 20.9037C453.854 25.6081 452.636 29.5473 450.198 32.7213C447.818 35.8386 444.53 38.0774 440.336 39.4377L454.364 62.9879H438.806ZM419.507 13.337V28.6404H430.304C432.968 28.6404 435.15 27.9886 436.85 26.685C438.551 25.3813 439.401 23.4543 439.401 20.9037C439.401 18.3531 438.551 16.4544 436.85 15.2075C435.15 13.9605 432.968 13.337 430.304 13.337H419.507Z" fill="white"/>
<path d="M204.618 96.9244V109.762H175.712V120.815H202.152V133.567H175.712V158.988H161.684V96.9244H204.618Z" fill="white"/>
<path d="M248.147 158.988L235.395 136.968H228.848V158.988H214.82V96.9244H239.646C244.123 96.9244 248.147 97.6895 251.718 99.2199C255.289 100.694 258.095 102.932 260.135 105.936C262.176 108.94 263.196 112.596 263.196 116.904C263.196 121.608 261.977 125.547 259.54 128.721C257.159 131.839 253.872 134.077 249.678 135.438L263.706 158.988H248.147ZM228.848 109.337V124.64H239.646C242.31 124.64 244.492 123.989 246.192 122.685C247.892 121.381 248.743 119.454 248.743 116.904C248.743 114.353 247.892 112.454 246.192 111.207C244.492 109.961 242.31 109.337 239.646 109.337H228.848Z" fill="white"/>
<path d="M313.88 96.9244V109.762H284.974V120.815H311.415V133.567H284.974V146.235H313.88V158.988H270.946V96.9244H313.88Z" fill="white"/>
<path d="M367.017 96.9244V109.762H338.11V120.815H364.551V133.567H338.11V146.235H367.017V158.988H324.082V96.9244H367.017Z" fill="white"/>
</svg>
