<svg xmlns="http://www.w3.org/2000/svg" fill="none" viewBox="32.78 35.8 34.71 31.55"><path d="M59.6 43.689v-3.156a3.156 3.156 0 0 0-3.156-3.155H37.512a3.156 3.156 0 0 0-3.156 3.155v11.044a3.155 3.155 0 0 0 3.156 3.155h12.621M46.977 61.044v-6.248 4.97M42.245 61.044h7.889M62.755 50H59.6a3.155 3.155 0 0 0-3.156 3.155v9.466a3.155 3.155 0 0 0 3.156 3.155h3.155a3.155 3.155 0 0 0 3.155-3.155v-9.466a3.155 3.155 0 0 0-3.155-3.156Z" stroke="#5E2B9D" stroke-width="3.155" stroke-linecap="round" stroke-linejoin="round"/></svg>