<svg width="438" height="252" viewBox="0 0 438 252" fill="none" xmlns="http://www.w3.org/2000/svg">
<path d="M356.306 150.761C355.68 153.269 355.367 155.672 355.367 157.97C355.367 164.866 358.809 168.313 365.692 168.313C371.741 168.313 378.207 165.701 385.09 160.478C392.182 155.045 398.126 147.313 402.924 137.284C407.721 127.254 410.12 115.657 410.12 102.493C410.12 87.0299 406.469 73.3433 399.169 61.4328C392.077 49.5224 381.857 40.3284 368.508 33.8508C355.367 27.1642 339.828 23.8209 321.89 23.8209C300.615 23.8209 280.696 28.8358 262.133 38.8657C243.569 48.6866 228.656 62.6866 217.392 80.8657C206.338 99.0448 200.81 119.836 200.81 143.239C200.81 159.955 204.46 174.687 211.761 187.433C219.269 200.179 229.907 210.104 243.673 217.209C257.439 224.313 273.396 227.866 291.542 227.866C303.64 227.866 315.425 226.507 326.896 223.791C338.577 221.284 349.006 217.627 358.183 212.821V237.896C337.117 247.298 313.756 252 288.101 252C265.365 252 245.238 247.507 227.717 238.522C210.405 229.537 196.951 217.104 187.357 201.224C177.762 185.134 172.965 166.746 172.965 146.06C172.965 116.597 180.057 90.791 194.24 68.6418C208.423 46.4925 227.091 29.5672 250.243 17.8657C273.604 5.95523 298.634 0 325.332 0C347.859 0 367.674 4.28358 384.777 12.8507C401.881 21.209 415.021 33.0149 424.199 48.2687C433.376 63.3134 437.965 80.6567 437.965 100.299C437.965 120.358 433.793 137.597 425.45 152.015C417.107 166.433 406.678 177.403 394.163 184.925C381.857 192.239 369.655 195.896 357.558 195.896C346.503 195.896 337.847 193.493 331.589 188.687C325.541 183.672 321.995 176.776 320.952 168C313.443 174.896 305.308 180.642 296.548 185.239C287.996 189.627 279.757 191.821 271.831 191.821C259.942 191.821 250.452 187.746 243.36 179.597C236.269 171.448 232.723 160.373 232.723 146.373C232.723 126.731 236.894 109.701 245.238 95.2836C253.789 80.8657 265.053 69.8955 279.027 62.3731C293.211 54.8508 308.541 51.0896 325.019 51.0896C333.362 51.0896 341.81 52.2388 350.362 54.5373C359.122 56.6269 367.361 59.5522 375.078 63.3134L356.306 150.761ZM269.016 140.418C269.016 147.94 270.371 153.582 273.083 157.343C275.794 161.104 279.445 162.985 284.033 162.985C289.665 162.985 295.401 161.418 301.241 158.284C307.29 154.94 314.59 149.821 323.142 142.925L336.282 82.1194C331.902 80.8657 326.896 80.2388 321.265 80.2388C310.836 80.2388 301.658 83.0597 293.732 88.7015C285.806 94.3433 279.653 101.866 275.273 111.269C271.101 120.463 269.016 130.179 269.016 140.418Z" fill="#EBD4D1"/>
<path d="M348.306 150.761C347.68 153.269 347.367 155.672 347.367 157.97C347.367 164.866 350.809 168.313 357.692 168.313C363.741 168.313 370.207 165.701 377.09 160.478C384.182 155.045 390.126 147.313 394.924 137.284C399.721 127.254 402.12 115.657 402.12 102.493C402.12 87.0299 398.469 73.3433 391.169 61.4328C384.077 49.5224 373.857 40.3284 360.508 33.8508C347.367 27.1642 331.828 23.8209 313.89 23.8209C292.615 23.8209 272.696 28.8358 254.133 38.8657C235.569 48.6866 220.656 62.6866 209.392 80.8657C198.338 99.0448 192.81 119.836 192.81 143.239C192.81 159.955 196.46 174.687 203.761 187.433C211.269 200.179 221.907 210.104 235.673 217.209C249.439 224.313 265.396 227.866 283.542 227.866C295.64 227.866 307.425 226.507 318.896 223.791C330.577 221.284 341.006 217.627 350.183 212.821V237.896C329.117 247.298 305.756 252 280.101 252C257.365 252 237.238 247.507 219.717 238.522C202.405 229.537 188.951 217.104 179.357 201.224C169.762 185.134 164.965 166.746 164.965 146.06C164.965 116.597 172.057 90.791 186.24 68.6418C200.423 46.4925 219.091 29.5672 242.243 17.8657C265.604 5.95523 290.634 0 317.332 0C339.859 0 359.674 4.28358 376.777 12.8507C393.881 21.209 407.021 33.0149 416.199 48.2687C425.376 63.3134 429.965 80.6567 429.965 100.299C429.965 120.358 425.793 137.597 417.45 152.015C409.107 166.433 398.678 177.403 386.163 184.925C373.857 192.239 361.655 195.896 349.558 195.896C338.503 195.896 329.847 193.493 323.589 188.687C317.541 183.672 313.995 176.776 312.952 168C305.443 174.896 297.308 180.642 288.548 185.239C279.996 189.627 271.757 191.821 263.831 191.821C251.942 191.821 242.452 187.746 235.36 179.597C228.269 171.448 224.723 160.373 224.723 146.373C224.723 126.731 228.894 109.701 237.238 95.2836C245.789 80.8657 257.053 69.8955 271.027 62.3731C285.211 54.8508 300.541 51.0896 317.019 51.0896C325.362 51.0896 333.81 52.2388 342.362 54.5373C351.122 56.6269 359.361 59.5522 367.078 63.3134L348.306 150.761ZM261.016 140.418C261.016 147.94 262.371 153.582 265.083 157.343C267.794 161.104 271.445 162.985 276.033 162.985C281.665 162.985 287.401 161.418 293.241 158.284C299.29 154.94 306.59 149.821 315.142 142.925L328.282 82.1194C323.902 80.8657 318.896 80.2388 313.265 80.2388C302.836 80.2388 293.658 83.0597 285.732 88.7015C277.806 94.3433 271.653 101.866 267.273 111.269C263.101 120.463 261.016 130.179 261.016 140.418Z" fill="white"/>
<path d="M38.1155 97.8792L25.8297 73.4101L25.3861 81.6347C25.2496 84.0236 25.1244 86.4011 25.0107 88.7672C24.9197 91.1106 24.7377 93.3517 24.4646 95.4903C24.1916 97.6062 23.7593 99.5742 23.1678 101.394C22.599 103.214 21.7572 104.796 20.6424 106.138C19.5503 107.458 18.117 108.493 16.3424 109.244C14.5905 109.994 12.395 110.37 9.75586 110.37C8.59554 110.37 7.48072 110.279 6.4114 110.097C5.34209 109.892 4.3979 109.619 3.57885 109.278C2.7598 108.936 2.11139 108.538 1.63361 108.083C1.13308 107.605 0.882812 107.093 0.882812 106.547C0.882812 106.138 0.939691 105.728 1.05345 105.319C1.16721 104.887 1.33784 104.5 1.56535 104.159C1.79287 103.795 2.07726 103.51 2.41853 103.305C2.73705 103.078 3.10107 102.964 3.5106 102.964C3.76086 102.964 3.977 103.089 4.15901 103.34C4.36378 103.59 4.56854 103.908 4.7733 104.295C4.97806 104.659 5.20558 105.057 5.45584 105.49C5.72886 105.922 6.07013 106.331 6.47966 106.718C6.91193 107.082 7.42384 107.389 8.01538 107.64C8.60691 107.89 9.34633 108.015 10.2336 108.015C11.9855 108.015 13.453 107.719 14.636 107.128C15.8419 106.513 16.8315 105.637 17.6051 104.5C18.3786 103.362 18.9702 101.986 19.3797 100.37C19.7892 98.7551 20.0964 96.9236 20.3011 94.876C20.3921 93.7384 20.4831 92.6464 20.5741 91.5998C20.6652 90.5305 20.7562 89.4725 20.8472 88.426C20.9382 87.3794 21.0178 86.3215 21.0861 85.2522C21.1771 84.1601 21.2681 83.0111 21.3591 81.8053C21.4728 80.0535 21.5752 78.3926 21.6662 76.8228C21.7572 75.2302 21.8255 73.7513 21.871 72.3862C21.9392 71.0212 21.9847 69.7926 22.0075 68.7005C22.053 67.6084 22.0871 66.6643 22.1099 65.868C21.7231 65.0717 21.3818 64.4346 21.0861 63.9568C20.7903 63.4563 20.4831 63.0809 20.1646 62.8307C19.8461 62.5576 19.4935 62.3756 19.1067 62.2846C18.7199 62.1936 18.2535 62.1481 17.7075 62.1481C17.2524 62.1481 16.6837 62.2391 16.0011 62.4211C15.3413 62.5804 14.6474 62.8193 13.9194 63.1378C13.2141 63.4563 12.4974 63.8545 11.7694 64.3322C11.0641 64.7873 10.427 65.3219 9.85824 65.9362C9.31221 66.5278 8.85718 67.1875 8.49316 67.9156C8.15188 68.6436 7.98125 69.4286 7.98125 70.2704C7.98125 70.9984 8.07225 71.5786 8.25427 72.0108C8.45903 72.4431 8.68654 72.773 8.93681 73.0005C9.20982 73.2053 9.47147 73.3418 9.72173 73.4101C9.99475 73.4556 10.1881 73.4783 10.3019 73.4783C10.8707 73.4783 11.3371 73.3873 11.7011 73.2053C12.0651 73.0005 12.395 72.7958 12.6908 72.591C12.9866 72.3635 13.2596 72.1587 13.5098 71.9767C13.7829 71.772 14.09 71.6696 14.4313 71.6696C14.7043 71.6696 14.9887 71.7378 15.2844 71.8743C15.603 71.9881 15.8874 72.1815 16.1376 72.4545C16.4106 72.7275 16.6382 73.0915 16.8202 73.5466C17.0022 73.9788 17.0932 74.5135 17.0932 75.1505C17.0932 76.0606 16.9112 76.8455 16.5471 77.5053C16.2059 78.1651 15.7509 78.7225 15.1821 79.1775C14.636 79.6098 13.999 79.9397 13.2709 80.1672C12.5657 80.372 11.8604 80.4744 11.1551 80.4744C10.063 80.4744 9.07332 80.2924 8.18601 79.9283C7.32146 79.5416 6.58204 79.0183 5.96775 78.3585C5.35346 77.6987 4.88706 76.9251 4.56854 76.0378C4.25002 75.1505 4.09076 74.2064 4.09076 73.2053C4.09076 70.8391 4.63679 68.7801 5.72886 67.0283C6.82093 65.2537 8.25427 63.7748 10.0289 62.5918C11.8035 61.4087 13.8056 60.5328 16.0352 59.964C18.2876 59.3724 20.5741 59.0767 22.8948 59.0767C24.7604 59.0767 26.3189 59.2701 27.5702 59.6568C28.8215 60.0209 29.8681 60.5214 30.7099 61.1584C31.5517 61.7727 32.2456 62.5008 32.7916 63.3426C33.3377 64.1844 33.8382 65.0717 34.2932 66.0045L43.3028 84.2966C45.6462 79.6781 47.7734 75.5487 49.6846 71.9085C51.6184 68.2455 53.4044 65.0262 55.0425 62.2505C56.6806 59.4748 58.205 57.1087 59.6155 55.1521C61.0489 53.1954 62.4253 51.6028 63.7449 50.3743C65.0873 49.1229 66.4068 48.2129 67.7037 47.6441C69.0233 47.0753 70.3883 46.7909 71.7989 46.7909C73.0048 46.7909 73.9831 47.0526 74.7339 47.5758C75.4846 48.0764 75.86 48.8385 75.86 49.8624C75.86 50.7724 75.7122 51.5232 75.4164 52.1147C75.1206 52.7063 74.7111 53.002 74.1878 53.002C73.7555 53.002 73.4257 52.8428 73.1981 52.5243C72.9706 52.183 72.7431 51.819 72.5156 51.4322C72.3108 51.0454 72.0492 50.6928 71.7307 50.3743C71.4121 50.033 70.9457 49.8624 70.3315 49.8624C69.9674 49.8624 69.5238 49.9647 69.0005 50.1695C68.4772 50.3743 67.9312 50.6814 67.3624 51.0909C66.8164 51.5005 66.2703 52.0124 65.7243 52.6266C65.1783 53.2409 64.7005 53.9576 64.291 54.7767C63.8814 55.5957 63.5629 56.5285 63.3354 57.5751C63.1079 58.6216 63.0396 59.7706 63.1306 61.0219C63.2216 62.4553 63.3468 64.1389 63.506 66.0727C63.6653 67.9838 63.8359 70.0428 64.0179 72.2497C64.2227 74.4339 64.4275 76.6976 64.6322 79.041C64.8597 81.3844 65.0873 83.6937 65.3148 85.9688C65.5423 88.244 65.7584 90.4281 65.9632 92.5212C66.1907 94.6144 66.3955 96.5141 66.5775 98.2205C66.7595 99.9041 66.9301 101.337 67.0894 102.52C67.2486 103.681 67.3738 104.477 67.4648 104.909C67.6013 105.569 67.7833 106.104 68.0108 106.513C68.2383 106.9 68.6479 107.094 69.2394 107.094C69.8537 107.094 70.4338 106.991 70.9799 106.786C71.5259 106.559 72.0151 106.331 72.4473 106.104L72.9934 107.367C72.5838 107.662 72.0606 108.004 71.4235 108.39C70.8092 108.754 70.0926 109.107 69.2735 109.448C68.4772 109.79 67.5899 110.074 66.6116 110.301C65.656 110.529 64.6209 110.643 63.506 110.643C61.9362 110.643 60.6962 110.449 59.7862 110.063C58.8761 109.653 58.1708 109.164 57.6703 108.595C57.1925 108.004 56.8626 107.389 56.6806 106.752C56.5214 106.092 56.3962 105.501 56.3052 104.978C56.1005 103.817 55.8843 102.418 55.6568 100.78C55.4293 99.1419 55.2018 97.39 54.9743 95.5244C54.7695 93.636 54.5647 91.7022 54.36 89.7228C54.1552 87.7207 53.9618 85.7754 53.7798 83.8871C53.6206 81.976 53.4727 80.1786 53.3362 78.495C53.1997 76.8114 53.0859 75.3439 52.9949 74.0926C52.3124 75.2074 51.6753 76.2881 51.0838 77.3347C50.515 78.3585 49.9576 79.4164 49.4115 80.5085C48.8655 81.5778 48.3081 82.704 47.7393 83.8871C47.1705 85.0701 46.5676 86.3556 45.9306 87.7434C45.3163 89.1313 44.6338 90.6556 43.883 92.3165C43.1549 93.9773 42.3472 95.8316 41.4599 97.8792H38.1155Z" fill="#5E2B9D"/>
<path d="M74.4608 92.6236C74.4608 89.6432 74.8931 87.0381 75.7577 84.8085C76.6222 82.5561 77.7712 80.6791 79.2045 79.1775C80.6606 77.6759 82.3442 76.5497 84.2553 75.799C86.1664 75.0482 88.1686 74.6728 90.2617 74.6728C92.3548 74.6728 94.3569 75.0254 96.2681 75.7307C98.1792 76.4132 99.8514 77.4712 101.285 78.9045C102.741 80.3379 103.901 82.158 104.766 84.3649C105.63 86.549 106.063 89.1426 106.063 92.1458C106.063 95.1263 105.63 97.7654 104.766 100.063C103.901 102.361 102.741 104.295 101.285 105.865C99.8514 107.435 98.1792 108.629 96.2681 109.448C94.3569 110.245 92.3548 110.643 90.2617 110.643C88.1686 110.643 86.1664 110.267 84.2553 109.517C82.3442 108.743 80.6606 107.605 79.2045 106.104C77.7712 104.602 76.6222 102.725 75.7577 100.473C74.8931 98.2205 74.4608 95.604 74.4608 92.6236ZM95.449 92.2823C95.449 90.4622 95.3808 88.7104 95.2442 87.0268C95.1305 85.3204 94.8916 83.8074 94.5276 82.4879C94.1636 81.1683 93.6403 80.1217 92.9577 79.3482C92.2752 78.5519 91.3765 78.1537 90.2617 78.1537C89.1469 78.1537 88.2482 78.5746 87.5657 79.4164C86.8831 80.2355 86.3598 81.3275 85.9958 82.6926C85.6318 84.035 85.3929 85.5707 85.2791 87.2998C85.1654 89.0289 85.1085 90.8035 85.1085 92.6236C85.1085 94.4437 85.1654 96.2297 85.2791 97.9816C85.3929 99.7107 85.6318 101.258 85.9958 102.623C86.3598 103.988 86.8831 105.091 87.5657 105.933C88.2482 106.752 89.1469 107.162 90.2617 107.162C91.3765 107.162 92.2752 106.729 92.9577 105.865C93.6403 105 94.1636 103.863 94.5276 102.452C94.8916 101.042 95.1305 99.449 95.2442 97.6744C95.3808 95.8998 95.449 94.1024 95.449 92.2823Z" fill="#5E2B9D"/>
<path d="M123.536 77.6077V102.828C123.536 104.033 123.763 104.875 124.218 105.353C124.673 105.808 125.299 106.036 126.095 106.036C126.709 106.036 127.255 105.865 127.733 105.524C128.211 105.182 128.621 104.796 128.962 104.363C129.371 103.886 129.724 103.328 130.02 102.691L131.078 103.169C130.736 103.897 130.327 104.693 129.849 105.558C129.394 106.422 128.78 107.23 128.006 107.981C127.233 108.709 126.254 109.323 125.071 109.824C123.911 110.324 122.444 110.574 120.669 110.574C119.668 110.574 118.701 110.427 117.768 110.131C116.858 109.835 116.039 109.369 115.311 108.732C114.606 108.095 114.037 107.298 113.605 106.343C113.172 105.387 112.956 104.238 112.956 102.896V77.6077H109.134V75.1505C109.771 75.1505 110.658 74.9913 111.796 74.6728C112.933 74.3315 114.094 73.7741 115.277 73.0005C116.483 72.227 117.597 71.1918 118.621 69.895C119.645 68.5981 120.373 66.9942 120.805 65.083H123.536V75.1505H129.098C130.918 75.1505 131.828 74.8434 131.828 74.2291C131.828 74.0016 131.715 73.8537 131.487 73.7854C131.26 73.6944 130.998 73.5921 130.702 73.4783C130.429 73.3418 130.179 73.1598 129.951 72.9323C129.724 72.7048 129.61 72.3294 129.61 71.8061C129.61 71.169 129.804 70.6685 130.19 70.3045C130.6 69.9405 131.123 69.7585 131.76 69.7585C132.17 69.7585 132.522 69.8495 132.818 70.0315C133.137 70.1907 133.398 70.4182 133.603 70.714C133.808 70.987 133.956 71.3055 134.047 71.6696C134.161 72.0336 134.217 72.3976 134.217 72.7616C134.217 74.2405 133.785 75.4236 132.921 76.3109C132.079 77.1754 130.714 77.6077 128.825 77.6077H123.536Z" fill="#5E2B9D"/>
<path d="M146.571 81.1569C147.413 79.9511 148.369 78.8704 149.438 77.9148C149.87 77.5053 150.348 77.1072 150.871 76.7204C151.417 76.3336 151.986 75.9923 152.578 75.6966C153.192 75.378 153.829 75.1278 154.489 74.9458C155.171 74.7638 155.865 74.6728 156.571 74.6728C158.095 74.6728 159.46 74.9685 160.666 75.5601C161.872 76.1516 162.884 77.1413 163.703 78.5291C164.522 79.917 165.148 81.7598 165.58 84.0577C166.012 86.3328 166.229 89.1654 166.229 92.5554C166.229 95.8543 165.933 98.721 165.341 101.155C164.75 103.59 163.976 105.66 163.021 107.367C162.065 109.073 160.984 110.461 159.779 111.53C158.573 112.622 157.356 113.475 156.127 114.09C154.898 114.704 153.715 115.125 152.578 115.352C151.44 115.603 150.462 115.739 149.643 115.762L149.302 114.363C150.325 114.112 151.235 113.646 152.032 112.963C152.828 112.281 153.499 111.166 154.045 109.619C154.591 108.049 155.001 105.945 155.274 103.305C155.57 100.666 155.717 97.2649 155.717 93.1014C155.717 90.2347 155.581 87.9482 155.308 86.2418C155.058 84.5127 154.716 83.2045 154.284 82.3172C153.875 81.4072 153.397 80.8156 152.851 80.5426C152.327 80.2468 151.793 80.099 151.247 80.099C150.587 80.099 150.007 80.281 149.506 80.645C149.006 80.9863 148.562 81.3844 148.175 81.8394C147.811 82.2945 147.493 82.7495 147.22 83.2045C146.97 83.6596 146.753 84.0008 146.571 84.2283V107.025C146.571 107.321 146.526 107.685 146.435 108.117C146.344 108.527 146.116 108.925 145.752 109.312C145.411 109.676 144.888 109.983 144.182 110.233C143.5 110.506 142.556 110.643 141.35 110.643C140.144 110.643 139.189 110.495 138.483 110.199C137.778 109.926 137.243 109.596 136.879 109.209C136.538 108.823 136.322 108.424 136.231 108.015C136.14 107.605 136.094 107.276 136.094 107.025V63.0013C136.094 62.3415 135.935 61.7727 135.617 61.2949C135.321 60.7944 134.809 60.5441 134.081 60.5441C133.694 60.5441 133.353 60.6124 133.057 60.7489C132.784 60.8627 132.488 61.0447 132.17 61.2949L131.487 60.4759C132.011 60.0436 132.591 59.6227 133.228 59.2132C133.865 58.7809 134.559 58.4055 135.309 58.087C136.083 57.7685 136.902 57.5068 137.767 57.3021C138.631 57.0973 139.541 56.9949 140.497 56.9949C141.976 56.9949 143.125 57.1997 143.944 57.6092C144.763 57.996 145.366 58.4851 145.752 59.0767C146.139 59.6455 146.367 60.2597 146.435 60.9195C146.526 61.5566 146.571 62.1254 146.571 62.6259V81.1569Z" fill="#5E2B9D"/>
<path d="M182.098 94.4323C182.098 95.1604 182.2 95.9567 182.405 96.8212C182.632 97.663 182.951 98.5162 183.36 99.3808C183.77 100.245 184.27 101.076 184.862 101.872C185.476 102.646 186.17 103.34 186.944 103.954C187.74 104.568 188.616 105.057 189.572 105.421C190.527 105.785 191.574 105.967 192.711 105.967C193.508 105.967 194.247 105.876 194.93 105.694C195.612 105.512 196.249 105.262 196.841 104.943C197.432 104.625 198.001 104.261 198.547 103.851C199.093 103.419 199.639 102.964 200.185 102.486L201.038 103.305C200.515 104.011 199.844 104.784 199.025 105.626C198.206 106.468 197.216 107.264 196.056 108.015C194.895 108.743 193.542 109.357 191.995 109.858C190.447 110.336 188.684 110.574 186.705 110.574C184.726 110.574 182.792 110.222 180.903 109.517C179.038 108.788 177.377 107.708 175.921 106.274C174.465 104.841 173.293 103.055 172.406 100.916C171.541 98.7779 171.109 96.2752 171.109 93.4085C171.109 91.3382 171.37 89.4384 171.894 87.7093C172.417 85.9802 173.122 84.4217 174.01 83.0339C174.92 81.6461 175.966 80.4289 177.149 79.3823C178.355 78.3357 179.618 77.4712 180.937 76.7886C182.257 76.0833 183.599 75.5601 184.964 75.2188C186.352 74.8548 187.683 74.6728 188.957 74.6728C190.641 74.6728 192.108 74.8548 193.36 75.2188C194.611 75.5828 195.646 76.072 196.465 76.6863C197.307 77.3005 197.933 78.0172 198.342 78.8363C198.752 79.6326 198.956 80.4744 198.956 81.3617C198.956 82.431 198.649 83.3979 198.035 84.2625C197.421 85.1043 196.602 85.8437 195.578 86.4807L182.098 94.4323ZM188.957 87.5045C189.253 87.3225 189.492 87.1519 189.674 86.9926C189.879 86.8106 190.038 86.6059 190.152 86.3783C190.265 86.1281 190.345 85.8323 190.391 85.491C190.459 85.127 190.493 84.6834 190.493 84.1601C190.493 83.5913 190.425 82.9656 190.288 82.2831C190.174 81.5778 189.97 80.918 189.674 80.3037C189.378 79.6894 189.003 79.1775 188.548 78.768C188.093 78.3585 187.547 78.1537 186.91 78.1537C186.091 78.1537 185.385 78.404 184.794 78.9045C184.225 79.3823 183.747 80.008 183.36 80.7815C182.996 81.5551 182.701 82.4424 182.473 83.4434C182.268 84.4217 182.109 85.4114 181.995 86.4125C181.882 87.4135 181.813 88.3805 181.791 89.3133C181.768 90.2233 181.756 90.9969 181.756 91.6339L188.957 87.5045Z" fill="#5E2B9D"/>
<path d="M216.532 81.8736C217.396 80.554 218.318 79.3595 219.296 78.2902C219.706 77.8352 220.149 77.3915 220.627 76.9593C221.105 76.527 221.594 76.1402 222.095 75.799C222.618 75.4577 223.153 75.1847 223.699 74.9799C224.245 74.7751 224.791 74.6728 225.337 74.6728C226.497 74.6728 227.407 75.0254 228.067 75.7307C228.727 76.4132 229.057 77.3802 229.057 78.6315C229.057 79.405 228.988 80.1558 228.852 80.8839C228.738 81.5892 228.499 82.4537 228.135 83.4775H227.18C227.043 82.7723 226.725 82.1921 226.224 81.7371C225.724 81.2593 224.995 81.0204 224.04 81.0204C223.335 81.0204 222.641 81.1569 221.958 81.4299C221.276 81.6802 220.604 81.9987 219.945 82.3855C219.308 82.7723 218.693 83.1932 218.102 83.6482C217.533 84.1032 217.01 84.5355 216.532 84.945V107.094C216.532 107.389 216.486 107.742 216.395 108.151C216.304 108.561 216.077 108.948 215.713 109.312C215.372 109.676 214.848 109.983 214.143 110.233C213.461 110.506 212.516 110.643 211.311 110.643C210.105 110.643 209.149 110.495 208.444 110.199C207.761 109.926 207.238 109.596 206.874 109.209C206.51 108.823 206.282 108.424 206.191 108.015C206.1 107.605 206.055 107.276 206.055 107.025V80.6791C206.055 80.0193 205.896 79.4506 205.577 78.9728C205.281 78.4722 204.769 78.222 204.041 78.222C203.655 78.222 203.325 78.2902 203.052 78.4267C202.779 78.5632 202.483 78.7566 202.164 79.0069L201.448 78.1537C201.971 77.7214 202.551 77.3005 203.188 76.891C203.848 76.4587 204.553 76.0833 205.304 75.7648C206.055 75.4463 206.863 75.1847 207.727 74.9799C208.592 74.7751 209.502 74.6728 210.457 74.6728C211.436 74.6728 212.266 74.8093 212.949 75.0823C213.654 75.3325 214.223 75.6738 214.655 76.1061C215.11 76.5156 215.463 76.982 215.713 77.5053C215.963 78.0286 216.145 78.5632 216.259 79.1093C216.395 79.6326 216.475 80.1445 216.498 80.645C216.521 81.1228 216.532 81.5323 216.532 81.8736Z" fill="#5E2B9D"/>
<path d="M244.38 77.4029C243.856 77.4029 243.356 77.4712 242.878 77.6077C242.423 77.7442 242.014 77.9717 241.65 78.2902C241.285 78.586 241.001 78.9728 240.796 79.4506C240.592 79.9056 240.489 80.4516 240.489 81.0886C240.489 81.976 240.808 82.8633 241.445 83.7506C242.105 84.6151 242.912 85.5252 243.868 86.4807C244.846 87.4135 245.893 88.3918 247.007 89.4157C248.145 90.4167 249.192 91.486 250.147 92.6236C251.125 93.7384 251.933 94.9329 252.57 96.207C253.23 97.481 253.56 98.8461 253.56 100.302C253.56 101.94 253.275 103.396 252.707 104.67C252.161 105.945 251.364 107.025 250.318 107.913C249.294 108.8 248.043 109.482 246.564 109.96C245.108 110.415 243.481 110.643 241.684 110.643C240.114 110.643 238.692 110.427 237.418 109.994C236.144 109.539 235.006 108.993 234.005 108.356C233.027 107.696 232.185 107.002 231.48 106.274C230.774 105.546 230.228 104.887 229.842 104.295L231.036 103.442C231.332 103.783 231.707 104.159 232.162 104.568C232.617 104.955 233.118 105.319 233.664 105.66C234.233 106.001 234.835 106.286 235.472 106.513C236.11 106.718 236.758 106.82 237.418 106.82C239.056 106.82 240.398 106.434 241.445 105.66C242.491 104.864 243.015 103.692 243.015 102.145C243.015 101.281 242.73 100.393 242.161 99.4832C241.593 98.5503 240.876 97.5948 240.011 96.6165C239.147 95.6382 238.214 94.6257 237.213 93.5792C236.212 92.5326 235.279 91.4519 234.415 90.3371C233.55 89.2223 232.833 88.0733 232.265 86.8903C231.696 85.7072 231.411 84.4786 231.411 83.2045C231.411 81.7712 231.696 80.5199 232.265 79.4506C232.856 78.3812 233.63 77.4939 234.585 76.7886C235.564 76.0833 236.667 75.5601 237.896 75.2188C239.147 74.8548 240.432 74.6728 241.752 74.6728C243.276 74.6728 244.664 74.8093 245.915 75.0823C247.167 75.3553 248.236 75.7762 249.123 76.345C250.033 76.891 250.727 77.5849 251.205 78.4267C251.706 79.2685 251.956 80.2468 251.956 81.3617C251.956 82.2262 251.671 82.977 251.103 83.6141C250.534 84.2511 249.738 84.5696 248.714 84.5696C247.735 84.5696 246.985 84.3649 246.461 83.9553C245.961 83.523 245.711 82.9429 245.711 82.2148C245.711 81.7371 245.824 81.3617 246.052 81.0886C246.302 80.8156 246.575 80.5995 246.871 80.4402C247.167 80.2582 247.428 80.1103 247.656 79.9966C247.906 79.8601 248.031 79.6894 248.031 79.4847C248.031 78.8476 247.69 78.3471 247.007 77.9831C246.325 77.5963 245.449 77.4029 244.38 77.4029Z" fill="#5E2B9D"/>
<path d="M19.2577 124.321C22.3368 124.321 25.0846 124.847 27.5012 125.9C29.9177 126.952 31.808 128.531 33.1722 130.635C34.5753 132.74 35.2769 135.293 35.2769 138.294C35.2769 141.256 34.5753 143.79 33.1722 145.894C31.808 147.999 29.8982 149.597 27.4427 150.688C25.0262 151.741 22.2979 152.267 19.2577 152.267H12.0666V167H4.23242V124.321H19.2577ZM18.8485 145.193C21.3429 145.193 23.3502 144.628 24.8703 143.497C26.4293 142.367 27.2088 140.633 27.2088 138.294C27.2088 135.956 26.4293 134.241 24.8703 133.149C23.3502 132.019 21.3429 131.454 18.8485 131.454H12.0666V145.193H18.8485Z" fill="#D04F39"/>
<path d="M56.8379 135.605C60.2288 135.605 62.9181 136.618 64.9059 138.645C66.9327 140.633 67.9461 143.458 67.9461 147.122V167H60.5796V147.707C60.5796 145.875 60.0729 144.491 59.0595 143.556C58.0851 142.581 56.7989 142.094 55.2009 142.094C52.9013 142.094 50.6407 142.952 48.419 144.667V167H41.0525V124.321H48.419V138.469C49.5493 137.573 50.8355 136.871 52.2777 136.365C53.7587 135.858 55.2788 135.605 56.8379 135.605Z" fill="#D04F39"/>
<path d="M88.9895 167.585C91.9127 167.585 94.5631 166.922 96.9406 165.597C99.3572 164.233 101.247 162.342 102.612 159.926C104.015 157.47 104.716 154.664 104.716 151.507C104.716 148.35 104.015 145.583 102.612 143.205C101.247 140.789 99.3572 138.918 96.9406 137.593C94.5631 136.267 91.9127 135.605 88.9895 135.605C86.0663 135.605 83.3964 136.267 80.9799 137.593C78.6024 138.918 76.712 140.789 75.3089 143.205C73.9447 145.583 73.2626 148.35 73.2626 151.507C73.2626 154.664 73.9447 157.47 75.3089 159.926C76.712 162.342 78.6024 164.233 80.9799 165.597C83.3964 166.922 86.0663 167.585 88.9895 167.585ZM88.9895 142.094C91.3281 142.094 93.2769 142.952 94.8359 144.667C96.395 146.343 97.1745 148.623 97.1745 151.507C97.1745 154.43 96.395 156.769 94.8359 158.523C93.2769 160.238 91.3281 161.095 88.9895 161.095C86.6509 161.095 84.7021 160.238 83.1431 158.523C81.623 156.769 80.863 154.43 80.863 151.507C80.863 148.623 81.623 146.343 83.1431 144.667C84.7021 142.952 86.6509 142.094 88.9895 142.094Z" fill="#D04F39"/>
<path d="M127.191 135.663C130.387 135.663 132.94 136.677 134.85 138.703C136.76 140.691 137.715 143.517 137.715 147.181V167H130.348V147.765C130.348 145.933 129.861 144.55 128.887 143.614C127.951 142.64 126.724 142.153 125.204 142.153C122.865 142.153 120.526 143.147 118.188 145.134V167H110.821V136.189H117.662V139.405C118.948 138.236 120.409 137.32 122.046 136.657C123.683 135.994 125.398 135.663 127.191 135.663Z" fill="#D04F39"/>
<path d="M171.036 149.11C171.036 150.201 170.743 151.039 170.159 151.624C169.574 152.209 168.775 152.501 167.762 152.501H150.047C150.242 155.463 151.275 157.665 153.146 159.107C155.056 160.549 157.472 161.271 160.395 161.271C163.28 161.271 166.027 160.705 168.639 159.575V166.006C165.793 167.058 162.812 167.585 159.694 167.585C156.615 167.585 153.808 166.981 151.275 165.772C148.78 164.564 146.773 162.732 145.253 160.277C143.772 157.821 143.031 154.82 143.031 151.273C143.031 147.882 143.733 145.017 145.136 142.679C146.539 140.301 148.352 138.528 150.573 137.359C152.834 136.189 155.231 135.605 157.764 135.605C160.181 135.605 162.403 136.131 164.429 137.183C166.456 138.236 168.054 139.795 169.223 141.86C170.432 143.887 171.036 146.304 171.036 149.11ZM157.647 141.276C155.816 141.276 154.257 141.841 152.97 142.971C151.723 144.063 150.866 145.641 150.398 147.707H164.312C164.156 145.719 163.455 144.16 162.208 143.03C160.96 141.86 159.44 141.276 157.647 141.276Z" fill="#D04F39"/>
<path d="M192.367 124.321C195.446 124.321 198.193 124.847 200.61 125.9C203.027 126.952 204.917 128.531 206.281 130.635C207.684 132.74 208.386 135.293 208.386 138.294C208.386 141.256 207.684 143.79 206.281 145.894C204.917 147.999 203.007 149.597 200.552 150.688C198.135 151.741 195.407 152.267 192.367 152.267H185.175V167H177.341V124.321H192.367ZM191.957 145.193C194.452 145.193 196.459 144.628 197.979 143.497C199.538 142.367 200.318 140.633 200.318 138.294C200.318 135.956 199.538 134.241 197.979 133.149C196.459 132.019 194.452 131.454 191.957 131.454H185.175V145.193H191.957Z" fill="#D04F39"/>
<path d="M240.119 149.11C240.119 150.201 239.827 151.039 239.242 151.624C238.658 152.209 237.859 152.501 236.845 152.501H219.131C219.326 155.463 220.359 157.665 222.229 159.107C224.139 160.549 226.556 161.271 229.479 161.271C232.363 161.271 235.111 160.705 237.722 159.575V166.006C234.877 167.058 231.895 167.585 228.777 167.585C225.698 167.585 222.892 166.981 220.359 165.772C217.864 164.564 215.857 162.732 214.337 160.277C212.856 157.821 212.115 154.82 212.115 151.273C212.115 147.882 212.817 145.017 214.22 142.679C215.623 140.301 217.435 138.528 219.657 137.359C221.918 136.189 224.315 135.605 226.848 135.605C229.265 135.605 231.486 136.131 233.513 137.183C235.54 138.236 237.138 139.795 238.307 141.86C239.515 143.887 240.119 146.304 240.119 149.11ZM226.731 141.276C224.899 141.276 223.34 141.841 222.054 142.971C220.807 144.063 219.949 145.641 219.482 147.707H233.396C233.24 145.719 232.539 144.16 231.291 143.03C230.044 141.86 228.524 141.276 226.731 141.276Z" fill="#D04F39"/>
</svg>
