<svg width="414" height="334" viewBox="0 0 414 334" fill="none" xmlns="http://www.w3.org/2000/svg">
<path d="M30.5079 64.7711L31.4134 154.414C17.6844 155.734 6.74685 166.472 5.17445 180.175L4.70162 184.295L0.626953 323.286H94.3444V204.215V196.434C94.3444 175.06 84.4891 154.879 67.6327 141.737V64.7711L35.9408 99.1794V64.7711H30.5079Z" fill="white"/>
<rect x="0.626953" y="317.081" width="93.2647" height="6.33838" fill="#F06B55"/>
<path d="M59.0304 171.851L59.0302 321.821" stroke="black" stroke-width="0.905482"/>
<path d="M41.8496 321.903V128.903" stroke="black" stroke-width="0.905482"/>
<path d="M48.8496 321.904L48.8496 167.903" stroke="black" stroke-width="0.905482"/>
<path d="M12.3984 195.614V100.991H31.4136V191.539C31.4136 193.539 29.792 195.161 27.7916 195.161V205.574H22.3587C16.8578 205.574 12.3984 201.114 12.3984 195.614Z" fill="#F8A07D"/>
<path d="M63.5573 64.8543V50.3666H48.1641V64.8543H45.9004V88.7665L67.632 64.8543H63.5573Z" fill="#F8A07D"/>
<path d="M30.96 103.707H12.8503C12.3503 103.707 11.9449 103.302 11.9449 102.802V77.9009C11.9449 70.3997 18.0258 64.3187 25.5271 64.3187H32.771H33.23H45.4537C45.9514 64.3187 46.3559 64.7204 46.3592 65.2182L47.2581 200.506C47.2585 200.565 47.253 200.624 47.2421 200.681C41.5486 230.686 16.7356 237.846 4.20778 237.738C3.72075 237.734 3.34277 237.333 3.34277 236.846V226.853C3.34277 226.353 3.76173 225.948 4.26172 225.938C29.5601 225.434 35.3329 204.087 35.0347 193.35L34.1355 65.2178C34.132 64.7202 33.7276 64.3187 33.23 64.3187H32.771C32.2709 64.3187 31.8655 64.7241 31.8655 65.2242V102.802C31.8655 103.302 31.4601 103.707 30.96 103.707Z" fill="#F06B55"/>
<path d="M82.5585 64.9034H67.8496V321.903H81.6739L80.3361 101.424L81.6739 105.031L100.85 97.8175L91.9924 71.6683C90.6226 67.6245 86.828 64.9034 82.5585 64.9034Z" fill="#F06B55"/>
<path d="M108.364 118.319L101.135 98.2743L81.6673 105.518L88.0056 121.364L42.3536 164.842C41.2995 165.846 41.2241 167.503 42.1827 168.598L43.637 170.26L38.2041 175.24L43.3427 181.235C46.4321 184.84 51.936 185.051 55.2926 181.694L105.403 131.584C108.877 128.11 110.031 122.941 108.364 118.319Z" fill="#F8A07D"/>
<ellipse cx="41.8263" cy="53.9888" rx="11.3185" ry="13.5822" fill="#2B1F17"/>
<ellipse cx="60.3882" cy="34.9732" rx="19.0151" ry="20.8261" fill="#F8A07D"/>
<circle cx="61.7471" cy="29.9935" r="2.26371" fill="#BC1B19"/>
<path d="M37.7515 33.1623C36.6649 37.5086 40.4679 39.9534 42.2789 40.4061L44.0898 30.8986C40.4679 29.4498 38.2042 31.6531 37.7515 33.1623Z" fill="#F8A07D"/>
<path d="M62.1995 21.391C57.491 31.1702 46.5045 31.5022 41.8262 30.4458C43.9993 15.9581 56.4648 13.5435 62.1995 14.1471C76.6872 16.3203 79.7055 28.9367 79.4037 34.9732C66.2742 34.9732 63.105 25.3148 62.1995 21.391Z" fill="#251913"/>
<rect x="10.5879" y="177.051" width="2.71645" height="22.6371" transform="rotate(-90 10.5879 177.051)" fill="#E8332A"/>
<rect x="52.8457" y="154.084" width="2.71645" height="22.6371" transform="rotate(-44.5 52.8457 154.084)" fill="#E8332A"/>
<path d="M80.1964 101.897C80.1972 101.959 80.2484 102.01 80.3109 102.009C80.3735 102.008 80.4235 101.957 80.4228 101.894L80.1964 101.897ZM79.7521 65.2163L80.1964 101.897L80.4228 101.894L79.9784 65.2136L79.7521 65.2163Z" fill="black"/>
<path d="M122.016 320.566C122.023 318.919 122.453 317.29 123.282 315.772C124.112 314.255 125.323 312.877 126.848 311.719C128.373 310.561 130.182 309.645 132.171 309.024C134.159 308.402 136.289 308.087 138.439 308.096C140.589 308.105 142.716 308.439 144.699 309.077C146.683 309.716 148.483 310.648 149.998 311.819C151.513 312.99 152.713 314.377 153.529 315.902C154.346 317.427 154.762 319.06 154.755 320.706L138.385 320.636L122.016 320.566Z" fill="#CF947B"/>
<path d="M170.006 319.661C170.013 318.014 170.443 316.385 171.273 314.867C172.102 313.349 173.313 311.972 174.839 310.814C176.364 309.656 178.172 308.74 180.161 308.118C182.15 307.497 184.28 307.182 186.429 307.191C188.579 307.2 190.706 307.533 192.69 308.172C194.673 308.811 196.474 309.742 197.989 310.913C199.504 312.084 200.704 313.472 201.52 314.997C202.336 316.522 202.752 318.154 202.745 319.801L186.376 319.731L170.006 319.661Z" fill="#CF947B"/>
<path d="M150.031 295.802L126.941 298.066V317.081H150.031V295.802Z" fill="#CF947B"/>
<path d="M175.838 318.892V296.255H197.117V318.892H175.838Z" fill="#CF947B"/>
<path d="M145.504 51.2756V45.39H155.012V51.2756H185.345V95.2373L138.713 94.3318V51.2756H145.504Z" fill="#CF947B"/>
<ellipse cx="146.083" cy="25.0608" rx="18.3823" ry="20.8012" transform="rotate(15.2279 146.083 25.0608)" fill="#CF947B"/>
<path d="M153.2 37.2406C141.61 34.3431 132.374 22.4511 129.205 17.32C135.091 5.54872 144.598 1.02125 155.917 6.45419C164.519 10.5832 164.972 22.6019 164.066 27.733C172.034 26.6464 174.932 33.7696 175.837 37.2406C178.373 56.799 169.952 60.7832 164.972 60.7832C151.933 58.9722 151.691 44.3336 153.2 37.2406Z" fill="#5C4939"/>
<circle cx="131.469" cy="39.0516" r="3.16919" stroke="#EE8002" stroke-width="1.81096"/>
<path d="M131.469 34.9772C132.601 35.562 132.148 36.8448 131.017 36.8448L133.733 38.5991C133.733 36.8448 135.544 37.4296 135.544 38.5991C135.544 36.2601 132.601 34.3925 131.469 34.9772Z" fill="#9C5A46"/>
<path d="M164.971 21.3949C150.531 23.1278 145.686 34.5718 144.698 43.4227C144.318 46.8299 147.226 49.4648 150.654 49.4648C154.311 49.4648 157.078 46.4548 157.827 42.8758C158.743 38.5001 160.893 36.1375 164.971 35.8826C169.124 35.6231 171.742 38.9902 172.893 43.5851C173.689 46.7637 176.23 49.4648 179.507 49.4648C182.746 49.4648 185.442 46.855 185.096 43.6341C183.204 26.0144 171.269 21.3949 164.971 21.3949Z" fill="#F06B55"/>
<rect x="140.071" y="58.5194" width="45.2741" height="3.62193" fill="#D8C8F0"/>
<path d="M111.548 135.938V125.525H128.752V136.844C126.941 141.869 122.263 141.975 120.15 142.276C113.812 142.276 111.85 138.051 111.548 135.938Z" fill="#CF947B"/>
<path d="M188.967 135.033V124.62H204.813V135.938C204.088 138.836 199.682 141.069 197.569 141.371C191.231 141.371 189.269 137.146 188.967 135.033Z" fill="#CF947B"/>
<path d="M205.266 127.336V74.8183V64.0383C205.266 58.2924 201.634 53.1739 196.211 51.2757V86.5896H181.723C181.723 86.5896 179.007 90.6642 174.932 90.6642H146.862C141.429 90.6642 140.071 86.5896 140.071 86.5896H124.225V51.2757C116.974 51.2757 111.096 57.154 111.096 64.4052V86.5896V127.336H205.266Z" fill="#2A1D57"/>
<path d="M140.071 51.2755H124.225V112.306C124.225 120.992 126.307 129.551 130.298 137.266L131.016 138.655C121.319 150.701 115.807 165.576 115.31 181.033L111.548 298.065H139.381C149.693 298.065 158.628 290.92 160.897 280.861C162.04 290.669 170.349 298.065 180.224 298.065H206.171L205.415 178.652C205.319 163.425 199.439 148.803 188.967 137.749L189.449 136.82C193.301 129.39 195.385 121.172 195.538 112.805L196.663 51.2755H182.628L181.27 101.077C179.006 128.242 144.598 127.789 140.071 105.152V51.2755Z" fill="#D8C8F0"/>
<path d="M188.968 298.971C166.874 301.144 161.502 288.709 160.898 281.314C158.363 295.802 148.221 297.915 144.147 298.066H112.002V282.672H134.639C141.405 282.672 151.39 275.429 152.749 266.374V233.324C150.328 239.779 144.115 243.284 137.222 243.284H113.36L114.266 224.269H136.903C148.674 224.269 151.843 214.61 152.296 208.876C152.296 188.502 152.749 177.636 152.749 157.263C161.079 159.436 160.445 158.621 169.5 155.905C169.5 183.069 167.908 203.304 169.5 208.876C171.311 215.214 175.386 224.269 183.082 224.269H205.719V243.284H181.009C174.316 243.284 171.856 239.167 168.595 233.324L169.5 266.374C169.5 279.503 180.819 282.22 185.346 282.672H206.172V298.066L188.968 298.971Z" fill="#2A1D57"/>
<path d="M131.017 139.153C153.654 166.77 169.952 161.744 188.967 138.202" stroke="black" stroke-width="0.679112"/>
<path d="M112.906 176.731C112.906 176.731 125.13 179.9 136.449 148.661" stroke="#EE8002" stroke-width="3.62193" stroke-linecap="round"/>
<path d="M318.451 84.3822V109.283H336.561V135.542H381.382V107.019H400.397V84.3822C400.397 77.381 394.722 71.7054 387.721 71.7054H331.128C324.127 71.7054 318.451 77.381 318.451 84.3822Z" fill="#3B2968"/>
<path d="M335.656 109.283H318.452L310.302 176.288L308.94 194.678C308.656 198.508 310.125 202.261 312.933 204.882L315.282 207.075L332.486 145.049L335.656 109.283Z" fill="#E6A88F"/>
<path d="M315.107 214.39L313.472 319.355H403.114V283.588L400.851 233.334L413.98 230.165L380.93 135.542H362.368L381.836 71.7054H370.97L335.656 101.586L336.561 135.542L334.949 138.521C322.327 161.845 315.52 187.872 315.107 214.39Z" fill="#53C1C0"/>
<path d="M313.472 283.135L403.114 281.777V318.902H313.472V283.135Z" fill="#3B2968"/>
<line x1="342.9" y1="180.375" x2="339.278" y2="318.914" stroke="black" stroke-width="0.905482"/>
<line x1="354.671" y1="167.686" x2="354.671" y2="318.821" stroke="black" stroke-width="0.905482"/>
<path d="M362.82 168.589L362.82 318.821" stroke="black" stroke-width="0.905482"/>
<path d="M314.377 219.752L316.641 196.662L341.089 167.234L324.79 160.895L329.317 149.124L387.268 172.214L400.851 233.334L387.268 235.597L375.95 180.816L352.86 172.214L314.377 219.752Z" fill="#F6E9DF"/>
<path d="M343.353 59.0287V72.6109V94.7952L371.875 71.7054H365.084V59.0287H343.353Z" fill="#E6A88F"/>
<path d="M336.109 122.412L335.203 101.586L371.422 71.7055L336.109 122.412Z" fill="#F6E9DF"/>
<path d="M361.915 135.542L381.383 71.7054H381.385C388.174 71.7055 389.532 71.7055 391.796 72.1582L374.139 135.542H361.915Z" fill="#F6E9DF"/>
<path d="M399.944 107.019H381.835L380.537 193.945C380.504 196.186 382.311 198.02 384.551 198.02V206.169L390.029 206.522C394.683 206.823 398.639 203.164 398.703 198.501L399.944 107.019Z" fill="#E6A88F"/>
<ellipse cx="346.522" cy="61.8282" rx="11.3185" ry="13.5822" fill="#2B1F17"/>
<ellipse cx="365.083" cy="43.6352" rx="19.0151" ry="21.7316" fill="#E6A88F"/>
<path d="M342.447 41.0016C341.36 45.348 345.163 47.7928 346.974 48.2455L348.785 38.7379C345.163 37.2892 342.9 39.4925 342.447 41.0016Z" fill="#E6A88F"/>
<path d="M366.895 29.2304C362.186 39.0096 351.2 39.3416 346.521 38.2852C348.695 23.7975 361.16 21.3828 366.895 21.9865C381.383 24.1597 384.401 36.7761 384.099 42.8126C370.97 42.8126 367.8 33.1541 366.895 29.2304Z" fill="#251913"/>
<path d="M339.278 47.7102C337.829 49.5212 338.674 50.8794 339.278 51.3322C340.364 49.159 344.56 48.4648 346.522 48.163C342.447 46.3521 341.844 42.7301 342.447 40.9191C339.912 40.5569 339.882 42.4283 340.183 43.6356C338.01 43.6356 337.92 47.2575 339.278 47.7102Z" fill="#BF373B"/>
<rect x="379.572" y="176.741" width="20.8261" height="1.81097" fill="#D9D9D9"/>
<path d="M216.852 186.625L212.963 309.836C245.56 312.009 259.746 306.895 262.764 299.198L289.023 316.855L301.428 280.621C304.599 271.357 305.995 261.579 305.542 251.798L303.964 217.705L301.247 151.152L289.023 131.231V101.803L257.332 63.7727H240.688C234.043 63.7727 227.763 66.813 223.642 72.0256L214.774 83.2405L261.406 131.862L249.308 137.484C230.076 146.42 217.521 165.429 216.852 186.625Z" fill="#F06B55"/>
<line x1="238.769" y1="151.166" x2="237.863" y2="180.142" stroke="black" stroke-width="0.905482"/>
<line x1="259.595" y1="171.072" x2="259.595" y2="204.575" stroke="black" stroke-width="0.905482"/>
<line x1="268.65" y1="151.142" x2="269.555" y2="191.889" stroke="black" stroke-width="0.905482"/>
<path d="M274.988 65.1309L274.536 51.5487L257.784 48.8322V64.6782L279.516 91.3899H289.023V64.6782L274.988 65.1309Z" fill="#F7B896"/>
<path d="M225.64 113.574H243.749V132.137H274.083C275.583 132.137 276.799 133.353 276.799 134.853V136.664H282.685C284.185 136.664 285.401 137.88 285.401 139.381V143.908C285.401 147.909 282.158 151.152 278.158 151.152H231.072C228.072 151.152 225.64 148.719 225.64 145.719V113.574Z" fill="#F7B896"/>
<path d="M215.227 82.7879L206.172 94.5592L245.108 133.495L263.217 133.042L215.227 82.7879Z" fill="#F9B600"/>
<path d="M253.71 52.4544C252.261 51.73 252.201 49.7379 252.352 48.8324C254.615 48.5306 259.233 48.1081 259.595 48.8324C259.958 49.5568 259.444 51.5489 259.143 52.4544C260.954 54.2653 259.897 57.7364 259.143 59.2455C261.678 62.5052 260.501 65.433 259.595 66.4894C261.044 68.3003 259.897 71.7713 259.143 73.2805C260.954 75.4536 259.897 79.0152 259.143 80.5243C261.316 81.9731 260.048 85.6554 259.143 87.3154C260.954 88.7642 259.897 92.4465 259.143 94.1066C261.316 97.0041 260.048 99.8413 259.143 100.898C261.316 102.709 260.048 106.18 259.143 107.689C261.678 109.138 259.897 112.82 258.69 114.48C261.587 116.291 259.897 120.064 258.69 121.724C261.225 124.984 259.746 128.213 258.69 129.42C261.225 132.68 258.841 134.401 257.332 134.853V151.152C259.867 153.687 258.388 155.528 257.332 156.132C262.402 160.116 264.575 171.978 265.028 177.411H246.466C246.466 166.545 250.088 158.698 251.899 156.132C249.726 154.321 250.993 152.057 251.899 151.152V134.853C250.45 133.042 252.2 129.873 253.257 128.515C249.635 125.98 251.748 122.931 253.257 121.724C248.911 118.826 251.446 115.687 253.257 114.48C249.997 111.945 251.899 108.594 253.257 107.236C250.359 104.339 252.351 101.803 253.71 100.898C250.812 98.3623 252.502 95.3139 253.71 94.1066C250.812 91.5712 252.502 88.5228 253.71 87.3154C250.45 84.7801 252.352 81.7316 253.71 80.5243C250.088 77.6268 252.201 74.4878 253.71 73.2805C250.088 70.3829 252.201 67.2439 253.71 66.0366C250.45 63.5013 252.351 60.4528 253.71 59.2455C250.45 56.7101 252.352 53.6617 253.71 52.4544Z" fill="#251913"/>
<path d="M308.038 117.196H289.929V131.684H259.595C258.095 131.684 256.878 132.9 256.878 134.4V137.117H250.993C249.493 137.117 248.276 138.333 248.276 139.833V144.361C248.276 148.361 251.52 151.604 255.52 151.604H302.605C305.606 151.604 308.038 149.172 308.038 146.172V117.196Z" fill="#F7B896"/>
<path d="M289.023 102.256L279.063 90.9372L289.023 84.1461V64.2254H295.814C302.816 64.2254 308.491 69.901 308.491 76.9022V119.007H289.023V102.256Z" fill="#F9B600"/>
<path d="M289.476 210.914V151.605H301.7L303.964 218.61C299.98 245.412 273.479 253.019 260.953 253.471L215.227 252.113V238.984L253.257 240.342C282.957 239.98 289.778 220.572 289.476 210.914Z" fill="#F9B600"/>
<path d="M248.83 300.972C256.526 294.634 261.859 291.502 261.859 282.9V262.526V242.153H274.083C274.083 242.153 275.894 278.825 274.083 291.049C272.272 303.273 263.092 312.033 254.943 316.56C246.793 321.088 212.51 319.119 212.51 319.119V305.989C212.51 305.989 241.133 307.31 248.83 300.972Z" fill="#F9B600"/>
<ellipse cx="18.6636" cy="20.719" rx="18.6636" ry="20.719" transform="matrix(0.934245 -0.356633 0.382117 0.924114 244.654 23.2157)" fill="#F7B896"/>
<path d="M248.291 41.3101C248.878 45.5198 253.256 46.3426 255.082 46.1076L253.279 37.097C249.43 37.0884 248.156 39.822 248.291 41.3101Z" fill="#F7B896"/>
<path d="M251.069 37.4855L251.038 37.4902C247.753 23.965 258.304 17.4742 263.782 15.9987C277.859 12.8421 284.837 22.5818 286.76 28.006C271.819 32.5334 268.65 28.9115 264.123 21.6676C272.028 34.3166 255.785 36.7726 251.069 37.4855Z" fill="#251913"/>
<path d="M268.781 29.9271C269.941 29.269 270.348 27.7953 269.69 26.6354C269.032 25.4755 267.558 25.0688 266.398 25.7269C265.238 26.385 264.832 27.8587 265.49 29.0186C266.148 30.1785 267.622 30.5852 268.781 29.9271ZM267.984 27.6036L263.996 20.5764L263.209 21.0233L267.196 28.0504L267.984 27.6036Z" fill="#FC9021"/>
<path d="M259.142 49.2849C259.142 47.9641 258.665 46.6974 257.816 45.7634C256.967 44.8295 255.815 44.3048 254.614 44.3048C253.414 44.3048 252.262 44.8295 251.413 45.7634C250.564 46.6974 250.087 47.9641 250.087 49.2849L254.614 49.2849H259.142Z" fill="#FC9021"/>
<circle cx="270.914" cy="34.3445" r="1.81097" fill="#CC453A"/>
<path d="M266.839 75.9966C279.516 66.489 277.252 63.7726 274.988 63.7726" stroke="#FC9021" stroke-width="2.71645"/>
<path d="M289.023 317.308C272.724 312.328 269.103 303.726 269.103 303.726C271.819 300.557 274.234 291.351 274.535 286.522C278.145 297.801 287.599 301.437 293.489 303.702L293.551 303.726C293.551 303.726 289.023 315.95 289.023 317.308Z" fill="#F9B600"/>
<rect x="272.725" y="131.231" width="1.81097" height="21.7316" fill="#FC9021"/>
<path d="M269.556 319.571V304.631C270.642 306.442 276.347 311.422 278.158 312.78C290.835 309.158 294.155 315.949 293.551 319.571H269.556Z" fill="#F7B896"/>
<path d="M220.207 320.024C220.207 312.78 238.317 306.894 243.297 320.024L220.207 320.024Z" fill="#F7B896"/>
</svg>
