<svg xmlns="http://www.w3.org/2000/svg" width="2096" height="2244" style="width:100%;height:100%;transform:translate3d(0,0,0);content-visibility:visible"><defs><clipPath id="a"><path d="M0 0h2096v2244H0z"/></clipPath></defs><g clip-path="url(#a)"><path fill="#fff" d="M0 0h2096v2244H0z" style="display:block"/><g style="display:block"><path fill="#FFF" d="m456.506 1682.65 557.64 298.36 562.36-316.08-543.08-285.08-576.92 302.8z"/><path stroke="#713CC1" d="m456.506 1682.65 557.64 298.36 562.36-316.08-543.08-285.08-576.92 302.8z" fill="none" stroke-width="4"/></g><g style="display:block"><path fill="#E4D6F5" d="M456.506 1818.652v-136l557.64 298.36 562.36-316.08v136l-560 316.08-560-298.36z"/><path stroke="#713CC1" d="M456.506 1818.652v-136l557.64 298.36 562.36-316.08v136l-560 316.08-560-298.36z" fill="none" stroke-width="4"/></g><g style="display:block"><path fill="#FFF" d="m636.002 1441.982 386.88 207 390.12-219.32-376.76-197.76-400.24 210.08z"/><path stroke="#713CC1" d="m636.002 1441.982 386.88 207 390.12-219.32-376.76-197.76-400.24 210.08z" fill="none" stroke-width="4"/></g><g style="display:block"><path fill="#C1F0FD" d="M636.002 1442v240l388.52 208.96 388.48-221.28v-240l-388.48 219.28L636.002 1442z"/><path stroke="#713CC1" d="M636.002 1442v240l388.52 208.96 388.48-221.28v-240l-388.48 219.28L636.002 1442z" fill="none" stroke-width="4"/></g><path fill="#9F7CD4" d="M-1.73 25.746c35.34 0 65.73-15.01 65.73-27.99 0-12.98-28.65-23.5-64-23.5s-64 10.52-64 23.5 26.92 27.99 62.27 27.99z" transform="matrix(4 0 0 4 1040 1468.976)" style="display:block"/><path fill="#E4D6F5" d="M-25.867-43.555s1.42 7.68-12.03 22.81c-13.44 15.13-12.17 42.46-12.17 42.46s10.07 22.84 53.34 21.79c43.27-1.04 46.9-24.94 46.9-24.94s-.57-19.92-2.85-26.34c-3.54-9.93-11-14.2-13.61-16.96-7.16-7.54-7.43-18.82-7.43-18.82h-52.15z" transform="matrix(4 0 0 4 1039.693 1343.963)" style="display:block"/><path stroke="#713CC1" d="M50.048 18.832c.08 2.19-1.9 6.59-1.9 6.59s-9.73 17.14-49.12 17.85c-39.39.7-49.08-22.13-49.08-22.13v-3.06s-.03-21.57 5.23-29.54c5.27-7.97 14.52-15.18 16.71-21.27 2.19-6.08 2.12-10.56 2.12-10.56" fill="none" transform="matrix(4 0 0 4 1040.202 1342.895)" style="display:block"/><path stroke="#713CC1" d="M-38.02-31.062h52.14s2.26 15.48 8.64 19.33c6.39 3.86 12.07 14.52 13.15 17.85 1.08 3.32 2.01 24.78 2.01 24.78l.1.16" fill="none" transform="matrix(4 0 0 4 1088.32 1293.987)" style="display:block"/><g style="display:block"><path fill="#FFF" d="M648 664v176c0 147 156 356 384 356 177 0 397-122 397-371 0-286-1-205-1-205"/><path stroke="#713CC1" stroke-width="4" d="M648 664v176c0 147 156 356 384 356 177 0 397-122 397-371 0-286-1-205-1-205" fill="none"/></g><path fill="#9F7CD4" d="M-45.653 74.053s28.1 4.6 55.35-16.17c23.84-18.18 29.4-40.41 34.42-63.84l-.31-68.53s22.48 60.24-89.45 64.54l-.01 84z" transform="matrix(4 0 0 4 1245.858 831.947)" style="display:block"/><g style="display:block"><path fill="#E4D6F5" d="M1406.87 679.393c89.368-92.392 91.16-267.44 91.16-267.44l-112.84 60.56 21.44 31.52 58.44-31.52s-8.032 90.488-59.64 162.44"/><path stroke="#723DC1" d="M1406.87 679.393c89.368-92.392 91.16-267.44 91.16-267.44l-112.84 60.56 21.44 31.52 58.44-31.52s-8.032 90.488-59.64 162.44" fill="none" stroke-width="4"/></g><g style="display:block"><path fill="#E4D6F5" d="M822.648 1077.878c-126.32 29.92-180.6-182.76-180.6-182.76l200.28-85.12v45.44l-147.24 70.04s37.92 126.8 127.56 102.6"/><path stroke-linecap="round" stroke-linejoin="round" stroke="#713CC1" d="M822.648 1077.878c-126.32 29.92-180.6-182.76-180.6-182.76l200.28-85.12v45.44l-147.24 70.04s37.92 126.8 127.56 102.6" fill="none" stroke-width="4"/></g><g style="display:block"><path fill="#E4D6F5" d="M1026 354c225.9953 0 409.486 101.2706 409.486 226S1251.9953 806 1026 806 616.514 704.7294 616.514 580 800.0047 354 1026 354z"/><path stroke="#713CC1" d="M1026 354c225.9953 0 409.486 101.2706 409.486 226S1251.9953 806 1026 806 616.514 704.7294 616.514 580 800.0047 354 1026 354z" fill="none" stroke-width="4"/></g><g style="display:block"><path fill="#FFF" d="M1024 390c199.3396 0 361.188 85.139 361.188 190S1223.3396 770 1024 770s-361.188-85.139-361.188-190S824.6604 390 1024 390z"/><path stroke="#713CC1" d="M1024 390c199.3396 0 361.188 85.139 361.188 190S1223.3396 770 1024 770s-361.188-85.139-361.188-190S824.6604 390 1024 390z" fill="none" stroke-width="4"/></g><path fill="#C1F0FD" d="M0-7c3.8633 0 7 3.1367 7 7S3.8633 7 0 7s-7-3.1367-7-7 3.1367-7 7-7z" transform="matrix(4 0 0 4 1560 1025.126)" style="display:block"/><path fill="#F9AAC4" d="M0-7c3.8633 0 7 3.1367 7 7S3.8633 7 0 7s-7-3.1367-7-7 3.1367-7 7-7z" transform="matrix(4 0 0 4 308 905.126)" style="display:block"/><path fill="#D0BFFF" d="M0-14.5c8.0026 0 14.5 6.4974 14.5 14.5 0 8.0026-6.4974 14.5-14.5 14.5-8.0026 0-14.5-6.4974-14.5-14.5 0-8.0026 6.4974-14.5 14.5-14.5z" transform="matrix(4 0 0 4 514 723.126)" style="display:block"/><path fill="#C1F0FD" d="M8.365-8.365v16.73h-16.73v-16.73h16.73z" transform="rotate(45 -1074.6644 1153.8454) scale(4)" style="display:block"/><path fill="#F9AAC4" d="M8.365-8.365v16.73h-16.73v-16.73h16.73z" transform="rotate(45 -348.6186 2651.3054) scale(4)" style="display:block"/><g opacity=".36" style="display:block"><path fill="#F9AAC4" d="m1627.2376 1276.128-47.3196 47.3196-47.3196-47.3195 47.3196-47.3196 47.3196 47.3196z" opacity="1"/></g><path fill="#9F7CD4" d="M8.365-8.365v16.73h-16.73v-16.73h16.73z" transform="rotate(45 123.0549 2322.795) scale(4)" style="display:block"/></g></svg>