<svg width="1920" height="580" viewBox="0 0 1920 580" fill="none" xmlns="http://www.w3.org/2000/svg">
<g clip-path="url(#clip0_246_6254)">
<path d="M486.145 207.326V355.493" stroke="#5D37AD" stroke-width="2" stroke-dasharray="6"/>
<rect width="287.622" height="119.978" rx="11.7361" transform="matrix(0.976187 -0.21693 0 1 344.445 122.051)" fill="#FEB767"/>
<path d="M391.47 165.021C392.4 165.031 393.125 165.324 393.647 165.901C394.182 166.46 394.45 167.173 394.45 168.039C394.45 169.006 394.196 169.885 393.689 170.676C393.196 171.464 392.513 172.136 391.639 172.69C390.78 173.228 389.807 173.617 388.722 173.858L383.228 175.079V159.275L388.596 158.082C390.16 157.735 391.435 157.819 392.421 158.336C393.407 158.839 393.9 159.761 393.9 161.103C393.9 161.868 393.696 162.599 393.287 163.296C392.893 163.976 392.287 164.551 391.47 165.021ZM386.06 161.2V165.097L388.722 164.506C389.413 164.352 389.962 164.071 390.371 163.663C390.78 163.255 390.984 162.718 390.984 162.055C390.984 161.391 390.765 160.948 390.329 160.728C389.892 160.508 389.314 160.477 388.596 160.637L386.06 161.2ZM388.87 171.271C389.659 171.095 390.3 170.78 390.794 170.324C391.287 169.853 391.533 169.257 391.533 168.536C391.533 167.814 391.287 167.335 390.794 167.098C390.315 166.858 389.674 166.827 388.87 167.006L386.06 167.63V171.895L388.87 171.271ZM406.291 163.329C406.291 163.733 406.185 164.067 405.974 164.331C405.763 164.594 405.474 164.767 405.108 164.848L398.704 166.271C398.774 167.352 399.148 168.085 399.824 168.468C400.515 168.849 401.388 168.922 402.445 168.687C403.487 168.455 404.481 168.025 405.425 167.397V169.779C404.396 170.397 403.318 170.831 402.191 171.082C401.078 171.329 400.064 171.331 399.148 171.087C398.246 170.84 397.521 170.323 396.971 169.535C396.436 168.745 396.168 167.693 396.168 166.38C396.168 165.124 396.422 164.007 396.929 163.028C397.436 162.035 398.091 161.233 398.894 160.621C399.711 160.007 400.578 159.598 401.494 159.394C402.367 159.2 403.17 159.217 403.903 159.443C404.636 159.67 405.213 160.119 405.636 160.79C406.073 161.444 406.291 162.29 406.291 163.329ZM401.451 161.504C400.789 161.651 400.226 161.985 399.761 162.507C399.31 163.012 399 163.665 398.831 164.468L403.861 163.35C403.804 162.626 403.551 162.105 403.1 161.787C402.649 161.454 402.1 161.36 401.451 161.504ZM408.486 166.652C408.979 166.73 409.557 166.775 410.219 166.786C410.895 166.78 411.529 166.712 412.121 166.58C412.727 166.446 413.171 166.239 413.452 165.96C413.734 165.666 413.875 165.332 413.875 164.956C413.875 164.61 413.755 164.377 413.516 164.257C413.276 164.122 412.917 164.043 412.438 164.02L410.916 163.968C410.001 163.941 409.275 163.756 408.74 163.413C408.204 163.07 407.936 162.401 407.936 161.405C407.936 160.265 408.366 159.31 409.226 158.542C410.099 157.771 411.17 157.244 412.438 156.962C413.044 156.828 413.643 156.752 414.234 156.736C414.84 156.703 415.362 156.724 415.798 156.8V159.16C415.319 159.079 414.756 159.045 414.108 159.059C413.459 159.059 412.854 159.121 412.29 159.247C411.755 159.366 411.339 159.545 411.043 159.784C410.747 160.022 410.599 160.301 410.599 160.618C410.599 160.892 410.698 161.094 410.895 161.224C411.107 161.335 411.431 161.401 411.867 161.419L413.368 161.475C414.34 161.505 415.108 161.709 415.672 162.089C416.249 162.451 416.538 163.145 416.538 164.17C416.538 164.978 416.327 165.71 415.904 166.367C415.495 167.021 414.946 167.562 414.256 167.989C413.565 168.417 412.811 168.722 411.994 168.903C411.332 169.05 410.691 169.142 410.071 169.179C409.451 169.216 408.923 169.189 408.486 169.098V166.652ZM425.671 156.511L422.586 157.197V162.544C422.586 163.612 423.135 164.024 424.234 163.78C424.643 163.689 425.122 163.511 425.671 163.244V165.626C425.094 165.913 424.565 166.11 424.086 166.216C422.663 166.532 421.614 166.426 420.937 165.898C420.261 165.356 419.923 164.507 419.923 163.353V157.789L417.873 158.244V155.971L419.923 155.515V152.658L422.586 152.066V154.924L425.671 154.238V156.511ZM433.421 163.925V148.121L437.056 147.313L439.719 152.61C440.001 153.183 440.374 154.067 440.839 155.262C441.304 153.86 441.677 152.81 441.959 152.112L444.622 145.632L448.257 144.824V160.628L445.404 161.262V153.014C445.418 152.145 445.489 150.83 445.615 149.07L445.341 149.802C444.89 151.071 444.446 152.245 444.009 153.324L442.213 157.36L439.465 157.971L437.669 154.733C437.232 153.848 436.788 152.872 436.337 151.803L436.063 151.193C436.19 152.911 436.253 154.196 436.253 155.047V163.296L433.421 163.925ZM456.257 159.067C457.313 158.832 458.271 158.374 459.131 157.692C460.004 156.993 460.688 156.141 461.181 155.137C461.688 154.115 461.942 153.019 461.942 151.85C461.942 150.681 461.688 149.713 461.181 148.945C460.688 148.16 460.004 147.619 459.131 147.322C458.271 147.022 457.313 146.99 456.257 147.225C455.2 147.46 454.235 147.919 453.361 148.604C452.502 149.286 451.818 150.131 451.311 151.138C450.818 152.128 450.572 153.208 450.572 154.377C450.572 155.546 450.818 156.53 451.311 157.33C451.818 158.112 452.502 158.66 453.361 158.974C454.235 159.271 455.2 159.302 456.257 159.067ZM456.257 149.628C457.102 149.44 457.806 149.601 458.37 150.111C458.934 150.606 459.215 151.388 459.215 152.456C459.215 153.538 458.934 154.467 458.37 155.242C457.806 156.002 457.102 156.476 456.257 156.664C455.411 156.852 454.707 156.691 454.143 156.181C453.594 155.654 453.319 154.849 453.319 153.766C453.319 152.698 453.594 151.793 454.143 151.05C454.707 150.29 455.411 149.816 456.257 149.628ZM468.861 144.424C469.904 144.192 470.848 144.228 471.693 144.53C472.553 144.83 473.229 145.373 473.722 146.158C474.215 146.929 474.462 147.892 474.462 149.046C474.462 150.36 474.187 151.525 473.638 152.542C473.088 153.559 472.356 154.393 471.44 155.044C470.524 155.68 469.517 156.12 468.418 156.365C466.995 156.681 465.572 156.716 464.149 156.469V141.293L466.811 140.701V145.291C467.46 144.872 468.143 144.583 468.861 144.424ZM468.713 153.896C469.587 153.702 470.306 153.224 470.869 152.464C471.433 151.689 471.715 150.754 471.715 149.657C471.715 148.516 471.419 147.723 470.827 147.278C470.235 146.817 469.481 146.689 468.566 146.893C467.988 147.021 467.403 147.266 466.811 147.629V154.059C467.46 154.088 468.094 154.034 468.713 153.896ZM479.699 139.114C479.699 139.562 479.537 139.973 479.213 140.348C478.889 140.709 478.481 140.944 477.988 141.053C477.48 141.166 477.058 141.116 476.72 140.902C476.395 140.671 476.233 140.332 476.233 139.884C476.233 139.423 476.395 139.011 476.72 138.651C477.058 138.272 477.48 138.027 477.988 137.914C478.481 137.805 478.889 137.865 479.213 138.096C479.537 138.313 479.699 138.652 479.699 139.114ZM476.635 142.913V154.322L479.298 153.73V142.321L476.635 142.913ZM482.207 137.28V153.084L484.87 152.492V136.688L482.207 137.28ZM497.163 143.135C497.163 143.54 497.058 143.873 496.846 144.137C496.635 144.4 496.346 144.573 495.98 144.654L489.576 146.077C489.647 147.158 490.02 147.891 490.696 148.275C491.387 148.655 492.26 148.728 493.317 148.493C494.36 148.262 495.353 147.832 496.297 147.203V149.585C495.268 150.203 494.191 150.637 493.063 150.888C491.95 151.135 490.936 151.137 490.02 150.893C489.118 150.646 488.393 150.129 487.843 149.342C487.308 148.551 487.04 147.499 487.04 146.186C487.04 144.93 487.294 143.813 487.801 142.834C488.308 141.841 488.963 141.039 489.766 140.428C490.584 139.813 491.45 139.404 492.366 139.2C493.239 139.006 494.043 139.023 494.775 139.25C495.508 139.476 496.086 139.925 496.508 140.596C496.945 141.25 497.163 142.096 497.163 143.135ZM492.324 141.31C491.661 141.457 491.098 141.792 490.633 142.313C490.182 142.818 489.872 143.471 489.703 144.274L494.733 143.156C494.677 142.432 494.423 141.911 493.972 141.593C493.521 141.26 492.972 141.166 492.324 141.31ZM510.24 131.05C511.353 130.803 512.347 130.777 513.22 130.972C514.094 131.168 514.777 131.601 515.27 132.27C515.777 132.937 516.031 133.826 516.031 134.937C516.031 136.034 515.777 137.029 515.27 137.921C514.777 138.81 514.087 139.555 513.199 140.156C512.325 140.74 511.339 141.154 510.24 141.399L507.641 141.976V147.432L504.809 148.061V132.257L510.24 131.05ZM510.092 138.812C510.994 138.611 511.72 138.241 512.269 137.7C512.833 137.156 513.114 136.452 513.114 135.586C513.114 134.72 512.833 134.147 512.269 133.868C511.72 133.572 510.994 133.524 510.092 133.724L507.641 134.269V139.357L510.092 138.812ZM521.838 132.651C523.191 132.35 524.29 132.438 525.135 132.914C525.995 133.387 526.424 134.374 526.424 135.875V143.258L523.909 143.817V143.059C522.98 143.915 522.007 144.456 520.993 144.681C519.866 144.932 518.985 144.817 518.351 144.337C517.731 143.854 517.421 143.065 517.421 141.968C517.421 140.856 517.816 139.895 518.605 139.085C519.394 138.26 520.429 137.705 521.712 137.42L523.762 136.965V136.64C523.762 135.962 523.55 135.504 523.128 135.266C522.705 135.028 522.106 134.995 521.331 135.167C520.246 135.408 519.14 135.964 518.013 136.835V134.345C518.492 133.979 519.07 133.649 519.746 133.354C520.422 133.045 521.12 132.811 521.838 132.651ZM520.021 141.347C520.021 141.823 520.183 142.155 520.507 142.343C520.845 142.527 521.275 142.562 521.796 142.446C522.515 142.286 523.17 141.96 523.762 141.468V138.913L522.155 139.27C521.493 139.417 520.972 139.67 520.591 140.029C520.211 140.374 520.021 140.813 520.021 141.347ZM535.953 129.731L538.997 129.055L534.03 143.256C533.72 144.162 533.276 144.91 532.699 145.501C532.121 146.091 531.311 146.502 530.268 146.733L528.535 147.119V144.802L529.825 144.516C530.261 144.419 530.607 144.27 530.86 144.069C531.114 143.883 531.304 143.609 531.431 143.249L531.853 142.03L527.542 131.6L530.585 130.924L532.192 135.308C532.558 136.28 532.917 137.514 533.269 139.009C533.593 137.537 533.953 136.144 534.347 134.829L535.953 129.731ZM553.062 125.734C554.147 125.493 555.006 125.656 555.64 126.222C556.274 126.774 556.591 127.699 556.591 128.998V136.554L553.928 137.146V129.807C553.928 129.186 553.766 128.76 553.442 128.529C553.132 128.28 552.717 128.214 552.195 128.33C551.463 128.493 550.702 128.986 549.913 129.811C549.941 130.094 549.955 130.314 549.955 130.473V138.029L547.292 138.62V131.281C547.292 130.661 547.13 130.235 546.806 130.004C546.496 129.755 546.081 129.689 545.559 129.804C544.784 129.977 544.038 130.46 543.319 131.255V139.503L540.656 140.095V128.686L543.129 128.136V129.327C543.58 128.808 544.087 128.364 544.651 127.993C545.214 127.608 545.799 127.348 546.405 127.214C547.067 127.066 547.652 127.074 548.159 127.235C548.68 127.393 549.096 127.705 549.406 128.17C550.589 126.825 551.808 126.013 553.062 125.734ZM568.656 127.248C568.656 127.652 568.55 127.986 568.339 128.25C568.128 128.513 567.839 128.685 567.472 128.767L561.069 130.19C561.139 131.271 561.513 132.004 562.189 132.387C562.879 132.768 563.753 132.841 564.809 132.606C565.852 132.374 566.845 131.944 567.789 131.316V133.697C566.761 134.316 565.683 134.75 564.556 135.001C563.443 135.248 562.428 135.25 561.513 135.006C560.611 134.759 559.885 134.242 559.336 133.454C558.8 132.664 558.533 131.612 558.533 130.299C558.533 129.043 558.786 127.926 559.293 126.947C559.801 125.954 560.456 125.152 561.259 124.54C562.076 123.926 562.943 123.517 563.858 123.313C564.732 123.119 565.535 123.136 566.268 123.362C567 123.589 567.578 124.038 568.001 124.709C568.437 125.363 568.656 126.209 568.656 127.248ZM563.816 125.423C563.154 125.57 562.59 125.904 562.125 126.426C561.675 126.931 561.365 127.584 561.196 128.386L566.225 127.269C566.169 126.545 565.915 126.024 565.465 125.706C565.014 125.373 564.464 125.279 563.816 125.423ZM576.768 120.466C577.924 120.209 578.846 120.379 579.537 120.977C580.227 121.559 580.572 122.529 580.572 123.886V131.225L577.909 131.817V124.694C577.909 124.016 577.733 123.542 577.381 123.274C577.043 122.989 576.599 122.907 576.05 123.029C575.204 123.217 574.359 123.773 573.514 124.697V132.793L570.851 133.385V121.976L573.323 121.426V122.617C573.788 122.081 574.317 121.624 574.908 121.247C575.5 120.871 576.12 120.61 576.768 120.466ZM589.997 119.994L586.911 120.68V126.028C586.911 127.096 587.461 127.508 588.56 127.263C588.968 127.172 589.447 126.994 589.997 126.727V129.109C589.419 129.396 588.891 129.593 588.412 129.699C586.989 130.016 585.939 129.91 585.263 129.382C584.586 128.839 584.248 127.99 584.248 126.836V121.272L582.198 121.727V119.454L584.248 118.999V116.141L586.911 115.549V118.407L589.997 117.721V119.994ZM404.685 185.685C405.784 185.441 406.792 185.433 407.707 185.663C408.623 185.892 409.356 186.386 409.905 187.145C410.455 187.903 410.73 188.932 410.73 190.231C410.73 191.414 410.483 192.515 409.99 193.534C409.497 194.539 408.821 195.382 407.961 196.063C407.116 196.742 406.172 197.197 405.129 197.429C404.411 197.588 403.727 197.603 403.079 197.473V201.998L400.416 202.589V187.478C401.839 186.599 403.262 186.001 404.685 185.685ZM404.833 195.091C405.749 194.888 406.503 194.424 407.095 193.701C407.686 192.964 407.982 192.01 407.982 190.841C407.982 189.773 407.7 188.991 407.137 188.496C406.573 187.986 405.855 187.828 404.981 188.022C404.361 188.16 403.727 188.388 403.079 188.705V195.135C403.685 195.231 404.27 195.217 404.833 195.091ZM418.545 182.605C419.165 182.467 419.701 182.464 420.152 182.594V185.127C419.546 184.988 418.933 184.987 418.313 185.125C417.341 185.341 416.425 185.898 415.566 186.796V194.893L412.903 195.485V184.075L415.375 183.526V184.76C415.812 184.201 416.298 183.739 416.834 183.375C417.383 182.993 417.954 182.737 418.545 182.605ZM426.558 192.667C427.614 192.432 428.572 191.974 429.432 191.292C430.305 190.593 430.989 189.741 431.482 188.737C431.989 187.715 432.243 186.619 432.243 185.45C432.243 184.281 431.989 183.312 431.482 182.545C430.989 181.759 430.305 181.219 429.432 180.922C428.572 180.622 427.614 180.59 426.558 180.825C425.501 181.059 424.536 181.519 423.662 182.204C422.803 182.886 422.119 183.73 421.612 184.738C421.119 185.728 420.872 186.808 420.872 187.977C420.872 189.146 421.119 190.13 421.612 190.93C422.119 191.712 422.803 192.26 423.662 192.574C424.536 192.871 425.501 192.902 426.558 192.667ZM426.558 183.228C427.403 183.04 428.107 183.201 428.671 183.711C429.235 184.206 429.516 184.988 429.516 186.056C429.516 187.138 429.235 188.067 428.671 188.842C428.107 189.602 427.403 190.076 426.558 190.264C425.712 190.452 425.008 190.291 424.444 189.781C423.895 189.253 423.62 188.449 423.62 187.366C423.62 186.298 423.895 185.393 424.444 184.65C425.008 183.89 425.712 183.416 426.558 183.228ZM441.36 173.357L444.023 172.765V187.941C442.6 188.82 441.177 189.418 439.754 189.734C438.655 189.979 437.648 189.986 436.732 189.756C435.816 189.512 435.083 189.004 434.534 188.231C433.984 187.459 433.71 186.416 433.71 185.102C433.71 183.948 433.956 182.875 434.449 181.885C434.943 180.881 435.612 180.039 436.457 179.361C437.317 178.679 438.275 178.221 439.331 177.986C440.036 177.829 440.712 177.816 441.36 177.946V173.357ZM439.479 187.392C440.085 187.258 440.712 187.032 441.36 186.714V180.285C440.754 180.188 440.17 180.203 439.606 180.328C438.704 180.528 437.951 180.992 437.345 181.718C436.753 182.441 436.457 183.366 436.457 184.492C436.457 185.589 436.739 186.399 437.303 186.923C437.88 187.43 438.606 187.586 439.479 187.392ZM453.445 175.066L456.108 174.474V185.039C455.432 185.507 454.664 185.938 453.804 186.331C452.945 186.709 452.135 186.983 451.374 187.152C449.937 187.471 448.796 187.364 447.95 186.83C447.105 186.282 446.682 185.315 446.682 183.93V176.569L449.345 175.977V183.143C449.345 183.836 449.556 184.309 449.979 184.561C450.402 184.799 450.923 184.849 451.543 184.711C452.177 184.571 452.811 184.321 453.445 183.964V175.066ZM461.038 179.051C461.038 180.191 461.369 180.991 462.031 181.45C462.693 181.909 463.511 182.038 464.483 181.836C465.004 181.72 465.525 181.532 466.047 181.272C466.582 180.994 467.033 180.699 467.399 180.387V182.877C466.977 183.187 466.476 183.471 465.899 183.73C465.321 183.988 464.743 184.181 464.166 184.309C463.165 184.532 462.214 184.519 461.313 184.272C460.425 184.022 459.699 183.512 459.136 182.743C458.572 181.973 458.29 180.946 458.29 179.661C458.29 178.391 458.572 177.253 459.136 176.248C459.699 175.228 460.425 174.403 461.313 173.772C462.214 173.125 463.165 172.689 464.166 172.467C464.757 172.336 465.335 172.272 465.899 172.277C466.476 172.278 466.977 172.34 467.399 172.463V174.953C467.033 174.803 466.582 174.716 466.047 174.69C465.525 174.648 465.004 174.684 464.483 174.8C463.496 175.033 462.672 175.52 462.01 176.259C461.362 176.994 461.038 177.925 461.038 179.051ZM476.36 172.247L473.274 172.933V178.28C473.274 179.348 473.824 179.76 474.923 179.516C475.332 179.425 475.811 179.246 476.36 178.98V181.361C475.782 181.649 475.254 181.845 474.775 181.952C473.352 182.268 472.302 182.162 471.626 181.634C470.95 181.092 470.612 180.243 470.612 179.088V173.524L468.562 173.98V171.707L470.612 171.251V168.394L473.274 167.802V170.66L476.36 169.974V172.247ZM497.551 176.674L494.191 177.421L492.923 176.187C491.767 177.599 490.316 178.498 488.569 178.887C487.625 179.096 486.765 179.092 485.991 178.875C485.216 178.658 484.603 178.245 484.152 177.638C483.701 177.031 483.476 176.266 483.476 175.342C483.476 174.361 483.729 173.424 484.236 172.532C484.744 171.625 485.526 170.687 486.582 169.716C486.047 168.911 485.779 168.068 485.779 167.188C485.779 165.961 486.188 164.91 487.005 164.036C487.822 163.162 488.893 162.577 490.217 162.283C491.288 162.045 492.267 162.037 493.155 162.258V164.921C492.746 164.824 492.281 164.761 491.76 164.733C491.239 164.705 490.739 164.744 490.26 164.85C489.781 164.956 489.386 165.16 489.076 165.459C488.78 165.756 488.632 166.15 488.632 166.64C488.632 167.073 488.787 167.53 489.097 168.009C489.421 168.471 489.914 169.026 490.577 169.672L493.324 172.439C493.62 171.623 493.768 170.746 493.768 169.807C493.768 169.36 493.74 168.919 493.683 168.484L496.198 167.925C496.226 168.496 496.241 168.904 496.241 169.15C496.241 170.117 496.135 170.992 495.924 171.775C495.726 172.54 495.402 173.305 494.951 174.069L497.551 176.674ZM488.886 176.348C489.9 176.123 490.746 175.574 491.422 174.702L487.977 171.354C487.907 171.298 487.872 171.269 487.872 171.269C487.336 171.792 486.935 172.307 486.667 172.814C486.413 173.318 486.286 173.851 486.286 174.414C486.286 175.194 486.526 175.754 487.005 176.095C487.498 176.433 488.125 176.517 488.886 176.348ZM504.683 172.275C505.176 172.353 505.754 172.398 506.416 172.409C507.092 172.403 507.726 172.335 508.318 172.203C508.924 172.068 509.368 171.862 509.649 171.582C509.931 171.289 510.072 170.954 510.072 170.579C510.072 170.233 509.952 170 509.713 169.88C509.473 169.745 509.114 169.666 508.635 169.643L507.113 169.591C506.198 169.564 505.472 169.379 504.937 169.036C504.401 168.693 504.133 168.024 504.133 167.028C504.133 165.888 504.563 164.933 505.423 164.165C506.296 163.394 507.367 162.867 508.635 162.585C509.241 162.45 509.84 162.375 510.431 162.359C511.037 162.326 511.559 162.347 511.995 162.423V164.783C511.516 164.702 510.953 164.668 510.305 164.682C509.657 164.682 509.051 164.744 508.487 164.87C507.952 164.989 507.536 165.167 507.24 165.406C506.944 165.645 506.796 165.924 506.796 166.241C506.796 166.515 506.895 166.717 507.092 166.847C507.304 166.958 507.628 167.023 508.064 167.042L509.565 167.098C510.537 167.127 511.305 167.332 511.869 167.712C512.446 168.074 512.735 168.768 512.735 169.793C512.735 170.601 512.524 171.333 512.101 171.99C511.692 172.644 511.143 173.185 510.453 173.612C509.762 174.04 509.008 174.344 508.191 174.526C507.529 174.673 506.888 174.765 506.268 174.802C505.648 174.839 505.12 174.812 504.683 174.721V172.275ZM524.489 164.063C524.489 164.467 524.383 164.801 524.172 165.064C523.961 165.328 523.672 165.5 523.306 165.582L516.902 167.005C516.972 168.086 517.346 168.819 518.022 169.202C518.712 169.583 519.586 169.656 520.643 169.421C521.685 169.189 522.679 168.759 523.623 168.131V170.512C522.594 171.131 521.516 171.565 520.389 171.815C519.276 172.063 518.262 172.064 517.346 171.821C516.444 171.574 515.718 171.056 515.169 170.269C514.634 169.479 514.366 168.427 514.366 167.114C514.366 165.858 514.619 164.741 515.127 163.762C515.634 162.769 516.289 161.967 517.092 161.355C517.909 160.741 518.776 160.332 519.692 160.128C520.565 159.934 521.368 159.95 522.101 160.177C522.834 160.404 523.411 160.853 523.834 161.524C524.271 162.178 524.489 163.024 524.489 164.063ZM519.649 162.237C518.987 162.385 518.424 162.719 517.959 163.241C517.508 163.745 517.198 164.399 517.029 165.201L522.059 164.084C522.002 163.36 521.749 162.839 521.298 162.521C520.847 162.188 520.297 162.093 519.649 162.237ZM532.327 157.32C532.947 157.183 533.482 157.179 533.933 157.31V159.843C533.327 159.703 532.714 159.702 532.094 159.84C531.122 160.056 530.206 160.613 529.347 161.511V169.608L526.684 170.2V158.791L529.157 158.241V159.475C529.593 158.916 530.079 158.455 530.615 158.09C531.164 157.709 531.735 157.452 532.327 157.32ZM538.516 167.571L534.205 157.119L537.164 156.462L538.833 160.854C539.228 161.921 539.594 163.146 539.932 164.528C540.341 162.749 540.707 161.361 541.031 160.365L542.701 155.231L545.66 154.574L541.327 166.946L538.516 167.571ZM550.243 150.438C550.243 150.885 550.08 151.297 549.756 151.672C549.432 152.032 549.024 152.268 548.531 152.377C548.023 152.49 547.601 152.439 547.263 152.226C546.939 151.995 546.777 151.656 546.777 151.208C546.777 150.746 546.939 150.335 547.263 149.974C547.601 149.596 548.023 149.351 548.531 149.238C549.024 149.128 549.432 149.189 549.756 149.42C550.08 149.637 550.243 149.976 550.243 150.438ZM547.178 154.236V165.646L549.841 165.054V153.645L547.178 154.236ZM554.758 158.224C554.758 159.364 555.089 160.164 555.752 160.623C556.414 161.082 557.231 161.211 558.203 161.009C558.724 160.893 559.246 160.705 559.767 160.445C560.302 160.167 560.753 159.872 561.12 159.56V162.05C560.697 162.36 560.197 162.645 559.619 162.903C559.041 163.161 558.464 163.354 557.886 163.483C556.886 163.705 555.935 163.693 555.033 163.446C554.145 163.195 553.42 162.686 552.856 161.916C552.293 161.146 552.011 160.119 552.011 158.835C552.011 157.565 552.293 156.427 552.856 155.421C553.42 154.401 554.145 153.576 555.033 152.946C555.935 152.298 556.886 151.863 557.886 151.64C558.478 151.509 559.056 151.446 559.619 151.45C560.197 151.452 560.697 151.514 561.12 151.636V154.126C560.753 153.976 560.302 153.889 559.767 153.864C559.246 153.821 558.724 153.857 558.203 153.973C557.217 154.207 556.393 154.693 555.73 155.432C555.082 156.168 554.758 157.098 554.758 158.224ZM572.701 153.349C572.701 153.753 572.595 154.087 572.384 154.351C572.173 154.614 571.884 154.787 571.518 154.868L565.114 156.291C565.184 157.372 565.558 158.105 566.234 158.488C566.924 158.869 567.798 158.942 568.855 158.707C569.897 158.475 570.891 158.045 571.835 157.417V159.799C570.806 160.417 569.728 160.851 568.601 161.102C567.488 161.349 566.474 161.351 565.558 161.107C564.656 160.86 563.93 160.343 563.381 159.555C562.846 158.765 562.578 157.713 562.578 156.4C562.578 155.144 562.831 154.027 563.339 153.048C563.846 152.055 564.501 151.253 565.304 150.641C566.121 150.027 566.988 149.618 567.904 149.414C568.777 149.22 569.58 149.237 570.313 149.463C571.046 149.69 571.623 150.139 572.046 150.81C572.483 151.464 572.701 152.31 572.701 153.349ZM567.861 151.524C567.199 151.671 566.636 152.005 566.171 152.527C565.72 153.032 565.41 153.685 565.241 154.488L570.271 153.37C570.214 152.646 569.961 152.125 569.51 151.807C569.059 151.474 568.509 151.38 567.861 151.524Z" fill="black"/>
<circle r="29.3428" transform="matrix(0.976187 -0.21693 0 1 479.118 93.3984)" fill="#FEB767"/>
<circle r="24.2395" transform="matrix(0.976187 -0.21693 0 1 479.119 93.3982)" fill="white"/>
<path d="M472.377 81.0259L485.222 77.8858C486.641 77.539 487.792 78.4419 487.792 79.9026V101.061C487.792 102.522 486.641 103.987 485.222 104.334L472.377 107.474C470.958 107.821 469.807 106.918 469.807 105.457V84.2987C469.807 82.838 470.958 81.3727 472.377 81.0259Z" stroke="black" stroke-width="2.6448" stroke-linecap="round" stroke-linejoin="round"/>
<path d="M478.8 100.614L478.786 100.618" stroke="black" stroke-width="2.6448" stroke-linecap="round" stroke-linejoin="round"/>
<path d="M1283.88 130.532V312.168" stroke="#5D37AD" stroke-width="2.64706" stroke-dasharray="7.94"/>
<rect width="229.759" height="108.625" rx="10.6844" transform="matrix(0.976187 -0.21693 0 1 1171.93 66.1338)" fill="#00BCD5"/>
<path d="M1252.61 97.8888V100.99L1239.22 103.964V101.273C1241.64 98.583 1243.49 96.4564 1244.75 94.8934C1246.02 93.3133 1246.91 92.0576 1247.41 91.1263C1247.92 90.1913 1248.18 89.3821 1248.18 88.6987C1248.18 87.8103 1247.86 87.2315 1247.23 86.9623C1246.61 86.6723 1245.8 86.6404 1244.78 86.8665C1243.16 87.226 1241.43 88.0471 1239.58 89.3298V86.1007C1240.43 85.5188 1241.29 85.0356 1242.18 84.6512C1243.08 84.2461 1244.09 83.9193 1245.2 83.671C1247.24 83.2189 1248.83 83.3348 1249.98 84.0187C1251.13 84.6855 1251.71 85.8561 1251.71 87.5305C1251.71 89.0852 1251.07 90.8149 1249.81 92.7197C1248.56 94.6036 1246.52 96.9864 1243.7 99.868L1252.61 97.8888ZM1272.41 86.8512C1273.51 86.8629 1274.37 87.2102 1274.99 87.8931C1275.62 88.5553 1275.94 89.3989 1275.94 90.424C1275.94 91.5687 1275.64 92.6092 1275.04 93.5457C1274.45 94.4784 1273.64 95.2732 1272.61 95.9301C1271.59 96.5662 1270.44 97.027 1269.16 97.3123L1262.65 98.7578V80.0498L1269.01 78.6377C1270.86 78.2263 1272.37 78.3265 1273.54 78.9384C1274.7 79.5333 1275.29 80.6251 1275.29 82.214C1275.29 83.1195 1275.04 83.9848 1274.56 84.8098C1274.09 85.6141 1273.38 86.2946 1272.41 86.8512ZM1266.01 82.3288V86.9418L1269.16 86.2413C1269.97 86.0597 1270.62 85.7272 1271.11 85.2439C1271.59 84.7605 1271.83 84.1259 1271.83 83.34C1271.83 82.5541 1271.58 82.0306 1271.06 81.7697C1270.54 81.5087 1269.86 81.4727 1269.01 81.6617L1266.01 82.3288ZM1269.33 94.2494C1270.27 94.0418 1271.03 93.6682 1271.61 93.1284C1272.19 92.5716 1272.48 91.866 1272.48 91.0118C1272.48 90.1576 1272.19 89.5903 1271.61 89.31C1271.04 89.0259 1270.28 88.9895 1269.33 89.2008L1266.01 89.9402V94.9888L1269.33 94.2494ZM1282.47 77.1571C1282.47 77.6868 1282.28 78.1736 1281.9 78.6176C1281.51 79.0446 1281.03 79.3229 1280.45 79.4526C1279.85 79.586 1279.35 79.5264 1278.95 79.2736C1278.56 79.0001 1278.37 78.5985 1278.37 78.0689C1278.37 77.5221 1278.56 77.0353 1278.95 76.6084C1279.35 76.1606 1279.85 75.8701 1280.45 75.7366C1281.03 75.6069 1281.51 75.6788 1281.9 75.9524C1282.28 76.2088 1282.47 76.6104 1282.47 77.1571ZM1278.85 81.6536V95.1592L1282 94.4587V80.9531L1278.85 81.6536ZM1285.44 74.9854V93.6934L1288.59 92.9929V74.2849L1285.44 74.9854ZM1292.04 73.5195V92.2275L1295.19 91.527V72.819L1292.04 73.5195ZM1302.26 72.7596C1302.26 73.2892 1302.07 73.776 1301.69 74.2201C1301.3 74.647 1300.82 74.9253 1300.24 75.0551C1299.64 75.1885 1299.14 75.1288 1298.74 74.8761C1298.35 74.6025 1298.16 74.2009 1298.16 73.6713C1298.16 73.1246 1298.35 72.6378 1298.74 72.2108C1299.14 71.7631 1299.64 71.4725 1300.24 71.3391C1300.82 71.2094 1301.3 71.2813 1301.69 71.5548C1302.07 71.8113 1302.26 72.2129 1302.26 72.7596ZM1298.64 77.256V90.7617L1301.79 90.0612V76.5556L1298.64 77.256ZM1311.09 88.2512C1312.34 87.9732 1313.47 87.4308 1314.49 86.6238C1315.52 85.796 1316.33 84.7877 1316.91 83.5987C1317.51 82.3889 1317.82 81.0921 1317.82 79.7082C1317.82 78.3243 1317.51 77.178 1316.91 76.2692C1316.33 75.3397 1315.52 74.6994 1314.49 74.3483C1313.47 73.9935 1312.34 73.955 1311.09 74.233C1309.83 74.511 1308.69 75.0553 1307.66 75.866C1306.64 76.6729 1305.83 77.6728 1305.23 78.8655C1304.65 80.0374 1304.36 81.3153 1304.36 82.6991C1304.36 84.083 1304.65 85.2483 1305.23 86.1949C1305.83 87.1208 1306.64 87.7696 1307.66 88.1415C1308.69 88.4926 1309.83 88.5292 1311.09 88.2512ZM1311.09 77.0777C1312.09 76.8553 1312.92 77.0458 1313.59 77.6493C1314.25 78.2357 1314.59 79.1611 1314.59 80.4254C1314.59 81.7067 1314.25 82.806 1313.59 83.723C1312.92 84.623 1312.09 85.1842 1311.09 85.4066C1310.08 85.6289 1309.25 85.4384 1308.58 84.8349C1307.93 84.2106 1307.61 83.2578 1307.61 81.9764C1307.61 80.7121 1307.93 79.6404 1308.58 78.7612C1309.25 77.8612 1310.08 77.3 1311.09 77.0777ZM1327.43 70.626C1328.8 70.3221 1329.89 70.5236 1330.71 71.2304C1331.53 71.9201 1331.94 73.068 1331.94 74.6739V83.3616L1328.78 84.0621V75.6307C1328.78 74.8277 1328.57 74.2675 1328.16 73.9501C1327.76 73.612 1327.23 73.5151 1326.58 73.6597C1325.58 73.8821 1324.58 74.5401 1323.58 75.6338V85.2185L1320.43 85.9189V72.4133L1323.35 71.7629V73.1724C1323.9 72.5375 1324.53 71.997 1325.23 71.5509C1325.93 71.1048 1326.67 70.7965 1327.43 70.626ZM1224.59 120.508V123.634L1219.39 124.791V140.372L1216.06 141.112V125.53L1210.86 126.686V123.56L1224.59 120.508ZM1233.26 123.528C1233.99 123.365 1234.62 123.361 1235.16 123.516V126.514C1234.44 126.349 1233.71 126.348 1232.98 126.511C1231.83 126.767 1230.75 127.426 1229.73 128.49V138.074L1226.58 138.775V125.269L1229.5 124.619V126.079C1230.02 125.418 1230.6 124.871 1231.23 124.44C1231.88 123.988 1232.56 123.684 1233.26 123.528ZM1241.41 121.716C1243.01 121.36 1244.31 121.464 1245.31 122.028C1246.33 122.588 1246.84 123.756 1246.84 125.533V134.272L1243.86 134.933V134.036C1242.76 135.05 1241.61 135.69 1240.41 135.957C1239.08 136.253 1238.03 136.118 1237.28 135.55C1236.55 134.978 1236.18 134.043 1236.18 132.745C1236.18 131.429 1236.65 130.292 1237.58 129.332C1238.52 128.356 1239.74 127.699 1241.26 127.362L1243.69 126.823V126.438C1243.69 125.635 1243.44 125.093 1242.94 124.811C1242.44 124.529 1241.73 124.49 1240.81 124.694C1239.53 124.98 1238.22 125.638 1236.88 126.669V123.722C1237.45 123.288 1238.13 122.897 1238.93 122.548C1239.74 122.183 1240.56 121.905 1241.41 121.716ZM1239.26 132.01C1239.26 132.573 1239.45 132.966 1239.84 133.189C1240.24 133.407 1240.74 133.448 1241.36 133.311C1242.21 133.122 1242.99 132.736 1243.69 132.153V129.129L1241.79 129.552C1241 129.726 1240.39 130.025 1239.94 130.45C1239.49 130.858 1239.26 131.377 1239.26 132.01ZM1256.91 118.297C1258.28 117.993 1259.37 118.195 1260.19 118.901C1261.01 119.591 1261.42 120.739 1261.42 122.345V131.033L1258.26 131.733V123.302C1258.26 122.499 1258.06 121.939 1257.64 121.621C1257.24 121.283 1256.71 121.186 1256.06 121.331C1255.06 121.553 1254.06 122.211 1253.06 123.305V132.889L1249.91 133.59V120.084L1252.83 119.434V120.843C1253.39 120.209 1254.01 119.668 1254.71 119.222C1255.41 118.776 1256.15 118.468 1256.91 118.297ZM1264.57 127.001C1265.15 127.093 1265.83 127.146 1266.62 127.16C1267.42 127.153 1268.17 127.072 1268.87 126.916C1269.59 126.757 1270.11 126.512 1270.45 126.181C1270.78 125.834 1270.95 125.438 1270.95 124.994C1270.95 124.584 1270.8 124.308 1270.52 124.166C1270.24 124.007 1269.81 123.913 1269.24 123.886L1267.44 123.825C1266.36 123.792 1265.5 123.573 1264.87 123.167C1264.23 122.761 1263.92 121.969 1263.92 120.79C1263.92 119.44 1264.42 118.311 1265.44 117.401C1266.48 116.488 1267.74 115.865 1269.24 115.531C1269.96 115.372 1270.67 115.282 1271.37 115.263C1272.09 115.224 1272.71 115.249 1273.22 115.339V118.132C1272.66 118.036 1271.99 117.997 1271.22 118.013C1270.45 118.013 1269.74 118.087 1269.07 118.235C1268.44 118.376 1267.94 118.588 1267.59 118.871C1267.24 119.154 1267.07 119.483 1267.07 119.859C1267.07 120.183 1267.18 120.422 1267.42 120.575C1267.67 120.708 1268.05 120.785 1268.57 120.807L1270.35 120.873C1271.5 120.908 1272.41 121.15 1273.07 121.6C1273.76 122.029 1274.1 122.85 1274.1 124.063C1274.1 125.02 1273.85 125.887 1273.35 126.664C1272.86 127.438 1272.21 128.078 1271.4 128.584C1270.58 129.09 1269.69 129.451 1268.72 129.666C1267.94 129.84 1267.18 129.949 1266.44 129.992C1265.71 130.036 1265.08 130.004 1264.57 129.897V127.001ZM1281.31 112.85C1282.91 112.495 1284.21 112.599 1285.21 113.162C1286.23 113.722 1286.74 114.89 1286.74 116.667V125.406L1283.76 126.068V125.171C1282.66 126.184 1281.51 126.824 1280.31 127.091C1278.97 127.388 1277.93 127.252 1277.18 126.684C1276.45 126.112 1276.08 125.177 1276.08 123.879C1276.08 122.563 1276.55 121.426 1277.48 120.467C1278.41 119.49 1279.64 118.833 1281.16 118.496L1283.58 117.957V117.573C1283.58 116.77 1283.33 116.227 1282.83 115.945C1282.33 115.664 1281.62 115.625 1280.71 115.829C1279.42 116.114 1278.11 116.772 1276.78 117.803V114.856C1277.35 114.423 1278.03 114.031 1278.83 113.683C1279.63 113.317 1280.46 113.039 1281.31 112.85ZM1279.16 123.144C1279.16 123.708 1279.35 124.101 1279.73 124.323C1280.13 124.542 1280.64 124.582 1281.26 124.445C1282.11 124.256 1282.88 123.87 1283.58 123.287V120.263L1281.68 120.686C1280.9 120.86 1280.28 121.16 1279.83 121.584C1279.38 121.992 1279.16 122.512 1279.16 123.144ZM1292.18 117.405C1292.18 118.755 1292.57 119.701 1293.36 120.245C1294.14 120.788 1295.11 120.94 1296.26 120.702C1296.87 120.564 1297.49 120.342 1298.11 120.034C1298.74 119.705 1299.28 119.356 1299.71 118.986V121.933C1299.21 122.301 1298.62 122.637 1297.93 122.943C1297.25 123.249 1296.57 123.478 1295.88 123.63C1294.7 123.893 1293.57 123.878 1292.51 123.586C1291.45 123.29 1290.6 122.686 1289.93 121.775C1289.26 120.864 1288.93 119.648 1288.93 118.128C1288.93 116.624 1289.26 115.277 1289.93 114.087C1290.6 112.879 1291.45 111.902 1292.51 111.156C1293.57 110.39 1294.7 109.875 1295.88 109.611C1296.58 109.456 1297.27 109.381 1297.93 109.386C1298.62 109.388 1299.21 109.461 1299.71 109.607V112.554C1299.28 112.377 1298.74 112.273 1298.11 112.243C1297.49 112.192 1296.87 112.236 1296.26 112.373C1295.09 112.649 1294.11 113.225 1293.33 114.099C1292.56 114.97 1292.18 116.072 1292.18 117.405ZM1310.32 109.351L1306.67 110.163V116.492C1306.67 117.757 1307.32 118.244 1308.62 117.955C1309.1 117.848 1309.67 117.636 1310.32 117.321V120.14C1309.63 120.48 1309.01 120.713 1308.44 120.839C1306.76 121.213 1305.51 121.088 1304.71 120.463C1303.91 119.821 1303.51 118.816 1303.51 117.449V110.863L1301.09 111.402V108.711L1303.51 108.172V104.789L1306.67 104.089V107.472L1310.32 106.66V109.351ZM1316.59 101.575C1316.59 102.105 1316.4 102.592 1316.02 103.036C1315.63 103.463 1315.15 103.741 1314.56 103.871C1313.96 104.004 1313.46 103.945 1313.06 103.692C1312.68 103.418 1312.49 103.017 1312.49 102.487C1312.49 101.94 1312.68 101.454 1313.06 101.027C1313.46 100.579 1313.96 100.288 1314.56 100.155C1315.15 100.025 1315.63 100.097 1316.02 100.371C1316.4 100.627 1316.59 101.029 1316.59 101.575ZM1312.96 106.072V119.578L1316.12 118.877V105.371L1312.96 106.072ZM1325.41 117.067C1326.67 116.789 1327.8 116.247 1328.82 115.44C1329.85 114.612 1330.66 113.604 1331.24 112.415C1331.84 111.205 1332.14 109.908 1332.14 108.524C1332.14 107.14 1331.84 105.994 1331.24 105.085C1330.66 104.156 1329.85 103.515 1328.82 103.164C1327.8 102.809 1326.67 102.771 1325.41 103.049C1324.16 103.327 1323.02 103.871 1321.99 104.682C1320.97 105.489 1320.16 106.489 1319.56 107.681C1318.98 108.853 1318.68 110.131 1318.68 111.515C1318.68 112.899 1318.98 114.064 1319.56 115.011C1320.16 115.937 1320.97 116.585 1321.99 116.957C1323.02 117.308 1324.16 117.345 1325.41 117.067ZM1325.41 105.894C1326.41 105.671 1327.25 105.862 1327.92 106.465C1328.58 107.052 1328.92 107.977 1328.92 109.241C1328.92 110.523 1328.58 111.622 1327.92 112.539C1327.25 113.439 1326.41 114 1325.41 114.222C1324.41 114.445 1323.58 114.254 1322.91 113.651C1322.26 113.026 1321.94 112.074 1321.94 110.792C1321.94 109.528 1322.26 108.456 1322.91 107.577C1323.58 106.677 1324.41 106.116 1325.41 105.894ZM1341.76 99.4419C1343.13 99.138 1344.22 99.3394 1345.04 100.046C1345.86 100.736 1346.26 101.884 1346.26 103.49V112.177L1343.11 112.878V104.447C1343.11 103.644 1342.9 103.083 1342.49 102.766C1342.09 102.428 1341.56 102.331 1340.91 102.476C1339.91 102.698 1338.91 103.356 1337.91 104.45V114.034L1334.76 114.735V101.229L1337.68 100.579V101.988C1338.23 101.353 1338.86 100.813 1339.56 100.367C1340.26 99.9207 1340.99 99.6124 1341.76 99.4419ZM1349.41 108.146C1350 108.238 1350.68 108.291 1351.47 108.305C1352.27 108.298 1353.02 108.217 1353.72 108.061C1354.43 107.902 1354.96 107.657 1355.29 107.326C1355.63 106.979 1355.79 106.583 1355.79 106.139C1355.79 105.729 1355.65 105.453 1355.37 105.311C1355.09 105.152 1354.66 105.058 1354.09 105.03L1352.29 104.969C1351.21 104.937 1350.35 104.718 1349.71 104.312C1349.08 103.906 1348.76 103.114 1348.76 101.935C1348.76 100.585 1349.27 99.4554 1350.29 98.546C1351.32 97.6328 1352.59 97.0094 1354.09 96.6758C1354.81 96.5165 1355.52 96.4273 1356.22 96.4083C1356.94 96.3685 1357.55 96.3937 1358.07 96.4838V99.2772C1357.5 99.1811 1356.84 99.1414 1356.07 99.1582C1355.3 99.1578 1354.58 99.2318 1353.92 99.38C1353.28 99.5208 1352.79 99.7327 1352.44 100.016C1352.09 100.298 1351.92 100.628 1351.92 101.004C1351.92 101.328 1352.03 101.567 1352.27 101.72C1352.52 101.853 1352.9 101.93 1353.42 101.951L1355.19 102.018C1356.34 102.053 1357.25 102.295 1357.92 102.745C1358.6 103.174 1358.95 103.995 1358.95 105.208C1358.95 106.164 1358.7 107.031 1358.2 107.809C1357.71 108.583 1357.06 109.223 1356.24 109.729C1355.43 110.235 1354.53 110.596 1353.57 110.811C1352.78 110.985 1352.02 111.094 1351.29 111.137C1350.56 111.181 1349.93 111.149 1349.41 111.042V108.146Z" fill="white"/>
<circle r="26.7134" transform="matrix(0.976187 -0.21693 0 1 1278.87 43.5288)" fill="#00BCD5"/>
<circle r="22.0673" transform="matrix(0.976187 -0.21693 0 1 1278.87 43.5283)" fill="white"/>
<path d="M1278.33 52.9335V41.0166" stroke="black" stroke-width="2.73116" stroke-linecap="round" stroke-linejoin="round"/>
<path d="M1285.48 51.3396V32.2725" stroke="black" stroke-width="2.73116" stroke-linecap="round" stroke-linejoin="round"/>
<path d="M1271.18 54.4045V49.6377" stroke="black" stroke-width="2.73116" stroke-linecap="round" stroke-linejoin="round"/>
<path d="M1574.01 247.397L1574.01 341.36" stroke="#5D37AD" stroke-width="2" stroke-dasharray="6"/>
<rect width="193.544" height="119.219" rx="9.15998" transform="matrix(0.966235 0.257663 0 1 1480.51 137.885)" fill="#FE638C"/>
<path d="M1538.02 185.526V189.395L1533.1 188.081V202.915L1529.04 201.833V186.999L1524.11 185.685V181.816L1538.02 185.526ZM1547.91 207.121C1549.56 207.561 1551.06 207.552 1552.41 207.093C1553.77 206.617 1554.83 205.747 1555.61 204.485C1556.4 203.228 1556.79 201.694 1556.79 199.883C1556.79 198.073 1556.4 196.336 1555.61 194.673C1554.83 192.997 1553.77 191.56 1552.41 190.363C1551.06 189.165 1549.56 188.346 1547.91 187.906C1546.26 187.466 1544.75 187.484 1543.4 187.96C1542.05 188.436 1540.98 189.303 1540.18 190.56C1539.41 191.805 1539.02 193.333 1539.02 195.143C1539.02 196.954 1539.41 198.697 1540.18 200.373C1540.98 202.053 1542.05 203.492 1543.4 204.69C1544.75 205.87 1546.26 206.681 1547.91 207.121ZM1547.91 203.252C1547.05 203.023 1546.28 202.588 1545.6 201.947C1544.93 201.305 1544.4 200.507 1544.02 199.551C1543.64 198.579 1543.45 197.504 1543.45 196.325C1543.45 195.147 1543.64 194.172 1544.02 193.402C1544.4 192.633 1544.93 192.107 1545.6 191.827C1546.28 191.546 1547.05 191.52 1547.91 191.749C1548.77 191.978 1549.52 192.419 1550.18 193.073C1550.86 193.715 1551.39 194.522 1551.77 195.494C1552.15 196.45 1552.34 197.516 1552.34 198.695C1552.34 199.874 1552.15 200.848 1551.77 201.618C1551.39 202.37 1550.86 202.887 1550.18 203.168C1549.52 203.453 1548.77 203.481 1547.91 203.252ZM1566.49 193.119C1567.8 193.466 1568.97 194.018 1570.01 194.773C1571.05 195.529 1571.87 196.464 1572.46 197.579C1573.05 198.677 1573.35 199.909 1573.35 201.275C1573.35 202.625 1573.05 203.696 1572.44 204.49C1571.84 205.288 1571.02 205.796 1569.98 206.014C1568.96 206.219 1567.8 206.148 1566.49 205.801L1563.6 205.028V211.049L1559.51 209.96V191.257L1566.49 193.119ZM1566.25 201.892C1567.11 202.12 1567.8 202.1 1568.33 201.831C1568.87 201.567 1569.14 201.007 1569.14 200.153C1569.14 199.333 1568.87 198.646 1568.33 198.091C1567.8 197.54 1567.11 197.15 1566.25 196.921L1563.6 196.215V201.185L1566.25 201.892ZM1591.32 199.739V214.599L1595.56 215.728V219.571L1582.46 216.079V212.236L1587.24 213.51V202.98L1582.46 203.141V199.272L1587.96 198.842L1591.32 199.739ZM1605.94 222.597C1607.48 223.006 1608.83 222.966 1610 222.475C1611.19 221.99 1612.11 221.106 1612.75 219.826C1613.41 218.551 1613.74 216.965 1613.74 215.069C1613.74 213.173 1613.41 211.411 1612.75 209.783C1612.11 208.16 1611.19 206.788 1610 205.669C1608.83 204.553 1607.48 203.791 1605.94 203.382C1604.41 202.973 1603.05 203.011 1601.86 203.497C1600.69 203.987 1599.77 204.87 1599.11 206.146C1598.47 207.426 1598.14 209.014 1598.14 210.91C1598.14 212.806 1598.47 214.566 1599.11 216.189C1599.77 217.817 1600.69 219.188 1601.86 220.304C1603.05 221.423 1604.41 222.188 1605.94 222.597ZM1605.94 218.728C1604.84 218.433 1603.96 217.688 1603.32 216.491C1602.67 215.278 1602.35 213.791 1602.35 212.032C1602.35 210.256 1602.67 208.941 1603.32 208.088C1603.96 207.218 1604.84 206.93 1605.94 207.225C1607.05 207.52 1607.92 208.274 1608.57 209.487C1609.23 210.705 1609.56 212.194 1609.56 213.953C1609.56 215.712 1609.23 217.025 1608.57 217.891C1607.92 218.744 1607.05 219.023 1605.94 218.728Z" fill="white"/>
<path d="M1506.66 218.753V205.613L1509.65 206.411L1511.84 211.891C1512.08 212.481 1512.38 213.367 1512.77 214.549C1513.15 213.571 1513.46 212.849 1513.69 212.383L1515.88 208.071L1518.87 208.869V222.009L1516.52 221.383V214.525C1516.54 213.808 1516.59 212.743 1516.7 211.331L1516.47 211.829C1516.1 212.702 1515.73 213.498 1515.38 214.219L1513.9 216.848L1511.64 216.245L1510.16 212.827C1509.8 211.915 1509.43 210.924 1509.06 209.853L1508.84 209.235C1508.94 210.715 1508.99 211.808 1508.99 212.516V219.374L1506.66 218.753ZM1525.45 223.944C1526.32 224.176 1527.11 224.182 1527.82 223.963C1528.54 223.735 1529.1 223.303 1529.51 222.667C1529.92 222.022 1530.13 221.214 1530.13 220.242C1530.13 219.27 1529.92 218.362 1529.51 217.519C1529.1 216.667 1528.54 215.941 1527.82 215.341C1527.11 214.744 1526.32 214.33 1525.45 214.098C1524.58 213.866 1523.79 213.859 1523.07 214.075C1522.36 214.294 1521.8 214.72 1521.38 215.353C1520.98 215.977 1520.78 216.775 1520.78 217.747C1520.78 218.719 1520.98 219.637 1521.38 220.501C1521.8 221.356 1522.36 222.088 1523.07 222.697C1523.79 223.297 1524.58 223.712 1525.45 223.944ZM1525.45 216.096C1526.15 216.282 1526.73 216.7 1527.19 217.352C1527.66 217.992 1527.89 218.756 1527.89 219.644C1527.89 220.544 1527.66 221.202 1527.19 221.618C1526.73 222.022 1526.15 222.132 1525.45 221.946C1524.76 221.761 1524.18 221.342 1523.72 220.691C1523.26 220.03 1523.04 219.25 1523.04 218.35C1523.04 217.462 1523.26 216.82 1523.72 216.425C1524.18 216.02 1524.76 215.911 1525.45 216.096ZM1531.95 223.156C1532.36 223.42 1532.83 223.691 1533.38 223.969C1533.93 224.237 1534.45 224.436 1534.94 224.566C1535.44 224.699 1535.8 224.706 1536.04 224.588C1536.27 224.458 1536.38 224.237 1536.38 223.925C1536.38 223.637 1536.29 223.395 1536.09 223.198C1535.89 222.989 1535.6 222.779 1535.2 222.566L1533.95 221.908C1533.2 221.515 1532.6 221.067 1532.16 220.566C1531.72 220.064 1531.5 219.4 1531.5 218.572C1531.5 217.624 1531.85 217.004 1532.56 216.713C1533.28 216.424 1534.16 216.419 1535.2 216.698C1535.7 216.83 1536.19 217.01 1536.68 217.236C1537.18 217.453 1537.61 217.681 1537.97 217.921V219.883C1537.57 219.622 1537.11 219.366 1536.58 219.116C1536.04 218.854 1535.54 218.661 1535.08 218.537C1534.64 218.42 1534.3 218.4 1534.05 218.479C1533.81 218.558 1533.69 218.73 1533.69 218.994C1533.69 219.222 1533.77 219.43 1533.93 219.617C1534.11 219.795 1534.37 219.98 1534.73 220.172L1535.97 220.826C1536.77 221.243 1537.4 221.723 1537.86 222.267C1538.34 222.802 1538.58 223.495 1538.58 224.347C1538.58 225.019 1538.4 225.543 1538.05 225.918C1537.72 226.296 1537.27 226.524 1536.7 226.6C1536.13 226.677 1535.51 226.625 1534.84 226.446C1534.29 226.301 1533.76 226.118 1533.25 225.898C1532.74 225.678 1532.31 225.442 1531.95 225.19V223.156ZM1546.09 221.672L1543.55 220.994V225.44C1543.55 226.328 1544 226.893 1544.91 227.134C1545.25 227.224 1545.64 227.269 1546.09 227.27V229.25C1545.62 229.255 1545.18 229.205 1544.79 229.1C1543.62 228.787 1542.75 228.275 1542.2 227.563C1541.64 226.838 1541.36 225.996 1541.36 225.036V220.41L1539.67 219.96V218.07L1541.36 218.52V216.144L1543.55 216.728V219.104L1546.09 219.782V221.672ZM1560.87 220.068V222.264L1557.25 221.3V232.244L1554.94 231.627V220.683L1551.32 219.718V217.522L1560.87 220.068ZM1566.89 225.149C1567.4 225.285 1567.84 225.498 1568.22 225.789V227.895C1567.72 227.534 1567.21 227.286 1566.7 227.15C1565.9 226.936 1565.15 227.029 1564.44 227.429V234.161L1562.25 233.576V224.09L1564.28 224.633V225.659C1564.64 225.371 1565.04 225.184 1565.48 225.097C1565.94 225.002 1566.41 225.019 1566.89 225.149ZM1572.56 226.661C1573.68 226.957 1574.58 227.475 1575.28 228.212C1575.98 228.953 1576.34 229.947 1576.34 231.195V237.333L1574.27 236.781V236.151C1573.5 236.487 1572.7 236.544 1571.87 236.321C1570.94 236.074 1570.22 235.623 1569.69 234.967C1569.18 234.315 1568.93 233.533 1568.93 232.621C1568.93 231.697 1569.25 231.058 1569.9 230.703C1570.55 230.336 1571.4 230.293 1572.46 230.575L1574.15 231.025V230.755C1574.15 230.191 1573.97 229.724 1573.62 229.356C1573.28 228.987 1572.78 228.717 1572.15 228.547C1571.25 228.309 1570.34 228.325 1569.42 228.593V226.523C1569.81 226.412 1570.28 226.371 1570.84 226.399C1571.4 226.416 1571.97 226.503 1572.56 226.661ZM1571.07 233.156C1571.07 233.552 1571.2 233.893 1571.47 234.18C1571.75 234.471 1572.1 234.673 1572.53 234.787C1573.12 234.945 1573.66 234.939 1574.15 234.769V232.645L1572.82 232.292C1572.28 232.147 1571.85 232.146 1571.54 232.291C1571.22 232.424 1571.07 232.712 1571.07 233.156ZM1589.01 229.336C1588.43 229.182 1588.02 229.2 1587.79 229.39C1587.56 229.568 1587.44 229.873 1587.44 230.305V230.809L1590 231.491V233.381L1587.5 232.713V240.309L1585.31 239.724V232.128L1581.27 231.052V238.648L1579.08 238.064V230.468L1577.62 230.079V228.189L1579.08 228.578V227.822C1579.08 226.91 1579.33 226.24 1579.84 225.812C1580.37 225.375 1581.19 225.308 1582.33 225.611C1582.73 225.717 1583.2 225.891 1583.76 226.136V228.026C1583.44 227.882 1583.11 227.764 1582.77 227.671C1582.19 227.517 1581.78 227.535 1581.55 227.725C1581.32 227.903 1581.2 228.208 1581.2 228.64V229.144L1585.31 230.238V229.482C1585.31 228.57 1585.56 227.901 1586.07 227.473C1586.59 227.036 1587.42 226.969 1588.56 227.272C1588.94 227.374 1589.42 227.55 1590 227.801V229.691C1589.69 229.547 1589.36 229.429 1589.01 229.336ZM1594.07 229.984C1594.07 230.356 1593.94 230.632 1593.67 230.813C1593.4 230.982 1593.07 231.013 1592.66 230.904C1592.24 230.793 1591.9 230.58 1591.62 230.266C1591.35 229.943 1591.22 229.595 1591.22 229.223C1591.22 228.839 1591.35 228.563 1591.62 228.394C1591.9 228.216 1592.24 228.183 1592.66 228.294C1593.07 228.403 1593.4 228.618 1593.67 228.941C1593.94 229.252 1594.07 229.6 1594.07 229.984ZM1591.55 231.904V241.39L1593.74 241.974V232.488L1591.55 231.904ZM1597.79 238.283C1597.79 239.231 1598.06 240.029 1598.6 240.679C1599.15 241.328 1599.82 241.765 1600.62 241.991C1601.05 242.105 1601.48 242.16 1601.91 242.154C1602.35 242.139 1602.72 242.076 1603.02 241.965V244.035C1602.67 244.122 1602.26 244.156 1601.79 244.138C1601.31 244.119 1600.84 244.046 1600.36 243.919C1599.54 243.7 1598.75 243.305 1598.01 242.735C1597.28 242.168 1596.68 241.451 1596.22 240.583C1595.76 239.716 1595.53 238.748 1595.53 237.68C1595.53 236.624 1595.76 235.792 1596.22 235.183C1596.68 234.563 1597.28 234.17 1598.01 234.005C1598.75 233.831 1599.54 233.854 1600.36 234.073C1600.85 234.203 1601.32 234.384 1601.79 234.616C1602.26 234.85 1602.67 235.104 1603.02 235.377V237.447C1602.72 237.174 1602.35 236.919 1601.91 236.682C1601.48 236.436 1601.05 236.255 1600.62 236.141C1599.81 235.936 1599.13 236.007 1598.59 236.354C1598.05 236.704 1597.79 237.347 1597.79 238.283ZM1613.09 237.648L1610.01 240.103L1613.09 247.134L1610.73 246.503L1608.4 241.238L1607.02 242.312V245.516L1604.83 244.931V231.791L1607.02 232.376V239.774C1607.44 239.333 1607.82 238.971 1608.15 238.689L1610.47 236.948L1613.09 237.648ZM1622.06 244.019C1622.06 244.355 1621.98 244.59 1621.8 244.723C1621.63 244.857 1621.39 244.883 1621.09 244.803L1615.82 243.398C1615.88 244.325 1616.19 245.085 1616.74 245.678C1617.31 246.273 1618.03 246.687 1618.9 246.919C1619.76 247.147 1620.57 247.191 1621.35 247.051V249.031C1620.5 249.129 1619.62 249.054 1618.69 248.807C1617.77 248.563 1616.94 248.154 1616.19 247.581C1615.44 247.011 1614.85 246.288 1614.39 245.411C1613.95 244.538 1613.73 243.555 1613.73 242.463C1613.73 241.419 1613.94 240.593 1614.36 239.984C1614.78 239.363 1615.32 238.961 1615.98 238.777C1616.65 238.597 1617.36 238.607 1618.12 238.808C1618.83 239 1619.5 239.338 1620.1 239.823C1620.7 240.307 1621.18 240.914 1621.52 241.643C1621.88 242.363 1622.06 243.155 1622.06 244.019ZM1618.08 240.545C1617.54 240.399 1617.07 240.45 1616.69 240.696C1616.32 240.933 1616.06 241.351 1615.92 241.95L1620.06 243.053C1620.02 242.429 1619.81 241.893 1619.44 241.446C1619.07 240.987 1618.61 240.687 1618.08 240.545ZM1629.56 238.385L1631.75 238.969V251.587C1630.58 251.743 1629.41 251.665 1628.24 251.353C1627.33 251.111 1626.5 250.71 1625.75 250.149C1624.99 249.576 1624.39 248.858 1623.94 247.993C1623.49 247.128 1623.26 246.15 1623.26 245.058C1623.26 244.098 1623.46 243.306 1623.87 242.682C1624.28 242.047 1624.83 241.617 1625.52 241.395C1626.23 241.176 1627.02 241.182 1627.89 241.414C1628.47 241.568 1629.02 241.831 1629.56 242.201V238.385ZM1628.01 249.294C1628.51 249.427 1629.02 249.493 1629.56 249.491V244.145C1629.06 243.82 1628.58 243.596 1628.11 243.472C1627.37 243.274 1626.75 243.355 1626.25 243.714C1625.77 244.076 1625.52 244.725 1625.52 245.661C1625.52 246.573 1625.75 247.361 1626.22 248.025C1626.69 248.679 1627.29 249.103 1628.01 249.294ZM1534.58 235.057C1535.49 235.301 1536.31 235.681 1537.03 236.197C1537.75 236.713 1538.31 237.349 1538.72 238.105C1539.13 238.864 1539.34 239.706 1539.34 240.63C1539.34 241.542 1539.13 242.266 1538.72 242.803C1538.31 243.343 1537.74 243.683 1537.01 243.825C1536.29 243.957 1535.48 243.902 1534.58 243.661L1532.44 243.091V247.627L1530.11 247.005V233.865L1534.58 235.057ZM1534.46 241.451C1535.2 241.649 1535.8 241.634 1536.25 241.406C1536.71 241.182 1536.94 240.71 1536.94 239.99C1536.94 239.27 1536.71 238.68 1536.25 238.22C1535.8 237.752 1535.2 237.419 1534.46 237.221L1532.44 236.683V240.913L1534.46 241.451ZM1541.06 236.786V249.926L1543.25 250.511V237.371L1541.06 236.786ZM1548.71 242.299C1549.82 242.596 1550.73 243.113 1551.42 243.851C1552.13 244.591 1552.48 245.586 1552.48 246.834V252.972L1550.41 252.42V251.79C1549.65 252.126 1548.85 252.182 1548.01 251.96C1547.09 251.712 1546.36 251.261 1545.84 250.606C1545.33 249.954 1545.07 249.172 1545.07 248.26C1545.07 247.336 1545.4 246.697 1546.05 246.342C1546.7 245.975 1547.55 245.932 1548.6 246.214L1550.29 246.663V246.393C1550.29 245.829 1550.12 245.363 1549.77 244.994C1549.42 244.625 1548.93 244.356 1548.29 244.186C1547.4 243.948 1546.49 243.963 1545.56 244.232V242.162C1545.95 242.051 1546.43 242.01 1546.99 242.038C1547.54 242.055 1548.12 242.142 1548.71 242.299ZM1547.21 248.794C1547.21 249.19 1547.35 249.532 1547.61 249.819C1547.89 250.109 1548.24 250.312 1548.67 250.426C1549.26 250.584 1549.8 250.578 1550.29 250.407V248.283L1548.97 247.931C1548.42 247.786 1548 247.785 1547.68 247.93C1547.37 248.062 1547.21 248.35 1547.21 248.794ZM1560.18 247.429L1557.64 246.751V251.197C1557.64 252.085 1558.09 252.65 1559 252.891C1559.33 252.981 1559.73 253.026 1560.18 253.027V255.007C1559.71 255.012 1559.27 254.962 1558.88 254.857C1557.71 254.544 1556.84 254.032 1556.28 253.32C1555.73 252.595 1555.45 251.753 1555.45 250.793V246.167L1553.76 245.717V243.827L1555.45 244.277V241.901L1557.64 242.485V244.861L1560.18 245.539V247.429ZM1566.32 245.285C1565.74 245.13 1565.33 245.148 1565.1 245.338C1564.87 245.516 1564.75 245.821 1564.75 246.253V246.757L1567.31 247.439V249.329L1564.82 248.666V256.262L1562.63 255.678V248.082L1561.17 247.692V245.802L1562.63 246.192V245.436C1562.63 244.524 1562.88 243.854 1563.39 243.426C1563.92 242.989 1564.75 242.922 1565.88 243.225C1566.28 243.33 1566.75 243.505 1567.31 243.749V245.639C1566.99 245.496 1566.66 245.378 1566.32 245.285ZM1572.92 258.601C1573.79 258.833 1574.58 258.839 1575.28 258.62C1576 258.392 1576.56 257.96 1576.97 257.324C1577.39 256.679 1577.6 255.871 1577.6 254.899C1577.6 253.927 1577.39 253.019 1576.97 252.176C1576.56 251.324 1576 250.598 1575.28 249.998C1574.58 249.401 1573.79 248.987 1572.92 248.755C1572.05 248.523 1571.25 248.516 1570.54 248.732C1569.83 248.951 1569.27 249.377 1568.85 250.01C1568.44 250.634 1568.24 251.432 1568.24 252.404C1568.24 253.376 1568.44 254.294 1568.85 255.158C1569.27 256.013 1569.83 256.745 1570.54 257.354C1571.25 257.954 1572.05 258.369 1572.92 258.601ZM1572.92 250.753C1573.61 250.939 1574.19 251.357 1574.66 252.009C1575.12 252.649 1575.35 253.413 1575.35 254.301C1575.35 255.201 1575.12 255.859 1574.66 256.275C1574.19 256.679 1573.61 256.789 1572.92 256.603C1572.22 256.418 1571.64 255.999 1571.18 255.347C1570.73 254.687 1570.5 253.907 1570.5 253.007C1570.5 252.119 1570.73 251.477 1571.18 251.081C1571.64 250.677 1572.22 250.568 1572.92 250.753ZM1584.06 251.725C1584.57 251.862 1585.01 252.075 1585.38 252.366V254.472C1584.88 254.111 1584.38 253.863 1583.87 253.726C1583.07 253.513 1582.31 253.606 1581.6 254.006V260.738L1579.41 260.153V250.667L1581.45 251.21V252.236C1581.81 251.948 1582.21 251.76 1582.65 251.674C1583.1 251.578 1583.57 251.596 1584.06 251.725ZM1596.96 255.184C1597.85 255.422 1598.56 255.905 1599.08 256.632C1599.6 257.347 1599.86 258.245 1599.86 259.325V265.607L1597.67 265.022V258.92C1597.67 258.404 1597.54 257.985 1597.27 257.662C1597.02 257.33 1596.68 257.106 1596.25 256.992C1595.64 256.831 1595.02 256.934 1594.37 257.301C1594.39 257.547 1594.4 257.736 1594.4 257.868V264.15L1592.21 263.566V257.464C1592.21 256.948 1592.08 256.529 1591.81 256.205C1591.56 255.873 1591.21 255.65 1590.79 255.536C1590.15 255.366 1589.53 255.466 1588.94 255.836V262.694L1586.75 262.11V252.624L1588.78 253.166V254.156C1589.16 253.907 1589.57 253.743 1590.04 253.662C1590.5 253.57 1590.98 253.59 1591.48 253.723C1592.03 253.869 1592.51 254.111 1592.92 254.45C1593.35 254.793 1593.7 255.22 1593.95 255.732C1594.92 255.092 1595.93 254.909 1596.96 255.184ZM1602.07 263.855C1602.48 264.119 1602.95 264.39 1603.5 264.667C1604.05 264.936 1604.57 265.135 1605.06 265.265C1605.56 265.398 1605.93 265.405 1606.16 265.287C1606.39 265.157 1606.51 264.936 1606.51 264.624C1606.51 264.336 1606.41 264.094 1606.21 263.897C1606.01 263.688 1605.72 263.478 1605.32 263.264L1604.07 262.607C1603.32 262.214 1602.72 261.766 1602.28 261.265C1601.84 260.763 1601.62 260.099 1601.62 259.271C1601.62 258.323 1601.97 257.703 1602.68 257.411C1603.4 257.123 1604.28 257.118 1605.32 257.396C1605.82 257.529 1606.31 257.709 1606.8 257.935C1607.3 258.152 1607.73 258.38 1608.09 258.62V260.582C1607.69 260.321 1607.23 260.065 1606.7 259.815C1606.16 259.553 1605.66 259.36 1605.2 259.236C1604.76 259.118 1604.42 259.099 1604.17 259.178C1603.93 259.257 1603.81 259.429 1603.81 259.693C1603.81 259.921 1603.89 260.129 1604.05 260.316C1604.23 260.494 1604.49 260.679 1604.85 260.871L1606.09 261.525C1606.89 261.942 1607.52 262.422 1607.98 262.966C1608.46 263.501 1608.7 264.194 1608.7 265.046C1608.7 265.718 1608.52 266.242 1608.17 266.617C1607.84 266.995 1607.39 267.223 1606.82 267.299C1606.25 267.376 1605.63 267.324 1604.96 267.145C1604.41 267 1603.88 266.817 1603.37 266.597C1602.86 266.377 1602.43 266.141 1602.07 265.889V263.855Z" fill="black"/>
<circle r="22.9019" transform="matrix(0.966235 0.257663 0 1 1569.6 162.637)" fill="#FE638C"/>
<circle r="18.9187" transform="matrix(0.966235 0.257663 0 1 1569.6 162.637)" fill="#FEFDFF"/>
<path d="M1576.68 159.401L1561.3 154.96C1560.24 154.654 1559.38 155.301 1559.38 156.405V164.405C1559.38 165.51 1560.24 166.654 1561.3 166.96L1576.68 171.401C1577.74 171.708 1578.6 171.061 1578.6 169.956V161.956C1578.6 160.851 1577.74 159.708 1576.68 159.401Z" stroke="black" stroke-width="2" stroke-linecap="round" stroke-linejoin="round"/>
<path d="M1568.99 165.181C1570.05 165.488 1570.91 164.841 1570.91 163.736C1570.91 162.632 1570.05 161.488 1568.99 161.181C1567.93 160.874 1567.07 161.521 1567.07 162.626C1567.07 163.731 1567.93 164.874 1568.99 165.181Z" stroke="black" stroke-width="2" stroke-linecap="round" stroke-linejoin="round"/>
<path d="M1563.23 161.516L1563.24 161.518M1574.75 164.846L1574.76 164.849" stroke="black" stroke-width="2" stroke-linecap="round" stroke-linejoin="round"/>
<path d="M660.713 381.675L660.713 475.637" stroke="#5D37AD" stroke-width="2" stroke-dasharray="6"/>
<rect width="201.64" height="98.9741" rx="9.15998" transform="matrix(0.966235 0.257663 0 1 563.297 263.036)" fill="#5F259F"/>
<path d="M586.483 315.954V333.639L589.62 334.475V316.79L586.483 315.954ZM607.554 339.258L604.066 338.328L602.451 332.931L596.622 331.376L595.007 335.912L591.636 335.013L597.605 318.92L601.585 319.981L607.554 339.258ZM597.558 328.719L601.514 329.774L600.953 327.904C600.703 327.078 600.36 325.848 599.923 324.213L599.525 322.775L599.033 324.364L598.12 327.148L597.558 328.719ZM609.571 339.796V322.111L613.598 323.184L616.547 330.56C616.859 331.354 617.273 332.547 617.788 334.137C618.303 332.821 618.716 331.849 619.028 331.222L621.978 325.419L626.004 326.493V344.178L622.844 343.335V334.105C622.86 333.14 622.938 331.707 623.078 329.807L622.774 330.476C622.274 331.651 621.783 332.724 621.299 333.693L619.309 337.232L616.266 336.421L614.277 331.82C613.793 330.593 613.301 329.259 612.802 327.817L612.497 326.985C612.638 328.977 612.708 330.449 612.708 331.402V340.632L609.571 339.796ZM643.923 348.956L640.436 348.026L638.82 342.629L632.992 341.075L631.377 345.61L628.006 344.712L633.975 328.618L637.954 329.679L643.923 348.956ZM633.928 338.417L637.884 339.472L637.322 337.602C637.073 336.777 636.729 335.547 636.292 333.912L635.894 332.473L635.403 334.062L634.49 336.847L633.928 338.417ZM645.941 331.809V349.494L649.078 350.331V332.646L645.941 331.809ZM672.955 356.698L669.467 355.768L667.852 350.371L662.024 348.817L660.408 353.352L657.038 352.453L663.007 336.36L666.986 337.421L672.955 356.698ZM662.96 346.159L666.916 347.214L666.354 345.344C666.104 344.519 665.761 343.288 665.324 341.654L664.926 340.215L664.435 341.804L663.522 344.589L662.96 346.159ZM683.2 354.633C682.826 353.209 682.451 351.405 682.077 349.222C681.78 350.919 681.413 352.526 680.976 354.04L679.619 358.475L676.576 357.664L673.041 343.954L676.061 344.759L677.184 349.395C677.356 350.135 677.535 351.063 677.723 352.179C677.91 353.295 678.066 354.306 678.191 355.211C678.331 354.425 678.518 353.514 678.753 352.478C678.987 351.426 679.205 350.572 679.408 349.915L680.649 345.982L683.551 346.756L684.792 351.375C685.12 352.529 685.525 354.502 686.009 357.296C686.134 356.457 686.29 355.53 686.477 354.514C686.665 353.498 686.844 352.674 687.016 352.041L688.139 347.98L691.136 348.779L687.577 360.597L684.534 359.786L683.2 354.633ZM696.828 350.055C698.326 350.454 699.543 351.15 700.48 352.143C701.432 353.14 701.908 354.478 701.908 356.158V364.419L699.122 363.676V362.828C698.092 363.28 697.015 363.356 695.892 363.057C694.643 362.724 693.668 362.116 692.966 361.235C692.279 360.357 691.936 359.305 691.936 358.077C691.936 356.834 692.373 355.973 693.246 355.495C694.12 355.002 695.267 354.944 696.687 355.323L698.958 355.928V355.565C698.958 354.806 698.724 354.178 698.256 353.682C697.788 353.185 697.124 352.823 696.266 352.594C695.065 352.274 693.839 352.294 692.591 352.656V349.87C693.122 349.72 693.761 349.665 694.511 349.703C695.26 349.725 696.032 349.842 696.828 350.055ZM694.815 358.796C694.815 359.329 694.994 359.789 695.353 360.176C695.728 360.566 696.204 360.838 696.781 360.992C697.577 361.205 698.303 361.196 698.958 360.967V358.109L697.179 357.634C696.446 357.439 695.868 357.438 695.447 357.633C695.025 357.811 694.815 358.199 694.815 358.796ZM711.028 353.841C711.715 354.024 712.308 354.312 712.807 354.703V357.538C712.136 357.052 711.457 356.718 710.77 356.534C709.694 356.247 708.679 356.373 707.727 356.91V365.971L704.778 365.184V352.417L707.517 353.147V354.528C708.001 354.14 708.539 353.888 709.132 353.772C709.741 353.643 710.373 353.667 711.028 353.841ZM722.079 352.113L725.029 352.899V369.882C723.453 370.091 721.876 369.986 720.3 369.566C719.083 369.241 717.967 368.701 716.953 367.946C715.938 367.175 715.127 366.208 714.518 365.044C713.91 363.88 713.605 362.564 713.605 361.094C713.605 359.802 713.879 358.736 714.425 357.897C714.971 357.041 715.712 356.463 716.649 356.164C717.6 355.869 718.662 355.877 719.832 356.189C720.612 356.397 721.361 356.75 722.079 357.249V352.113ZM719.996 366.795C720.667 366.974 721.361 367.063 722.079 367.06V359.865C721.408 359.428 720.761 359.126 720.136 358.959C719.138 358.693 718.303 358.801 717.632 359.285C716.976 359.772 716.649 360.646 716.649 361.905C716.649 363.133 716.961 364.193 717.585 365.087C718.225 365.968 719.028 366.537 719.996 366.795ZM728.255 368.295C728.801 368.651 729.441 369.015 730.174 369.389C730.923 369.75 731.626 370.018 732.281 370.193C732.952 370.372 733.444 370.381 733.756 370.222C734.068 370.047 734.224 369.75 734.224 369.33C734.224 368.942 734.091 368.616 733.826 368.352C733.561 368.071 733.163 367.787 732.632 367.5L730.947 366.615C729.932 366.086 729.129 365.484 728.536 364.809C727.943 364.134 727.646 363.239 727.646 362.125C727.646 360.849 728.122 360.015 729.074 359.623C730.042 359.235 731.228 359.228 732.632 359.602C733.303 359.781 733.966 360.023 734.622 360.327C735.293 360.619 735.87 360.926 736.354 361.249V363.89C735.823 363.538 735.199 363.194 734.481 362.857C733.764 362.504 733.092 362.245 732.468 362.078C731.875 361.92 731.415 361.894 731.087 362.001C730.759 362.107 730.596 362.338 730.596 362.693C730.596 363 730.705 363.28 730.923 363.532C731.157 363.772 731.516 364.021 732 364.279L733.662 365.158C734.739 365.72 735.589 366.367 736.214 367.099C736.853 367.818 737.173 368.752 737.173 369.898C737.173 370.803 736.939 371.507 736.471 372.012C736.019 372.522 735.41 372.828 734.645 372.931C733.881 373.034 733.046 372.964 732.141 372.723C731.407 372.528 730.697 372.282 730.01 371.985C729.324 371.689 728.739 371.372 728.255 371.033V368.295Z" fill="white"/>
<circle r="27.4731" transform="matrix(0.966235 0.257663 0 1 656.299 294.581)" fill="#5F259F"/>
<circle r="22.6949" transform="matrix(0.966235 0.257663 0 1 656.299 294.582)" fill="#FEFDFF"/>
<path d="M650.293 290.562L648.836 290.206C648.192 290.048 647.574 289.634 647.119 289.054C646.663 288.474 646.407 287.775 646.407 287.112C646.407 286.449 646.663 285.876 647.119 285.518C647.574 285.161 648.192 285.048 648.836 285.206L650.293 285.562" stroke="black" stroke-width="2" stroke-linecap="round" stroke-linejoin="round"/>
<path d="M661.95 293.411L663.407 293.767C664.051 293.925 664.669 293.812 665.124 293.455C665.579 293.097 665.835 292.524 665.835 291.861C665.835 291.198 665.579 290.499 665.124 289.919C664.669 289.339 664.051 288.925 663.407 288.767L661.95 288.411" stroke="black" stroke-width="2" stroke-linecap="round" stroke-linejoin="round"/>
<path d="M648.35 303.087L663.892 306.886" stroke="black" stroke-width="2" stroke-linecap="round" stroke-linejoin="round"/>
<path d="M654.178 297.172V299.512C654.178 300.062 653.722 300.381 653.236 300.492C652.09 300.752 651.264 302.04 651.264 303.8" stroke="black" stroke-width="2" stroke-linecap="round" stroke-linejoin="round"/>
<path d="M658.064 298.122V300.462C658.064 301.012 658.521 301.554 659.006 301.902C660.152 302.723 660.978 304.414 660.978 306.174" stroke="black" stroke-width="2" stroke-linecap="round" stroke-linejoin="round"/>
<path d="M661.95 286.412L650.293 283.562V290.562C650.293 292.154 650.907 293.83 652 295.222C653.093 296.615 654.575 297.609 656.121 297.987C657.667 298.365 659.149 298.095 660.242 297.237C661.335 296.379 661.95 295.003 661.95 293.412V286.412Z" stroke="black" stroke-width="2" stroke-linecap="round" stroke-linejoin="round"/>
</g>
<defs>
<clipPath id="clip0_246_6254">
<rect width="1920" height="580" fill="white"/>
</clipPath>
</defs>
</svg>
