<svg width="1920" height="580" viewBox="0 0 1920 580" fill="none" xmlns="http://www.w3.org/2000/svg">
<g clip-path="url(#clip0_246_5330)">
<path d="M671.988 157.748V305.915" stroke="#5D37AD" stroke-width="2" stroke-dasharray="6"/>
<rect width="252.375" height="119.317" rx="11.7361" transform="matrix(0.976187 -0.21693 0 1 547.492 68.6514)" fill="#FEB767"/>
<path d="M583.548 117.159V101.355L587.183 100.547L589.846 105.844C590.128 106.416 590.502 107.3 590.966 108.496C591.431 107.094 591.805 106.044 592.087 105.346L594.749 98.8656L598.385 98.0578V113.862L595.531 114.496V106.248C595.546 105.378 595.616 104.064 595.743 102.304L595.468 103.036C595.017 104.305 594.573 105.479 594.137 106.558L592.34 110.594L589.593 111.204L587.796 107.966C587.36 107.082 586.916 106.105 586.465 105.037L586.19 104.426C586.317 106.145 586.38 107.43 586.38 108.281V116.53L583.548 117.159ZM604.503 97.9755C604.503 98.4229 604.341 98.8342 604.017 99.2093C603.693 99.5699 603.284 99.8051 602.791 99.9147C602.284 100.027 601.861 99.977 601.523 99.7634C601.199 99.5324 601.037 99.1931 601.037 98.7457C601.037 98.2838 601.199 97.8726 601.523 97.5119C601.861 97.1337 602.284 96.8882 602.791 96.7755C603.284 96.6659 603.693 96.7266 604.017 96.9577C604.341 97.1744 604.503 97.5136 604.503 97.9755ZM601.439 101.774V113.183L604.102 112.592V101.182L601.439 101.774ZM609.019 105.762C609.019 106.902 609.35 107.702 610.012 108.161C610.674 108.62 611.492 108.748 612.464 108.547C612.985 108.431 613.506 108.243 614.028 107.983C614.563 107.705 615.014 107.41 615.38 107.098V109.587C614.958 109.898 614.457 110.182 613.88 110.44C613.302 110.699 612.724 110.892 612.147 111.02C611.146 111.243 610.195 111.23 609.294 110.983C608.406 110.733 607.68 110.223 607.117 109.453C606.553 108.684 606.271 107.657 606.271 106.372C606.271 105.102 606.553 103.964 607.117 102.959C607.68 101.939 608.406 101.113 609.294 100.483C610.195 99.8353 611.146 99.4002 612.147 99.1779C612.739 99.0464 613.316 98.983 613.88 98.9877C614.457 98.9892 614.958 99.0512 615.38 99.1738V101.664C615.014 101.514 614.563 101.427 614.028 101.401C613.506 101.358 612.985 101.395 612.464 101.511C611.478 101.744 610.653 102.23 609.991 102.969C609.343 103.705 609.019 104.636 609.019 105.762ZM623.221 96.717C623.841 96.5792 624.376 96.5757 624.827 96.7065V99.2395C624.221 99.0999 623.608 99.0989 622.989 99.2367C622.016 99.4527 621.101 100.01 620.241 100.908V109.005L617.578 109.597V98.1874L620.051 97.638V98.872C620.488 98.3131 620.974 97.8514 621.509 97.4871C622.059 97.1052 622.629 96.8485 623.221 96.717ZM631.233 106.779C632.29 106.544 633.248 106.086 634.107 105.404C634.981 104.705 635.664 103.853 636.157 102.848C636.665 101.826 636.918 100.731 636.918 99.5619C636.918 98.3928 636.665 97.4244 636.157 96.6567C635.664 95.8714 634.981 95.3305 634.107 95.0339C633.248 94.7342 632.29 94.7017 631.233 94.9365C630.176 95.1713 629.211 95.6312 628.338 96.316C627.478 96.9977 626.795 97.8424 626.288 98.8499C625.795 99.8399 625.548 100.919 625.548 102.089C625.548 103.258 625.795 104.242 626.288 105.042C626.795 105.824 627.478 106.372 628.338 106.686C629.211 106.983 630.176 107.014 631.233 106.779ZM631.233 97.3396C632.078 97.1518 632.783 97.3128 633.347 97.8226C633.91 98.3179 634.192 99.0997 634.192 100.168C634.192 101.25 633.91 102.179 633.347 102.954C632.783 103.714 632.078 104.188 631.233 104.376C630.388 104.564 629.683 104.403 629.12 103.893C628.57 103.365 628.295 102.56 628.295 101.478C628.295 100.41 628.57 99.5046 629.12 98.7619C629.683 98.0016 630.388 97.5275 631.233 97.3396ZM657.615 100.7L654.466 101.399L653.008 97.2853L647.746 98.4547L646.287 103.217L643.244 103.893L648.633 86.8914L652.226 86.093L657.615 100.7ZM648.591 95.6689L652.163 94.8752L651.656 93.4508C651.43 92.8225 651.12 91.8739 650.726 90.6049L650.366 89.494L649.923 91.1297L649.098 94.0191L648.591 95.6689ZM663.558 87.7532C664.657 87.509 665.664 87.5016 666.58 87.7311C667.496 87.9606 668.229 88.4545 668.778 89.2128C669.328 89.9711 669.602 90.9997 669.602 92.2987C669.602 93.4822 669.356 94.5834 668.863 95.6023C668.37 96.6067 667.693 97.4498 666.834 98.1315C665.989 98.8101 665.045 99.2652 664.002 99.4969C663.283 99.6566 662.6 99.6713 661.952 99.5411V104.066L659.289 104.658V89.5462C660.712 88.6671 662.135 88.0694 663.558 87.7532ZM663.706 97.1595C664.622 96.956 665.376 96.4926 665.967 95.7694C666.559 95.0317 666.855 94.0783 666.855 92.9092C666.855 91.8412 666.573 91.0595 666.01 90.5641C665.446 90.0543 664.728 89.8964 663.854 90.0905C663.234 90.2283 662.6 90.4558 661.952 90.773V97.2029C662.558 97.2992 663.142 97.2848 663.706 97.1595ZM676.045 84.9784C677.143 84.7342 678.151 84.7268 679.067 84.9563C679.982 85.1858 680.715 85.6797 681.265 86.438C681.814 87.1963 682.089 88.225 682.089 89.5239C682.089 90.7074 681.842 91.8086 681.349 92.8275C680.856 93.8319 680.18 94.675 679.32 95.3567C678.475 96.0353 677.531 96.4904 676.488 96.7221C675.77 96.8818 675.086 96.8965 674.438 96.7663V101.291L671.775 101.883V86.7715C673.198 85.8923 674.621 85.2947 676.045 84.9784ZM676.192 94.3848C677.108 94.1813 677.862 93.7179 678.454 92.9946C679.046 92.2569 679.341 91.3035 679.341 90.1345C679.341 89.0664 679.06 88.2847 678.496 87.7893C677.932 87.2795 677.214 87.1217 676.34 87.3158C675.72 87.4535 675.086 87.681 674.438 87.9983V94.4282C675.044 94.5245 675.629 94.51 676.192 94.3848ZM684.262 91.9637C684.755 92.0418 685.333 92.0866 685.995 92.0982C686.671 92.0923 687.305 92.0235 687.897 91.892C688.503 91.7574 688.947 91.5505 689.228 91.2714C689.51 90.9779 689.651 90.6435 689.651 90.2682C689.651 89.9218 689.531 89.6886 689.292 89.5687C689.052 89.4343 688.693 89.3553 688.214 89.3319L686.692 89.2803C685.776 89.2529 685.051 89.0678 684.515 88.7249C683.98 88.382 683.712 87.7126 683.712 86.7167C683.712 85.5765 684.142 84.6223 685.002 83.854C685.875 83.0825 686.946 82.5559 688.214 82.2741C688.82 82.1395 689.419 82.0642 690.01 82.0481C690.616 82.0145 691.137 82.0358 691.574 82.1119V84.4717C691.095 84.3906 690.532 84.357 689.884 84.3712C689.235 84.3708 688.63 84.4333 688.066 84.5586C687.531 84.6775 687.115 84.8565 686.819 85.0954C686.523 85.3344 686.375 85.6126 686.375 85.9301C686.375 86.2044 686.474 86.4062 686.671 86.5355C686.882 86.6473 687.207 86.7124 687.643 86.7308L689.144 86.7871C690.116 86.8164 690.884 87.021 691.447 87.4009C692.025 87.7633 692.314 88.4569 692.314 89.4816C692.314 90.2899 692.103 91.0224 691.68 91.6792C691.271 92.3329 690.722 92.8736 690.031 93.3012C689.341 93.7288 688.587 94.0335 687.77 94.2151C687.108 94.3622 686.467 94.4542 685.847 94.4909C685.227 94.5276 684.699 94.5007 684.262 94.4101V91.9637ZM704.996 90.3871C706.053 90.1523 707.011 89.694 707.87 89.0123C708.744 88.313 709.427 87.4612 709.92 86.4568C710.427 85.4348 710.681 84.3392 710.681 83.1701C710.681 82.0011 710.427 81.0327 709.92 80.265C709.427 79.4797 708.744 78.9388 707.87 78.6422C707.011 78.3424 706.053 78.31 704.996 78.5448C703.939 78.7796 702.974 79.2395 702.1 79.9243C701.241 80.606 700.558 81.4507 700.05 82.4582C699.557 83.4482 699.311 84.5278 699.311 85.6968C699.311 86.8659 699.557 87.8503 700.05 88.65C700.558 89.4321 701.241 89.9803 702.1 90.2945C702.974 90.5911 703.939 90.6219 704.996 90.3871ZM704.996 80.9479C705.841 80.7601 706.546 80.921 707.109 81.4308C707.673 81.9262 707.955 82.7079 707.955 83.776C707.955 84.8585 707.673 85.7871 707.109 86.5618C706.546 87.3221 705.841 87.7962 704.996 87.984C704.15 88.1719 703.446 88.0109 702.882 87.5011C702.333 86.9737 702.058 86.1688 702.058 85.0863C702.058 84.0183 702.333 83.1129 702.882 82.3701C703.446 81.6098 704.15 81.1358 704.996 80.9479ZM718.805 75.4977C719.961 75.241 720.883 75.4111 721.574 76.0082C722.264 76.5909 722.609 77.5606 722.609 78.9173V86.2565L719.947 86.8483V79.7255C719.947 79.0472 719.77 78.574 719.418 78.3058C719.08 78.0202 718.636 77.9384 718.087 78.0605C717.241 78.2483 716.396 78.8042 715.551 79.7282V87.8251L712.888 88.4169V77.0075L715.36 76.4581V77.6488C715.825 77.1125 716.354 76.6559 716.945 76.279C717.537 75.9022 718.157 75.6417 718.805 75.4977ZM737.4 73.8336L734.314 74.5193V79.8667C734.314 80.9348 734.864 81.3467 735.963 81.1025C736.371 81.0117 736.85 80.8331 737.4 80.5666V82.9481C736.822 83.2352 736.294 83.432 735.815 83.5384C734.392 83.8547 733.342 83.7488 732.666 83.2207C731.99 82.6782 731.651 81.8296 731.651 80.675V75.111L729.601 75.5666V73.2934L731.651 72.8378V69.9801L734.314 69.3883V72.2461L737.4 71.5604V73.8336ZM745.342 69.5791C746.567 69.3067 747.54 69.4659 748.258 70.0567C748.991 70.63 749.357 71.595 749.357 72.9517V80.3126L746.694 80.9043V73.7599C746.694 73.0816 746.511 72.6099 746.145 72.3449C745.793 72.0624 745.328 71.9853 744.75 72.1137C743.919 72.2984 743.102 72.7975 742.298 73.611V81.8812L739.636 82.4729V66.6687L742.298 66.077V71.3162C742.707 70.8934 743.172 70.5303 743.693 70.2268C744.229 69.9202 744.778 69.7043 745.342 69.5791ZM761.402 71.0111C761.402 71.4152 761.297 71.749 761.085 72.0125C760.874 72.2759 760.585 72.4484 760.219 72.5298L753.815 73.9528C753.886 75.0341 754.259 75.7666 754.935 76.1503C755.626 76.5309 756.499 76.6038 757.556 76.369C758.598 76.1373 759.592 75.7073 760.536 75.0789V77.4604C759.507 78.0786 758.429 78.513 757.302 78.7635C756.189 79.0108 755.175 79.0125 754.259 78.7686C753.357 78.5216 752.632 78.0045 752.082 77.2173C751.547 76.427 751.279 75.3751 751.279 74.0617C751.279 72.8061 751.533 71.6889 752.04 70.7102C752.547 69.717 753.202 68.9148 754.005 68.3033C754.823 67.6887 755.689 67.2797 756.605 67.0761C757.478 66.882 758.281 66.8984 759.014 67.1253C759.747 67.3522 760.324 67.8011 760.747 68.4721C761.184 69.1256 761.402 69.9719 761.402 71.0111ZM756.563 69.1855C755.9 69.3327 755.337 69.6672 754.872 70.1891C754.421 70.6934 754.111 71.3468 753.942 72.1494L758.972 71.0316C758.915 70.308 758.662 69.7871 758.211 69.4687C757.76 69.1359 757.211 69.0415 756.563 69.1855ZM635.25 116.865C636.363 116.618 637.357 116.592 638.23 116.788C639.104 116.983 639.787 117.416 640.28 118.086C640.788 118.752 641.041 119.642 641.041 120.753C641.041 121.85 640.788 122.844 640.28 123.736C639.787 124.625 639.097 125.371 638.209 125.972C637.336 126.556 636.349 126.97 635.25 127.214L632.651 127.792V133.247L629.819 133.877V118.072L635.25 116.865ZM635.102 124.627C636.004 124.427 636.73 124.056 637.279 123.516C637.843 122.972 638.125 122.267 638.125 121.401C638.125 120.535 637.843 119.963 637.279 119.684C636.73 119.387 636.004 119.339 635.102 119.54L632.651 120.084V125.172L635.102 124.627ZM643.129 115.115V130.919L645.792 130.327V114.523L643.129 115.115ZM652.421 117.228C653.774 116.928 654.873 117.015 655.718 117.491C656.577 117.964 657.007 118.951 657.007 120.452V127.835L654.492 128.394V127.636C653.562 128.492 652.59 129.033 651.576 129.258C650.448 129.509 649.568 129.394 648.934 128.914C648.314 128.432 648.004 127.642 648.004 126.545C648.004 125.433 648.398 124.473 649.187 123.662C649.976 122.837 651.012 122.282 652.294 121.998L654.344 121.542V121.217C654.344 120.539 654.133 120.081 653.71 119.843C653.287 119.605 652.689 119.572 651.914 119.744C650.829 119.985 649.723 120.541 648.596 121.412V118.923C649.075 118.556 649.652 118.226 650.329 117.931C651.005 117.622 651.702 117.388 652.421 117.228ZM650.603 125.924C650.603 126.4 650.765 126.732 651.09 126.92C651.428 127.105 651.857 127.139 652.379 127.023C653.097 126.863 653.752 126.537 654.344 126.045V123.49L652.738 123.847C652.076 123.995 651.554 124.247 651.174 124.606C650.794 124.951 650.603 125.39 650.603 125.924ZM666.362 116.62L663.276 117.306V122.653C663.276 123.721 663.825 124.133 664.924 123.889C665.333 123.798 665.812 123.619 666.362 123.353V125.734C665.784 126.022 665.255 126.218 664.776 126.325C663.353 126.641 662.304 126.535 661.627 126.007C660.951 125.465 660.613 124.616 660.613 123.461V117.897L658.563 118.353V116.08L660.613 115.624V112.766L663.276 112.175V115.032L666.362 114.347V116.62ZM673.817 110.417C673.113 110.573 672.62 110.834 672.338 111.2C672.056 111.551 671.915 111.987 671.915 112.506V113.113L675.022 112.422V114.695L672 115.367V124.503L669.337 125.095V115.959L667.562 116.353V114.08L669.337 113.686V112.776C669.337 111.679 669.647 110.723 670.267 109.907C670.901 109.073 671.908 108.503 673.289 108.196C673.768 108.089 674.346 108.019 675.022 107.984V110.257C674.641 110.27 674.24 110.323 673.817 110.417ZM681.839 122.533C682.896 122.298 683.854 121.84 684.713 121.158C685.587 120.459 686.27 119.607 686.763 118.603C687.271 117.581 687.524 116.485 687.524 115.316C687.524 114.147 687.271 113.179 686.763 112.411C686.27 111.626 685.587 111.085 684.713 110.788C683.854 110.488 682.896 110.456 681.839 110.691C680.783 110.926 679.817 111.385 678.944 112.07C678.084 112.752 677.401 113.597 676.894 114.604C676.401 115.594 676.154 116.674 676.154 117.843C676.154 119.012 676.401 119.996 676.894 120.796C677.401 121.578 678.084 122.126 678.944 122.44C679.817 122.737 680.783 122.768 681.839 122.533ZM681.839 113.094C682.685 112.906 683.389 113.067 683.953 113.577C684.516 114.072 684.798 114.854 684.798 115.922C684.798 117.004 684.516 117.933 683.953 118.708C683.389 119.468 682.685 119.942 681.839 120.13C680.994 120.318 680.289 120.157 679.726 119.647C679.176 119.12 678.902 118.315 678.902 117.232C678.902 116.164 679.176 115.259 679.726 114.516C680.289 113.756 680.994 113.282 681.839 113.094ZM695.374 107.683C695.994 107.545 696.529 107.542 696.98 107.672V110.205C696.374 110.066 695.761 110.065 695.141 110.203C694.169 110.419 693.253 110.976 692.394 111.874V119.971L689.731 120.563V109.153L692.204 108.604V109.838C692.641 109.279 693.127 108.817 693.662 108.453C694.212 108.071 694.782 107.815 695.374 107.683ZM711.053 104.22C712.138 103.979 712.997 104.142 713.631 104.708C714.265 105.26 714.582 106.186 714.582 107.485V115.04L711.919 115.632V108.293C711.919 107.672 711.757 107.246 711.433 107.015C711.123 106.767 710.708 106.7 710.186 106.816C709.454 106.979 708.693 107.473 707.904 108.298C707.932 108.58 707.946 108.801 707.946 108.959V116.515L705.283 117.107V109.768C705.283 109.147 705.121 108.721 704.797 108.49C704.487 108.241 704.071 108.175 703.55 108.291C702.775 108.463 702.028 108.946 701.31 109.741V117.99L698.647 118.581V107.172L701.12 106.623V107.813C701.571 107.295 702.078 106.85 702.641 106.479C703.205 106.094 703.79 105.834 704.396 105.7C705.058 105.553 705.642 105.56 706.15 105.721C706.671 105.88 707.087 106.192 707.397 106.657C708.58 105.311 709.799 104.499 711.053 104.22Z" fill="black"/>
<circle r="29.3428" transform="matrix(0.976187 -0.21693 0 1 664.961 43.8212)" fill="#FEB767"/>
<circle r="24.2395" transform="matrix(0.976187 -0.21693 0 1 664.961 43.821)" fill="white"/>
<g clip-path="url(#clip1_246_5330)">
<path d="M664.663 36.6065L657.899 38.4102V45.4102L664.663 43.6065V36.6065Z" stroke="black" stroke-width="2" stroke-linecap="round" stroke-linejoin="round"/>
<path d="M675.291 33.7725L668.527 35.5762V42.5762L675.291 40.7725V33.7725Z" stroke="black" stroke-width="2" stroke-linecap="round" stroke-linejoin="round"/>
<path d="M675.291 44.7725L668.527 46.5762V53.5762L675.291 51.7725V44.7725Z" stroke="black" stroke-width="2" stroke-linecap="round" stroke-linejoin="round"/>
<path d="M664.663 47.6065L657.899 49.4102V56.4102L664.663 54.6065V47.6065Z" stroke="black" stroke-width="2" stroke-linecap="round" stroke-linejoin="round"/>
</g>
<path d="M1584.65 310.74L1584.65 405.138" stroke="#5D37AD" stroke-width="2" stroke-dasharray="6"/>
<rect width="201.628" height="119.317" rx="11.7361" transform="matrix(0.976187 -0.21693 0 1 1486.45 234.498)" fill="#00BCD5"/>
<path d="M1512.04 271.783L1515.53 271.007L1521.74 279.114C1522.87 280.55 1523.84 281.92 1524.65 283.224C1524.5 281.548 1524.43 279.979 1524.43 278.515V269.029L1528.11 268.21V288.76L1524.62 289.535L1518.71 281.812C1517.71 280.497 1516.63 279.029 1515.47 277.409C1515.64 279.024 1515.72 280.695 1515.72 282.421V291.514L1512.04 292.332V271.783ZM1539.28 265.729C1540.72 265.407 1542.02 265.374 1543.15 265.628C1544.29 265.882 1545.18 266.445 1545.82 267.316C1546.48 268.183 1546.81 269.339 1546.81 270.784C1546.81 272.21 1546.48 273.503 1545.82 274.663C1545.18 275.819 1544.28 276.788 1543.12 277.57C1541.99 278.329 1540.71 278.867 1539.28 279.185L1535.9 279.936V287.03L1532.21 287.848V267.298L1539.28 265.729ZM1539.08 275.821C1540.26 275.561 1541.2 275.079 1541.92 274.376C1542.65 273.669 1543.01 272.752 1543.01 271.626C1543.01 270.5 1542.65 269.756 1541.92 269.394C1541.2 269.008 1540.26 268.946 1539.08 269.206L1535.9 269.914V276.53L1539.08 275.821ZM1559.22 261.015C1561.13 260.592 1562.89 260.586 1564.5 260.997V264.713C1563.87 264.457 1563.12 264.305 1562.24 264.257C1561.36 264.189 1560.46 264.259 1559.52 264.467C1558.26 264.748 1557.11 265.265 1556.09 266.019C1555.08 266.768 1554.28 267.745 1553.67 268.949C1553.07 270.134 1552.76 271.496 1552.76 273.035C1552.76 274.555 1553.07 275.773 1553.67 276.69C1554.28 277.607 1555.08 278.216 1556.09 278.517C1557.11 278.796 1558.26 278.795 1559.52 278.514C1560.46 278.306 1561.36 277.983 1562.24 277.543C1563.12 277.104 1563.87 276.618 1564.5 276.086V279.773C1562.85 280.928 1561.09 281.713 1559.22 282.128C1557.21 282.576 1555.4 282.526 1553.81 281.98C1552.23 281.41 1551.01 280.426 1550.13 279.026C1549.25 277.626 1548.81 275.922 1548.81 273.914C1548.81 271.906 1549.25 269.998 1550.13 268.188C1551.01 266.379 1552.23 264.849 1553.81 263.598C1555.4 262.324 1557.21 261.463 1559.22 261.015ZM1567.77 259.396V279.946L1571.46 279.128V258.578L1567.77 259.396ZM1599.49 272.899L1595.39 273.809L1593.5 268.459L1586.65 269.98L1584.76 276.172L1580.8 277.051L1587.81 254.945L1592.48 253.906L1599.49 272.899ZM1587.75 266.357L1592.4 265.325L1591.74 263.473C1591.44 262.656 1591.04 261.423 1590.53 259.773L1590.06 258.328L1589.48 260.455L1588.41 264.212L1587.75 266.357ZM1611.51 264.652C1611.07 263.211 1610.63 261.329 1610.19 259.006C1609.85 261.148 1609.42 263.223 1608.9 265.232L1607.31 271.16L1603.74 271.954L1599.59 258.041L1603.13 257.254L1604.45 261.999C1604.65 262.761 1604.86 263.737 1605.08 264.927C1605.3 266.117 1605.49 267.202 1605.63 268.183C1605.8 267.189 1606.02 266.024 1606.29 264.687C1606.57 263.331 1606.82 262.213 1607.06 261.335L1608.52 256.057L1611.93 255.299L1613.38 259.958C1613.77 261.111 1614.24 263.173 1614.81 266.143C1614.96 265.097 1615.14 263.931 1615.36 262.643C1615.58 261.356 1615.79 260.296 1615.99 259.463L1617.31 254.103L1620.83 253.321L1616.65 269.084L1613.08 269.878L1611.51 264.652ZM1627.51 251.554C1629.27 251.164 1630.7 251.278 1631.8 251.897C1632.92 252.512 1633.47 253.795 1633.47 255.747V265.346L1630.2 266.072V265.087C1629 266.2 1627.73 266.904 1626.41 267.197C1624.95 267.522 1623.8 267.373 1622.98 266.75C1622.17 266.122 1621.77 265.095 1621.77 263.668C1621.77 262.223 1622.28 260.974 1623.31 259.92C1624.33 258.848 1625.68 258.126 1627.35 257.756L1630.01 257.164V256.741C1630.01 255.859 1629.74 255.263 1629.19 254.954C1628.64 254.644 1627.86 254.602 1626.85 254.826C1625.44 255.139 1624 255.862 1622.54 256.995V253.758C1623.16 253.281 1623.91 252.852 1624.79 252.469C1625.67 252.067 1626.58 251.762 1627.51 251.554ZM1625.15 262.861C1625.15 263.48 1625.36 263.912 1625.78 264.156C1626.22 264.396 1626.78 264.441 1627.46 264.29C1628.39 264.083 1629.24 263.659 1630.01 263.019V259.697L1627.92 260.161C1627.06 260.352 1626.38 260.681 1625.89 261.148C1625.4 261.596 1625.15 262.167 1625.15 262.861ZM1644.18 247.85C1644.99 247.671 1645.68 247.666 1646.27 247.836V251.13C1645.48 250.948 1644.69 250.947 1643.88 251.126C1642.62 251.407 1641.42 252.132 1640.31 253.299V263.828L1636.84 264.597V249.762L1640.06 249.047V250.652C1640.63 249.925 1641.26 249.325 1641.96 248.851C1642.67 248.355 1643.41 248.021 1644.18 247.85ZM1657.15 239.534L1660.62 238.765V258.498C1658.77 259.641 1656.92 260.418 1655.07 260.829C1653.64 261.147 1652.33 261.156 1651.14 260.858C1649.95 260.541 1648.99 259.88 1648.28 258.875C1647.56 257.87 1647.21 256.514 1647.21 254.806C1647.21 253.305 1647.53 251.911 1648.17 250.623C1648.81 249.317 1649.68 248.223 1650.78 247.341C1651.9 246.454 1653.14 245.859 1654.52 245.553C1655.43 245.35 1656.31 245.333 1657.15 245.502V239.534ZM1654.71 257.784C1655.5 257.609 1656.31 257.315 1657.15 256.903V248.542C1656.37 248.417 1655.61 248.436 1654.87 248.598C1653.7 248.859 1652.72 249.462 1651.93 250.406C1651.16 251.346 1650.78 252.549 1650.78 254.012C1650.78 255.439 1651.15 256.493 1651.88 257.174C1652.63 257.833 1653.57 258.036 1654.71 257.784ZM1525.6 299.609L1528.25 299.019V307.986C1528.24 309.023 1528.47 309.81 1528.96 310.347C1529.46 310.882 1530.18 311.044 1531.12 310.834C1532.09 310.618 1532.82 310.141 1533.31 309.402C1533.79 308.649 1534.03 307.749 1534.03 306.701V297.734L1536.69 297.144V306.252C1536.69 307.38 1536.47 308.436 1536.04 309.419C1535.61 310.388 1534.97 311.214 1534.13 311.898C1533.29 312.568 1532.29 313.033 1531.12 313.292C1529.97 313.549 1528.97 313.522 1528.13 313.211C1527.31 312.898 1526.68 312.352 1526.24 311.575C1525.81 310.798 1525.6 309.846 1525.6 308.717V299.609ZM1544.5 295.407C1545.54 295.177 1546.46 295.153 1547.28 295.335C1548.09 295.517 1548.73 295.92 1549.18 296.543C1549.66 297.164 1549.89 297.991 1549.89 299.026C1549.89 300.047 1549.66 300.972 1549.18 301.803C1548.73 302.63 1548.08 303.324 1547.26 303.883C1546.44 304.427 1545.53 304.812 1544.5 305.039L1542.08 305.577V310.655L1539.45 311.241V296.531L1544.5 295.407ZM1544.37 302.632C1545.2 302.445 1545.88 302.1 1546.39 301.597C1546.92 301.091 1547.18 300.435 1547.18 299.629C1547.18 298.823 1546.92 298.29 1546.39 298.03C1545.88 297.755 1545.2 297.71 1544.37 297.896L1542.08 298.403V303.139L1544.37 302.632ZM1551.97 293.747V308.457L1554.61 307.871V293.161L1551.97 293.747ZM1562.6 306.096V291.387L1565.98 290.635L1568.46 295.565C1568.72 296.098 1569.07 296.92 1569.5 298.033C1569.93 296.728 1570.28 295.751 1570.54 295.101L1573.02 289.07L1576.41 288.318V303.028L1573.75 303.618V295.941C1573.76 295.132 1573.83 293.908 1573.95 292.27L1573.69 292.951C1573.27 294.133 1572.86 295.225 1572.45 296.229L1570.78 299.986L1568.22 300.554L1566.55 297.54C1566.14 296.717 1565.73 295.808 1565.31 294.813L1565.06 294.246C1565.17 295.845 1565.23 297.041 1565.23 297.833V305.511L1562.6 306.096ZM1587.98 294.289C1587.98 294.665 1587.88 294.976 1587.69 295.221C1587.49 295.466 1587.22 295.627 1586.88 295.703L1580.92 297.027C1580.99 298.034 1581.33 298.715 1581.96 299.073C1582.61 299.427 1583.42 299.495 1584.4 299.276C1585.37 299.06 1586.3 298.66 1587.18 298.075V300.292C1586.22 300.867 1585.22 301.272 1584.17 301.505C1583.13 301.735 1582.19 301.737 1581.33 301.51C1580.49 301.28 1579.82 300.798 1579.31 300.066C1578.81 299.33 1578.56 298.351 1578.56 297.129C1578.56 295.96 1578.8 294.92 1579.27 294.009C1579.74 293.085 1580.35 292.338 1581.1 291.769C1581.86 291.197 1582.66 290.816 1583.52 290.627C1584.33 290.446 1585.08 290.461 1585.76 290.672C1586.44 290.884 1586.98 291.301 1587.37 291.926C1587.78 292.534 1587.98 293.322 1587.98 294.289ZM1583.48 292.59C1582.86 292.727 1582.34 293.038 1581.9 293.524C1581.48 293.993 1581.2 294.602 1581.04 295.349L1585.72 294.308C1585.67 293.635 1585.43 293.15 1585.01 292.854C1584.59 292.544 1584.08 292.456 1583.48 292.59ZM1595.28 288.013C1595.85 287.885 1596.35 287.882 1596.77 288.004V290.361C1596.21 290.231 1595.64 290.23 1595.06 290.359C1594.16 290.56 1593.3 291.078 1592.5 291.914V299.45L1590.03 300.001V289.382L1592.33 288.871V290.019C1592.73 289.499 1593.19 289.069 1593.68 288.73C1594.2 288.375 1594.73 288.136 1595.28 288.013ZM1600 292.445C1600 293.506 1600.31 294.25 1600.92 294.677C1601.54 295.105 1602.3 295.224 1603.21 295.037C1603.69 294.929 1604.18 294.754 1604.66 294.512C1605.16 294.253 1605.58 293.979 1605.92 293.688V296.005C1605.53 296.294 1605.06 296.559 1604.52 296.799C1603.99 297.04 1603.45 297.22 1602.91 297.339C1601.98 297.546 1601.1 297.535 1600.26 297.305C1599.43 297.072 1598.75 296.597 1598.23 295.881C1597.71 295.164 1597.44 294.209 1597.44 293.013C1597.44 291.831 1597.71 290.772 1598.23 289.836C1598.75 288.886 1599.43 288.118 1600.26 287.532C1601.1 286.929 1601.98 286.524 1602.91 286.317C1603.46 286.194 1604 286.135 1604.52 286.14C1605.06 286.141 1605.53 286.199 1605.92 286.313V288.63C1605.58 288.491 1605.16 288.41 1604.66 288.386C1604.18 288.346 1603.69 288.38 1603.21 288.488C1602.29 288.705 1601.52 289.158 1600.91 289.846C1600.3 290.531 1600 291.397 1600 292.445ZM1613.28 284.013C1614.42 283.76 1615.32 283.908 1615.99 284.458C1616.67 284.991 1617.02 285.889 1617.02 287.152V294.003L1614.54 294.554V287.905C1614.54 287.273 1614.37 286.834 1614.03 286.587C1613.7 286.325 1613.26 286.253 1612.73 286.372C1611.95 286.544 1611.19 287.009 1610.45 287.766V295.463L1607.97 296.014V281.304L1610.45 280.754V285.63C1610.83 285.236 1611.26 284.899 1611.74 284.616C1612.24 284.331 1612.75 284.13 1613.28 284.013ZM1622.95 281.863C1624.21 281.583 1625.24 281.665 1626.02 282.108C1626.82 282.548 1627.22 283.467 1627.22 284.864V291.735L1624.88 292.255V291.55C1624.02 292.347 1623.11 292.85 1622.17 293.06C1621.12 293.293 1620.3 293.186 1619.71 292.74C1619.13 292.29 1618.84 291.555 1618.84 290.534C1618.84 289.5 1619.21 288.606 1619.95 287.851C1620.68 287.084 1621.64 286.567 1622.84 286.302L1624.74 285.878V285.576C1624.74 284.944 1624.55 284.518 1624.15 284.296C1623.76 284.075 1623.2 284.044 1622.48 284.204C1621.47 284.429 1620.44 284.946 1619.39 285.757V283.44C1619.84 283.099 1620.38 282.791 1621.01 282.517C1621.64 282.23 1622.29 282.011 1622.95 281.863ZM1621.26 289.956C1621.26 290.4 1621.41 290.709 1621.72 290.883C1622.03 291.055 1622.43 291.087 1622.92 290.98C1623.58 290.831 1624.19 290.527 1624.74 290.069V287.691L1623.25 288.024C1622.63 288.161 1622.15 288.396 1621.79 288.73C1621.44 289.051 1621.26 289.459 1621.26 289.956ZM1635.14 279.174C1636.22 278.935 1637.08 279.094 1637.72 279.65C1638.36 280.192 1638.68 281.094 1638.68 282.357V289.188L1636.21 289.739V283.109C1636.21 282.478 1636.04 282.038 1635.71 281.788C1635.4 281.522 1634.99 281.446 1634.47 281.56C1633.69 281.735 1632.9 282.252 1632.11 283.112V290.648L1629.64 291.199V280.58L1631.94 280.068V281.177C1632.37 280.677 1632.86 280.252 1633.41 279.902C1633.96 279.551 1634.54 279.308 1635.14 279.174ZM1647.46 278.735L1644.58 279.374V284.351C1644.58 285.345 1645.1 285.728 1646.12 285.501C1646.5 285.416 1646.94 285.25 1647.46 285.002V287.219C1646.92 287.486 1646.43 287.669 1645.98 287.768C1644.66 288.063 1643.68 287.964 1643.05 287.472C1642.42 286.968 1642.11 286.178 1642.11 285.103V279.924L1640.2 280.348V278.233L1642.11 277.809V275.149L1644.58 274.598V277.258L1647.46 276.62V278.735Z" fill="white"/>
<circle r="29.3428" transform="matrix(0.976187 -0.21693 0 1 1579.15 215.172)" fill="#00BCD5"/>
<circle r="24.2395" transform="matrix(0.976187 -0.21693 0 1 1579.15 215.172)" fill="white"/>
<path d="M1571.49 227.88L1588.47 224.483M1567.85 208.814L1571.49 222.931L1588.47 219.535L1592.11 203.962L1584.83 214.077L1579.98 206.388L1575.12 216.018L1567.85 208.814Z" stroke="#5D37AD" stroke-width="2.47413" stroke-linecap="round" stroke-linejoin="round"/>
<path d="M1303.23 154.358L1303.23 248.321" stroke="#5D37AD" stroke-width="2" stroke-dasharray="6"/>
<rect width="226.926" height="98.9741" rx="9.15998" transform="matrix(0.966235 0.257663 0 1 1193.59 32.4648)" fill="#FE638C"/>
<path d="M1269.31 87.5729V99.7529L1272.96 100.727V103.147L1262.77 100.431V98.0111L1266.72 99.0624V89.6824L1262.75 89.886V87.426L1267.22 87.0164L1269.31 87.5729ZM1288.39 99.6617C1289.24 100.088 1289.9 100.685 1290.38 101.452C1290.87 102.21 1291.11 102.988 1291.11 103.788C1291.11 104.682 1290.88 105.38 1290.42 105.883C1289.97 106.389 1289.34 106.703 1288.54 106.823C1287.76 106.933 1286.87 106.856 1285.88 106.592L1280.85 105.252V90.6519L1285.76 91.9608C1287.19 92.3422 1288.36 92.9931 1289.26 93.9136C1290.16 94.8207 1290.61 95.8943 1290.61 97.1343C1290.61 97.8409 1290.42 98.4245 1290.05 98.8848C1289.69 99.3353 1289.13 99.5942 1288.39 99.6617ZM1283.44 93.7024V97.3024L1285.88 97.9517C1286.51 98.1201 1287.01 98.1074 1287.38 97.9137C1287.76 97.72 1287.94 97.3165 1287.94 96.7031C1287.94 96.0898 1287.74 95.5832 1287.34 95.1834C1286.94 94.7835 1286.42 94.496 1285.76 94.3208L1283.44 93.7024ZM1286.01 104.268C1286.73 104.46 1287.32 104.457 1287.77 104.257C1288.22 104.044 1288.45 103.604 1288.45 102.937C1288.45 102.27 1288.22 101.717 1287.77 101.277C1287.33 100.84 1286.75 100.524 1286.01 100.328L1283.44 99.6424V103.582L1286.01 104.268ZM1296.16 95.9148C1296.16 96.3281 1296.01 96.6353 1295.72 96.8363C1295.42 97.0239 1295.05 97.0576 1294.6 96.9374C1294.13 96.8137 1293.75 96.5773 1293.44 96.2282C1293.14 95.8692 1292.99 95.483 1292.99 95.0697C1292.99 94.643 1293.14 94.3358 1293.44 94.1482C1293.75 93.9506 1294.13 93.9137 1294.6 94.0374C1295.05 94.1576 1295.42 94.3973 1295.72 94.7563C1296.01 95.102 1296.16 95.4881 1296.16 95.9148ZM1293.36 98.0476V108.588L1295.79 109.237V98.6969L1293.36 98.0476ZM1298.46 95.3463V109.946L1300.89 110.596V95.9956L1298.46 95.3463ZM1303.55 96.7051V111.305L1305.99 111.954V97.3544L1303.55 96.7051ZM1311.45 99.9911C1311.45 100.404 1311.3 100.712 1311 100.913C1310.71 101.1 1310.33 101.134 1309.88 101.014C1309.42 100.89 1309.03 100.654 1308.72 100.304C1308.43 99.9455 1308.28 99.5593 1308.28 99.146C1308.28 98.7193 1308.43 98.4121 1308.72 98.2245C1309.03 98.0269 1309.42 97.99 1309.88 98.1137C1310.33 98.2339 1310.71 98.4736 1311 98.8326C1311.3 99.1783 1311.45 99.5644 1311.45 99.9911ZM1308.65 102.124V112.664L1311.08 113.313V102.773L1308.65 102.124ZM1318.26 115.429C1319.23 115.686 1320.11 115.693 1320.89 115.449C1321.69 115.196 1322.32 114.716 1322.77 114.009C1323.23 113.293 1323.46 112.395 1323.46 111.315C1323.46 110.235 1323.23 109.226 1322.77 108.289C1322.32 107.342 1321.69 106.536 1320.89 105.869C1320.11 105.206 1319.23 104.746 1318.26 104.489C1317.3 104.231 1316.41 104.222 1315.62 104.463C1314.83 104.706 1314.21 105.18 1313.74 105.883C1313.29 106.576 1313.07 107.462 1313.07 108.542C1313.07 109.622 1313.29 110.642 1313.74 111.603C1314.21 112.553 1314.83 113.366 1315.62 114.043C1316.41 114.709 1317.3 115.171 1318.26 115.429ZM1318.26 106.709C1319.04 106.915 1319.68 107.38 1320.2 108.104C1320.71 108.815 1320.97 109.663 1320.97 110.65C1320.97 111.65 1320.71 112.381 1320.2 112.844C1319.68 113.293 1319.04 113.415 1318.26 113.209C1317.49 113.002 1316.85 112.537 1316.33 111.813C1315.83 111.079 1315.58 110.212 1315.58 109.212C1315.58 108.226 1315.83 107.513 1316.33 107.073C1316.85 106.624 1317.49 106.502 1318.26 106.709ZM1330.89 107.876C1331.95 108.157 1332.79 108.729 1333.42 109.591C1334.05 110.439 1334.37 111.49 1334.37 112.743V119.523L1331.93 118.874V112.294C1331.93 111.667 1331.77 111.151 1331.45 110.745C1331.14 110.329 1330.74 110.055 1330.23 109.921C1329.46 109.714 1328.69 109.848 1327.91 110.322V117.802L1325.48 117.153V106.613L1327.74 107.216V108.316C1328.17 108.029 1328.65 107.845 1329.19 107.762C1329.73 107.68 1330.3 107.718 1330.89 107.876ZM1251.45 107.812V110.252L1247.43 109.18V121.34L1244.86 120.654V108.494L1240.84 107.423V104.983L1251.45 107.812ZM1258.14 113.457C1258.71 113.608 1259.2 113.845 1259.61 114.168V116.508C1259.06 116.107 1258.5 115.831 1257.93 115.68C1257.04 115.443 1256.2 115.546 1255.42 115.99V123.47L1252.98 122.821V112.281L1255.24 112.884V114.024C1255.64 113.703 1256.09 113.495 1256.58 113.399C1257.08 113.293 1257.6 113.312 1258.14 113.457ZM1264.44 115.136C1265.68 115.466 1266.68 116.041 1267.46 116.86C1268.24 117.683 1268.64 118.788 1268.64 120.175V126.995L1266.34 126.381V125.681C1265.49 126.055 1264.6 126.118 1263.67 125.87C1262.64 125.595 1261.83 125.094 1261.25 124.366C1260.69 123.642 1260.4 122.773 1260.4 121.759C1260.4 120.733 1260.76 120.022 1261.49 119.628C1262.21 119.22 1263.15 119.173 1264.33 119.486L1266.2 119.985V119.685C1266.2 119.059 1266.01 118.541 1265.62 118.131C1265.24 117.721 1264.69 117.422 1263.98 117.233C1262.99 116.968 1261.98 116.985 1260.95 117.284V114.984C1261.38 114.86 1261.91 114.815 1262.53 114.846C1263.15 114.864 1263.79 114.961 1264.44 115.136ZM1262.78 122.353C1262.78 122.793 1262.93 123.173 1263.23 123.492C1263.53 123.814 1263.93 124.039 1264.4 124.166C1265.06 124.341 1265.66 124.334 1266.2 124.145V121.785L1264.73 121.394C1264.13 121.232 1263.65 121.232 1263.3 121.392C1262.96 121.54 1262.78 121.86 1262.78 122.353ZM1276.42 118.35C1277.47 118.631 1278.32 119.203 1278.95 120.065C1279.58 120.913 1279.9 121.964 1279.9 123.217V129.997L1277.46 129.348V122.768C1277.46 122.141 1277.3 121.625 1276.98 121.219C1276.67 120.803 1276.26 120.528 1275.76 120.394C1274.99 120.188 1274.21 120.322 1273.44 120.796V128.276L1271.01 127.627V117.087L1273.27 117.69V118.79C1273.69 118.503 1274.18 118.318 1274.72 118.236C1275.26 118.154 1275.82 118.191 1276.42 118.35ZM1282.33 128.046C1282.78 128.34 1283.31 128.641 1283.91 128.949C1284.53 129.247 1285.11 129.468 1285.65 129.612C1286.21 129.76 1286.61 129.768 1286.87 129.637C1287.13 129.492 1287.26 129.247 1287.26 128.9C1287.26 128.58 1287.15 128.311 1286.93 128.093C1286.71 127.861 1286.38 127.627 1285.94 127.39L1284.55 126.659C1283.71 126.222 1283.05 125.725 1282.56 125.168C1282.07 124.611 1281.83 123.872 1281.83 122.952C1281.83 121.899 1282.22 121.21 1283.01 120.886C1283.8 120.566 1284.78 120.561 1285.94 120.87C1286.5 121.017 1287.04 121.217 1287.59 121.468C1288.14 121.709 1288.62 121.963 1289.02 122.229V124.409C1288.58 124.119 1288.06 123.835 1287.47 123.557C1286.88 123.265 1286.32 123.051 1285.81 122.914C1285.32 122.783 1284.94 122.762 1284.67 122.85C1284.4 122.937 1284.26 123.128 1284.26 123.421C1284.26 123.675 1284.35 123.905 1284.53 124.114C1284.73 124.312 1285.02 124.517 1285.42 124.731L1286.79 125.456C1287.68 125.92 1288.38 126.454 1288.9 127.058C1289.43 127.652 1289.69 128.423 1289.69 129.369C1289.69 130.116 1289.5 130.698 1289.11 131.115C1288.74 131.535 1288.24 131.788 1287.6 131.873C1286.97 131.958 1286.28 131.901 1285.54 131.702C1284.93 131.54 1284.35 131.337 1283.78 131.093C1283.21 130.848 1282.73 130.586 1282.33 130.306V128.046ZM1295.26 123.354C1296.5 123.684 1297.5 124.259 1298.28 125.078C1299.06 125.901 1299.45 127.006 1299.45 128.393V135.213L1297.15 134.599V133.899C1296.3 134.273 1295.42 134.336 1294.49 134.088C1293.46 133.813 1292.65 133.312 1292.07 132.584C1291.51 131.86 1291.22 130.991 1291.22 129.977C1291.22 128.951 1291.58 128.24 1292.3 127.846C1293.03 127.438 1293.97 127.391 1295.14 127.704L1297.02 128.203V127.903C1297.02 127.277 1296.83 126.759 1296.44 126.349C1296.05 125.939 1295.51 125.64 1294.8 125.451C1293.8 125.186 1292.79 125.203 1291.76 125.502V123.202C1292.2 123.079 1292.73 123.033 1293.35 123.064C1293.97 123.083 1294.6 123.179 1295.26 123.354ZM1293.6 130.571C1293.6 131.011 1293.75 131.391 1294.04 131.71C1294.35 132.032 1294.75 132.257 1295.22 132.384C1295.88 132.559 1296.48 132.552 1297.02 132.363V130.003L1295.55 129.612C1294.95 129.45 1294.47 129.45 1294.12 129.61C1293.77 129.758 1293.6 130.078 1293.6 130.571ZM1303.66 131.034C1303.66 132.088 1303.96 132.975 1304.57 133.696C1305.17 134.418 1305.92 134.904 1306.81 135.154C1307.29 135.281 1307.76 135.342 1308.24 135.336C1308.73 135.319 1309.14 135.249 1309.48 135.125V137.425C1309.09 137.522 1308.63 137.56 1308.1 137.539C1307.58 137.519 1307.05 137.438 1306.52 137.297C1305.61 137.053 1304.74 136.614 1303.91 135.981C1303.1 135.351 1302.44 134.554 1301.92 133.59C1301.41 132.626 1301.15 131.551 1301.15 130.364C1301.15 129.191 1301.41 128.266 1301.92 127.59C1302.44 126.901 1303.1 126.465 1303.91 126.281C1304.74 126.088 1305.61 126.113 1306.52 126.357C1307.06 126.501 1307.59 126.702 1308.1 126.959C1308.63 127.22 1309.09 127.502 1309.48 127.805V130.105C1309.14 129.803 1308.73 129.519 1308.24 129.256C1307.76 128.982 1307.29 128.781 1306.81 128.654C1305.91 128.427 1305.15 128.506 1304.55 128.891C1303.96 129.28 1303.66 129.994 1303.66 131.034ZM1317.67 131.63L1314.85 130.878V135.818C1314.85 136.805 1315.35 137.432 1316.36 137.7C1316.73 137.8 1317.17 137.85 1317.67 137.85V140.05C1317.14 140.056 1316.66 140.001 1316.22 139.884C1314.92 139.537 1313.96 138.968 1313.34 138.176C1312.72 137.371 1312.41 136.435 1312.41 135.369V130.229L1310.54 129.729V127.629L1312.41 128.129V125.489L1314.85 126.138V128.778L1317.67 129.53V131.63ZM1322.52 127.943C1322.52 128.356 1322.37 128.663 1322.07 128.864C1321.78 129.052 1321.4 129.085 1320.95 128.965C1320.49 128.842 1320.1 128.605 1319.79 128.256C1319.5 127.897 1319.35 127.511 1319.35 127.098C1319.35 126.671 1319.5 126.364 1319.79 126.176C1320.1 125.978 1320.49 125.942 1320.95 126.065C1321.4 126.185 1321.78 126.425 1322.07 126.784C1322.37 127.13 1322.52 127.516 1322.52 127.943ZM1319.71 130.075V140.615L1322.15 141.265V130.725L1319.71 130.075ZM1329.33 143.38C1330.3 143.638 1331.17 143.645 1331.96 143.401C1332.76 143.147 1333.38 142.667 1333.83 141.961C1334.3 141.244 1334.53 140.346 1334.53 139.266C1334.53 138.186 1334.3 137.178 1333.83 136.241C1333.38 135.294 1332.76 134.487 1331.96 133.821C1331.17 133.158 1330.3 132.698 1329.33 132.44C1328.37 132.182 1327.48 132.174 1326.68 132.414C1325.9 132.658 1325.27 133.131 1324.81 133.834C1324.36 134.527 1324.13 135.414 1324.13 136.494C1324.13 137.574 1324.36 138.594 1324.81 139.554C1325.27 140.505 1325.9 141.318 1326.68 141.994C1327.48 142.66 1328.37 143.122 1329.33 143.38ZM1329.33 134.66C1330.1 134.866 1330.75 135.331 1331.26 136.055C1331.78 136.766 1332.04 137.615 1332.04 138.602C1332.04 139.602 1331.78 140.333 1331.26 140.795C1330.75 141.245 1330.1 141.366 1329.33 141.16C1328.56 140.954 1327.91 140.489 1327.4 139.765C1326.9 139.031 1326.65 138.164 1326.65 137.164C1326.65 136.177 1326.9 135.464 1327.4 135.025C1327.91 134.575 1328.56 134.454 1329.33 134.66ZM1341.96 135.827C1343.02 136.109 1343.86 136.681 1344.49 137.542C1345.12 138.391 1345.44 139.442 1345.44 140.695V147.475L1343 146.826V140.246C1343 139.619 1342.84 139.103 1342.52 138.697C1342.21 138.281 1341.8 138.006 1341.3 137.872C1340.53 137.666 1339.76 137.8 1338.98 138.274V145.754L1336.55 145.104V134.564L1338.81 135.167V136.267C1339.23 135.981 1339.72 135.796 1340.26 135.714C1340.8 135.631 1341.37 135.669 1341.96 135.827ZM1347.87 145.524C1348.32 145.817 1348.85 146.118 1349.46 146.426C1350.07 146.725 1350.65 146.946 1351.19 147.09C1351.75 147.238 1352.15 147.246 1352.41 147.115C1352.67 146.97 1352.8 146.725 1352.8 146.378C1352.8 146.058 1352.69 145.789 1352.47 145.57C1352.25 145.339 1351.92 145.104 1351.48 144.868L1350.09 144.136C1349.26 143.7 1348.59 143.203 1348.1 142.646C1347.61 142.088 1347.37 141.35 1347.37 140.43C1347.37 139.377 1347.76 138.688 1348.55 138.364C1349.35 138.044 1350.33 138.038 1351.48 138.348C1352.04 138.495 1352.59 138.695 1353.13 138.946C1353.68 139.187 1354.16 139.44 1354.56 139.707V141.887C1354.12 141.597 1353.6 141.313 1353.01 141.035C1352.42 140.743 1351.86 140.529 1351.35 140.391C1350.86 140.261 1350.48 140.24 1350.21 140.327C1349.94 140.415 1349.8 140.606 1349.8 140.899C1349.8 141.153 1349.89 141.383 1350.07 141.591C1350.27 141.79 1350.56 141.995 1350.96 142.208L1352.34 142.934C1353.22 143.398 1353.93 143.932 1354.44 144.536C1354.97 145.13 1355.23 145.901 1355.23 146.847C1355.23 147.594 1355.04 148.176 1354.65 148.593C1354.28 149.013 1353.78 149.266 1353.15 149.351C1352.52 149.436 1351.83 149.379 1351.08 149.179C1350.47 149.018 1349.89 148.815 1349.32 148.57C1348.75 148.326 1348.27 148.064 1347.87 147.784V145.524Z" fill="black"/>
<circle r="22.9019" transform="matrix(0.966235 0.257663 0 1 1298.81 61.5177)" fill="#FE638C"/>
<circle r="18.9187" transform="matrix(0.966235 0.257663 0 1 1298.81 61.518)" fill="#FEFDFF"/>
<path d="M1305.89 58.2809L1290.52 53.8402C1289.46 53.5337 1288.6 54.1806 1288.6 55.2852V63.2852C1288.6 64.3897 1289.46 65.5337 1290.52 65.8402L1305.89 70.2809C1306.95 70.5874 1307.81 69.9405 1307.81 68.8359V60.8359C1307.81 59.7314 1306.95 58.5874 1305.89 58.2809Z" stroke="black" stroke-width="2" stroke-linecap="round" stroke-linejoin="round"/>
<path d="M1298.21 64.0609C1299.27 64.3675 1300.13 63.7206 1300.13 62.616C1300.13 61.5114 1299.27 60.3675 1298.21 60.0609C1297.14 59.7544 1296.28 60.4013 1296.28 61.5059C1296.28 62.6104 1297.14 63.7544 1298.21 64.0609Z" stroke="black" stroke-width="2" stroke-linecap="round" stroke-linejoin="round"/>
<path d="M1292.44 60.3955L1292.45 60.3983M1303.97 63.726L1303.98 63.7288" stroke="black" stroke-width="2" stroke-linecap="round" stroke-linejoin="round"/>
<path d="M346.733 270.797L346.733 364.759" stroke="#5D37AD" stroke-width="2" stroke-dasharray="6"/>
<rect width="177.145" height="98.9741" rx="9.15998" transform="matrix(0.966235 0.257663 0 1 261.151 155.313)" fill="#5F259F"/>
<path d="M303.617 202.017V212.979L306.904 213.856V216.034L297.738 213.59V211.412L301.286 212.358V203.916L297.721 204.099V201.885L301.738 201.516L303.617 202.017ZM314.218 218.164C315.262 218.443 316.178 218.417 316.966 218.087C317.766 217.748 318.381 217.126 318.81 216.221C319.251 215.318 319.471 214.183 319.471 212.815C319.471 211.447 319.251 210.2 318.81 209.075C318.381 207.94 317.766 206.996 316.966 206.243C316.178 205.481 315.262 204.961 314.218 204.682C313.175 204.404 312.253 204.434 311.453 204.773C310.665 205.103 310.05 205.719 309.609 206.621C309.18 207.515 308.966 208.646 308.966 210.014C308.966 211.382 309.18 212.633 309.609 213.767C310.05 214.905 310.665 215.855 311.453 216.617C312.253 217.37 313.175 217.886 314.218 218.164ZM314.218 215.968C313.337 215.733 312.641 215.152 312.131 214.224C311.621 213.284 311.366 212.094 311.366 210.654C311.366 209.214 311.621 208.166 312.131 207.51C312.641 206.842 313.337 206.625 314.218 206.86C315.1 207.095 315.795 207.683 316.305 208.623C316.827 209.554 317.088 210.74 317.088 212.18C317.088 213.62 316.833 214.674 316.323 215.341C315.813 215.997 315.111 216.206 314.218 215.968ZM325.914 221.103V207.963L328.906 208.761L331.097 214.241C331.329 214.831 331.636 215.717 332.019 216.899C332.402 215.921 332.709 215.199 332.941 214.733L335.132 210.421L338.124 211.219V224.359L335.776 223.733V216.875C335.787 216.158 335.845 215.093 335.95 213.681L335.723 214.179C335.352 215.052 334.987 215.849 334.628 216.569L333.149 219.199L330.888 218.596L329.41 215.177C329.051 214.266 328.685 213.274 328.314 212.203L328.088 211.585C328.193 213.065 328.245 214.159 328.245 214.867V221.725L325.914 221.103ZM343.159 213.624C343.159 213.996 343.026 214.272 342.759 214.453C342.492 214.622 342.156 214.652 341.75 214.544C341.333 214.433 340.985 214.22 340.707 213.906C340.44 213.583 340.307 213.235 340.307 212.863C340.307 212.479 340.44 212.203 340.707 212.034C340.985 211.856 341.333 211.823 341.75 211.934C342.156 212.042 342.492 212.258 342.759 212.581C343.026 212.892 343.159 213.24 343.159 213.624ZM340.637 215.543V225.029L342.828 225.614V216.128L340.637 215.543ZM345.223 213.112V226.252L347.414 226.837V213.697L345.223 213.112ZM349.809 214.335V227.475L352 228.059V214.919L349.809 214.335ZM356.916 217.292C356.916 217.664 356.783 217.941 356.516 218.122C356.25 218.291 355.913 218.321 355.508 218.213C355.09 218.101 354.742 217.889 354.464 217.574C354.197 217.251 354.064 216.904 354.064 216.532C354.064 216.148 354.197 215.871 354.464 215.702C354.742 215.525 355.09 215.491 355.508 215.603C355.913 215.711 356.25 215.927 356.516 216.25C356.783 216.561 356.916 216.908 356.916 217.292ZM354.395 219.212V228.698L356.586 229.282V219.796L354.395 219.212ZM363.05 231.186C363.92 231.418 364.708 231.424 365.416 231.205C366.134 230.977 366.697 230.545 367.103 229.909C367.52 229.264 367.729 228.456 367.729 227.484C367.729 226.512 367.52 225.604 367.103 224.761C366.697 223.909 366.134 223.183 365.416 222.583C364.708 221.986 363.92 221.572 363.05 221.34C362.181 221.108 361.386 221.1 360.667 221.317C359.96 221.536 359.398 221.962 358.98 222.595C358.575 223.219 358.372 224.016 358.372 224.988C358.372 225.96 358.575 226.879 358.98 227.743C359.398 228.598 359.96 229.33 360.667 229.939C361.386 230.538 362.181 230.954 363.05 231.186ZM363.05 223.338C363.746 223.524 364.326 223.942 364.789 224.594C365.253 225.234 365.485 225.997 365.485 226.885C365.485 227.785 365.253 228.444 364.789 228.86C364.326 229.264 363.746 229.374 363.05 229.188C362.354 229.003 361.775 228.584 361.311 227.932C360.859 227.272 360.633 226.491 360.633 225.591C360.633 224.703 360.859 224.062 361.311 223.666C361.775 223.262 362.354 223.153 363.05 223.338ZM374.415 224.389C375.365 224.642 376.125 225.157 376.693 225.932C377.261 226.696 377.545 227.641 377.545 228.769V234.871L375.354 234.287V228.365C375.354 227.801 375.209 227.336 374.919 226.971C374.641 226.597 374.276 226.35 373.823 226.229C373.128 226.043 372.432 226.164 371.736 226.59V233.322L369.545 232.738V223.252L371.58 223.795V224.785C371.962 224.527 372.397 224.361 372.884 224.286C373.371 224.212 373.881 224.246 374.415 224.389ZM290.183 233.575L287.591 232.884L286.391 228.874L282.06 227.719L280.86 231.089L278.356 230.421L282.791 218.464L285.748 219.252L290.183 233.575ZM282.756 225.744L285.695 226.528L285.278 225.139C285.093 224.525 284.837 223.611 284.513 222.397L284.217 221.328L283.852 222.509L283.174 224.578L282.756 225.744ZM295.073 225.213C295.978 225.454 296.807 225.855 297.56 226.416C298.314 226.977 298.917 227.684 299.369 228.536C299.821 229.389 300.047 230.355 300.047 231.435C300.047 232.419 299.845 233.235 299.439 233.883C299.033 234.519 298.476 234.946 297.769 235.166C297.073 235.388 296.297 235.385 295.439 235.156C294.847 234.999 294.285 234.735 293.751 234.364V238.126L291.56 237.542V224.978C292.731 224.822 293.902 224.901 295.073 225.213ZM295.195 233.093C295.949 233.294 296.569 233.214 297.056 232.852C297.543 232.477 297.786 231.804 297.786 230.832C297.786 229.944 297.555 229.181 297.091 228.541C296.627 227.889 296.036 227.468 295.317 227.276C294.807 227.14 294.285 227.073 293.751 227.074V232.42C294.25 232.745 294.731 232.97 295.195 233.093ZM305.349 227.953C306.253 228.194 307.082 228.595 307.836 229.156C308.59 229.717 309.193 230.424 309.645 231.277C310.097 232.129 310.323 233.096 310.323 234.176C310.323 235.16 310.12 235.975 309.714 236.623C309.309 237.259 308.752 237.687 308.045 237.906C307.349 238.128 306.572 238.125 305.714 237.896C305.123 237.739 304.561 237.475 304.027 237.105V240.867L301.836 240.282V227.718C303.007 227.563 304.178 227.641 305.349 227.953ZM305.471 235.834C306.224 236.035 306.845 235.954 307.332 235.592C307.819 235.218 308.062 234.545 308.062 233.573C308.062 232.685 307.83 231.921 307.366 231.281C306.903 230.629 306.311 230.208 305.592 230.016C305.082 229.88 304.561 229.813 304.027 229.815V235.161C304.526 235.486 305.007 235.71 305.471 235.834ZM320.823 228.606C322.052 228.933 323.16 229.517 324.145 230.355C325.142 231.197 325.925 232.198 326.493 233.358C327.073 234.508 327.363 235.701 327.363 236.937C327.363 238.173 327.079 239.214 326.511 240.058C325.942 240.903 325.16 241.48 324.163 241.79C323.165 242.088 322.052 242.073 320.823 241.746L316.649 240.632V227.492L320.823 228.606ZM320.823 239.568C321.6 239.775 322.296 239.78 322.91 239.584C323.525 239.388 324 239.005 324.337 238.434C324.684 237.867 324.858 237.146 324.858 236.27C324.858 235.394 324.684 234.579 324.337 233.826C324 233.065 323.525 232.422 322.91 231.898C322.296 231.374 321.6 231.009 320.823 230.802L318.98 230.31V239.076L320.823 239.568ZM333.387 245.276C334.256 245.508 335.045 245.514 335.752 245.295C336.471 245.066 337.033 244.634 337.439 243.998C337.856 243.354 338.065 242.545 338.065 241.573C338.065 240.601 337.856 239.694 337.439 238.85C337.033 237.998 336.471 237.272 335.752 236.673C335.045 236.076 334.256 235.662 333.387 235.43C332.517 235.198 331.723 235.19 331.004 235.406C330.297 235.626 329.734 236.052 329.317 236.685C328.911 237.308 328.708 238.106 328.708 239.078C328.708 240.05 328.911 240.968 329.317 241.833C329.734 242.688 330.297 243.42 331.004 244.028C331.723 244.628 332.517 245.044 333.387 245.276ZM333.387 237.428C334.082 237.613 334.662 238.032 335.126 238.684C335.59 239.323 335.821 240.087 335.821 240.975C335.821 241.875 335.59 242.533 335.126 242.95C334.662 243.354 334.082 243.463 333.387 243.278C332.691 243.092 332.111 242.674 331.647 242.022C331.195 241.361 330.969 240.581 330.969 239.681C330.969 238.793 331.195 238.151 331.647 237.756C332.111 237.352 332.691 237.242 333.387 237.428ZM346.269 244.967C345.99 243.909 345.712 242.569 345.434 240.946C345.214 242.208 344.941 243.401 344.616 244.526L343.608 247.821L341.347 247.218L338.72 237.032L340.964 237.63L341.799 241.075C341.926 241.625 342.06 242.315 342.199 243.144C342.338 243.973 342.454 244.724 342.547 245.397C342.651 244.812 342.79 244.135 342.964 243.366C343.138 242.584 343.3 241.949 343.451 241.462L344.373 238.539L346.53 239.115L347.451 242.546C347.695 243.403 347.996 244.87 348.356 246.946C348.448 246.322 348.564 245.633 348.704 244.878C348.843 244.123 348.976 243.511 349.104 243.041L349.938 240.024L352.165 240.617L349.521 249.398L347.26 248.795L346.269 244.967ZM358.458 242.133C359.408 242.387 360.168 242.901 360.736 243.677C361.304 244.44 361.588 245.386 361.588 246.514V252.616L359.397 252.032V246.11C359.397 245.546 359.252 245.081 358.962 244.716C358.684 244.342 358.318 244.094 357.866 243.974C357.171 243.788 356.475 243.909 355.779 244.335V251.067L353.588 250.483V240.997L355.623 241.539V242.529C356.005 242.271 356.44 242.105 356.927 242.031C357.414 241.957 357.924 241.991 358.458 242.133ZM363.779 240.06V253.2L365.97 253.785V240.645L363.779 240.06ZM372.434 255.688C373.304 255.92 374.092 255.927 374.8 255.707C375.518 255.479 376.081 255.047 376.487 254.411C376.904 253.766 377.113 252.958 377.113 251.986C377.113 251.014 376.904 250.106 376.487 249.263C376.081 248.411 375.518 247.685 374.8 247.085C374.092 246.489 373.304 246.074 372.434 245.842C371.565 245.611 370.77 245.603 370.051 245.819C369.344 246.038 368.782 246.465 368.364 247.097C367.959 247.721 367.756 248.519 367.756 249.491C367.756 250.463 367.959 251.381 368.364 252.245C368.782 253.101 369.344 253.832 370.051 254.441C370.77 255.041 371.565 255.457 372.434 255.688ZM372.434 247.84C373.13 248.026 373.71 248.445 374.173 249.096C374.637 249.736 374.869 250.5 374.869 251.388C374.869 252.288 374.637 252.946 374.173 253.362C373.71 253.767 373.13 253.876 372.434 253.69C371.738 253.505 371.159 253.086 370.695 252.435C370.243 251.774 370.017 250.994 370.017 250.094C370.017 249.206 370.243 248.564 370.695 248.169C371.159 247.764 371.738 247.655 372.434 247.84ZM381.99 248.391C383.103 248.687 384.007 249.205 384.703 249.942C385.41 250.683 385.764 251.677 385.764 252.925V259.063L383.694 258.511V257.881C382.929 258.217 382.129 258.274 381.294 258.051C380.367 257.804 379.642 257.353 379.12 256.697C378.61 256.045 378.355 255.263 378.355 254.351C378.355 253.427 378.68 252.788 379.329 252.433C379.978 252.066 380.83 252.023 381.885 252.305L383.573 252.755V252.485C383.573 251.921 383.399 251.454 383.051 251.086C382.703 250.717 382.21 250.447 381.572 250.277C380.68 250.039 379.769 250.055 378.842 250.323V248.253C379.236 248.142 379.711 248.101 380.268 248.13C380.825 248.146 381.399 248.233 381.99 248.391ZM380.494 254.886C380.494 255.282 380.627 255.623 380.894 255.91C381.172 256.201 381.526 256.403 381.955 256.517C382.546 256.675 383.086 256.669 383.573 256.499V254.375L382.251 254.022C381.706 253.877 381.277 253.877 380.964 254.021C380.651 254.154 380.494 254.442 380.494 254.886ZM393.584 248.008L395.775 248.593V261.211C394.604 261.367 393.433 261.288 392.262 260.976C391.358 260.735 390.529 260.334 389.775 259.773C389.021 259.2 388.418 258.481 387.966 257.616C387.514 256.752 387.288 255.773 387.288 254.681C387.288 253.721 387.491 252.93 387.897 252.306C388.303 251.67 388.853 251.241 389.549 251.018C390.256 250.799 391.045 250.805 391.914 251.037C392.494 251.192 393.051 251.454 393.584 251.824V248.008ZM392.036 258.918C392.535 259.051 393.051 259.116 393.584 259.114V253.768C393.085 253.443 392.604 253.219 392.14 253.095C391.398 252.898 390.778 252.978 390.279 253.337C389.792 253.699 389.549 254.348 389.549 255.284C389.549 256.196 389.781 256.984 390.245 257.648C390.72 258.303 391.317 258.726 392.036 258.918ZM398.172 260.032C398.578 260.296 399.054 260.567 399.599 260.844C400.155 261.113 400.677 261.312 401.164 261.442C401.662 261.575 402.028 261.582 402.26 261.464C402.491 261.334 402.607 261.113 402.607 260.801C402.607 260.513 402.509 260.27 402.312 260.074C402.115 259.865 401.819 259.654 401.425 259.441L400.172 258.783C399.419 258.39 398.822 257.943 398.381 257.442C397.94 256.94 397.72 256.275 397.72 255.447C397.72 254.499 398.074 253.88 398.781 253.588C399.5 253.3 400.381 253.295 401.425 253.573C401.923 253.706 402.416 253.886 402.903 254.112C403.402 254.328 403.831 254.557 404.19 254.797V256.759C403.796 256.498 403.332 256.242 402.799 255.992C402.265 255.729 401.767 255.537 401.303 255.413C400.862 255.295 400.52 255.276 400.277 255.355C400.033 255.434 399.912 255.606 399.912 255.87C399.912 256.098 399.993 256.305 400.155 256.493C400.329 256.671 400.596 256.856 400.955 257.048L402.19 257.701C402.99 258.119 403.622 258.599 404.086 259.143C404.561 259.678 404.799 260.371 404.799 261.223C404.799 261.895 404.625 262.419 404.277 262.794C403.941 263.172 403.489 263.4 402.92 263.476C402.352 263.553 401.732 263.501 401.059 263.322C400.515 263.177 399.987 262.994 399.477 262.774C398.967 262.554 398.532 262.318 398.172 262.066V260.032Z" fill="white"/>
<circle r="22.9019" transform="matrix(0.966235 0.257663 0 1 342.319 177.954)" fill="#5F259F"/>
<circle r="18.9187" transform="matrix(0.966235 0.257663 0 1 342.319 177.954)" fill="#FEFDFF"/>
<path d="M347.1 169.538L337.386 167.163C336.313 166.901 335.443 167.584 335.443 168.688V184.688C335.443 185.793 336.313 186.901 337.386 187.163L347.1 189.538C348.173 189.8 349.042 189.117 349.042 188.013V172.013C349.042 170.908 348.173 169.8 347.1 169.538Z" stroke="black" stroke-width="2" stroke-linecap="round" stroke-linejoin="round"/>
<path d="M342.243 184.351L342.252 184.353" stroke="black" stroke-width="2" stroke-linecap="round" stroke-linejoin="round"/>
</g>
<defs>
<clipPath id="clip0_246_5330">
<rect width="1920" height="580" fill="white"/>
</clipPath>
<clipPath id="clip1_246_5330">
<rect width="24" height="24" fill="white" transform="matrix(0.966235 -0.257663 0 1 655 36.1836)"/>
</clipPath>
</defs>
</svg>
