<svg width="1920" height="580" viewBox="0 0 1920 580" fill="none" xmlns="http://www.w3.org/2000/svg">
<g clip-path="url(#clip0_246_7514)">
<path d="M483.988 188.748V336.915" stroke="#5D37AD" stroke-width="2" stroke-dasharray="6"/>
<rect width="232.788" height="119.317" rx="11.7361" transform="matrix(0.976187 -0.21693 0 1 369.052 97.5273)" fill="#FEB767"/>
<path d="M395.548 148.158V132.354L399.183 131.546L401.846 136.843C402.128 137.415 402.501 138.299 402.966 139.495C403.431 138.093 403.805 137.043 404.086 136.345L406.749 129.865L410.384 129.057V144.861L407.531 145.495V137.247C407.545 136.377 407.616 135.063 407.743 133.303L407.468 134.035C407.017 135.304 406.573 136.478 406.136 137.557L404.34 141.593L401.593 142.203L399.796 138.965C399.359 138.081 398.916 137.104 398.465 136.036L398.19 135.425C398.317 137.144 398.38 138.429 398.38 139.28V147.529L395.548 148.158ZM416.503 128.974C416.503 129.422 416.341 129.833 416.017 130.208C415.693 130.569 415.284 130.804 414.791 130.914C414.284 131.026 413.861 130.976 413.523 130.762C413.199 130.531 413.037 130.192 413.037 129.745C413.037 129.283 413.199 128.872 413.523 128.511C413.861 128.133 414.284 127.887 414.791 127.774C415.284 127.665 415.693 127.726 416.017 127.957C416.341 128.173 416.503 128.513 416.503 128.974ZM413.439 132.773V144.182L416.101 143.591V132.181L413.439 132.773ZM421.019 136.761C421.019 137.901 421.35 138.701 422.012 139.16C422.674 139.619 423.491 139.747 424.464 139.546C424.985 139.43 425.506 139.242 426.028 138.982C426.563 138.704 427.014 138.409 427.38 138.097V140.586C426.957 140.897 426.457 141.181 425.88 141.439C425.302 141.698 424.724 141.891 424.147 142.019C423.146 142.242 422.195 142.229 421.294 141.982C420.406 141.732 419.68 141.222 419.117 140.452C418.553 139.683 418.271 138.656 418.271 137.371C418.271 136.101 418.553 134.963 419.117 133.958C419.68 132.938 420.406 132.112 421.294 131.482C422.195 130.834 423.146 130.399 424.147 130.177C424.738 130.045 425.316 129.982 425.88 129.987C426.457 129.988 426.957 130.05 427.38 130.173V132.663C427.014 132.513 426.563 132.426 426.028 132.4C425.506 132.357 424.985 132.394 424.464 132.51C423.477 132.743 422.653 133.229 421.991 133.968C421.343 134.704 421.019 135.635 421.019 136.761ZM435.221 127.716C435.841 127.578 436.376 127.575 436.827 127.705V130.238C436.221 130.099 435.608 130.098 434.988 130.236C434.016 130.452 433.1 131.009 432.241 131.907V140.004L429.578 140.596V129.186L432.051 128.637V129.871C432.488 129.312 432.974 128.85 433.509 128.486C434.058 128.104 434.629 127.848 435.221 127.716ZM443.233 137.778C444.29 137.543 445.248 137.085 446.107 136.403C446.981 135.704 447.664 134.852 448.157 133.848C448.664 132.826 448.918 131.73 448.918 130.561C448.918 129.392 448.664 128.423 448.157 127.656C447.664 126.87 446.981 126.33 446.107 126.033C445.248 125.733 444.29 125.701 443.233 125.936C442.176 126.17 441.211 126.63 440.338 127.315C439.478 127.997 438.795 128.841 438.288 129.849C437.794 130.839 437.548 131.919 437.548 133.088C437.548 134.257 437.794 135.241 438.288 136.041C438.795 136.823 439.478 137.371 440.338 137.685C441.211 137.982 442.176 138.013 443.233 137.778ZM443.233 128.339C444.078 128.151 444.783 128.312 445.346 128.822C445.91 129.317 446.192 130.099 446.192 131.167C446.192 132.249 445.91 133.178 445.346 133.953C444.783 134.713 444.078 135.187 443.233 135.375C442.388 135.563 441.683 135.402 441.12 134.892C440.57 134.364 440.295 133.56 440.295 132.477C440.295 131.409 440.57 130.504 441.12 129.761C441.683 129.001 442.388 128.527 443.233 128.339ZM469.615 131.699L466.466 132.398L465.008 128.284L459.746 129.454L458.287 134.216L455.244 134.892L460.633 117.89L464.226 117.092L469.615 131.699ZM460.591 126.668L464.163 125.874L463.655 124.45C463.43 123.822 463.12 122.873 462.725 121.604L462.366 120.493L461.922 122.129L461.098 125.018L460.591 126.668ZM475.558 118.752C476.657 118.508 477.664 118.501 478.58 118.73C479.496 118.96 480.229 119.453 480.778 120.212C481.328 120.97 481.602 121.999 481.602 123.298C481.602 124.481 481.356 125.582 480.863 126.601C480.369 127.606 479.693 128.449 478.834 129.13C477.988 129.809 477.044 130.264 476.002 130.496C475.283 130.656 474.6 130.67 473.952 130.54V135.065L471.289 135.657V120.545C472.712 119.666 474.135 119.068 475.558 118.752ZM475.706 128.159C476.622 127.955 477.376 127.492 477.967 126.768C478.559 126.031 478.855 125.077 478.855 123.908C478.855 122.84 478.573 122.058 478.01 121.563C477.446 121.053 476.727 120.895 475.854 121.09C475.234 121.227 474.6 121.455 473.952 121.772V128.202C474.558 128.298 475.142 128.284 475.706 128.159ZM488.044 115.977C489.143 115.733 490.151 115.726 491.067 115.955C491.982 116.185 492.715 116.679 493.265 117.437C493.814 118.195 494.089 119.224 494.089 120.523C494.089 121.706 493.842 122.808 493.349 123.827C492.856 124.831 492.18 125.674 491.32 126.356C490.475 127.034 489.531 127.489 488.488 127.721C487.77 127.881 487.086 127.896 486.438 127.765V132.29L483.775 132.882V117.77C485.198 116.891 486.621 116.294 488.044 115.977ZM488.192 125.384C489.108 125.18 489.862 124.717 490.454 123.994C491.045 123.256 491.341 122.303 491.341 121.133C491.341 120.065 491.06 119.284 490.496 118.788C489.932 118.279 489.214 118.121 488.34 118.315C487.72 118.453 487.086 118.68 486.438 118.997V125.427C487.044 125.524 487.629 125.509 488.192 125.384ZM496.262 122.963C496.755 123.041 497.333 123.086 497.995 123.097C498.671 123.091 499.305 123.023 499.897 122.891C500.503 122.756 500.946 122.55 501.228 122.27C501.51 121.977 501.651 121.642 501.651 121.267C501.651 120.921 501.531 120.688 501.292 120.568C501.052 120.433 500.693 120.354 500.214 120.331L498.692 120.279C497.776 120.252 497.051 120.067 496.515 119.724C495.98 119.381 495.712 118.712 495.712 117.716C495.712 116.576 496.142 115.621 497.001 114.853C497.875 114.082 498.946 113.555 500.214 113.273C500.82 113.139 501.418 113.063 502.01 113.047C502.616 113.014 503.137 113.035 503.574 113.111V115.471C503.095 115.39 502.532 115.356 501.883 115.37C501.235 115.37 500.629 115.432 500.066 115.558C499.53 115.677 499.115 115.856 498.819 116.094C498.523 116.333 498.375 116.612 498.375 116.929C498.375 117.203 498.474 117.405 498.671 117.535C498.882 117.646 499.206 117.711 499.643 117.73L501.144 117.786C502.116 117.815 502.884 118.02 503.447 118.4C504.025 118.762 504.314 119.456 504.314 120.481C504.314 121.289 504.102 122.021 503.68 122.678C503.271 123.332 502.722 123.873 502.031 124.3C501.341 124.728 500.587 125.032 499.77 125.214C499.108 125.361 498.467 125.453 497.847 125.49C497.227 125.527 496.699 125.5 496.262 125.409V122.963ZM516.996 121.386C518.052 121.151 519.01 120.693 519.87 120.011C520.743 119.312 521.427 118.46 521.92 117.456C522.427 116.434 522.681 115.338 522.681 114.169C522.681 113 522.427 112.032 521.92 111.264C521.427 110.479 520.743 109.938 519.87 109.641C519.01 109.341 518.052 109.309 516.996 109.544C515.939 109.779 514.974 110.238 514.1 110.923C513.241 111.605 512.558 112.45 512.05 113.457C511.557 114.447 511.311 115.527 511.311 116.696C511.311 117.865 511.557 118.849 512.05 119.649C512.558 120.431 513.241 120.979 514.1 121.293C514.974 121.59 515.939 121.621 516.996 121.386ZM516.996 111.947C517.841 111.759 518.546 111.92 519.109 112.43C519.673 112.925 519.954 113.707 519.954 114.775C519.954 115.857 519.673 116.786 519.109 117.561C518.546 118.321 517.841 118.795 516.996 118.983C516.15 119.171 515.446 119.01 514.882 118.5C514.333 117.973 514.058 117.168 514.058 116.085C514.058 115.017 514.333 114.112 514.882 113.369C515.446 112.609 516.15 112.135 516.996 111.947ZM530.805 106.497C531.96 106.24 532.883 106.41 533.574 107.007C534.264 107.59 534.609 108.56 534.609 109.916V117.256L531.946 117.847V110.725C531.946 110.046 531.77 109.573 531.418 109.305C531.08 109.019 530.636 108.937 530.087 109.059C529.241 109.247 528.396 109.803 527.551 110.727V118.824L524.888 119.416V108.007L527.36 107.457V108.648C527.825 108.111 528.354 107.655 528.945 107.278C529.537 106.901 530.157 106.641 530.805 106.497ZM549.4 104.833L546.314 105.518V110.866C546.314 111.934 546.864 112.346 547.963 112.101C548.371 112.011 548.85 111.832 549.4 111.566V113.947C548.822 114.234 548.294 114.431 547.815 114.537C546.392 114.854 545.342 114.748 544.666 114.22C543.99 113.677 543.651 112.829 543.651 111.674V106.11L541.601 106.566V104.292L543.651 103.837V100.979L546.314 100.387V103.245L549.4 102.559V104.833ZM557.342 100.578C558.567 100.306 559.54 100.465 560.258 101.056C560.991 101.629 561.357 102.594 561.357 103.951V111.312L558.694 111.903V104.759C558.694 104.081 558.511 103.609 558.145 103.344C557.792 103.061 557.328 102.984 556.75 103.113C555.919 103.297 555.101 103.797 554.298 104.61V112.88L551.635 113.472V97.6678L554.298 97.076V102.315C554.707 101.892 555.172 101.529 555.693 101.226C556.229 100.919 556.778 100.703 557.342 100.578ZM573.402 102.01C573.402 102.414 573.296 102.748 573.085 103.012C572.874 103.275 572.585 103.447 572.219 103.529L565.815 104.952C565.885 106.033 566.259 106.766 566.935 107.149C567.625 107.53 568.499 107.603 569.556 107.368C570.598 107.136 571.592 106.706 572.536 106.078V108.459C571.507 109.078 570.429 109.512 569.302 109.763C568.189 110.01 567.175 110.012 566.259 109.768C565.357 109.521 564.632 109.004 564.082 108.216C563.547 107.426 563.279 106.374 563.279 105.061C563.279 103.805 563.533 102.688 564.04 101.709C564.547 100.716 565.202 99.9138 566.005 99.3023C566.822 98.6877 567.689 98.2787 568.605 98.0752C569.478 97.881 570.281 97.8974 571.014 98.1243C571.747 98.3512 572.324 98.8001 572.747 99.4712C573.184 100.125 573.402 100.971 573.402 102.01ZM568.562 100.185C567.9 100.332 567.337 100.666 566.872 101.188C566.421 101.692 566.111 102.346 565.942 103.148L570.972 102.031C570.915 101.307 570.662 100.786 570.211 100.468C569.76 100.135 569.211 100.041 568.562 100.185ZM447.25 147.864C448.363 147.617 449.357 147.591 450.23 147.787C451.104 147.982 451.787 148.415 452.28 149.085C452.787 149.752 453.041 150.641 453.041 151.752C453.041 152.849 452.787 153.843 452.28 154.735C451.787 155.624 451.097 156.37 450.209 156.971C449.335 157.555 448.349 157.969 447.25 158.213L444.651 158.791V164.246L441.819 164.876V149.071L447.25 147.864ZM447.102 155.626C448.004 155.426 448.73 155.055 449.279 154.515C449.843 153.971 450.124 153.266 450.124 152.4C450.124 151.534 449.843 150.962 449.279 150.683C448.73 150.386 448.004 150.338 447.102 150.539L444.651 151.083V156.171L447.102 155.626ZM455.129 146.114V161.918L457.792 161.326V145.522L455.129 146.114ZM464.421 148.227C465.773 147.927 466.872 148.014 467.718 148.49C468.577 148.963 469.007 149.95 469.007 151.451V158.834L466.492 159.393V158.635C465.562 159.491 464.59 160.032 463.575 160.257C462.448 160.508 461.568 160.393 460.934 159.913C460.314 159.431 460.004 158.641 460.004 157.544C460.004 156.432 460.398 155.472 461.187 154.661C461.976 153.836 463.012 153.281 464.294 152.997L466.344 152.541V152.216C466.344 151.538 466.133 151.08 465.71 150.842C465.287 150.604 464.689 150.571 463.914 150.743C462.829 150.984 461.723 151.54 460.596 152.411V149.922C461.075 149.555 461.652 149.225 462.329 148.93C463.005 148.621 463.702 148.387 464.421 148.227ZM462.603 156.923C462.603 157.399 462.765 157.731 463.089 157.919C463.428 158.104 463.857 158.138 464.379 158.022C465.097 157.862 465.752 157.536 466.344 157.044V154.489L464.738 154.846C464.076 154.994 463.554 155.247 463.174 155.605C462.794 155.95 462.603 156.389 462.603 156.923ZM478.361 147.619L475.276 148.305V153.652C475.276 154.72 475.825 155.132 476.924 154.888C477.333 154.797 477.812 154.618 478.361 154.352V156.733C477.784 157.021 477.255 157.217 476.776 157.324C475.353 157.64 474.304 157.534 473.627 157.006C472.951 156.464 472.613 155.615 472.613 154.46V148.896L470.563 149.352V147.079L472.613 146.623V143.765L475.276 143.174V146.031L478.361 145.346V147.619ZM485.817 141.416C485.113 141.572 484.619 141.833 484.338 142.199C484.056 142.55 483.915 142.986 483.915 143.505V144.112L487.022 143.421V145.694L484 146.366V155.502L481.337 156.094V146.958L479.561 147.352V145.079L481.337 144.685V143.775C481.337 142.678 481.647 141.722 482.267 140.906C482.901 140.072 483.908 139.502 485.289 139.195C485.768 139.089 486.345 139.018 487.022 138.983V141.256C486.641 141.269 486.24 141.322 485.817 141.416ZM493.839 153.532C494.896 153.297 495.854 152.839 496.713 152.157C497.587 151.458 498.27 150.606 498.763 149.602C499.271 148.58 499.524 147.484 499.524 146.315C499.524 145.146 499.271 144.178 498.763 143.41C498.27 142.625 497.587 142.084 496.713 141.787C495.854 141.487 494.896 141.455 493.839 141.69C492.782 141.925 491.817 142.384 490.944 143.069C490.084 143.751 489.401 144.596 488.894 145.603C488.401 146.593 488.154 147.673 488.154 148.842C488.154 150.011 488.401 150.995 488.894 151.795C489.401 152.577 490.084 153.125 490.944 153.439C491.817 153.736 492.782 153.767 493.839 153.532ZM493.839 144.093C494.684 143.905 495.389 144.066 495.952 144.576C496.516 145.071 496.798 145.853 496.798 146.921C496.798 148.003 496.516 148.932 495.952 149.707C495.389 150.467 494.684 150.941 493.839 151.129C492.994 151.317 492.289 151.156 491.726 150.646C491.176 150.119 490.901 149.314 490.901 148.231C490.901 147.163 491.176 146.258 491.726 145.515C492.289 144.755 492.994 144.281 493.839 144.093ZM507.374 138.682C507.994 138.544 508.529 138.541 508.98 138.671V141.204C508.374 141.065 507.761 141.064 507.141 141.202C506.169 141.418 505.253 141.975 504.394 142.873V150.97L501.731 151.562V140.152L504.204 139.603V140.837C504.64 140.278 505.127 139.816 505.662 139.452C506.211 139.07 506.782 138.814 507.374 138.682ZM523.053 135.22C524.137 134.978 524.997 135.141 525.631 135.707C526.265 136.259 526.582 137.185 526.582 138.484V146.039L523.919 146.631V139.292C523.919 138.671 523.757 138.245 523.433 138.014C523.123 137.766 522.707 137.699 522.186 137.815C521.453 137.978 520.693 138.472 519.904 139.297C519.932 139.579 519.946 139.8 519.946 139.958V147.514L517.283 148.106V140.767C517.283 140.146 517.121 139.72 516.797 139.489C516.487 139.24 516.071 139.174 515.55 139.29C514.775 139.462 514.028 139.946 513.31 140.74V148.989L510.647 149.58V138.171L513.12 137.622V138.812C513.57 138.294 514.078 137.849 514.641 137.478C515.205 137.093 515.79 136.834 516.395 136.699C517.058 136.552 517.642 136.559 518.15 136.72C518.671 136.879 519.086 137.191 519.396 137.656C520.58 136.31 521.799 135.498 523.053 135.22Z" fill="black"/>
<circle r="29.3428" transform="matrix(0.976187 -0.21693 0 1 476.961 74.8212)" fill="#FEB767"/>
<circle r="24.2395" transform="matrix(0.976187 -0.21693 0 1 476.961 74.821)" fill="white"/>
<g clip-path="url(#clip1_246_7514)">
<path d="M476.662 67.6055L469.899 69.4092V76.4092L476.662 74.6055V67.6055Z" stroke="black" stroke-width="2" stroke-linecap="round" stroke-linejoin="round"/>
<path d="M487.291 64.7716L480.527 66.5752V73.5752L487.291 71.7716V64.7716Z" stroke="black" stroke-width="2" stroke-linecap="round" stroke-linejoin="round"/>
<path d="M487.291 75.7716L480.527 77.5752V84.5752L487.291 82.7716V75.7716Z" stroke="black" stroke-width="2" stroke-linecap="round" stroke-linejoin="round"/>
<path d="M476.662 78.6055L469.899 80.4092V87.4092L476.662 85.6055V78.6055Z" stroke="black" stroke-width="2" stroke-linecap="round" stroke-linejoin="round"/>
</g>
<path d="M1697.32 213.148V361.315" stroke="#5D37AD" stroke-width="2" stroke-dasharray="6"/>
<rect width="182.321" height="119.978" rx="11.7361" transform="matrix(0.976187 -0.21693 0 1 1607.02 116.452)" fill="#FE638C"/>
<path d="M1636.52 151.63V172.545L1640.26 171.712V150.797L1636.52 151.63ZM1652.15 153.713C1653.68 153.373 1654.9 153.599 1655.82 154.389C1656.73 155.16 1657.19 156.443 1657.19 158.239V167.951L1653.66 168.734V159.308C1653.66 158.41 1653.43 157.784 1652.96 157.429C1652.52 157.051 1651.93 156.943 1651.2 157.105C1650.08 157.353 1648.96 158.089 1647.85 159.312V170.027L1644.32 170.81V155.711L1647.59 154.984V156.56C1648.21 155.85 1648.91 155.246 1649.69 154.747C1650.48 154.248 1651.3 153.904 1652.15 153.713ZM1660.71 163.444C1661.36 163.547 1662.13 163.606 1663 163.622C1663.9 163.614 1664.74 163.523 1665.52 163.349C1666.32 163.171 1666.91 162.897 1667.28 162.528C1667.65 162.139 1667.84 161.697 1667.84 161.2C1667.84 160.742 1667.68 160.433 1667.37 160.274C1667.05 160.096 1666.57 159.992 1665.94 159.961L1663.93 159.893C1662.71 159.856 1661.75 159.611 1661.05 159.158C1660.34 158.704 1659.98 157.818 1659.98 156.5C1659.98 154.991 1660.55 153.728 1661.69 152.712C1662.84 151.691 1664.26 150.994 1665.94 150.621C1666.74 150.443 1667.53 150.343 1668.32 150.322C1669.12 150.277 1669.81 150.306 1670.39 150.406V153.529C1669.75 153.422 1669.01 153.377 1668.15 153.396C1667.29 153.396 1666.49 153.478 1665.74 153.644C1665.04 153.801 1664.49 154.038 1664.09 154.355C1663.7 154.671 1663.51 155.039 1663.51 155.459C1663.51 155.822 1663.64 156.089 1663.9 156.26C1664.18 156.408 1664.61 156.494 1665.18 156.519L1667.17 156.593C1668.46 156.632 1669.47 156.903 1670.22 157.406C1670.98 157.885 1671.37 158.803 1671.37 160.159C1671.37 161.229 1671.09 162.198 1670.53 163.067C1669.99 163.932 1669.26 164.648 1668.34 165.214C1667.43 165.78 1666.43 166.183 1665.35 166.423C1664.48 166.618 1663.63 166.739 1662.81 166.788C1661.99 166.837 1661.29 166.801 1660.71 166.681V163.444ZM1683.12 147.09L1686.64 146.307V160.288C1685.75 160.908 1684.73 161.477 1683.59 161.997C1682.45 162.498 1681.38 162.861 1680.38 163.084C1678.47 163.507 1676.96 163.365 1675.84 162.659C1674.73 161.933 1674.17 160.654 1674.17 158.82V149.079L1677.69 148.296V157.779C1677.69 158.696 1677.97 159.321 1678.53 159.656C1679.09 159.971 1679.78 160.037 1680.6 159.855C1681.44 159.668 1682.28 159.338 1683.12 158.866V147.09ZM1697.97 143.502C1698.79 143.32 1699.5 143.315 1700.1 143.488V146.84C1699.3 146.655 1698.49 146.654 1697.67 146.836C1696.38 147.122 1695.17 147.86 1694.03 149.048V159.763L1690.51 160.546V145.448L1693.78 144.721V146.354C1694.36 145.614 1695 145.003 1695.71 144.521C1696.44 144.016 1697.19 143.676 1697.97 143.502ZM1707.09 141.476C1708.88 141.078 1710.34 141.194 1711.45 141.824C1712.59 142.45 1713.16 143.756 1713.16 145.743V155.512L1709.83 156.252V155.249C1708.6 156.382 1707.32 157.098 1705.97 157.396C1704.48 157.728 1703.32 157.576 1702.48 156.941C1701.66 156.302 1701.25 155.257 1701.25 153.805C1701.25 152.334 1701.77 151.063 1702.81 149.99C1703.86 148.899 1705.23 148.165 1706.92 147.788L1709.64 147.185V146.755C1709.64 145.857 1709.36 145.251 1708.8 144.936C1708.24 144.621 1707.45 144.577 1706.42 144.805C1704.98 145.124 1703.52 145.86 1702.03 147.013V143.718C1702.66 143.234 1703.43 142.796 1704.32 142.406C1705.22 141.997 1706.14 141.687 1707.09 141.476ZM1704.69 152.983C1704.69 153.614 1704.9 154.053 1705.33 154.302C1705.78 154.546 1706.35 154.591 1707.04 154.438C1707.99 154.227 1708.85 153.795 1709.64 153.144V149.763L1707.51 150.236C1706.64 150.43 1705.95 150.765 1705.44 151.24C1704.94 151.696 1704.69 152.277 1704.69 152.983ZM1724.42 137.654C1725.95 137.314 1727.17 137.539 1728.09 138.329C1729 139.1 1729.46 140.384 1729.46 142.179V151.891L1725.93 152.674V143.249C1725.93 142.351 1725.7 141.725 1725.23 141.37C1724.78 140.992 1724.2 140.883 1723.47 141.045C1722.35 141.294 1721.23 142.029 1720.11 143.252V153.967L1716.59 154.75V139.652L1719.86 138.925V140.5C1720.48 139.791 1721.18 139.186 1721.96 138.688C1722.74 138.189 1723.56 137.844 1724.42 137.654ZM1735.63 142.926C1735.63 144.435 1736.07 145.493 1736.95 146.1C1737.83 146.708 1738.91 146.878 1740.19 146.611C1740.88 146.458 1741.57 146.209 1742.26 145.865C1742.97 145.497 1743.57 145.107 1744.05 144.694V147.988C1743.49 148.399 1742.83 148.776 1742.07 149.117C1741.3 149.459 1740.54 149.715 1739.77 149.885C1738.45 150.179 1737.19 150.163 1736 149.836C1734.82 149.505 1733.86 148.83 1733.12 147.811C1732.37 146.793 1732 145.434 1732 143.734C1732 142.053 1732.37 140.547 1733.12 139.216C1733.86 137.866 1734.82 136.774 1736 135.94C1737.19 135.083 1738.45 134.507 1739.77 134.213C1740.56 134.039 1741.32 133.955 1742.07 133.961C1742.83 133.964 1743.49 134.046 1744.05 134.208V137.503C1743.57 137.305 1742.97 137.189 1742.26 137.155C1741.57 137.099 1740.88 137.147 1740.19 137.3C1738.89 137.609 1737.8 138.253 1736.92 139.231C1736.06 140.204 1735.63 141.436 1735.63 142.926ZM1759.38 136.475C1759.38 137.009 1759.24 137.451 1758.96 137.8C1758.68 138.149 1758.3 138.377 1757.81 138.484L1749.34 140.368C1749.43 141.798 1749.93 142.768 1750.82 143.276C1751.73 143.779 1752.89 143.876 1754.29 143.565C1755.67 143.258 1756.98 142.689 1758.23 141.858V145.009C1756.87 145.828 1755.45 146.402 1753.95 146.734C1752.48 147.061 1751.14 147.063 1749.93 146.741C1748.73 146.414 1747.77 145.729 1747.05 144.688C1746.34 143.642 1745.98 142.25 1745.98 140.512C1745.98 138.85 1746.32 137.372 1746.99 136.076C1747.66 134.762 1748.53 133.7 1749.59 132.891C1750.67 132.078 1751.82 131.537 1753.03 131.267C1754.19 131.01 1755.25 131.032 1756.22 131.332C1757.19 131.633 1757.95 132.227 1758.51 133.115C1759.09 133.979 1759.38 135.099 1759.38 136.475ZM1752.97 134.059C1752.1 134.254 1751.35 134.696 1750.74 135.387C1750.14 136.054 1749.73 136.919 1749.51 137.981L1756.16 136.502C1756.09 135.544 1755.75 134.855 1755.16 134.434C1754.56 133.993 1753.83 133.868 1752.97 134.059ZM1658.38 194.903C1659.77 194.593 1661.04 193.965 1662.18 193.019C1663.34 192.055 1664.24 190.878 1664.91 189.49C1665.57 188.102 1665.9 186.642 1665.9 185.113C1665.9 183.583 1665.57 182.278 1664.91 181.198C1664.24 180.104 1663.34 179.332 1662.18 178.881C1661.04 178.428 1659.77 178.356 1658.38 178.666C1656.98 178.976 1655.71 179.613 1654.55 180.577C1653.41 181.538 1652.51 182.712 1651.85 184.101C1651.18 185.475 1650.85 186.927 1650.85 188.456C1650.85 189.986 1651.18 191.298 1651.85 192.392C1652.51 193.487 1653.41 194.26 1654.55 194.714C1655.71 195.15 1656.98 195.213 1658.38 194.903ZM1658.38 192.262C1657.52 192.453 1656.75 192.4 1656.07 192.103C1655.4 191.805 1654.86 191.289 1654.47 190.554C1654.09 189.802 1653.9 188.877 1653.9 187.78C1653.9 186.683 1654.09 185.681 1654.47 184.774C1654.86 183.849 1655.4 183.088 1656.07 182.49C1656.75 181.878 1657.52 181.477 1658.38 181.286C1659.22 181.098 1659.98 181.16 1660.66 181.471C1661.34 181.768 1661.86 182.293 1662.24 183.046C1662.64 183.781 1662.84 184.697 1662.84 185.794C1662.84 186.89 1662.64 187.901 1662.24 188.826C1661.86 189.733 1661.34 190.486 1660.66 191.083C1659.98 191.681 1659.22 192.074 1658.38 192.262ZM1681.07 175.961C1680.37 176.117 1679.87 176.378 1679.59 176.744C1679.31 177.095 1679.17 177.531 1679.17 178.05V178.657L1682.28 177.966V180.239L1679.23 180.916V190.052L1676.57 190.644V181.508L1671.67 182.597V191.733L1669 192.325V183.189L1667.23 183.583V181.31L1669 180.916V180.006C1669 178.909 1669.31 177.953 1669.93 177.137C1670.57 176.303 1671.58 175.733 1672.96 175.426C1673.44 175.32 1674.01 175.249 1674.69 175.214V177.487C1674.31 177.5 1673.91 177.553 1673.48 177.647C1672.78 177.803 1672.29 178.064 1672 178.43C1671.72 178.781 1671.58 179.217 1671.58 179.737V180.343L1676.57 179.234V178.325C1676.57 177.228 1676.88 176.272 1677.5 175.456C1678.13 174.622 1679.14 174.052 1680.52 173.745C1680.99 173.641 1681.57 173.569 1682.28 173.528V175.801C1681.9 175.814 1681.49 175.867 1681.07 175.961ZM1693.54 180.248C1693.54 180.652 1693.43 180.986 1693.22 181.249C1693.01 181.513 1692.72 181.685 1692.36 181.767L1685.95 183.19C1686.02 184.271 1686.4 185.003 1687.07 185.387C1687.76 185.768 1688.64 185.841 1689.69 185.606C1690.74 185.374 1691.73 184.944 1692.67 184.316V186.697C1691.64 187.315 1690.57 187.75 1689.44 188C1688.33 188.248 1687.31 188.249 1686.4 188.005C1685.49 187.758 1684.77 187.241 1684.22 186.454C1683.68 185.664 1683.42 184.612 1683.42 183.298C1683.42 182.043 1683.67 180.926 1684.18 179.947C1684.68 178.954 1685.34 178.152 1686.14 177.54C1686.96 176.925 1687.83 176.516 1688.74 176.313C1689.62 176.119 1690.42 176.135 1691.15 176.362C1691.88 176.589 1692.46 177.038 1692.88 177.709C1693.32 178.362 1693.54 179.209 1693.54 180.248ZM1688.7 178.422C1688.04 178.569 1687.47 178.904 1687.01 179.426C1686.56 179.93 1686.25 180.584 1686.08 181.386L1691.11 180.268C1691.05 179.545 1690.8 179.024 1690.35 178.705C1689.9 178.373 1689.35 178.278 1688.7 178.422ZM1701.38 173.505C1702 173.367 1702.53 173.364 1702.98 173.495V176.028C1702.38 175.888 1701.76 175.887 1701.14 176.025C1700.17 176.241 1699.26 176.798 1698.4 177.696V185.793L1695.73 186.385V174.976L1698.21 174.426V175.66C1698.64 175.101 1699.13 174.64 1699.67 174.275C1700.21 173.893 1700.79 173.637 1701.38 173.505ZM1707.71 169.196C1707.71 169.643 1707.55 170.054 1707.23 170.43C1706.9 170.79 1706.5 171.025 1706 171.135C1705.5 171.248 1705.07 171.197 1704.73 170.984C1704.41 170.753 1704.25 170.413 1704.25 169.966C1704.25 169.504 1704.41 169.093 1704.73 168.732C1705.07 168.354 1705.5 168.108 1706 167.996C1706.5 167.886 1706.9 167.947 1707.23 168.178C1707.55 168.395 1707.71 168.734 1707.71 169.196ZM1704.65 172.994V184.404L1707.31 183.812V172.402L1704.65 172.994ZM1716.88 170.081C1718.04 169.824 1718.96 169.994 1719.65 170.592C1720.34 171.174 1720.69 172.144 1720.69 173.501V180.84L1718.02 181.432V174.309C1718.02 173.63 1717.85 173.157 1717.5 172.889C1717.16 172.603 1716.71 172.522 1716.16 172.644C1715.32 172.832 1714.47 173.388 1713.63 174.311V182.408L1710.97 183V171.591L1713.44 171.041V172.232C1713.9 171.696 1714.43 171.239 1715.02 170.862C1715.62 170.485 1716.24 170.225 1716.88 170.081ZM1728.72 167.43C1730.1 167.123 1731.48 167.097 1732.86 167.353V178.525C1732.86 179.795 1732.49 180.85 1731.76 181.692C1731.03 182.533 1729.99 183.102 1728.65 183.399L1725.25 184.156V181.817L1728.65 181.061C1729.17 180.945 1729.58 180.712 1729.86 180.361C1730.14 180.024 1730.28 179.603 1730.28 179.098V177.777C1729.6 178.23 1728.9 178.538 1728.17 178.701C1727.12 178.933 1726.18 178.919 1725.34 178.659C1724.49 178.385 1723.82 177.885 1723.33 177.157C1722.85 176.426 1722.61 175.513 1722.61 174.416C1722.61 173.175 1722.88 172.074 1723.43 171.115C1723.98 170.141 1724.72 169.351 1725.63 168.743C1726.56 168.118 1727.59 167.68 1728.72 167.43ZM1725.36 173.805C1725.36 174.83 1725.65 175.545 1726.22 175.951C1726.81 176.339 1727.55 176.434 1728.44 176.237C1729.02 176.109 1729.6 175.856 1730.2 175.479V169.72C1729.68 169.692 1729.18 169.729 1728.72 169.833C1727.73 170.052 1726.92 170.506 1726.29 171.195C1725.67 171.867 1725.36 172.737 1725.36 173.805ZM1735.84 174.659C1736.33 174.737 1736.91 174.782 1737.57 174.794C1738.24 174.788 1738.88 174.719 1739.47 174.587C1740.08 174.453 1740.52 174.246 1740.8 173.967C1741.08 173.673 1741.22 173.339 1741.22 172.964C1741.22 172.617 1741.1 172.384 1740.87 172.264C1740.63 172.13 1740.27 172.051 1739.79 172.027L1738.27 171.976C1737.35 171.948 1736.62 171.763 1736.09 171.42C1735.55 171.077 1735.29 170.408 1735.29 169.412C1735.29 168.272 1735.72 167.318 1736.58 166.549C1737.45 165.778 1738.52 165.251 1739.79 164.969C1740.39 164.835 1740.99 164.76 1741.58 164.743C1742.19 164.71 1742.71 164.731 1743.15 164.807V167.167C1742.67 167.086 1742.11 167.052 1741.46 167.067C1740.81 167.066 1740.2 167.129 1739.64 167.254C1739.1 167.373 1738.69 167.552 1738.39 167.791C1738.1 168.03 1737.95 168.308 1737.95 168.626C1737.95 168.9 1738.05 169.102 1738.24 169.231C1738.46 169.343 1738.78 169.408 1739.22 169.426L1740.72 169.482C1741.69 169.512 1742.46 169.716 1743.02 170.096C1743.6 170.459 1743.89 171.152 1743.89 172.177C1743.89 172.985 1743.68 173.718 1743.25 174.375C1742.84 175.028 1742.3 175.569 1741.6 175.997C1740.91 176.424 1740.16 176.729 1739.34 176.91C1738.68 177.058 1738.04 177.15 1737.42 177.186C1736.8 177.223 1736.27 177.196 1735.84 177.106V174.659Z" fill="black"/>
<circle r="29.3428" transform="matrix(0.976187 -0.21693 0 1 1690.29 99.2216)" fill="#FE638C"/>
<circle r="24.2395" transform="matrix(0.976187 -0.21693 0 1 1690.29 99.2214)" fill="white"/>
<path d="M1690.74 111.131C1690.74 111.131 1699.78 104.045 1699.78 97.031V88.8478L1690.74 87.7504L1681.7 93.6673V101.85C1681.7 108.865 1690.74 111.131 1690.74 111.131Z" stroke="black" stroke-width="2" stroke-linecap="round" stroke-linejoin="round"/>
<path d="M1694.64 95.5916L1689.82 101.871L1687.62 100.186" stroke="black" stroke-width="1.64643" stroke-linecap="round" stroke-linejoin="round"/>
<path d="M1348.58 132.956V317.078" stroke="#5D37AD" stroke-width="2.61657" stroke-dasharray="7.85"/>
<rect width="213.904" height="104.704" rx="10.2988" transform="matrix(0.976187 -0.21693 0 1 1244.36 70.0615)" fill="#5F259F"/>
<path d="M1318.44 101.394V104.383L1305.54 107.249V104.656C1307.87 102.063 1309.64 100.013 1310.87 98.5062C1312.09 96.9831 1312.94 95.7728 1313.42 94.8751C1313.92 93.9739 1314.17 93.1939 1314.17 92.5352C1314.17 91.6788 1313.86 91.1209 1313.25 90.8614C1312.66 90.5819 1311.87 90.5511 1310.89 90.769C1309.33 91.1156 1307.66 91.907 1305.87 93.1435V90.031C1306.69 89.47 1307.53 89.0043 1308.38 88.6338C1309.25 88.2432 1310.22 87.9283 1311.3 87.6889C1313.26 87.2531 1314.8 87.3648 1315.91 88.0241C1317.02 88.6669 1317.57 89.7952 1317.57 91.4091C1317.57 92.9077 1316.96 94.575 1315.74 96.411C1314.53 98.2269 1312.57 100.524 1309.85 103.301L1318.44 101.394ZM1337.52 90.7543C1338.59 90.7656 1339.41 91.1004 1340.01 91.7586C1340.62 92.3969 1340.92 93.2101 1340.92 94.1982C1340.92 95.3015 1340.63 96.3045 1340.06 97.2072C1339.49 98.1062 1338.71 98.8723 1337.72 99.5055C1336.74 100.119 1335.63 100.563 1334.39 100.838L1328.12 102.231V84.1984L1334.24 82.8373C1336.03 82.4408 1337.48 82.5374 1338.61 83.1272C1339.73 83.7005 1340.3 84.753 1340.3 86.2845C1340.3 87.1573 1340.06 87.9914 1339.6 88.7867C1339.15 89.5619 1338.46 90.2178 1337.52 90.7543ZM1331.35 86.3952V90.8416L1334.39 90.1665C1335.18 89.9914 1335.8 89.6709 1336.27 89.205C1336.74 88.7391 1336.97 88.1274 1336.97 87.3699C1336.97 86.6123 1336.72 86.1078 1336.22 85.8562C1335.72 85.6047 1335.06 85.57 1334.24 85.7522L1331.35 86.3952ZM1334.56 97.8855C1335.46 97.6854 1336.19 97.3253 1336.75 96.805C1337.32 96.2682 1337.6 95.5882 1337.6 94.7648C1337.6 93.9413 1337.32 93.3945 1336.75 93.1243C1336.21 92.8506 1335.47 92.8155 1334.56 93.0191L1331.35 93.7318V98.5982L1334.56 97.8855ZM1347.23 81.4102C1347.23 81.9207 1347.04 82.3899 1346.67 82.8179C1346.3 83.2295 1345.83 83.4978 1345.27 83.6228C1344.69 83.7514 1344.21 83.6939 1343.83 83.4503C1343.46 83.1866 1343.27 82.7995 1343.27 82.289C1343.27 81.762 1343.46 81.2927 1343.83 80.8812C1344.21 80.4496 1344.69 80.1696 1345.27 80.0409C1345.83 79.9159 1346.3 79.9852 1346.67 80.2489C1347.04 80.4961 1347.23 80.8832 1347.23 81.4102ZM1343.73 85.7443V98.7625L1346.77 98.0873V85.0691L1343.73 85.7443ZM1350.09 79.3168V97.3495L1353.13 96.6743V78.6416L1350.09 79.3168ZM1356.44 77.9039V95.9366L1359.48 95.2614V77.2287L1356.44 77.9039ZM1366.3 77.1714C1366.3 77.6819 1366.11 78.1511 1365.75 78.5791C1365.38 78.9907 1364.91 79.2589 1364.35 79.384C1363.77 79.5126 1363.29 79.4551 1362.9 79.2115C1362.53 78.9478 1362.35 78.5607 1362.35 78.0502C1362.35 77.5232 1362.53 77.0539 1362.9 76.6424C1363.29 76.2108 1363.77 75.9307 1364.35 75.8021C1364.91 75.6771 1365.38 75.7464 1365.75 76.0101C1366.11 76.2573 1366.3 76.6444 1366.3 77.1714ZM1362.8 81.5055V94.5237L1365.84 93.8485V80.8303L1362.8 81.5055ZM1374.8 92.1038C1376.01 91.8359 1377.1 91.313 1378.08 90.5351C1379.08 89.7373 1379.86 88.7653 1380.42 87.6192C1381 86.4531 1381.29 85.2031 1381.29 83.8692C1381.29 82.5352 1381 81.4303 1380.42 80.5543C1379.86 79.6583 1379.08 79.0411 1378.08 78.7027C1377.1 78.3607 1376.01 78.3237 1374.8 78.5916C1373.6 78.8595 1372.5 79.3842 1371.5 80.1656C1370.52 80.9435 1369.74 81.9072 1369.16 83.0569C1368.6 84.1865 1368.32 85.4182 1368.32 86.7521C1368.32 88.0861 1368.6 89.2093 1369.16 90.1217C1369.74 91.0142 1370.52 91.6396 1371.5 91.9981C1372.5 92.3365 1373.6 92.3717 1374.8 92.1038ZM1374.8 81.3336C1375.77 81.1192 1376.57 81.3029 1377.22 81.8846C1377.86 82.4498 1378.18 83.3418 1378.18 84.5604C1378.18 85.7956 1377.86 86.8551 1377.22 87.7391C1376.57 88.6066 1375.77 89.1475 1374.8 89.3618C1373.84 89.5762 1373.04 89.3925 1372.39 88.8108C1371.77 88.2091 1371.45 87.2906 1371.45 86.0555C1371.45 84.8369 1371.77 83.8038 1372.39 82.9563C1373.04 82.0888 1373.84 81.5479 1374.8 81.3336ZM1390.56 75.1148C1391.88 74.8219 1392.93 75.0161 1393.72 75.6974C1394.51 76.3622 1394.9 77.4686 1394.9 79.0166V87.3907L1391.86 88.0659V79.9388C1391.86 79.1648 1391.66 78.6249 1391.26 78.3189C1390.87 77.993 1390.37 77.8997 1389.74 78.039C1388.78 78.2533 1387.81 78.8876 1386.85 79.9418V89.1805L1383.81 89.8557V76.8376L1386.63 76.2106V77.5692C1387.16 76.9573 1387.76 76.4363 1388.44 76.0063C1389.11 75.5763 1389.82 75.2792 1390.56 75.1148ZM1291.43 123.351V126.365L1286.42 127.479V142.498L1283.21 143.211V128.192L1278.19 129.307V126.293L1291.43 123.351ZM1299.78 126.263C1300.49 126.106 1301.1 126.102 1301.62 126.251V129.141C1300.93 128.982 1300.23 128.981 1299.52 129.138C1298.41 129.384 1297.36 130.02 1296.38 131.045V140.283L1293.35 140.959V127.941L1296.17 127.314V128.722C1296.67 128.084 1297.22 127.557 1297.83 127.141C1298.46 126.706 1299.11 126.413 1299.78 126.263ZM1307.65 124.516C1309.19 124.173 1310.44 124.273 1311.41 124.816C1312.39 125.356 1312.88 126.482 1312.88 128.195V136.618L1310.01 137.256V136.391C1308.95 137.368 1307.84 137.985 1306.68 138.242C1305.39 138.528 1304.39 138.397 1303.67 137.85C1302.96 137.299 1302.61 136.398 1302.61 135.146C1302.61 133.878 1303.06 132.782 1303.96 131.857C1304.86 130.916 1306.04 130.283 1307.5 129.958L1309.84 129.438V129.067C1309.84 128.293 1309.6 127.771 1309.12 127.499C1308.63 127.227 1307.95 127.19 1307.07 127.386C1305.83 127.662 1304.57 128.296 1303.28 129.29V126.449C1303.83 126.031 1304.49 125.654 1305.26 125.318C1306.03 124.965 1306.83 124.698 1307.65 124.516ZM1305.57 134.438C1305.57 134.981 1305.76 135.36 1306.13 135.574C1306.51 135.785 1307 135.824 1307.6 135.692C1308.42 135.51 1309.16 135.138 1309.84 134.576V131.661L1308.01 132.069C1307.25 132.236 1306.66 132.525 1306.22 132.934C1305.79 133.327 1305.57 133.828 1305.57 134.438ZM1322.59 121.22C1323.91 120.927 1324.96 121.121 1325.75 121.803C1326.53 122.468 1326.93 123.574 1326.93 125.122V133.496L1323.89 134.171V126.044C1323.89 125.27 1323.69 124.73 1323.29 124.424C1322.9 124.098 1322.39 124.005 1321.77 124.144C1320.8 124.359 1319.84 124.993 1318.87 126.047V135.286L1315.83 135.961V122.943L1318.66 122.316V123.675C1319.19 123.063 1319.79 122.542 1320.46 122.112C1321.14 121.682 1321.85 121.385 1322.59 121.22ZM1329.96 129.61C1330.53 129.699 1331.19 129.75 1331.94 129.763C1332.71 129.757 1333.44 129.678 1334.11 129.528C1334.8 129.374 1335.31 129.138 1335.63 128.82C1335.95 128.485 1336.11 128.103 1336.11 127.675C1336.11 127.28 1335.98 127.014 1335.7 126.877C1335.43 126.724 1335.02 126.634 1334.47 126.607L1332.74 126.548C1331.69 126.517 1330.86 126.306 1330.25 125.914C1329.64 125.523 1329.34 124.759 1329.34 123.623C1329.34 122.322 1329.83 121.233 1330.81 120.357C1331.8 119.476 1333.03 118.875 1334.47 118.554C1335.16 118.4 1335.85 118.314 1336.52 118.296C1337.21 118.258 1337.81 118.282 1338.31 118.369V121.061C1337.76 120.969 1337.12 120.931 1336.38 120.947C1335.64 120.946 1334.95 121.018 1334.3 121.161C1333.69 121.296 1333.22 121.5 1332.88 121.773C1332.54 122.046 1332.38 122.363 1332.38 122.726C1332.38 123.038 1332.49 123.269 1332.71 123.416C1332.95 123.544 1333.32 123.618 1333.82 123.639L1335.53 123.703C1336.64 123.737 1337.52 123.97 1338.16 124.404C1338.82 124.817 1339.15 125.609 1339.15 126.778C1339.15 127.7 1338.91 128.536 1338.43 129.285C1337.96 130.031 1337.34 130.648 1336.55 131.136C1335.76 131.624 1334.9 131.971 1333.97 132.179C1333.21 132.347 1332.48 132.452 1331.77 132.493C1331.07 132.535 1330.46 132.505 1329.96 132.401V129.61ZM1346.1 115.97C1347.64 115.627 1348.9 115.727 1349.86 116.271C1350.84 116.81 1351.33 117.936 1351.33 119.649V128.073L1348.46 128.71V127.846C1347.4 128.822 1346.29 129.44 1345.14 129.697C1343.85 129.983 1342.85 129.852 1342.12 129.304C1341.41 128.753 1341.06 127.852 1341.06 126.601C1341.06 125.333 1341.51 124.236 1342.41 123.312C1343.31 122.37 1344.49 121.737 1345.96 121.412L1348.29 120.892V120.522C1348.29 119.748 1348.05 119.225 1347.57 118.953C1347.09 118.682 1346.41 118.644 1345.52 118.841C1344.28 119.116 1343.02 119.75 1341.74 120.744V117.904C1342.28 117.486 1342.94 117.109 1343.71 116.772C1344.48 116.42 1345.28 116.152 1346.1 115.97ZM1344.03 125.892C1344.03 126.436 1344.21 126.814 1344.58 127.029C1344.97 127.239 1345.46 127.279 1346.05 127.146C1346.87 126.964 1347.62 126.592 1348.29 126.03V123.116L1346.46 123.523C1345.71 123.691 1345.11 123.979 1344.68 124.389C1344.24 124.782 1344.03 125.283 1344.03 125.892ZM1356.58 120.36C1356.58 121.661 1356.96 122.574 1357.71 123.097C1358.47 123.621 1359.4 123.768 1360.51 123.538C1361.11 123.406 1361.7 123.191 1362.3 122.894C1362.91 122.577 1363.42 122.241 1363.84 121.884V124.725C1363.36 125.079 1362.79 125.404 1362.13 125.699C1361.47 125.993 1360.81 126.214 1360.15 126.36C1359.01 126.614 1357.92 126.6 1356.89 126.318C1355.88 126.032 1355.05 125.451 1354.41 124.573C1353.77 123.694 1353.45 122.523 1353.45 121.057C1353.45 119.608 1353.77 118.309 1354.41 117.162C1355.05 115.998 1355.88 115.056 1356.89 114.337C1357.92 113.598 1359.01 113.102 1360.15 112.848C1360.83 112.698 1361.48 112.626 1362.13 112.631C1362.79 112.633 1363.36 112.704 1363.84 112.843V115.684C1363.42 115.514 1362.91 115.414 1362.3 115.385C1361.7 115.336 1361.11 115.377 1360.51 115.51C1359.39 115.776 1358.45 116.331 1357.69 117.174C1356.95 118.014 1356.58 119.076 1356.58 120.36ZM1374.06 112.597L1370.54 113.379V119.481C1370.54 120.699 1371.17 121.169 1372.42 120.891C1372.89 120.787 1373.44 120.583 1374.06 120.279V122.997C1373.4 123.324 1372.8 123.549 1372.26 123.67C1370.63 124.031 1369.43 123.91 1368.66 123.308C1367.89 122.689 1367.5 121.72 1367.5 120.403V114.054L1365.17 114.574V111.98L1367.5 111.461V108.2L1370.54 107.525V110.786L1374.06 110.003V112.597ZM1380.11 105.102C1380.11 105.613 1379.93 106.082 1379.56 106.51C1379.19 106.921 1378.72 107.19 1378.16 107.315C1377.58 107.443 1377.1 107.386 1376.71 107.142C1376.34 106.879 1376.16 106.491 1376.16 105.981C1376.16 105.454 1376.34 104.985 1376.71 104.573C1377.1 104.142 1377.58 103.862 1378.16 103.733C1378.72 103.608 1379.19 103.677 1379.56 103.941C1379.93 104.188 1380.11 104.575 1380.11 105.102ZM1376.61 109.436V122.454L1379.65 121.779V108.761L1376.61 109.436ZM1388.62 120.035C1389.82 119.767 1390.91 119.244 1391.9 118.466C1392.89 117.668 1393.67 116.696 1394.23 115.55C1394.81 114.384 1395.1 113.134 1395.1 111.8C1395.1 110.466 1394.81 109.361 1394.23 108.485C1393.67 107.589 1392.89 106.972 1391.9 106.633C1390.91 106.291 1389.82 106.254 1388.62 106.522C1387.41 106.79 1386.31 107.315 1385.31 108.096C1384.33 108.874 1383.55 109.838 1382.97 110.988C1382.41 112.117 1382.13 113.349 1382.13 114.683C1382.13 116.017 1382.41 117.14 1382.97 118.053C1383.55 118.945 1384.33 119.57 1385.31 119.929C1386.31 120.267 1387.41 120.303 1388.62 120.035ZM1388.62 109.264C1389.58 109.05 1390.38 109.234 1391.03 109.815C1391.67 110.381 1391.99 111.273 1391.99 112.491C1391.99 113.726 1391.67 114.786 1391.03 115.67C1390.38 116.537 1389.58 117.078 1388.62 117.293C1387.65 117.507 1386.85 117.323 1386.2 116.742C1385.58 116.14 1385.26 115.221 1385.26 113.986C1385.26 112.768 1385.58 111.735 1386.2 110.887C1386.85 110.02 1387.65 109.479 1388.62 109.264ZM1404.37 103.046C1405.69 102.753 1406.74 102.947 1407.53 103.628C1408.32 104.293 1408.71 105.399 1408.71 106.947V115.322L1405.67 115.997V107.87C1405.67 107.096 1405.47 106.556 1405.07 106.25C1404.69 105.924 1404.18 105.83 1403.55 105.97C1402.59 106.184 1401.62 106.818 1400.66 107.873V117.111L1397.62 117.787V104.768L1400.44 104.141V105.5C1400.97 104.888 1401.58 104.367 1402.25 103.937C1402.93 103.507 1403.63 103.21 1404.37 103.046ZM1411.75 111.435C1412.31 111.524 1412.97 111.576 1413.73 111.589C1414.5 111.582 1415.22 111.504 1415.9 111.354C1416.59 111.2 1417.1 110.964 1417.42 110.645C1417.74 110.31 1417.9 109.929 1417.9 109.501C1417.9 109.105 1417.76 108.839 1417.49 108.703C1417.22 108.549 1416.81 108.459 1416.26 108.432L1414.52 108.374C1413.48 108.342 1412.65 108.131 1412.04 107.74C1411.43 107.349 1411.12 106.585 1411.12 105.448C1411.12 104.147 1411.61 103.059 1412.59 102.182C1413.59 101.302 1414.81 100.701 1416.26 100.379C1416.95 100.226 1417.63 100.14 1418.31 100.122C1419 100.083 1419.59 100.107 1420.09 100.194V102.887C1419.55 102.794 1418.9 102.756 1418.16 102.772C1417.42 102.772 1416.73 102.843 1416.09 102.986C1415.48 103.122 1415.01 103.326 1414.67 103.599C1414.33 103.871 1414.16 104.189 1414.16 104.551C1414.16 104.864 1414.27 105.094 1414.5 105.242C1414.74 105.369 1415.11 105.444 1415.61 105.465L1417.32 105.529C1418.43 105.562 1419.31 105.796 1419.95 106.229C1420.61 106.643 1420.94 107.434 1420.94 108.603C1420.94 109.525 1420.7 110.361 1420.21 111.111C1419.75 111.857 1419.12 112.473 1418.33 112.961C1417.55 113.449 1416.69 113.797 1415.75 114.004C1415 114.172 1414.27 114.277 1413.56 114.319C1412.85 114.361 1412.25 114.33 1411.75 114.227V111.435Z" fill="white"/>
<circle r="25.7491" transform="matrix(0.976187 -0.21693 0 1 1343.75 49.093)" fill="#5F259F"/>
<circle r="21.2708" transform="matrix(0.976187 -0.21693 0 1 1343.75 49.093)" fill="white"/>
<path d="M1343.23 58.1577V46.6709" stroke="black" stroke-width="2.63258" stroke-linecap="round" stroke-linejoin="round"/>
<path d="M1350.12 56.6211V38.2422" stroke="black" stroke-width="2.63258" stroke-linecap="round" stroke-linejoin="round"/>
<path d="M1336.34 59.5762V54.9814" stroke="black" stroke-width="2.63258" stroke-linecap="round" stroke-linejoin="round"/>
<path d="M1463.88 386.037L1463.88 480" stroke="#5D37AD" stroke-width="2" stroke-dasharray="6"/>
<rect width="183.041" height="119.219" rx="9.15998" transform="matrix(0.966235 0.257663 0 1 1375.45 277.878)" fill="#00BCD5"/>
<path d="M1432.05 349.823V353.666L1418.68 350.101V346.745C1420.99 345.175 1422.68 343.986 1423.76 343.179C1424.85 342.359 1425.64 341.657 1426.13 341.071C1426.63 340.469 1426.88 339.877 1426.88 339.297C1426.88 337.879 1425.9 336.91 1423.95 336.391C1422.55 336.017 1420.87 335.995 1418.9 336.325V332.354C1419.76 332.19 1420.63 332.131 1421.5 332.176C1422.39 332.226 1423.42 332.405 1424.57 332.713C1426.65 333.268 1428.27 334.169 1429.43 335.416C1430.6 336.668 1431.18 338.165 1431.18 339.907C1431.18 341.41 1430.6 342.766 1429.43 343.973C1428.27 345.168 1426.49 346.41 1424.08 347.697L1432.05 349.823ZM1435.9 349.953C1436.61 350.467 1437.48 350.971 1438.5 351.466C1439.52 351.961 1440.49 352.329 1441.4 352.571C1442.49 352.862 1443.36 352.916 1444.02 352.733C1444.68 352.533 1445.01 352.015 1445.01 351.178C1445.01 350.239 1444.49 349.408 1443.45 348.687C1442.43 347.953 1441.04 347.353 1439.29 346.886C1438.27 346.613 1437.29 346.411 1436.35 346.28L1437.56 336.432L1448.38 339.317V343.186L1441.15 341.258L1440.8 344.01L1441.57 344.189C1443.76 344.774 1445.59 345.73 1447.04 347.057C1448.49 348.383 1449.22 350.046 1449.22 352.044C1449.22 353.428 1448.88 354.516 1448.2 355.309C1447.54 356.107 1446.64 356.599 1445.48 356.786C1444.34 356.961 1443.05 356.854 1441.59 356.467C1440.54 356.186 1439.5 355.814 1438.48 355.354C1437.47 354.897 1436.61 354.421 1435.9 353.924V349.953ZM1459.14 361.145C1460.67 361.554 1462.02 361.514 1463.19 361.023C1464.38 360.537 1465.3 359.654 1465.94 358.374C1466.6 357.098 1466.93 355.512 1466.93 353.617C1466.93 351.721 1466.6 349.959 1465.94 348.331C1465.3 346.708 1464.38 345.336 1463.19 344.216C1462.02 343.101 1460.67 342.339 1459.14 341.93C1457.6 341.52 1456.24 341.559 1455.05 342.045C1453.88 342.535 1452.96 343.418 1452.3 344.694C1451.66 345.974 1451.34 347.562 1451.34 349.458C1451.34 351.354 1451.66 353.113 1452.3 354.737C1452.96 356.365 1453.88 357.736 1455.05 358.851C1456.24 359.971 1457.6 360.735 1459.14 361.145ZM1459.14 357.276C1458.03 356.981 1457.15 356.236 1456.51 355.039C1455.87 353.826 1455.55 352.339 1455.55 350.58C1455.55 348.804 1455.87 347.489 1456.51 346.636C1457.15 345.765 1458.03 345.478 1459.14 345.773C1460.24 346.067 1461.12 346.822 1461.76 348.035C1462.42 349.253 1462.75 350.742 1462.75 352.501C1462.75 354.26 1462.42 355.573 1461.76 356.439C1461.12 357.292 1460.24 357.571 1459.14 357.276ZM1469.35 363.612V344.909L1474.62 346.315L1477.17 353.58C1477.5 354.556 1477.86 355.803 1478.24 357.322C1478.65 355.878 1478.99 354.818 1479.28 354.141L1481.82 348.236L1487.1 349.643V368.345L1483.01 367.256V358.648C1483.01 357.623 1483.11 356.01 1483.31 353.808C1482.63 355.762 1482.06 357.248 1481.58 358.265L1480.17 361.27L1476.28 360.234L1474.87 356.476C1474.39 355.204 1473.81 353.41 1473.14 351.095C1473.33 353.402 1473.43 355.068 1473.43 356.093V364.701L1469.35 363.612ZM1502.97 361.638L1506.34 362.536V365.764L1502.97 364.866V368.325L1499.88 367.5V364.041L1496.51 363.143V359.915L1499.88 360.813V357.329L1502.97 358.154V361.638Z" fill="white"/>
<path d="M1401.11 368.304L1398.26 362.54L1396.51 362.071V367.075L1394.18 366.454V353.314L1398.92 354.58C1399.82 354.818 1400.61 355.186 1401.31 355.683C1402.01 356.172 1402.57 356.776 1402.98 357.497C1403.38 358.217 1403.58 359.015 1403.58 359.891C1403.58 360.887 1403.32 361.644 1402.78 362.162C1402.26 362.67 1401.56 362.932 1400.66 362.946L1403.72 369L1401.11 368.304ZM1396.51 356.059V359.965L1398.92 360.61C1399.6 360.789 1400.14 360.773 1400.56 360.56C1400.98 360.347 1401.18 359.911 1401.18 359.251C1401.18 358.591 1400.98 358.049 1400.56 357.626C1400.14 357.191 1399.6 356.883 1398.92 356.704L1396.51 356.059ZM1412.97 365.957C1412.97 366.293 1412.88 366.528 1412.71 366.662C1412.53 366.795 1412.3 366.822 1411.99 366.742L1406.72 365.336C1406.78 366.264 1407.09 367.024 1407.65 367.616C1408.21 368.212 1408.93 368.625 1409.8 368.857C1410.66 369.086 1411.48 369.13 1412.26 368.989V370.969C1411.41 371.067 1410.52 370.993 1409.59 370.746C1408.68 370.501 1407.84 370.093 1407.09 369.52C1406.35 368.95 1405.75 368.227 1405.3 367.35C1404.86 366.477 1404.64 365.494 1404.64 364.402C1404.64 363.358 1404.85 362.531 1405.26 361.923C1405.68 361.302 1406.22 360.9 1406.88 360.716C1407.55 360.535 1408.27 360.546 1409.02 360.747C1409.74 360.938 1410.4 361.276 1411 361.761C1411.61 362.246 1412.08 362.853 1412.43 363.582C1412.79 364.301 1412.97 365.093 1412.97 365.957ZM1408.99 362.483C1408.44 362.338 1407.98 362.388 1407.59 362.634C1407.22 362.871 1406.97 363.289 1406.83 363.888L1410.97 364.992C1410.92 364.368 1410.71 363.832 1410.34 363.385C1409.97 362.926 1409.52 362.626 1408.99 362.483ZM1419.19 363.459C1420.33 363.762 1421.46 364.299 1422.6 365.07V374.358C1422.6 375.414 1422.3 376.144 1421.7 376.547C1421.09 376.95 1420.24 377.005 1419.14 376.711L1416.34 375.964V374.02L1419.14 374.767C1419.57 374.882 1419.9 374.85 1420.13 374.672C1420.36 374.505 1420.48 374.212 1420.48 373.792V372.694C1419.92 372.798 1419.34 372.769 1418.74 372.608C1417.88 372.38 1417.11 371.987 1416.41 371.429C1415.71 370.859 1415.16 370.173 1414.76 369.368C1414.36 368.567 1414.17 367.711 1414.17 366.799C1414.17 365.767 1414.39 364.963 1414.84 364.388C1415.3 363.8 1415.9 363.439 1416.65 363.304C1417.42 363.16 1418.26 363.212 1419.19 363.459ZM1416.43 367.402C1416.43 368.254 1416.66 368.965 1417.14 369.536C1417.63 370.098 1418.24 370.476 1418.97 370.671C1419.44 370.798 1419.92 370.824 1420.41 370.75V365.962C1419.98 365.727 1419.57 365.559 1419.19 365.457C1418.38 365.241 1417.71 365.291 1417.19 365.608C1416.68 365.916 1416.43 366.514 1416.43 367.402ZM1427.57 363.282C1427.57 363.654 1427.44 363.93 1427.17 364.111C1426.91 364.28 1426.57 364.31 1426.16 364.202C1425.75 364.091 1425.4 363.878 1425.12 363.564C1424.85 363.241 1424.72 362.893 1424.72 362.521C1424.72 362.137 1424.85 361.861 1425.12 361.692C1425.4 361.514 1425.75 361.481 1426.16 361.592C1426.57 361.7 1426.91 361.916 1427.17 362.239C1427.44 362.55 1427.57 362.898 1427.57 363.282ZM1425.05 365.201V374.687L1427.24 375.272V365.786L1425.05 365.201ZM1429.64 373.57C1430.04 373.834 1430.52 374.105 1431.06 374.382C1431.62 374.651 1432.14 374.85 1432.63 374.98C1433.13 375.113 1433.49 375.12 1433.72 375.002C1433.96 374.872 1434.07 374.651 1434.07 374.339C1434.07 374.051 1433.97 373.808 1433.78 373.612C1433.58 373.403 1433.28 373.193 1432.89 372.979L1431.64 372.321C1430.88 371.928 1430.29 371.481 1429.84 370.98C1429.4 370.478 1429.18 369.814 1429.18 368.986C1429.18 368.038 1429.54 367.418 1430.24 367.126C1430.96 366.838 1431.84 366.833 1432.89 367.111C1433.39 367.244 1433.88 367.424 1434.37 367.65C1434.87 367.867 1435.29 368.095 1435.65 368.335V370.297C1435.26 370.036 1434.8 369.78 1434.26 369.53C1433.73 369.268 1433.23 369.075 1432.77 368.951C1432.33 368.833 1431.98 368.814 1431.74 368.893C1431.5 368.972 1431.38 369.144 1431.38 369.408C1431.38 369.636 1431.46 369.844 1431.62 370.031C1431.79 370.209 1432.06 370.394 1432.42 370.586L1433.65 371.239C1434.45 371.657 1435.09 372.137 1435.55 372.681C1436.02 373.216 1436.26 373.909 1436.26 374.761C1436.26 375.433 1436.09 375.957 1435.74 376.332C1435.4 376.71 1434.95 376.938 1434.38 377.014C1433.82 377.091 1433.2 377.039 1432.52 376.86C1431.98 376.715 1431.45 376.532 1430.94 376.312C1430.43 376.092 1430 375.856 1429.64 375.604V373.57ZM1443.78 372.085L1441.24 371.408V375.854C1441.24 376.742 1441.69 377.307 1442.6 377.548C1442.93 377.638 1443.33 377.683 1443.78 377.683V379.663C1443.3 379.669 1442.87 379.619 1442.47 379.514C1441.3 379.201 1440.44 378.689 1439.88 377.977C1439.33 377.252 1439.05 376.41 1439.05 375.45V370.824L1437.36 370.374V368.484L1439.05 368.934V366.558L1441.24 367.142V369.518L1443.78 370.195V372.085ZM1453.34 376.723C1453.34 377.059 1453.25 377.294 1453.08 377.428C1452.91 377.561 1452.67 377.588 1452.37 377.508L1447.1 376.102C1447.15 377.03 1447.46 377.79 1448.02 378.382C1448.59 378.978 1449.31 379.391 1450.18 379.623C1451.03 379.852 1451.85 379.896 1452.63 379.755V381.735C1451.78 381.833 1450.89 381.759 1449.97 381.512C1449.05 381.267 1448.22 380.859 1447.46 380.286C1446.72 379.716 1446.12 378.993 1445.67 378.116C1445.23 377.243 1445.01 376.26 1445.01 375.168C1445.01 374.124 1445.22 373.297 1445.64 372.689C1446.05 372.068 1446.59 371.666 1447.25 371.482C1447.93 371.301 1448.64 371.312 1449.39 371.513C1450.11 371.704 1450.77 372.042 1451.38 372.527C1451.98 373.012 1452.45 373.619 1452.8 374.348C1453.16 375.067 1453.34 375.859 1453.34 376.723ZM1449.36 373.249C1448.81 373.104 1448.35 373.154 1447.97 373.4C1447.6 373.637 1447.34 374.055 1447.2 374.654L1451.34 375.758C1451.29 375.134 1451.09 374.598 1450.71 374.151C1450.34 373.692 1449.89 373.391 1449.36 373.249ZM1459.79 374.285C1460.3 374.421 1460.74 374.635 1461.11 374.926V377.032C1460.61 376.671 1460.11 376.422 1459.6 376.286C1458.8 376.073 1458.05 376.166 1457.34 376.565V383.297L1455.15 382.713V373.227L1457.18 373.77V374.796C1457.54 374.507 1457.94 374.32 1458.38 374.234C1458.83 374.138 1459.3 374.155 1459.79 374.285ZM1470.04 381.176C1470.04 381.512 1469.95 381.746 1469.78 381.88C1469.6 382.014 1469.36 382.04 1469.06 381.96L1463.79 380.555C1463.85 381.482 1464.16 382.242 1464.71 382.834C1465.28 383.43 1466 383.844 1466.87 384.075C1467.73 384.304 1468.55 384.348 1469.32 384.207V386.187C1468.48 386.286 1467.59 386.211 1466.66 385.964C1465.75 385.72 1464.91 385.311 1464.16 384.738C1463.42 384.168 1462.82 383.445 1462.37 382.568C1461.93 381.695 1461.71 380.712 1461.71 379.62C1461.71 378.576 1461.91 377.75 1462.33 377.141C1462.75 376.52 1463.29 376.118 1463.95 375.934C1464.62 375.754 1465.33 375.764 1466.09 375.965C1466.81 376.156 1467.47 376.495 1468.07 376.979C1468.67 377.464 1469.15 378.071 1469.5 378.8C1469.86 379.52 1470.04 380.312 1470.04 381.176ZM1466.05 377.701C1465.51 377.556 1465.05 377.606 1464.66 377.852C1464.29 378.09 1464.04 378.507 1463.9 379.106L1468.04 380.21C1467.99 379.586 1467.78 379.05 1467.41 378.603C1467.04 378.144 1466.59 377.844 1466.05 377.701ZM1477.53 375.542L1479.72 376.126V388.744C1478.55 388.9 1477.38 388.822 1476.21 388.509C1475.3 388.268 1474.47 387.867 1473.72 387.306C1472.97 386.733 1472.36 386.014 1471.91 385.15C1471.46 384.285 1471.23 383.307 1471.23 382.215C1471.23 381.255 1471.44 380.463 1471.84 379.839C1472.25 379.203 1472.8 378.774 1473.5 378.552C1474.2 378.332 1474.99 378.339 1475.86 378.571C1476.44 378.725 1477 378.988 1477.53 379.358V375.542ZM1475.98 386.451C1476.48 386.584 1477 386.65 1477.53 386.648V381.302C1477.03 380.977 1476.55 380.753 1476.09 380.629C1475.34 380.431 1474.72 380.512 1474.23 380.871C1473.74 381.233 1473.5 381.882 1473.5 382.818C1473.5 383.73 1473.73 384.518 1474.19 385.181C1474.67 385.836 1475.26 386.259 1475.98 386.451ZM1486.5 377.934L1488.85 378.56V386.57C1488.84 387.491 1489.04 388.296 1489.47 388.987C1489.91 389.68 1490.55 390.138 1491.39 390.361C1492.24 390.59 1492.89 390.479 1493.32 390.03C1493.75 389.568 1493.96 388.869 1493.96 387.933V379.923L1496.31 380.55V388.686C1496.31 389.694 1496.12 390.543 1495.74 391.232C1495.35 391.91 1494.79 392.372 1494.05 392.619C1493.31 392.853 1492.42 392.832 1491.39 392.557C1490.37 392.285 1489.49 391.828 1488.74 391.186C1488.01 390.547 1487.46 389.787 1487.07 388.905C1486.69 388.023 1486.5 387.078 1486.5 386.07V377.934ZM1498.68 391.981C1499.08 392.246 1499.56 392.516 1500.1 392.794C1500.66 393.062 1501.18 393.261 1501.67 393.391C1502.17 393.524 1502.53 393.531 1502.77 393.413C1503 393.283 1503.11 393.062 1503.11 392.75C1503.11 392.462 1503.01 392.22 1502.82 392.023C1502.62 391.815 1502.33 391.604 1501.93 391.391L1500.68 390.733C1499.92 390.34 1499.33 389.893 1498.89 389.391C1498.45 388.89 1498.23 388.225 1498.23 387.397C1498.23 386.449 1498.58 385.829 1499.29 385.538C1500.01 385.249 1500.89 385.244 1501.93 385.523C1502.43 385.656 1502.92 385.835 1503.41 386.061C1503.91 386.278 1504.34 386.506 1504.7 386.746V388.708C1504.3 388.447 1503.84 388.191 1503.3 387.941C1502.77 387.679 1502.27 387.486 1501.81 387.362C1501.37 387.245 1501.03 387.226 1500.78 387.305C1500.54 387.384 1500.42 387.555 1500.42 387.819C1500.42 388.047 1500.5 388.255 1500.66 388.442C1500.84 388.621 1501.1 388.806 1501.46 388.997L1502.7 389.651C1503.5 390.068 1504.13 390.549 1504.59 391.092C1505.07 391.627 1505.3 392.32 1505.3 393.172C1505.3 393.844 1505.13 394.368 1504.78 394.743C1504.45 395.122 1503.99 395.349 1503.43 395.426C1502.86 395.502 1502.24 395.451 1501.57 395.271C1501.02 395.126 1500.49 394.943 1499.98 394.723C1499.47 394.503 1499.04 394.267 1498.68 394.015V391.981ZM1514.98 393.16C1514.98 393.496 1514.89 393.731 1514.72 393.864C1514.54 393.998 1514.31 394.025 1514 393.944L1508.73 392.539C1508.79 393.466 1509.1 394.226 1509.66 394.819C1510.22 395.414 1510.94 395.828 1511.81 396.06C1512.67 396.289 1513.49 396.333 1514.26 396.192V398.172C1513.42 398.27 1512.53 398.195 1511.6 397.948C1510.69 397.704 1509.85 397.295 1509.1 396.722C1508.36 396.152 1507.76 395.429 1507.31 394.553C1506.87 393.679 1506.65 392.696 1506.65 391.604C1506.65 390.56 1506.86 389.734 1507.27 389.125C1507.69 388.505 1508.23 388.102 1508.89 387.919C1509.56 387.738 1510.28 387.748 1511.03 387.949C1511.75 388.141 1512.41 388.479 1513.01 388.964C1513.62 389.449 1514.09 390.055 1514.44 390.784C1514.8 391.504 1514.98 392.296 1514.98 393.16ZM1511 389.686C1510.45 389.54 1509.99 389.591 1509.6 389.837C1509.23 390.074 1508.98 390.492 1508.84 391.091L1512.98 392.195C1512.93 391.57 1512.72 391.035 1512.35 390.588C1511.98 390.129 1511.53 389.828 1511 389.686ZM1521.43 390.722C1521.94 390.858 1522.38 391.071 1522.75 391.362V393.468C1522.25 393.107 1521.75 392.859 1521.24 392.723C1520.44 392.51 1519.68 392.603 1518.98 393.002V399.734L1516.78 399.15V389.664L1518.82 390.206V391.232C1519.18 390.944 1519.58 390.757 1520.02 390.67C1520.47 390.575 1520.94 390.592 1521.43 390.722ZM1524.12 398.766C1524.53 399.03 1525 399.301 1525.55 399.578C1526.1 399.847 1526.63 400.046 1527.11 400.176C1527.61 400.309 1527.98 400.316 1528.21 400.198C1528.44 400.068 1528.56 399.847 1528.56 399.535C1528.56 399.247 1528.46 399.005 1528.26 398.808C1528.06 398.599 1527.77 398.389 1527.37 398.175L1526.12 397.518C1525.37 397.125 1524.77 396.677 1524.33 396.176C1523.89 395.674 1523.67 395.01 1523.67 394.182C1523.67 393.234 1524.02 392.614 1524.73 392.323C1525.45 392.034 1526.33 392.029 1527.37 392.307C1527.87 392.44 1528.37 392.62 1528.85 392.846C1529.35 393.063 1529.78 393.291 1530.14 393.531V395.493C1529.74 395.232 1529.28 394.976 1528.75 394.726C1528.21 394.464 1527.72 394.271 1527.25 394.147C1526.81 394.03 1526.47 394.01 1526.23 394.089C1525.98 394.168 1525.86 394.34 1525.86 394.604C1525.86 394.832 1525.94 395.04 1526.1 395.227C1526.28 395.405 1526.54 395.59 1526.9 395.782L1528.14 396.436C1528.94 396.853 1529.57 397.333 1530.03 397.877C1530.51 398.412 1530.75 399.105 1530.75 399.957C1530.75 400.629 1530.57 401.153 1530.23 401.528C1529.89 401.906 1529.44 402.134 1528.87 402.21C1528.3 402.287 1527.68 402.235 1527.01 402.056C1526.46 401.911 1525.94 401.728 1525.43 401.508C1524.92 401.288 1524.48 401.052 1524.12 400.8V398.766Z" fill="black"/>
<circle r="22.9019" transform="matrix(0.966235 0.257663 0 1 1459.47 301.277)" fill="#00BCD5"/>
<circle r="18.9187" transform="matrix(0.966235 0.257663 0 1 1459.47 301.278)" fill="#FEFDFF"/>
<g clip-path="url(#clip2_246_7514)">
<path d="M1463.24 309.505V307.7C1463.24 306.743 1462.87 305.743 1462.21 304.919C1461.54 304.096 1460.65 303.516 1459.71 303.309L1454.43 302.134C1453.5 301.927 1452.6 302.108 1451.94 302.638C1451.28 303.168 1450.91 304.003 1450.91 304.96V306.765" stroke="black" stroke-width="1.80436" stroke-linecap="round" stroke-linejoin="round"/>
<path d="M1457.07 299.114C1459.02 299.546 1460.59 298.281 1460.59 296.288C1460.59 294.295 1459.02 292.328 1457.07 291.896C1455.13 291.464 1453.55 292.729 1453.55 294.722C1453.55 296.715 1455.13 298.681 1457.07 299.114Z" stroke="black" stroke-width="1.80436" stroke-linecap="round" stroke-linejoin="round"/>
<path d="M1468.52 310.679V308.874C1468.52 308.075 1468.26 307.24 1467.78 306.502C1467.3 305.764 1466.63 305.164 1465.88 304.796" stroke="black" stroke-width="1.80436" stroke-linecap="round" stroke-linejoin="round"/>
<path d="M1463.24 293.383C1463.99 293.75 1464.67 294.351 1465.15 295.09C1465.63 295.83 1465.89 296.666 1465.89 297.467C1465.89 298.269 1465.63 298.989 1465.15 299.516C1464.67 300.042 1463.99 300.344 1463.24 300.375" stroke="black" stroke-width="1.80436" stroke-linecap="round" stroke-linejoin="round"/>
</g>
<path d="M274.918 427.092L274.918 521.054" stroke="#5D37AD" stroke-width="2" stroke-dasharray="6"/>
<rect width="226.926" height="119.219" rx="9.15998" transform="matrix(0.966235 0.257663 0 1 165.286 313.279)" fill="#FE638C"/>
<path d="M199.08 377.72C199.679 378.154 200.411 378.58 201.276 378.998C202.14 379.416 202.956 379.728 203.723 379.932C204.643 380.178 205.382 380.223 205.94 380.069C206.498 379.9 206.777 379.462 206.777 378.755C206.777 377.961 206.338 377.26 205.459 376.65C204.595 376.03 203.423 375.523 201.945 375.129C201.081 374.898 200.251 374.727 199.456 374.616L200.481 366.296L209.622 368.733V372.002L203.514 370.373L203.221 372.698L203.869 372.849C205.724 373.344 207.265 374.152 208.492 375.272C209.719 376.393 210.333 377.798 210.333 379.487C210.333 380.656 210.047 381.575 209.475 382.245C208.917 382.919 208.15 383.335 207.174 383.493C206.212 383.641 205.118 383.551 203.89 383.224C202.998 382.986 202.119 382.672 201.255 382.283C200.404 381.897 199.679 381.495 199.08 381.075V377.72ZM221.907 372.009V384.565L229.018 386.461V389.708L218.455 386.891V371.089L221.907 372.009ZM234.906 379.588C236.328 379.968 237.478 380.614 238.357 381.526C239.235 382.439 239.675 383.674 239.675 385.233V392.55L236.621 391.736V391.021C235.784 391.419 234.843 391.478 233.797 391.199C232.695 390.905 231.831 390.364 231.203 389.577C230.59 388.778 230.283 387.83 230.283 386.733C230.283 385.622 230.667 384.851 231.433 384.421C232.214 383.98 233.218 383.923 234.445 384.25L236.433 384.78V384.607C236.433 383.495 235.68 382.739 234.174 382.337C233.156 382.066 232.089 382.063 230.973 382.328V379.319C231.433 379.197 232.012 379.163 232.709 379.219C233.407 379.261 234.139 379.384 234.906 379.588ZM233.441 387.489C233.441 387.864 233.581 388.19 233.86 388.467C234.139 388.728 234.494 388.917 234.927 389.032C235.429 389.166 235.931 389.177 236.433 389.066V387.096L235.031 386.722C234.543 386.592 234.153 386.589 233.86 386.713C233.581 386.826 233.441 387.085 233.441 387.489ZM252.482 384.492L248.989 387.5L252.482 395.965L248.989 395.034L246.646 389.3L245.224 390.501V394.03L241.982 393.165V377.362L245.224 378.227V386.734C245.642 386.225 246.074 385.771 246.521 385.37L248.633 383.466L252.482 384.492ZM259.876 386.247C261.131 386.582 262.114 387.219 262.825 388.159C263.537 389.1 263.892 390.284 263.892 391.713V399.008L260.65 398.143V391.151C260.65 390.56 260.504 390.08 260.211 389.714C259.918 389.347 259.535 389.1 259.06 388.974C258.349 388.784 257.652 388.858 256.969 389.195V397.162L253.727 396.297V380.494L256.969 381.359V386.468C257.359 386.254 257.805 386.128 258.307 386.089C258.809 386.049 259.332 386.102 259.876 386.247ZM277.667 386.878C278.768 387.172 279.758 387.638 280.637 388.277C281.515 388.915 282.205 389.705 282.707 390.647C283.209 391.575 283.46 392.616 283.46 393.77C283.46 394.91 283.202 395.816 282.687 396.486C282.185 397.161 281.494 397.59 280.616 397.774C279.751 397.948 278.768 397.888 277.667 397.594L275.219 396.941V402.028L271.768 401.108V385.305L277.667 386.878ZM277.457 394.291C278.183 394.484 278.768 394.467 279.214 394.24C279.675 394.016 279.905 393.544 279.905 392.822C279.905 392.129 279.675 391.549 279.214 391.079C278.768 390.614 278.183 390.285 277.457 390.091L275.219 389.495V393.694L277.457 394.291ZM290.513 406.323C291.601 406.613 292.584 406.623 293.462 406.352C294.355 406.085 295.052 405.564 295.554 404.788C296.07 404.017 296.328 403.047 296.328 401.878C296.328 400.709 296.07 399.608 295.554 398.576C295.052 397.547 294.355 396.668 293.462 395.94C292.584 395.215 291.601 394.707 290.513 394.417C289.425 394.127 288.442 394.11 287.564 394.367C286.685 394.623 285.988 395.13 285.472 395.887C284.97 396.648 284.719 397.613 284.719 398.782C284.719 399.951 284.97 401.057 285.472 402.1C285.988 403.147 286.685 404.04 287.564 404.779C288.442 405.519 289.425 406.033 290.513 406.323ZM290.513 397.361C291.224 397.551 291.81 397.974 292.27 398.631C292.744 399.291 292.981 400.076 292.981 400.985C292.981 401.923 292.744 402.603 292.27 403.025C291.81 403.451 291.224 403.569 290.513 403.379C289.802 403.19 289.216 402.759 288.756 402.088C288.296 401.417 288.066 400.612 288.066 399.674C288.066 398.751 288.296 398.09 288.756 397.694C289.216 397.282 289.802 397.172 290.513 397.361ZM298.215 392.358V408.161L301.457 409.025V393.223L298.215 392.358ZM307.615 396.293C307.615 396.798 307.427 397.174 307.05 397.42C306.674 397.652 306.193 397.689 305.607 397.533C305.007 397.373 304.519 397.077 304.143 396.645C303.766 396.198 303.578 395.722 303.578 395.217C303.578 394.697 303.766 394.322 304.143 394.09C304.519 393.844 305.007 393.801 305.607 393.961C306.193 394.117 306.674 394.419 307.05 394.866C307.427 395.298 307.615 395.774 307.615 396.293ZM303.976 398.224V409.697L307.218 410.561V399.088L303.976 398.224ZM312.455 406.178C312.455 407.188 312.741 408.022 313.312 408.68C313.884 409.337 314.595 409.787 315.446 410.028C315.948 410.162 316.45 410.224 316.952 410.213C317.468 410.192 317.907 410.121 318.27 410.002V413.032C317.824 413.13 317.315 413.16 316.743 413.123C316.171 413.1 315.592 413.011 315.007 412.855C314.045 412.598 313.11 412.133 312.204 411.458C311.311 410.787 310.572 409.926 309.987 408.875C309.401 407.81 309.108 406.613 309.108 405.286C309.108 403.958 309.401 402.932 309.987 402.208C310.572 401.469 311.311 401.01 312.204 400.829C313.11 400.652 314.045 400.692 315.007 400.949C315.606 401.109 316.192 401.33 316.764 401.612C317.335 401.88 317.837 402.18 318.27 402.512V405.521C317.921 405.211 317.489 404.916 316.973 404.634C316.471 404.355 315.962 404.148 315.446 404.01C314.595 403.798 313.884 403.861 313.312 404.199C312.741 404.523 312.455 405.182 312.455 406.178ZM323.793 400.607C323.793 401.113 323.604 401.488 323.228 401.734C322.851 401.966 322.37 402.003 321.785 401.847C321.185 401.687 320.697 401.391 320.321 400.959C319.944 400.512 319.756 400.036 319.756 399.531C319.756 399.011 319.944 398.636 320.321 398.404C320.697 398.158 321.185 398.115 321.785 398.275C322.37 398.431 322.851 398.733 323.228 399.18C323.604 399.612 323.793 400.088 323.793 400.607ZM320.153 402.538V414.011L323.395 414.875V403.402L320.153 402.538ZM335.577 411.478C335.577 411.94 335.451 412.26 335.2 412.438C334.963 412.62 334.636 412.656 334.217 412.544L328.34 410.977C328.451 411.916 328.821 412.678 329.448 413.264C330.09 413.839 330.857 414.246 331.749 414.484C332.753 414.751 333.722 414.83 334.657 414.718V417.575C333.597 417.639 332.509 417.522 331.394 417.225C330.292 416.931 329.281 416.445 328.361 415.767C327.44 415.088 326.694 414.218 326.123 413.157C325.565 412.084 325.286 410.855 325.286 409.47C325.286 408.185 325.544 407.179 326.06 406.451C326.59 405.712 327.266 405.25 328.089 405.065C328.911 404.866 329.783 404.889 330.703 405.135C331.582 405.369 332.391 405.779 333.13 406.366C333.869 406.953 334.461 407.688 334.908 408.572C335.354 409.441 335.577 410.41 335.577 411.478ZM330.641 407.607C330.111 407.466 329.658 407.511 329.281 407.743C328.905 407.96 328.633 408.356 328.465 408.932L332.649 410.048C332.593 409.441 332.377 408.922 332 408.489C331.624 408.043 331.17 407.749 330.641 407.607ZM337.643 415.363C338.186 415.695 338.807 416.034 339.504 416.379C340.201 416.723 340.829 416.97 341.387 417.119C341.917 417.26 342.279 417.285 342.474 417.192C342.683 417.089 342.788 416.901 342.788 416.626C342.788 416.367 342.683 416.144 342.474 415.958C342.265 415.758 341.958 415.561 341.554 415.367L340.173 414.717C339.211 414.244 338.444 413.693 337.873 413.064C337.315 412.439 337.036 411.593 337.036 410.525C337.036 409.284 337.496 408.483 338.416 408.122C339.337 407.747 340.48 407.742 341.847 408.106C342.474 408.273 343.088 408.488 343.687 408.749C344.301 409.013 344.817 409.281 345.235 409.551V412.387C344.747 412.083 344.162 411.776 343.478 411.464C342.809 411.155 342.202 410.929 341.659 410.784C340.738 410.538 340.278 410.654 340.278 411.13C340.278 411.346 340.362 411.542 340.529 411.716C340.71 411.88 340.996 412.05 341.387 412.226L342.809 412.909C343.785 413.385 344.566 413.954 345.152 414.616C345.737 415.277 346.03 416.134 346.03 417.188C346.03 418.039 345.807 418.702 345.361 419.174C344.928 419.651 344.343 419.942 343.604 420.048C342.879 420.143 342.084 420.075 341.219 419.845C340.536 419.663 339.874 419.436 339.232 419.164C338.605 418.895 338.075 418.61 337.643 418.307V415.363Z" fill="white"/>
<path d="M226.585 398.908C226.585 399.28 226.452 399.556 226.185 399.737C225.918 399.906 225.582 399.936 225.176 399.828C224.759 399.717 224.411 399.504 224.133 399.19C223.866 398.867 223.733 398.519 223.733 398.147C223.733 397.763 223.866 397.487 224.133 397.318C224.411 397.14 224.759 397.107 225.176 397.218C225.582 397.326 225.918 397.542 226.185 397.865C226.452 398.176 226.585 398.524 226.585 398.908ZM224.063 400.827V410.313L226.255 410.898V401.412L224.063 400.827ZM234.13 403.35C235.081 403.603 235.841 404.118 236.409 404.893C236.977 405.657 237.261 406.603 237.261 407.731V413.833L235.07 413.248V407.326C235.07 406.762 234.925 406.298 234.635 405.932C234.356 405.558 233.991 405.311 233.539 405.19C232.843 405.005 232.148 405.125 231.452 405.552V412.284L229.261 411.699V402.213L231.295 402.756V403.746C231.678 403.488 232.113 403.322 232.6 403.248C233.087 403.174 233.597 403.208 234.13 403.35ZM244.267 412.893C244.766 413.254 245.357 413.604 246.041 413.942C246.737 414.284 247.404 414.539 248.041 414.709C248.934 414.947 249.642 414.968 250.163 414.771C250.697 414.565 250.963 414.103 250.963 413.383C250.963 412.579 250.552 411.863 249.728 411.235C248.917 410.611 247.786 410.105 246.337 409.719C245.769 409.567 245.23 409.448 244.72 409.36L245.52 402.895L252.876 404.857V407.053L247.554 405.634L247.241 408.016C249.062 408.453 250.534 409.17 251.659 410.166C252.795 411.165 253.363 412.409 253.363 413.897C253.363 414.821 253.137 415.558 252.685 416.11C252.233 416.649 251.613 416.988 250.824 417.125C250.036 417.251 249.137 417.18 248.128 416.911C247.421 416.722 246.725 416.47 246.041 416.156C245.357 415.842 244.766 415.51 244.267 415.161V412.893ZM270.399 413.021C271.292 413.259 271.999 413.742 272.521 414.469C273.042 415.184 273.303 416.082 273.303 417.162V423.444L271.112 422.86V416.758C271.112 416.242 270.978 415.822 270.712 415.499C270.457 415.167 270.115 414.944 269.686 414.829C269.083 414.668 268.457 414.771 267.807 415.138C267.83 415.384 267.842 415.574 267.842 415.706V421.988L265.651 421.403V415.301C265.651 414.785 265.517 414.366 265.251 414.043C264.996 413.711 264.653 413.487 264.224 413.373C263.587 413.203 262.972 413.303 262.381 413.673V420.531L260.189 419.947V410.461L262.224 411.004V411.994C262.595 411.744 263.013 411.58 263.477 411.499C263.94 411.407 264.422 411.427 264.92 411.56C265.465 411.706 265.946 411.948 266.364 412.287C266.793 412.63 267.135 413.057 267.39 413.569C268.364 412.929 269.367 412.746 270.399 413.021ZM279.579 425.298C280.449 425.529 281.237 425.536 281.945 425.316C282.664 425.088 283.226 424.656 283.632 424.02C284.049 423.375 284.258 422.567 284.258 421.595C284.258 420.623 284.049 419.715 283.632 418.872C283.226 418.02 282.664 417.294 281.945 416.694C281.237 416.098 280.449 415.683 279.579 415.452C278.71 415.22 277.916 415.212 277.197 415.428C276.489 415.648 275.927 416.074 275.51 416.706C275.104 417.33 274.901 418.128 274.901 419.1C274.901 420.072 275.104 420.99 275.51 421.854C275.927 422.71 276.489 423.442 277.197 424.05C277.916 424.65 278.71 425.066 279.579 425.298ZM279.579 417.45C280.275 417.635 280.855 418.054 281.319 418.705C281.782 419.345 282.014 420.109 282.014 420.997C282.014 421.897 281.782 422.555 281.319 422.971C280.855 423.376 280.275 423.485 279.579 423.3C278.884 423.114 278.304 422.695 277.84 422.044C277.388 421.383 277.162 420.603 277.162 419.703C277.162 418.815 277.388 418.173 277.84 417.778C278.304 417.373 278.884 417.264 279.579 417.45ZM290.944 418.5C291.895 418.754 292.654 419.268 293.222 420.044C293.79 420.807 294.074 421.753 294.074 422.881V428.983L291.883 428.398V422.476C291.883 421.912 291.738 421.448 291.448 421.083C291.17 420.708 290.805 420.461 290.353 420.34C289.657 420.155 288.961 420.275 288.265 420.702V427.434L286.074 426.849V417.363L288.109 417.906V418.896C288.492 418.638 288.926 418.472 289.413 418.398C289.9 418.324 290.41 418.358 290.944 418.5ZM301.83 423.455L299.291 422.778V427.224C299.291 428.112 299.743 428.677 300.648 428.918C300.984 429.007 301.378 429.053 301.83 429.053V431.033C301.355 431.038 300.92 430.988 300.526 430.883C299.355 430.571 298.491 430.059 297.934 429.346C297.378 428.622 297.1 427.78 297.1 426.82V422.194L295.413 421.744V419.854L297.1 420.304V417.928L299.291 418.512V420.888L301.83 421.565V423.455ZM308.366 423.128C309.375 423.397 310.175 423.922 310.766 424.704C311.369 425.477 311.67 426.427 311.67 427.555V433.675L309.479 433.091V427.151C309.479 426.587 309.328 426.121 309.027 425.752C308.737 425.375 308.354 425.123 307.879 424.996C307.195 424.814 306.522 424.898 305.861 425.25V432.126L303.67 431.542V418.402L305.861 418.986V423.342C306.198 423.156 306.58 423.042 307.009 423C307.45 422.962 307.902 423.004 308.366 423.128ZM313.861 431.919C314.267 432.183 314.742 432.454 315.287 432.732C315.844 433 316.365 433.199 316.852 433.329C317.351 433.462 317.716 433.469 317.948 433.351C318.18 433.221 318.296 433 318.296 432.688C318.296 432.4 318.197 432.158 318 431.961C317.803 431.753 317.507 431.542 317.113 431.329L315.861 430.671C315.107 430.278 314.51 429.83 314.07 429.329C313.629 428.827 313.409 428.163 313.409 427.335C313.409 426.387 313.762 425.767 314.47 425.476C315.188 425.187 316.07 425.182 317.113 425.461C317.612 425.593 318.105 425.773 318.592 425.999C319.09 426.216 319.519 426.444 319.879 426.684V428.646C319.484 428.385 319.021 428.129 318.487 427.879C317.954 427.617 317.455 427.424 316.991 427.3C316.551 427.183 316.209 427.163 315.965 427.242C315.722 427.322 315.6 427.493 315.6 427.757C315.6 427.985 315.681 428.193 315.844 428.38C316.017 428.558 316.284 428.743 316.644 428.935L317.878 429.589C318.678 430.006 319.31 430.486 319.774 431.03C320.25 431.565 320.487 432.258 320.487 433.11C320.487 433.782 320.313 434.306 319.965 434.681C319.629 435.059 319.177 435.287 318.609 435.363C318.041 435.44 317.42 435.388 316.748 435.209C316.203 435.064 315.675 434.881 315.165 434.661C314.655 434.441 314.22 434.205 313.861 433.953V431.919Z" fill="black"/>
<circle r="22.9019" transform="matrix(0.966235 0.257663 0 1 270.504 342.332)" fill="#FE638C"/>
<circle r="18.9187" transform="matrix(0.966235 0.257663 0 1 270.504 342.332)" fill="#FEFDFF"/>
<g clip-path="url(#clip3_246_7514)">
<path d="M273.155 333.146L264.857 331.302C264.339 331.187 263.843 331.287 263.477 331.581C263.11 331.875 262.905 332.338 262.905 332.868V348.868C262.905 349.399 263.11 349.953 263.477 350.409C263.843 350.866 264.339 351.187 264.857 351.302L276.571 353.905C277.089 354.02 277.586 353.92 277.952 353.626C278.318 353.332 278.524 352.869 278.524 352.339V339.839L273.155 333.146Z" stroke="black" stroke-width="2" stroke-linecap="round" stroke-linejoin="round"/>
<path d="M272.667 333.037V339.037L278.524 340.339" stroke="black" stroke-width="2" stroke-linecap="round" stroke-linejoin="round"/>
<path d="M274.619 344.471L266.809 342.735" stroke="black" stroke-width="2" stroke-linecap="round" stroke-linejoin="round"/>
<path d="M274.619 348.471L266.809 346.735" stroke="black" stroke-width="2" stroke-linecap="round" stroke-linejoin="round"/>
<path d="M268.762 339.169L266.809 338.735" stroke="black" stroke-width="2" stroke-linecap="round" stroke-linejoin="round"/>
</g>
<path d="M660.713 381.674L660.713 475.636" stroke="#5D37AD" stroke-width="2" stroke-dasharray="6"/>
<rect width="180.768" height="98.9741" rx="9.15998" transform="matrix(0.966235 0.257663 0 1 573.381 265.726)" fill="#5F259F"/>
<path d="M604.829 310.467C605.849 310.739 606.737 311.211 607.491 311.883C608.256 312.546 608.85 313.388 609.271 314.407C609.693 315.426 609.904 316.585 609.904 317.882C609.904 319.294 609.66 320.451 609.172 321.354C608.695 322.26 608.018 322.872 607.142 323.189C606.276 323.498 605.267 323.499 604.113 323.191C603.559 323.043 603.026 322.85 602.516 322.61C602.006 322.371 601.573 322.118 601.218 321.851V319.63C601.518 319.882 601.923 320.139 602.433 320.401C602.954 320.667 603.476 320.869 603.997 321.008C605.073 321.295 605.921 321.194 606.543 320.705C607.164 320.205 607.53 319.327 607.641 318.071C607.23 318.409 606.737 318.622 606.16 318.709C605.583 318.796 604.973 318.754 604.33 318.582C603.542 318.372 602.849 318.027 602.25 317.546C601.651 317.064 601.185 316.481 600.852 315.795C600.531 315.101 600.37 314.346 600.37 313.531C600.37 312.705 600.569 312.023 600.969 311.487C601.368 310.939 601.906 310.577 602.583 310.402C603.27 310.229 604.019 310.251 604.829 310.467ZM604.862 316.813C605.361 316.946 605.86 316.959 606.36 316.851C606.87 316.746 607.286 316.535 607.608 316.219C607.486 315.222 607.18 314.418 606.692 313.805C606.204 313.182 605.594 312.772 604.862 312.577C604.186 312.396 603.631 312.444 603.198 312.719C602.766 312.994 602.549 313.452 602.549 314.095C602.549 314.738 602.766 315.307 603.198 315.801C603.631 316.295 604.186 316.633 604.862 316.813ZM616.218 326.247V313.676L619.079 314.439L621.176 319.682C621.398 320.247 621.692 321.094 622.058 322.225C622.424 321.289 622.718 320.599 622.94 320.153L625.036 316.028L627.898 316.791V329.362L625.652 328.763V322.202C625.663 321.516 625.718 320.498 625.818 319.147L625.602 319.623C625.247 320.458 624.897 321.22 624.554 321.909L623.139 324.425L620.976 323.848L619.562 320.578C619.218 319.706 618.869 318.757 618.514 317.733L618.297 317.141C618.397 318.557 618.447 319.603 618.447 320.281V326.841L616.218 326.247ZM635.427 322.294L637.524 322.854V331.257C636.991 331.367 636.387 331.413 635.71 331.393C635.033 331.362 634.395 331.267 633.796 331.107C632.665 330.805 631.767 330.278 631.101 329.527C630.436 328.764 630.103 327.832 630.103 326.729V320.875L632.199 321.434V327.134C632.199 327.685 632.366 328.142 632.698 328.506C633.031 328.859 633.442 329.101 633.93 329.231C634.429 329.364 634.928 329.411 635.427 329.372V322.294ZM645.148 326.695L642.719 326.047V330.3C642.719 331.15 643.152 331.69 644.017 331.921C644.339 332.007 644.716 332.05 645.148 332.05V333.945C644.694 333.95 644.278 333.902 643.901 333.801C642.78 333.502 641.954 333.012 641.421 332.331C640.889 331.638 640.623 330.832 640.623 329.914V325.488L639.009 325.058V323.25L640.623 323.68V321.407L642.719 321.966V324.239L645.148 324.887V326.695ZM652.033 326.723L654.13 327.282V335.685C653.597 335.796 652.993 335.841 652.316 335.821C651.639 335.79 651.002 335.695 650.403 335.535C649.271 335.233 648.373 334.707 647.707 333.955C647.042 333.192 646.709 332.26 646.709 331.158V325.303L648.805 325.862V331.562C648.805 332.113 648.972 332.571 649.304 332.935C649.637 333.288 650.048 333.529 650.536 333.659C651.035 333.792 651.534 333.839 652.033 333.8V326.723ZM659.359 328.504C660.423 328.788 661.289 329.283 661.954 329.988C662.631 330.697 662.969 331.648 662.969 332.842V338.714L660.989 338.186V337.583C660.257 337.905 659.492 337.959 658.693 337.746C657.806 337.509 657.112 337.078 656.613 336.451C656.125 335.827 655.881 335.079 655.881 334.206C655.881 333.322 656.192 332.711 656.813 332.371C657.434 332.02 658.249 331.979 659.259 332.249L660.873 332.679V332.421C660.873 331.881 660.706 331.435 660.373 331.082C660.041 330.729 659.569 330.472 658.959 330.309C658.105 330.081 657.234 330.096 656.347 330.353V328.372C656.724 328.266 657.179 328.227 657.711 328.254C658.244 328.27 658.793 328.353 659.359 328.504ZM657.928 334.718C657.928 335.097 658.055 335.423 658.31 335.698C658.577 335.976 658.915 336.169 659.325 336.279C659.891 336.429 660.407 336.423 660.873 336.261V334.229L659.608 333.892C659.087 333.753 658.676 333.752 658.377 333.89C658.077 334.017 657.928 334.293 657.928 334.718ZM665.009 326.687V339.258L667.106 339.817V327.246L665.009 326.687ZM677.731 331.767C677.176 331.619 676.788 331.637 676.566 331.818C676.344 331.989 676.233 332.281 676.233 332.694V333.176L678.679 333.828V335.637L676.3 335.002V342.269L674.204 341.71V334.443L672.806 334.07V332.262L674.204 332.635V331.912C674.204 331.039 674.448 330.398 674.936 329.989C675.435 329.571 676.228 329.507 677.315 329.797C677.692 329.897 678.147 330.064 678.679 330.298V332.106C678.38 331.969 678.064 331.856 677.731 331.767ZM685.278 335.588L687.374 336.147V344.55C686.842 344.661 686.237 344.706 685.561 344.687C684.884 344.656 684.246 344.56 683.647 344.4C682.516 344.099 681.617 343.572 680.952 342.821C680.286 342.058 679.953 341.125 679.953 340.023V334.168L682.05 334.727V340.427C682.05 340.978 682.216 341.436 682.549 341.8C682.882 342.153 683.292 342.394 683.78 342.524C684.279 342.658 684.779 342.705 685.278 342.665V335.588ZM694.334 337.848C695.243 338.09 695.97 338.583 696.513 339.325C697.057 340.055 697.329 340.96 697.329 342.039V347.876L695.232 347.317V341.652C695.232 341.112 695.093 340.668 694.816 340.318C694.55 339.961 694.2 339.724 693.768 339.608C693.102 339.431 692.437 339.546 691.771 339.954V346.395L689.675 345.835V336.761L691.621 337.28V338.227C691.988 337.98 692.403 337.821 692.869 337.75C693.335 337.679 693.823 337.712 694.334 337.848ZM704.865 337.316L706.961 337.875V349.946C705.841 350.095 704.721 350.02 703.6 349.721C702.735 349.49 701.942 349.107 701.221 348.57C700.5 348.022 699.923 347.334 699.49 346.507C699.058 345.68 698.842 344.744 698.842 343.699C698.842 342.781 699.036 342.023 699.424 341.427C699.812 340.818 700.339 340.408 701.005 340.195C701.681 339.985 702.436 339.991 703.267 340.213C703.822 340.361 704.354 340.612 704.865 340.966V337.316ZM703.384 347.752C703.861 347.879 704.354 347.942 704.865 347.94V342.826C704.388 342.515 703.927 342.3 703.484 342.182C702.774 341.993 702.18 342.07 701.703 342.413C701.238 342.76 701.005 343.381 701.005 344.276C701.005 345.149 701.226 345.902 701.67 346.537C702.125 347.164 702.696 347.569 703.384 347.752ZM709.254 348.818C709.643 349.071 710.097 349.33 710.619 349.595C711.151 349.852 711.65 350.042 712.116 350.167C712.593 350.294 712.943 350.301 713.164 350.188C713.386 350.063 713.497 349.852 713.497 349.553C713.497 349.278 713.403 349.046 713.214 348.858C713.026 348.659 712.743 348.457 712.366 348.253L711.168 347.624C710.447 347.248 709.876 346.82 709.454 346.34C709.032 345.86 708.822 345.224 708.822 344.432C708.822 343.525 709.16 342.932 709.837 342.654C710.524 342.378 711.367 342.373 712.366 342.639C712.843 342.766 713.314 342.938 713.78 343.154C714.257 343.362 714.667 343.58 715.011 343.81V345.687C714.634 345.437 714.19 345.192 713.68 344.953C713.17 344.702 712.693 344.517 712.249 344.399C711.828 344.287 711.501 344.268 711.268 344.344C711.035 344.42 710.918 344.584 710.918 344.836C710.918 345.054 710.996 345.253 711.151 345.432C711.318 345.603 711.573 345.78 711.917 345.963L713.098 346.588C713.863 346.988 714.468 347.447 714.911 347.968C715.366 348.479 715.594 349.142 715.594 349.958C715.594 350.6 715.427 351.101 715.094 351.46C714.773 351.822 714.34 352.04 713.797 352.113C713.253 352.186 712.66 352.137 712.016 351.965C711.495 351.826 710.99 351.652 710.502 351.441C710.014 351.231 709.598 351.005 709.254 350.764V348.818ZM624.347 336.844V349.415L626.444 349.974V337.403L624.347 336.844ZM631.663 342.118C632.728 342.402 633.593 342.897 634.258 343.603C634.935 344.311 635.273 345.262 635.273 346.456V352.328L633.293 351.8V351.198C632.561 351.519 631.796 351.573 630.997 351.36C630.11 351.124 629.417 350.692 628.917 350.065C628.429 349.441 628.185 348.693 628.185 347.821C628.185 346.937 628.496 346.325 629.117 345.986C629.738 345.635 630.554 345.594 631.563 345.863L633.177 346.293V346.035C633.177 345.496 633.011 345.049 632.678 344.697C632.345 344.344 631.874 344.086 631.263 343.923C630.409 343.696 629.539 343.71 628.651 343.967V341.987C629.028 341.881 629.483 341.841 630.016 341.869C630.548 341.884 631.097 341.968 631.663 342.118ZM630.232 348.332C630.232 348.711 630.359 349.038 630.615 349.312C630.881 349.59 631.219 349.784 631.63 349.893C632.195 350.044 632.711 350.038 633.177 349.875V347.843L631.912 347.506C631.391 347.367 630.981 347.367 630.681 347.505C630.382 347.632 630.232 347.907 630.232 348.332ZM642.438 345.164L644.535 345.723V354.127C644.002 354.237 643.398 354.283 642.721 354.263C642.045 354.232 641.407 354.136 640.808 353.976C639.676 353.675 638.778 353.148 638.112 352.397C637.447 351.634 637.114 350.701 637.114 349.599V343.744L639.21 344.303V350.003C639.21 350.554 639.377 351.012 639.71 351.376C640.042 351.729 640.453 351.97 640.941 352.101C641.44 352.234 641.939 352.281 642.438 352.242V345.164ZM651.494 347.424C652.404 347.667 653.13 348.159 653.674 348.901C654.217 349.631 654.489 350.536 654.489 351.615V357.453L652.393 356.894V351.228C652.393 350.689 652.254 350.244 651.977 349.895C651.71 349.537 651.361 349.3 650.928 349.185C650.263 349.007 649.597 349.122 648.932 349.53V355.971L646.835 355.412V346.337L648.782 346.856V347.803C649.148 347.556 649.564 347.397 650.03 347.326C650.496 347.255 650.984 347.288 651.494 347.424ZM658.165 353.87C658.165 354.777 658.426 355.541 658.947 356.162C659.469 356.783 660.112 357.201 660.877 357.417C661.288 357.526 661.698 357.578 662.109 357.573C662.53 357.559 662.885 357.499 663.173 357.392V359.372C662.841 359.456 662.447 359.489 661.992 359.471C661.537 359.453 661.082 359.383 660.628 359.262C659.84 359.052 659.091 358.674 658.381 358.129C657.683 357.587 657.111 356.901 656.668 356.071C656.224 355.24 656.002 354.315 656.002 353.293C656.002 352.283 656.224 351.486 656.668 350.905C657.111 350.311 657.683 349.935 658.381 349.777C659.091 349.611 659.84 349.632 660.628 349.842C661.094 349.967 661.548 350.14 661.992 350.361C662.447 350.586 662.841 350.829 663.173 351.09V353.07C662.885 352.809 662.53 352.565 662.109 352.338C661.698 352.102 661.288 351.93 660.877 351.82C660.101 351.625 659.452 351.693 658.931 352.025C658.42 352.359 658.165 352.974 658.165 353.87ZM669.396 352.181C670.361 352.438 671.127 352.941 671.692 353.688C672.269 354.428 672.558 355.337 672.558 356.416V362.271L670.461 361.712V356.029C670.461 355.49 670.317 355.044 670.028 354.691C669.751 354.33 669.385 354.089 668.93 353.968C668.276 353.793 667.633 353.874 667 354.211V360.789L664.904 360.23V347.659L667 348.218V352.386C667.322 352.207 667.688 352.098 668.098 352.058C668.52 352.022 668.952 352.062 669.396 352.181ZM682.04 359.53C682.04 359.852 681.957 360.076 681.791 360.204C681.625 360.332 681.397 360.358 681.109 360.281L676.067 358.936C676.123 359.824 676.417 360.551 676.949 361.117C677.493 361.687 678.18 362.083 679.012 362.305C679.833 362.523 680.615 362.566 681.358 362.431V364.325C680.549 364.419 679.7 364.348 678.813 364.111C677.936 363.877 677.138 363.486 676.417 362.938C675.707 362.393 675.135 361.701 674.703 360.863C674.281 360.027 674.071 359.087 674.071 358.042C674.071 357.043 674.27 356.253 674.67 355.671C675.069 355.077 675.585 354.692 676.217 354.516C676.86 354.343 677.543 354.353 678.264 354.545C678.951 354.729 679.584 355.052 680.16 355.516C680.737 355.98 681.192 356.56 681.525 357.258C681.869 357.946 682.04 358.704 682.04 359.53ZM678.23 356.207C677.709 356.068 677.265 356.116 676.899 356.351C676.544 356.578 676.3 356.978 676.167 357.551L680.127 358.607C680.083 358.009 679.883 357.497 679.528 357.069C679.173 356.63 678.74 356.343 678.23 356.207ZM689.209 354.141L691.306 354.7V366.771C690.185 366.92 689.065 366.845 687.945 366.546C687.079 366.316 686.286 365.932 685.565 365.395C684.844 364.847 684.268 364.159 683.835 363.332C683.402 362.505 683.186 361.569 683.186 360.525C683.186 359.606 683.38 358.849 683.768 358.252C684.157 357.644 684.684 357.233 685.349 357.02C686.026 356.81 686.78 356.816 687.612 357.038C688.167 357.186 688.699 357.437 689.209 357.791V354.141ZM687.728 364.577C688.205 364.704 688.699 364.767 689.209 364.765V359.651C688.732 359.34 688.272 359.126 687.828 359.007C687.118 358.818 686.525 358.895 686.048 359.239C685.582 359.585 685.349 360.206 685.349 361.101C685.349 361.974 685.571 362.728 686.015 363.363C686.469 363.989 687.041 364.394 687.728 364.577Z" fill="white"/>
<circle r="27.4731" transform="matrix(0.966235 0.257663 0 1 656.299 294.581)" fill="#5F259F"/>
<circle r="20.9794" transform="matrix(0.966235 0.257663 0 1 656.299 292.424)" fill="#FEFDFF"/>
<g clip-path="url(#clip4_246_7514)">
<path d="M649.895 296.11C648.548 296.945 648.099 300.293 648.099 300.293C648.099 300.293 651.457 300.651 652.589 299.541C653.226 298.921 653.217 297.726 652.508 296.831C652.159 296.403 651.699 296.093 651.217 295.959C650.735 295.826 650.264 295.88 649.895 296.11V296.11Z" stroke="black" stroke-width="1.84882" stroke-linecap="round" stroke-linejoin="round"/>
<path d="M656.63 296.369L653.936 292.938C654.414 291.778 655.015 290.702 655.732 289.725C656.778 288.259 658.235 287.197 659.964 286.641C661.693 286.084 663.636 286.052 665.609 286.547C665.609 289.062 664.909 293.309 660.222 295.399C659.087 295.86 657.884 296.185 656.63 296.369V296.369Z" stroke="black" stroke-width="1.84882" stroke-linecap="round" stroke-linejoin="round"/>
<path d="M653.936 292.937L649.446 291.84C649.446 291.84 649.94 289.159 651.242 288.581C652.697 287.938 655.732 289.678 655.732 289.678" stroke="black" stroke-width="1.84882" stroke-linecap="round" stroke-linejoin="round"/>
<path d="M656.63 296.369V300.991C656.63 300.991 659.35 301.148 660.222 300.021C661.191 298.76 660.222 295.399 660.222 295.399" stroke="black" stroke-width="1.84882" stroke-linecap="round" stroke-linejoin="round"/>
</g>
</g>
<defs>
<clipPath id="clip0_246_7514">
<rect width="1920" height="580" fill="white"/>
</clipPath>
<clipPath id="clip1_246_7514">
<rect width="24" height="24" fill="white" transform="matrix(0.966235 -0.257663 0 1 467 67.1826)"/>
</clipPath>
<clipPath id="clip2_246_7514">
<rect width="21.6523" height="21.6523" fill="white" transform="matrix(0.976187 0.21693 0 1 1449.15 287.428)"/>
</clipPath>
<clipPath id="clip3_246_7514">
<rect width="24" height="24" fill="white" transform="matrix(0.976187 0.21693 0 1 259 328)"/>
</clipPath>
<clipPath id="clip4_246_7514">
<rect width="22.1858" height="22.1858" fill="white" transform="matrix(0.971399 0.237453 0 1 645.854 279.869)"/>
</clipPath>
</defs>
</svg>
