<svg xmlns="http://www.w3.org/2000/svg" width="1920" height="581" fill="none"><g clip-path="url(#a)"><path stroke="#5D37AD" stroke-dasharray="6" stroke-width="2" d="M1442.04 381.332v99.256"/><rect width="232.788" height="130.613" fill="#FEB767" rx="11.736" transform="matrix(.97619 -.21693 0 1 1327.11 290.111)"/><path fill="#fff" d="M1366.64 357.868c.59.134 1.3.203 2.13.21.83.006 1.64-.08 2.44-.259.83-.184 1.5-.486 2-.905.52-.438.77-.994.77-1.668 0-.528-.18-.912-.55-1.152-.36-.243-.89-.426-1.59-.549l-1.61-.258c-1.26-.189-2.22-.548-2.88-1.077-.66-.542-.99-1.401-.99-2.574 0-.939.23-1.804.69-2.595.47-.794 1.12-1.459 1.95-1.996.83-.551 1.78-.946 2.86-1.185 1.47-.327 2.85-.348 4.14-.063v2.772c-.6-.13-1.26-.21-1.99-.238a8.556 8.556 0 0 0-2.19.201c-.72.159-1.31.43-1.79.814a1.71 1.71 0 0 0-.68 1.407c0 .425.13.747.4.965.29.2.72.354 1.29.462l1.68.287c1.41.213 2.47.616 3.18 1.208.7.592 1.05 1.512 1.05 2.758 0 .983-.25 1.895-.73 2.736-.49.827-1.17 1.528-2.04 2.104-.86.572-1.85.982-2.97 1.23-1.7.379-3.22.425-4.57.137v-2.772Zm25.46-14.019c1.11-.245 1.98-.08 2.62.496.65.561.97 1.501.97 2.821v7.678l-2.7.601v-7.458c0-.63-.17-1.063-.5-1.298-.31-.253-.74-.32-1.27-.202-.74.165-1.51.667-2.32 1.505.03.287.05.511.05.673v7.678l-2.71.601v-7.458c0-.631-.16-1.064-.49-1.298-.32-.253-.74-.32-1.27-.203-.79.175-1.55.667-2.28 1.474v8.382l-2.7.601v-11.594l2.51-.558v1.21c.46-.527.97-.979 1.55-1.356a5.058 5.058 0 0 1 1.78-.792c.67-.149 1.27-.142 1.78.022.53.161.95.478 1.27.951 1.2-1.368 2.44-2.193 3.71-2.476Zm10.1-2.264c1.37-.306 2.49-.217 3.35.267.87.481 1.31 1.484 1.31 3.009v7.502l-2.56.568v-.77c-.94.87-1.93 1.419-2.96 1.649-1.15.254-2.04.138-2.69-.35-.63-.491-.94-1.293-.94-2.408 0-1.129.4-2.106 1.2-2.929.8-.838 1.85-1.402 3.16-1.692l2.08-.463v-.33c0-.689-.21-1.155-.64-1.396-.43-.242-1.04-.276-1.83-.101-1.1.245-2.23.81-3.37 1.695v-2.53a8.433 8.433 0 0 1 1.76-1.007c.69-.314 1.4-.552 2.13-.714Zm-1.85 8.836c0 .484.16.821.49 1.012.35.188.78.223 1.31.105.73-.162 1.4-.493 2-.994v-2.596l-1.63.363c-.68.15-1.2.407-1.59.771-.39.35-.58.796-.58 1.339Zm14.87-11.731c.63-.14 1.18-.144 1.64-.011v2.574a4.186 4.186 0 0 0-1.87-.003c-.99.22-1.92.786-2.79 1.698v8.228l-2.71.602v-11.594l2.51-.559v1.254c.45-.568.94-1.037 1.48-1.407a4.915 4.915 0 0 1 1.74-.782Zm10.2.263-3.13.697v5.434c0 1.085.55 1.504 1.67 1.256.42-.093.9-.274 1.46-.545v2.42c-.58.292-1.12.492-1.61.6-1.44.321-2.51.214-3.2-.323-.69-.551-1.03-1.413-1.03-2.587v-5.654l-2.08.463v-2.31l2.08-.463v-2.904l2.71-.601v2.904l3.13-.697v2.31Zm2.27 5.919c.5.08 1.09.125 1.76.137a9.355 9.355 0 0 0 1.94-.209c.61-.137 1.06-.348 1.35-.631.29-.298.43-.638.43-1.02 0-.352-.12-.589-.36-.71-.25-.137-.61-.217-1.1-.241l-1.55-.052c-.93-.028-1.66-.216-2.21-.565-.54-.348-.81-1.029-.81-2.041 0-1.158.43-2.128 1.31-2.909.88-.784 1.97-1.319 3.26-1.605a9.646 9.646 0 0 1 1.83-.23c.61-.034 1.14-.012 1.58.065v2.398a9.148 9.148 0 0 0-1.71-.102c-.66 0-1.28.063-1.85.19-.54.121-.97.303-1.27.546-.3.243-.45.525-.45.848 0 .279.1.484.3.615.22.114.55.18.99.199l1.52.057c.99.03 1.77.238 2.35.624.58.368.88 1.073.88 2.114a4.04 4.04 0 0 1-.65 2.233 5.062 5.062 0 0 1-1.67 1.648 7.34 7.34 0 0 1-2.3.929c-.67.15-1.33.243-1.96.28-.63.038-1.16.01-1.61-.082v-2.486Zm14.93-12.271c1.12-.248 2.14-.256 3.07-.023.93.233 1.68.735 2.24 1.506.56.77.84 1.816.84 3.136a7.63 7.63 0 0 1-.76 3.357 7.303 7.303 0 0 1-2.06 2.57 6.95 6.95 0 0 1-2.88 1.387c-.73.163-1.42.178-2.08.045v4.598l-2.7.602v-15.356c1.44-.894 2.89-1.501 4.33-1.822Zm.15 9.558c.93-.206 1.7-.677 2.3-1.412.6-.75.9-1.719.9-2.907 0-1.085-.28-1.879-.86-2.383-.57-.518-1.3-.678-2.19-.481-.63.14-1.27.371-1.93.693v6.534c.62.098 1.21.084 1.78-.044Zm17.74-8.451c0 .411-.11.75-.32 1.018-.22.267-.51.443-.88.525l-6.51 1.446c.07 1.099.45 1.844 1.14 2.233.7.387 1.59.461 2.66.223a8.965 8.965 0 0 0 3.03-1.311v2.42a11.007 11.007 0 0 1-3.29 1.324c-1.13.251-2.16.253-3.09.005-.92-.251-1.65-.776-2.21-1.576-.55-.803-.82-1.872-.82-3.207 0-1.276.26-2.411.78-3.406.51-1.009 1.18-1.824 1.99-2.446.83-.624 1.71-1.04 2.64-1.247.89-.197 1.71-.18 2.45.05.75.231 1.33.687 1.76 1.369.45.664.67 1.524.67 2.58Zm-4.92-1.855c-.67.15-1.24.489-1.72 1.02-.46.512-.77 1.176-.94 1.992l5.11-1.136c-.06-.735-.32-1.265-.77-1.588-.46-.338-1.02-.434-1.68-.288Zm10.93-4.562c1.37-.306 2.49-.217 3.35.267.87.481 1.31 1.484 1.31 3.009v7.502l-2.56.568v-.77c-.94.87-1.93 1.419-2.96 1.648-1.15.255-2.04.138-2.68-.349-.63-.491-.95-1.293-.95-2.408 0-1.129.4-2.106 1.2-2.929.81-.838 1.86-1.402 3.16-1.692l2.08-.463v-.33c0-.689-.21-1.155-.64-1.397-.43-.241-1.04-.275-1.83-.1-1.1.245-2.22.81-3.37 1.695v-2.53a8.7 8.7 0 0 1 1.76-1.007c.69-.314 1.4-.552 2.13-.714Zm-1.85 8.836c0 .484.17.821.5 1.012.34.188.78.223 1.31.105a4.631 4.631 0 0 0 1.99-.994v-2.596l-1.63.363c-.67.149-1.2.407-1.59.771-.38.35-.58.796-.58 1.339Zm19.34-12.504-3.8 4.848 3.8 6.746-2.92.649-2.87-5.037-1.7 2.137v3.916l-2.71.602v-16.06l2.71-.602v9.042c.51-.789.98-1.457 1.39-2.004l2.86-3.517 3.24-.72Zm11.08 2.4c0 .41-.1.75-.32 1.017-.21.268-.51.443-.88.526l-6.51 1.446c.07 1.099.45 1.843 1.14 2.233.7.387 1.59.461 2.66.222a8.926 8.926 0 0 0 3.03-1.311v2.42c-1.04.629-2.14 1.07-3.28 1.325-1.13.251-2.17.253-3.1.005-.91-.251-1.65-.777-2.21-1.577-.54-.803-.81-1.872-.81-3.206 0-1.276.25-2.412.77-3.406.51-1.009 1.18-1.825 2-2.446.83-.624 1.71-1.04 2.64-1.247.89-.197 1.7-.181 2.45.05.74.231 1.33.687 1.76 1.369.44.664.66 1.524.66 2.58Zm-4.91-1.855c-.68.149-1.25.489-1.72 1.019-.46.513-.78 1.177-.95 1.992l5.11-1.135c-.05-.736-.31-1.265-.77-1.589-.46-.338-1.02-.434-1.67-.287Zm12.88-4.997c.63-.14 1.17-.144 1.63-.011v2.574a4.186 4.186 0 0 0-1.87-.003c-.99.22-1.92.786-2.79 1.699v8.228l-2.71.601v-11.594l2.52-.558v1.254c.44-.568.93-1.037 1.48-1.408a4.933 4.933 0 0 1 1.74-.782Zm3.32 8.215c.5.079 1.09.125 1.76.136a9.288 9.288 0 0 0 1.94-.209c.61-.137 1.06-.347 1.35-.631.29-.298.43-.638.43-1.019 0-.352-.12-.589-.37-.711-.24-.137-.6-.217-1.09-.241l-1.55-.052c-.93-.028-1.66-.216-2.21-.565-.54-.348-.81-1.028-.81-2.04 0-1.159.43-2.129 1.31-2.909.88-.784 1.97-1.319 3.26-1.606a9.563 9.563 0 0 1 1.83-.229c.61-.035 1.14-.013 1.58.064v2.398a9.205 9.205 0 0 0-1.71-.102c-.66 0-1.28.063-1.85.191-.54.121-.97.302-1.27.545-.3.243-.45.526-.45.848 0 .279.1.484.3.616.22.113.55.179.99.198l1.52.057c.99.03 1.77.238 2.35.624.58.368.88 1.073.88 2.114 0 .822-.22 1.566-.65 2.234a5.072 5.072 0 0 1-1.67 1.648c-.7.434-1.47.744-2.3.929-.67.149-1.33.242-1.96.28-.63.037-1.16.01-1.61-.082v-2.486Z"/><path fill="#000" d="M1378.52 318.067c1.25-.279 2.38-.243 3.4.106 1.02.35 1.82.965 2.39 1.845.59.866.88 1.917.88 3.153s-.29 2.417-.88 3.543a8.593 8.593 0 0 1-2.39 2.889 8.392 8.392 0 0 1-3.4 1.604l-3.91.866v-13.14l3.91-.866Zm0 11.502a6.063 6.063 0 0 0 2.46-1.159 6.068 6.068 0 0 0 1.68-2.121c.41-.835.62-1.733.62-2.693 0-.972-.21-1.784-.62-2.437a3.089 3.089 0 0 0-1.68-1.353c-.72-.261-1.54-.289-2.46-.083l-2.1.464v9.846l2.1-.464Zm16.34-7.468c0 .276-.07.509-.22.699-.14.175-.35.293-.62.353l-5.71 1.269c.02 1.063.34 1.808.95 2.237.62.414 1.43.51 2.42.289.47-.104.93-.26 1.37-.466.45-.219.83-.454 1.15-.704v1.584c-.85.547-1.72.921-2.62 1.122-.94.208-1.78.202-2.51-.018a3.124 3.124 0 0 1-1.74-1.323c-.43-.651-.64-1.498-.64-2.542 0-.996.2-1.903.58-2.721.4-.82.92-1.488 1.57-2.003.65-.53 1.36-.88 2.12-1.049.73-.161 1.39-.139 1.97.067.6.203 1.07.579 1.41 1.128.35.545.52 1.238.52 2.078Zm-3.91-1.865a2.96 2.96 0 0 0-1.64.993c-.44.507-.74 1.156-.89 1.945l4.86-1.081c-.04-.734-.28-1.262-.72-1.586-.43-.324-.97-.414-1.61-.271Zm9.5-3.516c.87-.193 1.66-.177 2.37.049.72.213 1.29.645 1.71 1.295.43.636.65 1.463.65 2.483 0 .972-.2 1.875-.6 2.707-.4.833-.94 1.53-1.63 2.091-.68.559-1.44.932-2.29 1.12-.74.164-1.42.148-2.05-.047v3.924l-1.69.375v-12.456c1.17-.765 2.35-1.278 3.53-1.541Zm.07 8.228c.86-.19 1.56-.64 2.11-1.35.55-.711.83-1.6.83-2.668 0-.684-.13-1.243-.39-1.678-.25-.449-.59-.758-1.02-.926-.43-.179-.92-.209-1.46-.089-.69.153-1.35.408-1.98.765v5.904c.58.182 1.22.196 1.91.042Zm6.71-13.263v13.14l1.69-.375v-13.14l-1.69.375Zm8.31 11.473c.86-.19 1.63-.566 2.32-1.127a6.036 6.036 0 0 0 1.64-2.091c.41-.848.61-1.751.61-2.711 0-.972-.2-1.78-.6-2.423a2.974 2.974 0 0 0-1.65-1.343c-.69-.255-1.46-.287-2.32-.097-.85.19-1.63.567-2.33 1.131a5.857 5.857 0 0 0-1.64 2.074c-.4.82-.6 1.716-.6 2.688 0 .96.2 1.774.6 2.442.41.652.96 1.106 1.65 1.361.69.254 1.47.286 2.32.096Zm0-8.244c.83-.185 1.51-.036 2.04.447.54.468.81 1.219.81 2.251 0 .684-.12 1.311-.37 1.882-.25.558-.58 1.024-1.02 1.396-.43.36-.92.6-1.46.72-.54.12-1.02.096-1.46-.072-.43-.179-.77-.494-1.01-.943-.25-.462-.37-1.034-.37-1.718 0-1.032.26-1.901.79-2.606.54-.72 1.22-1.172 2.05-1.357Zm12.41-4.124 1.89-.422-4.21 11.954c-.25.702-.6 1.278-1.06 1.728-.46.449-1.08.763-1.88.94l-1.25.277v-1.494l1.04-.23c.4-.089.71-.231.95-.427.25-.199.44-.5.58-.903l.44-1.268-3.59-8.581 1.92-.426 1.56 3.973c.34.86.68 1.865 1.02 3.013.28-1.07.62-2.226 1.02-3.466l1.57-4.668Zm3.3 6.771c.35.078.79.126 1.3.143a7.1 7.1 0 0 0 1.57-.167c.57-.128 1-.344 1.3-.649.3-.308.45-.666.45-1.074 0-.372-.11-.628-.35-.768-.22-.154-.55-.248-1-.281l-1.37-.092c-.73-.042-1.29-.204-1.7-.485-.41-.293-.62-.823-.62-1.591 0-.864.33-1.591.99-2.181.66-.592 1.48-.995 2.44-1.209.49-.109.98-.169 1.46-.18.49-.013.92.018 1.28.093v1.548c-.36-.087-.8-.127-1.32-.121-.5-.008-1 .043-1.49.152-.52.115-.93.302-1.23.561-.3.245-.44.536-.44.872 0 .288.09.501.28.639.2.136.5.22.9.251l1.31.103c.8.051 1.42.231 1.87.541.45.294.68.849.68 1.665 0 .636-.16 1.213-.49 1.73-.32.514-.74.939-1.28 1.275-.53.333-1.11.57-1.74.71a8.1 8.1 0 0 1-1.53.196c-.49.025-.92-.001-1.27-.079v-1.602Zm18.46-15.316v11.502l3.66-.813v1.638l-9.26 2.058v-1.638l3.79-.843v-9.522l-3.79 2.121v-1.71l4.2-2.481 1.4-.312Zm11.05 10.865a5.708 5.708 0 0 0 2.67-1.385c.76-.71 1.35-1.615 1.77-2.717.43-1.113.64-2.366.64-3.758 0-1.404-.21-2.563-.64-3.478-.42-.914-1.01-1.551-1.77-1.909-.76-.371-1.65-.443-2.67-.217a5.633 5.633 0 0 0-2.67 1.404c-.76.697-1.35 1.596-1.78 2.698-.42 1.102-.63 2.355-.63 3.759 0 1.392.21 2.551.63 3.477.43.914 1.02 1.557 1.78 1.928.76.358 1.65.425 2.67.198Zm0-1.656c-1.01.224-1.8-.032-2.37-.769-.58-.748-.86-1.944-.86-3.588 0-1.644.28-2.968.86-3.972.57-1.003 1.36-1.617 2.37-1.841 1.01-.224 1.8.039 2.37.787.59.746.88 1.941.88 3.585 0 1.632-.29 2.951-.88 3.957-.57 1.004-1.36 1.617-2.37 1.841Zm13.63-14.692v11.502l6.39-1.422v1.638l-8.2 1.824v-13.14l1.81-.402Zm11.12 1.055c1.06-.234 1.92-.155 2.59.236.67.389 1.01 1.19 1.01 2.402v6.174l-1.58.351v-.702c-.76.758-1.59 1.236-2.49 1.437-.95.211-1.69.123-2.22-.264-.51-.402-.77-1.052-.77-1.952 0-.936.33-1.741.98-2.415.67-.676 1.55-1.136 2.64-1.378l1.76-.39v-.414c0-.648-.19-1.093-.56-1.333-.38-.253-.91-.304-1.59-.153-.96.214-1.89.704-2.81 1.471v-1.62c.4-.317.87-.607 1.41-.87a7.35 7.35 0 0 1 1.63-.58Zm-1.79 7.275c0 .492.15.848.46 1.068.3.209.71.255 1.23.141.75-.167 1.42-.532 2.02-1.097v-2.61l-1.51.336c-.68.151-1.22.414-1.62.791-.39.362-.58.819-.58 1.371Zm15.67-10.179-3.3 3.992 3.3 5.44-1.82.406-2.76-4.409-1.6 1.885v3.492l-1.69.375v-13.14l1.69-.375v7.704c.41-.595.81-1.122 1.21-1.583l2.9-3.326 2.07-.461Zm5.81-1.469c.97-.217 1.76-.086 2.37.39.61.477.91 1.255.91 2.335v6.156l-1.69.375v-6.066c0-.636-.17-1.089-.52-1.359s-.81-.343-1.36-.221c-.83.185-1.61.671-2.35 1.459v7.128l-1.69.375v-13.14l1.69-.375v4.464c.35-.354.75-.666 1.21-.935.47-.284.94-.48 1.43-.586ZM1396.26 369.134c0 .312-.11.601-.33.866-.22.266-.5.435-.83.508-.34.075-.62.031-.86-.133-.22-.167-.33-.406-.33-.718 0-.324.11-.613.33-.866.24-.268.52-.44.86-.515.34-.076.62-.029.83.14.22.155.33.394.33.718Zm-2.02 3.239v9.432l1.69-.375v-9.432l-1.69.375Zm9.18-2.22c.95-.211 1.72-.07 2.31.424.59.48.89 1.253.89 2.321v6.156l-1.69.375v-6.066c0-.636-.17-1.083-.52-1.341-.34-.272-.78-.349-1.32-.229-.83.185-1.63.698-2.39 1.539v7.038l-1.69.375v-9.432l1.57-.348v.99c.38-.434.82-.813 1.32-1.138.5-.328 1.01-.55 1.52-.664Zm15.14-1.599c1.3-.169 2.33-.003 3.11.497.78.486 1.17 1.31 1.17 2.474 0 .84-.23 1.623-.68 2.349-.46.713-1.09 1.326-1.88 1.839-.79.499-1.67.857-2.66 1.076-1.49.333-2.83.384-4 .152v-1.728c.53.123 1.13.186 1.83.188.7-.012 1.43-.103 2.19-.272 1-.221 1.81-.605 2.43-1.151.62-.558.93-1.245.93-2.061 0-.768-.34-1.299-1-1.595-.67-.308-1.6-.33-2.78-.067l-.79.176v-1.422l3.62-4.423-6.26 1.39v-1.656l8.77-1.948v1.476l-4 4.706Zm11.43 5.308v-13.14l2.26-.504 2.66 4.576c.24.438.61 1.154 1.11 2.148.39-.964.77-1.845 1.12-2.644l2.64-5.751 2.26-.504v13.14l-1.81.402v-7.704c.03-.905.05-1.54.07-1.905l.06-1.128c-.12.266-.2.464-.25.595-.66 1.537-1.06 2.448-1.2 2.731l-1.98 4.131-1.81.402-2-3.244c-.33-.563-.68-1.207-1.04-1.93l-.39-.76.04.874c.04.95.07 1.652.07 2.108v7.704l-1.81.403Zm18.74-3.985a5.56 5.56 0 0 0 2.32-1.128 5.877 5.877 0 0 0 1.63-2.091c.41-.847.62-1.75.62-2.71 0-.972-.2-1.78-.6-2.424-.4-.655-.95-1.103-1.65-1.343-.69-.254-1.47-.286-2.32-.096-.86.19-1.63.567-2.34 1.131a5.837 5.837 0 0 0-1.63 2.073c-.4.821-.6 1.717-.6 2.689 0 .96.2 1.774.6 2.441.41.653.96 1.107 1.65 1.361.69.255 1.46.287 2.32.097Zm0-8.244c.83-.185 1.51-.036 2.04.447.54.468.81 1.218.81 2.25 0 .684-.13 1.312-.37 1.882a3.957 3.957 0 0 1-1.02 1.397c-.44.36-.92.6-1.46.72-.54.12-1.03.096-1.46-.072-.43-.18-.77-.494-1.02-.944-.24-.461-.37-1.034-.37-1.718 0-1.032.27-1.9.79-2.605.54-.72 1.23-1.172 2.06-1.357Zm11.03-3.999c.95-.211 1.71-.069 2.3.424.6.48.9 1.253.9 2.321v6.156l-1.69.375v-6.066c0-.636-.18-1.083-.53-1.341-.34-.272-.78-.349-1.32-.229-.83.185-1.62.698-2.38 1.539v7.038l-1.69.375v-9.432l1.56-.347v.99a6.88 6.88 0 0 1 1.32-1.139c.5-.328 1.01-.549 1.53-.664Zm11.11-.794-2.83.628v5.094c0 .996.51 1.38 1.54 1.151.32-.071.75-.232 1.29-.483v1.53c-.57.257-1.02.424-1.37.502-1.07.237-1.86.155-2.38-.247-.51-.413-.77-1.07-.77-1.97v-5.202l-1.86.414v-1.494l1.86-.414v-2.592l1.69-.375v2.592l2.83-.628v1.494Zm6.29-3.072c.97-.216 1.76-.086 2.37.391.61.476.91 1.255.91 2.335v6.156l-1.68.374v-6.066c0-.636-.18-1.088-.53-1.358-.35-.27-.8-.344-1.35-.222-.84.185-1.62.672-2.36 1.46v7.128l-1.69.374V351.2l1.69-.374v4.464c.35-.355.76-.666 1.21-.936.47-.284.95-.479 1.43-.586Zm5.69 6.42c.35.078.79.126 1.3.143a7.1 7.1 0 0 0 1.57-.167c.57-.128 1-.344 1.3-.649.3-.308.45-.666.45-1.074 0-.372-.11-.628-.35-.768-.22-.154-.55-.248-1-.281l-1.37-.092c-.73-.042-1.3-.204-1.71-.485-.41-.293-.61-.823-.61-1.591 0-.864.33-1.591.98-2.181.67-.592 1.49-.995 2.45-1.209.49-.109.97-.169 1.45-.18.5-.013.92.018 1.29.093v1.548c-.37-.087-.8-.127-1.32-.121-.5-.008-1 .043-1.49.152-.52.115-.93.302-1.23.561-.3.246-.44.536-.44.872 0 .288.09.501.28.64.2.135.5.219.89.25l1.32.104c.8.051 1.42.231 1.86.54.46.294.69.849.69 1.665 0 .636-.16 1.213-.49 1.73-.32.514-.75.939-1.28 1.275-.53.333-1.11.57-1.74.71a8.1 8.1 0 0 1-1.53.196c-.5.025-.92-.001-1.27-.079v-1.602Z"/><circle cx="29.343" cy="29.343" r="29.343" fill="#FEB767" transform="matrix(.97619 -.21693 0 1 1406.37 244.428)"/><circle cx="24.239" cy="24.239" r="24.239" fill="#fff" transform="matrix(.97619 -.21693 0 1 1411.36 248.424)"/><path stroke="#000" stroke-linecap="round" stroke-linejoin="round" stroke-width="1.741" d="m1446.82 274.279-2.75-17.01c0-.672-.29-1.24-.81-1.58-.52-.34-1.22-.423-1.95-.232l-13.77 3.608c-.73.191-1.43.642-1.94 1.252-.52.61-.81 1.331-.81 2.003l-2.58 15.89 4.28 1.634 20.33-5.565Z"/><path fill="#fff" stroke="#000" stroke-linecap="round" stroke-linejoin="round" stroke-width="1.741" d="m1448.33 273.883-2.43-17.094c0-.672-.26-1.249-.72-1.604-.45-.355-1.07-.46-1.72-.291l-12.17 3.19c-.65.17-1.27.599-1.72 1.193-.46.595-.72 1.307-.72 1.978l-2.43 18.37 21.91-5.742Z"/><path stroke="#000" stroke-linecap="round" stroke-linejoin="round" stroke-width="2.321" d="m1448.88 274.667-22.2 5.208-4.67-1.519"/><g stroke="#000" stroke-linecap="round" stroke-linejoin="round" stroke-width="1.212" clip-path="url(#b)"><path d="m1434.43 262.646-1.77.425a.814.814 0 0 0-.59.747v1.819c0 .334.27.543.59.464l1.77-.424a.814.814 0 0 0 .59-.748v-1.818c0-.335-.27-.543-.59-.465ZM1442.09 260.807l-1.77.425a.813.813 0 0 0-.59.747v1.818c0 .335.27.543.59.465l1.77-.424a.803.803 0 0 0 .59-.748v-1.818c0-.335-.26-.543-.59-.465ZM1434.43 270.525l-1.77.425a.814.814 0 0 0-.59.747v1.819c0 .334.27.542.59.464l1.77-.424a.814.814 0 0 0 .59-.748v-1.818c0-.335-.27-.543-.59-.465ZM1442.68 268.545l-1.77.424c-.31.075-.61.275-.83.555-.22.281-.35.619-.35.94v1.818M1442.68 271.575v.006M1437.38 264.363v1.819c0 .321-.13.659-.35.94-.22.28-.52.48-.83.555l-1.77.424M1432.07 268.667l.01-.001M1437.38 261.939v-.001M1437.38 269.818v.006M1439.73 266.828l.59-.142M1442.68 266.12v.006M1437.38 272.848v-.606"/></g><path stroke="#5D37AD" stroke-dasharray="6" stroke-width="2" d="M656.764 337.796v148.167"/><rect width="205.816" height="135.33" fill="#00BCD5" rx="9.16" transform="matrix(.97619 -.21693 0 1 554.993 278.011)"/><path fill="#fff" d="M617.231 306.086v13.398l4.059-.902v2.662l-11.318 2.515v-2.662l4.382-.974v-10.318l-4.403 2.364v-2.706l4.961-2.862 2.319-.515Zm12.832 13.208v-16.06l3.694-.821 2.706 5.383c.286.582.665 1.48 1.138 2.695.472-1.425.852-2.492 1.138-3.201l2.706-6.585 3.694-.821v16.06l-2.899.644v-8.382c.014-.883.086-2.219.215-4.008l-.28.744a87.811 87.811 0 0 1-1.353 3.579l-1.825 4.102-2.792.62-1.825-3.29a55.075 55.075 0 0 1-1.353-2.977l-.28-.62c.129 1.746.194 3.051.194 3.917v8.382l-2.878.639Zm21.294-19.494c0 .455-.165.873-.494 1.254-.33.366-.745.605-1.246.717-.515.114-.945.063-1.288-.154-.33-.235-.494-.579-.494-1.034 0-.469.164-.887.494-1.254a2.372 2.372 0 0 1 1.288-.748c.501-.112.916-.05 1.246.185.329.22.494.565.494 1.034Zm-3.114 3.86v11.594l2.706-.601v-11.594l-2.706.601Zm5.662-5.724v16.06l2.706-.602v-16.06l-2.706.602Zm5.663-1.259v16.06l2.706-.601v-16.06l-2.706.601Zm8.777-.652c0 .455-.165.873-.494 1.254-.33.366-.745.605-1.246.717-.515.114-.945.063-1.288-.154-.33-.235-.494-.58-.494-1.034 0-.47.164-.887.494-1.254a2.372 2.372 0 0 1 1.288-.748c.501-.112.916-.05 1.246.185.329.22.494.565.494 1.034Zm-3.114 3.86v11.594l2.706-.601v-11.594l-2.706.601Zm10.688 9.439a7.13 7.13 0 0 0 2.92-1.397 7.546 7.546 0 0 0 2.084-2.597 7.418 7.418 0 0 0 .773-3.34c0-1.188-.258-2.172-.773-2.952a3.855 3.855 0 0 0-2.084-1.649c-.873-.305-1.846-.338-2.92-.099a7.283 7.283 0 0 0-2.943 1.402 7.619 7.619 0 0 0-2.083 2.575c-.501 1.006-.751 2.103-.751 3.291 0 1.188.25 2.188.751 3.001a4.109 4.109 0 0 0 2.083 1.671c.888.301 1.869.333 2.943.094Zm0-9.592c.859-.191 1.575-.027 2.147.491.573.503.859 1.297.859 2.383 0 1.1-.286 2.043-.859 2.831-.572.772-1.288 1.254-2.147 1.445-.859.191-1.575.027-2.148-.491-.558-.536-.837-1.354-.837-2.454 0-1.085.279-2.005.837-2.76.573-.772 1.289-1.254 2.148-1.445Zm14.033-5.538c1.174-.261 2.111-.088 2.813.518.702.592 1.052 1.578 1.052 2.956v7.458l-2.706.602v-7.238c0-.69-.179-1.17-.537-1.443-.343-.29-.794-.373-1.353-.249-.859.191-1.718.756-2.577 1.694v8.228l-2.706.602v-11.594l2.513-.559v1.21a7.31 7.31 0 0 1 1.611-1.391 5.858 5.858 0 0 1 1.89-.794Zm11.359.115 2.899-.644v2.288l-2.899.644v2.948l-2.233.497v-2.948l-2.9.644v-2.288l2.9-.644v-2.97l2.233-.497v2.97Z"/><path fill="#000" d="m610.679 337.776-10.465 2.326v1.84l4.237-.942v12.76l1.991-.442v-12.76l4.237-.942v-1.84Zm11.942 11.947 3.085-11.166-1.933.43-1.211 4.589c-.331 1.293-.663 3.087-.878 4.335-.254-1.164-.644-2.897-1.015-4.035l-1.25-3.922-1.913.425-1.269 4.482c-.352 1.298-.762 3.209-.996 4.481-.234-1.147-.566-2.794-.898-3.94l-1.21-4.051-1.953.434 3.065 9.799 1.894-.421 1.328-4.855c.351-1.318.703-2.776.976-4.237.273 1.339.625 2.641.976 3.803l1.308 4.269 1.894-.42Zm9.128-1.829c-2.851.634-5.077-1.052-5.077-4.332 0-3.3 2.226-5.914 5.077-6.548 2.85-.633 5.076.992 5.076 4.292 0 3.28-2.226 5.955-5.076 6.588Zm0-9.16c-1.777.395-3.163 2.043-3.163 4.403 0 2.36 1.386 3.432 3.163 3.037 1.776-.395 3.162-2.083 3.162-4.443 0-2.36-1.386-3.392-3.162-2.997Zm22.427 3.976 3.084-11.165-1.933.429-1.21 4.589c-.332 1.294-.664 3.088-.879 4.336-.253-1.164-.644-2.897-1.015-4.035l-1.249-3.922-1.914.425-1.269 4.482c-.351 1.298-.761 3.209-.995 4.481-.235-1.148-.567-2.794-.899-3.94l-1.21-4.051-1.952.434 3.065 9.799 1.894-.421 1.327-4.855c.352-1.318.703-2.776.976-4.237a42.96 42.96 0 0 0 .977 3.803l1.308 4.269 1.894-.421Zm9.73-12.842c-1.113.247-2.187.926-2.929 1.691v-4.96l-1.874.416v14.6l1.874-.416v-7.92c.683-.732 1.581-1.391 2.616-1.621 1.172-.261 2.089.275 2.089 1.755v6.74l1.874-.416v-6.84c0-2.44-1.542-3.497-3.65-3.029Zm14.801 1.311c0-2.88-1.952-4.166-4.334-3.637-2.48.551-4.745 2.954-4.745 6.414 0 3.56 2.343 5 5.428 4.314 1.191-.264 2.206-.79 2.909-1.246v-1.76c-.644.503-1.679 1.053-2.792 1.3-2.147.478-3.69-.38-3.748-2.807l6.345-1.41c.586-.13.937-.548.937-1.168Zm-4.354-2.073c1.386-.308 2.48.409 2.597 2.063l-5.408 1.202c.332-1.774 1.405-2.952 2.811-3.265Zm14.955-.283c0-2.88-1.953-4.166-4.335-3.637-2.479.551-4.744 2.955-4.744 6.415 0 3.56 2.343 4.999 5.428 4.314 1.191-.265 2.206-.791 2.909-1.247v-1.76c-.644.503-1.679 1.053-2.792 1.301-2.148.477-3.69-.38-3.749-2.807l6.346-1.411c.585-.13.937-.548.937-1.168Zm-4.354-2.072c1.386-.308 2.479.409 2.597 2.063l-5.408 1.202c.331-1.774 1.405-2.953 2.811-3.265Zm6.637-6.955 1.875-.417v14.6l-1.875.417v-14.6Zm13.237 5.578c0-2.88-1.953-4.166-4.335-3.636-2.479.551-4.744 2.954-4.744 6.414 0 3.56 2.343 4.999 5.428 4.314 1.191-.265 2.206-.791 2.909-1.247v-1.76a7.413 7.413 0 0 1-2.792 1.301c-2.148.477-3.69-.38-3.749-2.807l6.345-1.41c.586-.131.938-.549.938-1.169Zm-4.354-2.072c1.386-.308 2.479.409 2.596 2.063l-5.408 1.202c.332-1.774 1.406-2.953 2.812-3.265Zm11.264-4.063c-1.132.251-2.147 1.037-2.889 1.942v-1.1l-1.738.386v10.48l1.875-.417v-7.82c.702-.796 1.6-1.475 2.616-1.701.605-.134 1.171-.1 1.815.137v-1.86c-.468-.176-1.073-.182-1.679-.047Zm-132.912 50.616 2.011-.447v14.6l-2.011.447v-14.6Zm10.028 1.691c-1.211.269-2.362 1.105-3.163 2.003v-1.1l-1.738.386v10.48l1.875-.416v-7.82c.703-.776 1.601-1.476 2.655-1.71 1.152-.256 2.05.264 2.05 1.744v6.74l1.874-.416v-6.84c0-2.42-1.503-3.506-3.553-3.051Zm6.23 8.936c.762.171 1.933.13 3.105-.13 2.011-.447 3.904-1.908 3.904-4.128 0-2-1.366-2.356-2.831-2.451l-1.464-.114c-.82-.078-1.308-.31-1.308-.99 0-.74.703-1.336 1.855-1.592 1.191-.264 2.401-.193 3.124-.034v-1.72c-.781-.166-1.914-.155-3.046.097-1.952.434-3.807 1.726-3.807 3.766 0 1.88 1.249 2.222 2.577 2.307l1.523.102c.878.065 1.503.286 1.503 1.166 0 .88-.625 1.619-1.952 1.914-1.25.277-2.519.179-3.183.027v1.78Zm15.631-5.014c-.566.366-1.347.68-2.089.844-1.288.287-2.44-.057-2.44-1.657v-6.76l-1.894.421v6.86c0 2.56 1.816 3.416 4.217 2.882 1.328-.295 2.909-1.006 4.081-1.866v-9.72l-1.875.416v8.58Zm9.573-10.907c-1.133.252-2.148 1.037-2.89 1.942v-1.1l-1.738.386v10.48l1.875-.416v-7.82c.703-.796 1.601-1.476 2.616-1.702.605-.134 1.171-.1 1.816.137v-1.86c-.469-.176-1.074-.181-1.679-.047Zm6.447-1.433c-1.269.282-2.518.92-3.377 1.611v1.8c.742-.625 1.815-1.344 3.123-1.634 1.465-.326 2.382.17 2.382 1.65v.46l-1.952.434c-2.382.529-4.022 2.114-4.022 4.214 0 2 1.211 2.931 3.319 2.462 1.035-.23 1.992-.822 2.773-1.596v.78l1.757-.39v-6.86c0-2.9-1.914-3.395-4.003-2.931Zm-1.991 8.083c0-1.26.976-2.077 2.44-2.403l1.679-.373v2.9a4.828 4.828 0 0 1-2.245 1.219c-1.132.252-1.874-.223-1.874-1.343Zm13.567-10.655c-1.21.269-2.362 1.105-3.162 2.003v-1.1l-1.738.386v10.48l1.874-.417v-7.82c.703-.776 1.601-1.476 2.656-1.71 1.151-.256 2.05.265 2.05 1.745v6.74l1.874-.417v-6.84c0-2.42-1.504-3.506-3.554-3.05Zm7.539 3.744c0-2.44 1.64-4.044 3.592-4.498 1.016-.225 2.07-.12 2.773.144v-1.82c-.762-.191-1.855-.248-2.929-.009-2.772.616-5.349 3.109-5.349 6.609 0 3.52 2.577 4.887 5.349 4.271 1.074-.239 2.167-.782 2.929-1.311v-1.82c-.703.576-1.757 1.151-2.773 1.376-1.952.414-3.592-.502-3.592-2.942Zm16.965-4.59c0-2.88-1.952-4.166-4.334-3.636-2.479.551-4.744 2.954-4.744 6.414 0 3.56 2.343 4.999 5.427 4.314 1.191-.265 2.207-.79 2.909-1.247v-1.76c-.644.503-1.679 1.053-2.791 1.301-2.148.477-3.69-.38-3.749-2.807l6.345-1.41c.586-.13.937-.549.937-1.169Zm-4.353-2.072c1.386-.308 2.479.409 2.596 2.063l-5.408 1.202c.332-1.774 1.406-2.953 2.812-3.265Zm15.97-9.029-4.529 1.006v14.6l2.011-.446v-5.38l2.518-.56c2.968-.66 5.291-2.756 5.291-5.776 0-3.06-2.323-4.104-5.291-3.444Zm-2.518 7.96v-5.56l2.44-.543c1.855-.412 3.319.043 3.319 2.043 0 1.96-1.464 3.105-3.319 3.517l-2.44.543Zm14.24 4.235c-2.851.634-5.076-1.052-5.076-4.332 0-3.3 2.225-5.914 5.076-6.548 2.85-.633 5.076.992 5.076 4.292 0 3.28-2.226 5.955-5.076 6.588Zm0-9.16c-1.777.395-3.163 2.043-3.163 4.403 0 2.36 1.386 3.432 3.163 3.037 1.776-.395 3.163-2.083 3.163-4.443 0-2.36-1.387-3.392-3.163-2.997Zm7.354-7.274 1.874-.417v14.6l-1.874.417v-14.6Zm7.164-.572c0-.72-.547-1.119-1.289-.954-.761.169-1.327.815-1.327 1.535 0 .7.566 1.114 1.327.945.742-.165 1.289-.826 1.289-1.526Zm-2.245 3.599 1.874-.417v10.48l-1.874.417v-10.48Zm6.071 3.871c0-2.44 1.64-4.045 3.592-4.499 1.015-.225 2.069-.119 2.772.144v-1.82c-.761-.19-1.854-.248-2.928-.009-2.773.616-5.35 3.109-5.35 6.609 0 3.52 2.577 4.887 5.35 4.271 1.074-.239 2.167-.781 2.928-1.311v-1.82c-.703.577-1.757 1.151-2.772 1.376-1.952.414-3.592-.501-3.592-2.941Zm10.893-10.741c0-.72-.547-1.119-1.289-.954-.761.17-1.327.815-1.327 1.535 0 .7.566 1.115 1.327.945.742-.165 1.289-.826 1.289-1.526Zm-2.245 3.599 1.874-.417v10.48l-1.874.417v-10.48Zm13.236 1.459c0-2.88-1.952-4.167-4.334-3.637-2.48.551-4.745 2.954-4.745 6.414 0 3.56 2.343 4.999 5.428 4.314 1.191-.265 2.206-.79 2.909-1.247v-1.76c-.644.504-1.679 1.054-2.792 1.301-2.148.477-3.69-.38-3.748-2.807l6.345-1.41c.585-.13.937-.548.937-1.168Zm-4.354-2.073c1.386-.308 2.48.409 2.597 2.063l-5.408 1.202c.332-1.774 1.405-2.953 2.811-3.265Zm6.481 7.32c.762.171 1.933.13 3.105-.13 2.011-.447 3.904-1.908 3.904-4.128 0-2-1.366-2.356-2.831-2.451l-1.464-.114c-.82-.078-1.308-.31-1.308-.99 0-.74.703-1.336 1.855-1.592 1.191-.264 2.401-.193 3.124-.034v-1.72c-.781-.166-1.914-.155-3.046.097-1.952.434-3.807 1.726-3.807 3.766 0 1.88 1.249 2.222 2.577 2.307l1.523.102c.878.065 1.503.286 1.503 1.166 0 .88-.625 1.619-1.952 1.914-1.25.277-2.519.179-3.183.027v1.78Z"/><circle cx="29.343" cy="29.343" r="29.343" fill="#00BCD5" transform="matrix(.97619 -.21693 0 1 621.094 235.254)"/><circle cx="24.239" cy="24.239" r="24.239" fill="#fff" transform="matrix(.97619 -.21693 0 1 626.076 239.25)"/><path stroke="#000" stroke-linecap="round" stroke-linejoin="round" stroke-width="2" d="M650.184 270.141s9.037-7.086 9.037-14.1v-8.183l-9.037-1.097-9.036 5.917v8.183c0 7.014 9.036 9.28 9.036 9.28Z"/><path stroke="#000" stroke-linecap="round" stroke-linejoin="round" stroke-width="1.646" d="m654.087 254.602-4.824 6.279-2.193-1.684"/><path stroke="#5D37AD" stroke-dasharray="7.85" stroke-width="2.617" d="M464.915 133.993v184.121"/><rect width="225.937" height="112.49" fill="#5F259F" rx="10.299" transform="matrix(.97619 -.21693 0 1 354.821 72.403)"/><path fill="#AF81E1" d="M401.596 92.191v12.78l7.107-1.579v1.82l-9.118 2.026v-14.6l2.011-.447Zm12.36 1.173c1.172-.26 2.129-.172 2.87.263.755.432 1.133 1.321 1.133 2.668v6.86l-1.757.39v-.78c-.846.842-1.77 1.374-2.773 1.597-1.054.234-1.874.136-2.46-.294-.572-.446-.859-1.169-.859-2.169 0-1.04.365-1.934 1.094-2.683.742-.751 1.718-1.262 2.928-1.53l1.953-.435v-.46c0-.72-.209-1.213-.625-1.48-.417-.281-1.002-.338-1.757-.17-1.068.237-2.109.782-3.124 1.634v-1.8a8.497 8.497 0 0 1 1.562-.967 8.15 8.15 0 0 1 1.815-.644Zm-1.991 8.083c0 .547.169.942.508 1.187.338.232.794.284 1.366.156.833-.185 1.582-.591 2.246-1.219v-2.9l-1.679.374c-.755.167-1.354.46-1.797.879-.429.402-.644.91-.644 1.523Zm14.876-10.746 1.874-.416v9.72a11.62 11.62 0 0 1-1.991 1.142c-.729.336-1.426.577-2.089.724-1.25.278-2.265.177-3.046-.303-.781-.479-1.172-1.339-1.172-2.58v-6.86l1.894-.42v6.76c0 .746.228 1.25.684 1.508.468.256 1.054.306 1.757.149.794-.176 1.49-.457 2.089-.844v-8.58Zm9.845-2.388c1.055-.234 1.907-.077 2.558.472.664.532.996 1.392.996 2.579v6.84l-1.875.416v-6.74c0-.706-.195-1.203-.585-1.49-.378-.302-.866-.387-1.465-.254-.924.205-1.809.775-2.655 1.71v7.82l-1.874.416v-10.48l1.738-.386v1.1a7.443 7.443 0 0 1 1.464-1.265 5.176 5.176 0 0 1 1.698-.738Zm7.539 3.745c0 .787.156 1.425.469 1.916.325.488.761.817 1.308.99.546.158 1.152.17 1.815.036.482-.107.97-.282 1.465-.526.494-.256.93-.54 1.308-.85v1.82a9.127 9.127 0 0 1-1.386.768c-.521.249-1.035.43-1.543.542-.95.212-1.835.195-2.655-.05a3.73 3.73 0 0 1-1.952-1.446c-.495-.716-.742-1.641-.742-2.775 0-1.12.247-2.141.742-3.065a6.836 6.836 0 0 1 1.952-2.314 6.944 6.944 0 0 1 2.655-1.23 6.133 6.133 0 0 1 1.543-.142c.52.004.982.055 1.386.152v1.82a4.267 4.267 0 0 0-1.308-.25 5.005 5.005 0 0 0-1.465.106 4.786 4.786 0 0 0-2.577 1.552c-.677.79-1.015 1.773-1.015 2.946Zm13.451-8.409c1.08-.24 1.959-.095 2.636.434.676.53 1.015 1.395 1.015 2.595v6.84l-1.874.416v-6.74c0-.707-.196-1.21-.586-1.51-.391-.3-.892-.382-1.503-.246-.925.206-1.797.746-2.617 1.622v7.92l-1.874.416v-14.6l1.874-.416v4.96c.391-.394.84-.74 1.348-1.04a5.227 5.227 0 0 1 1.581-.651Zm14.801 1.31c0 .307-.084.566-.253.777-.157.195-.384.325-.684.392l-6.345 1.41c.026 1.18.377 2.01 1.054 2.486.69.46 1.588.567 2.695.321a7.414 7.414 0 0 0 1.522-.518 7.037 7.037 0 0 0 1.269-.782v1.76c-.937.608-1.906 1.023-2.909 1.246-1.041.231-1.971.225-2.791-.02a3.482 3.482 0 0 1-1.933-1.47c-.469-.723-.703-1.664-.703-2.824 0-1.106.215-2.114.644-3.023.443-.912 1.022-1.654 1.738-2.226.729-.589 1.516-.977 2.362-1.165.807-.18 1.536-.155 2.187.074a2.885 2.885 0 0 1 1.562 1.253c.39.606.585 1.376.585 2.31Zm-4.353-2.072a3.277 3.277 0 0 0-1.816 1.104c-.495.563-.827 1.283-.996 2.161l5.408-1.202c-.052-.815-.319-1.402-.8-1.762-.482-.36-1.081-.46-1.796-.3Zm6.481 5.54c.39.086.872.14 1.445.159a7.782 7.782 0 0 0 1.737-.186c.638-.142 1.12-.382 1.445-.721.338-.342.508-.74.508-1.193 0-.413-.131-.698-.391-.853-.247-.172-.618-.276-1.113-.313l-1.523-.102c-.807-.047-1.438-.227-1.893-.539-.456-.325-.684-.915-.684-1.768 0-.96.365-1.767 1.094-2.423.742-.658 1.646-1.106 2.713-1.343a8.315 8.315 0 0 1 1.621-.2 6.25 6.25 0 0 1 1.425.103v1.72c-.403-.097-.891-.142-1.464-.134a7.106 7.106 0 0 0-1.66.168c-.572.128-1.028.336-1.366.624-.326.272-.488.595-.488.969 0 .32.104.556.312.71.221.151.553.244.996.279l1.464.115c.885.056 1.575.256 2.069.6.508.327.762.944.762 1.85 0 .707-.182 1.348-.547 1.922a4.324 4.324 0 0 1-1.425 1.417 6.04 6.04 0 0 1-1.933.79 8.946 8.946 0 0 1-1.698.217c-.547.028-1.016-.002-1.406-.088v-1.78Zm23.461-17.674v1.84l-7.107 1.58v4.36l6.423-1.428v1.84l-6.423 1.428v6.56l-2.011.447v-14.6l9.118-2.026Zm4.737-.032c0 .346-.124.667-.371.962a1.63 1.63 0 0 1-.918.564c-.377.084-.696.035-.956-.147-.248-.185-.371-.451-.371-.798 0-.36.123-.68.371-.962.26-.298.579-.489.956-.573.378-.084.684-.032.918.156.247.172.371.438.371.798Zm-2.245 3.599V84.8l1.874-.417v-10.48l-1.874.417Zm9.927-2.406c.651-.145 1.211-.13 1.679.046v1.86a3.178 3.178 0 0 0-1.816-.136c-.924.205-1.796.773-2.616 1.701v7.82l-1.874.417v-10.48l1.738-.386v1.1c.39-.487.833-.899 1.327-1.235a4.41 4.41 0 0 1 1.562-.707Zm3.244 7.819c.39.086.872.14 1.444.159a7.796 7.796 0 0 0 1.738-.186c.638-.142 1.119-.383 1.445-.721.338-.342.507-.74.507-1.193 0-.414-.13-.698-.39-.853-.247-.172-.618-.276-1.113-.313l-1.523-.102c-.807-.047-1.438-.227-1.894-.539-.455-.325-.683-.915-.683-1.768 0-.96.364-1.768 1.093-2.423.742-.658 1.647-1.106 2.714-1.343a8.315 8.315 0 0 1 1.621-.2 6.26 6.26 0 0 1 1.425.103v1.72c-.404-.097-.892-.142-1.464-.135a7.1 7.1 0 0 0-1.66.17c-.573.127-1.028.334-1.367.623-.325.272-.488.595-.488.968 0 .32.104.557.313.711.221.15.553.244.995.279l1.465.114c.885.057 1.575.257 2.069.6.508.328.762.945.762 1.851 0 .707-.183 1.347-.547 1.922a4.333 4.333 0 0 1-1.425 1.416c-.586.37-1.23.634-1.933.79a8.953 8.953 0 0 1-1.699.217c-.546.029-1.015 0-1.405-.087v-1.78Zm15.377-10.097-3.144.698v5.66c0 1.107.573 1.533 1.718 1.278.352-.078.827-.257 1.426-.536v1.7c-.625.285-1.133.471-1.523.558-1.185.263-2.063.172-2.636-.274-.573-.46-.859-1.19-.859-2.19v-5.78l-2.069.46v-1.66l2.069-.46v-2.88l1.874-.416v2.88l3.144-.698v1.66Zm-91.1 64.484c0 .347-.123.667-.37.962a1.637 1.637 0 0 1-.918.564c-.378.084-.696.035-.957-.147-.247-.185-.371-.451-.371-.798 0-.36.124-.68.371-.962.261-.298.579-.489.957-.573.377-.084.683-.032.918.156.247.172.37.438.37.798Zm-2.245 3.599v10.48l1.875-.417v-10.48l-1.875.417Zm10.201-2.467c1.054-.234 1.907-.077 2.558.472.664.532.995 1.392.995 2.578v6.84l-1.874.417v-6.74c0-.707-.195-1.203-.586-1.49-.377-.303-.865-.388-1.464-.255-.924.206-1.809.776-2.655 1.711v7.82l-1.874.416v-10.48l1.737-.386v1.1c.43-.482.918-.904 1.465-1.265a5.14 5.14 0 0 1 1.698-.738Zm11.308-6.433v14.6l2.011-.447v-14.6l-2.011.447Zm10.027 1.692c1.054-.234 1.907-.077 2.558.472.664.532.995 1.392.995 2.578v6.84l-1.874.417v-6.74c0-.707-.195-1.203-.586-1.49-.377-.303-.865-.388-1.464-.255-.924.206-1.809.776-2.655 1.71v7.82l-1.874.417V131.8l1.737-.386v1.1c.43-.482.918-.904 1.465-1.266a5.158 5.158 0 0 1 1.698-.737Zm12.927-6.793 1.875-.416v13.96c-1.302.849-2.61 1.42-3.925 1.712-.963.214-1.841.196-2.635-.055-.794-.25-1.432-.735-1.914-1.454-.468-.723-.703-1.657-.703-2.804 0-1.067.222-2.056.664-2.968a6.46 6.46 0 0 1 1.816-2.303 6.106 6.106 0 0 1 2.558-1.248c.806-.18 1.561-.161 2.264.056v-4.48Zm-2.186 13.566a7.957 7.957 0 0 0 2.186-.846v-6.56c-.651-.202-1.353-.219-2.108-.051-.95.211-1.738.706-2.363 1.485-.611.776-.917 1.75-.917 2.924 0 .773.136 1.416.41 1.929.286.496.67.844 1.152 1.044.494.183 1.041.208 1.64.075Zm9.35-14.138c0 .347-.124.668-.371.963a1.63 1.63 0 0 1-.918.564c-.377.084-.696.034-.956-.148-.248-.185-.371-.451-.371-.797 0-.36.123-.681.371-.963.26-.298.579-.488.956-.572.378-.084.684-.032.918.156.247.171.371.437.371.797Zm-2.245 3.599v10.48l1.874-.416v-10.48l-1.874.416Zm8.062-1.991c1.171-.261 2.128-.173 2.87.262.755.432 1.132 1.322 1.132 2.668v6.86l-1.757.391v-.78c-.846.841-1.77 1.373-2.772 1.596-1.054.234-1.874.136-2.46-.294-.573-.446-.859-1.169-.859-2.169 0-1.04.364-1.934 1.093-2.683.742-.751 1.718-1.261 2.929-1.53l1.952-.434v-.46c0-.72-.208-1.214-.625-1.481-.416-.281-1.002-.338-1.757-.17-1.067.237-2.108.782-3.124 1.634v-1.8a8.604 8.604 0 0 1 1.562-.967 8.147 8.147 0 0 1 1.816-.643Zm-1.991 8.082c0 .547.169.943.507 1.187.339.232.794.284 1.367.157.833-.185 1.581-.592 2.245-1.219v-2.9l-1.679.373c-.755.168-1.354.461-1.796.879-.43.402-.644.91-.644 1.523Z"/><path fill="#fff" d="m377.467 130.177 6.378-1.417v7.414c0 .484-.201.88-.601 1.189-1.017.71-2.27 1.231-3.759 1.562-1.646.366-3.128.343-4.445-.068-1.303-.43-2.327-1.185-3.071-2.266-.731-1.099-1.096-2.433-1.096-4.003a9.7 9.7 0 0 1 1.074-4.462 10.5 10.5 0 0 1 2.985-3.612 10.726 10.726 0 0 1 4.36-2.046c1.632-.363 3.078-.384 4.338-.062v2.904c-.501-.212-1.117-.332-1.847-.36a8.615 8.615 0 0 0-2.255.215 7.653 7.653 0 0 0-2.792 1.237 6.545 6.545 0 0 0-2.018 2.318c-.502.933-.752 1.993-.752 3.181 0 1.218.258 2.187.773 2.908a3.62 3.62 0 0 0 2.105 1.403c.873.216 1.832.208 2.878-.024.429-.095.894-.25 1.395-.464v-3.85l-3.65.811v-2.508Zm14.883-6.145c.63-.14 1.174-.144 1.632-.011v2.574a4.177 4.177 0 0 0-1.868-.003c-.988.22-1.919.786-2.792 1.699v8.228l-2.706.601v-11.594l2.513-.558v1.254a6.616 6.616 0 0 1 1.482-1.408 4.887 4.887 0 0 1 1.739-.782Zm12.652 2.27c0 .411-.107.75-.322 1.018a1.507 1.507 0 0 1-.881.526l-6.507 1.446c.072 1.098.451 1.843 1.138 2.233.702.386 1.589.461 2.663.222a8.947 8.947 0 0 0 3.028-1.311v2.42a10.952 10.952 0 0 1-3.285 1.324c-1.132.252-2.162.253-3.093.005-.916-.251-1.654-.776-2.212-1.576-.544-.803-.816-1.872-.816-3.207 0-1.276.258-2.411.773-3.405.515-1.01 1.181-1.825 1.997-2.446.831-.625 1.711-1.041 2.642-1.247.888-.198 1.704-.181 2.448.05.745.23 1.332.686 1.761 1.368.444.664.666 1.524.666 2.58Zm-4.918-1.855a3.18 3.18 0 0 0-1.718 1.02c-.458.512-.773 1.176-.945 1.992l5.111-1.136c-.057-.735-.315-1.265-.773-1.588-.458-.338-1.017-.434-1.675-.288Zm16.684-.759c0 .41-.108.75-.323 1.017-.214.268-.508.443-.88.526l-6.507 1.446c.071 1.099.451 1.843 1.138 2.233.702.387 1.589.461 2.663.222a8.916 8.916 0 0 0 3.028-1.311v2.42a10.95 10.95 0 0 1-3.286 1.325c-1.131.251-2.162.253-3.092.005-.917-.251-1.654-.777-2.212-1.577-.544-.803-.816-1.872-.816-3.206 0-1.276.257-2.412.773-3.406.515-1.009 1.181-1.825 1.997-2.446.83-.624 1.711-1.04 2.642-1.247.887-.197 1.703-.181 2.448.05.744.231 1.331.687 1.761 1.369.444.664.666 1.524.666 2.58Zm-4.918-1.855a3.172 3.172 0 0 0-1.718 1.019c-.459.513-.774 1.177-.945 1.992l5.111-1.135c-.057-.736-.315-1.265-.773-1.589-.458-.338-1.017-.434-1.675-.287Zm13.161-5.037c1.174-.261 2.112-.088 2.814.519.701.592 1.052 1.577 1.052 2.956v7.458l-2.706.601v-7.238c0-.689-.179-1.17-.537-1.443-.344-.29-.795-.373-1.353-.249-.859.191-1.718.756-2.577 1.695v8.228l-2.706.601V118.33l2.513-.558v1.21a7.336 7.336 0 0 1 1.61-1.392 5.876 5.876 0 0 1 1.89-.794Zm17.328-8.119c1.518-.337 2.885-.289 4.102.145 1.231.43 2.198 1.183 2.899 2.259.716 1.059 1.074 2.343 1.074 3.854 0 1.51-.351 2.952-1.052 4.326a10.655 10.655 0 0 1-2.899 3.526 10.209 10.209 0 0 1-4.124 1.95l-5.154 1.146v-16.06l5.154-1.146Zm0 13.398a6.217 6.217 0 0 0 2.577-1.233 6.165 6.165 0 0 0 1.761-2.261c.43-.902.645-1.888.645-2.959 0-1.071-.215-1.962-.645-2.673-.415-.729-1.002-1.229-1.761-1.501-.759-.271-1.618-.3-2.577-.087l-2.276.506v10.714l2.276-.506Zm14.268-12.322c1.374-.306 2.491-.217 3.35.267.873.481 1.31 1.484 1.31 3.009v7.502l-2.555.568v-.77c-.945.87-1.933 1.419-2.964 1.648-1.146.255-2.04.138-2.685-.349-.63-.491-.945-1.293-.945-2.408 0-1.129.401-2.106 1.203-2.929.802-.838 1.854-1.402 3.157-1.692l2.083-.463v-.33c0-.689-.215-1.155-.644-1.397-.43-.241-1.038-.275-1.826-.1-1.102.245-2.226.81-3.371 1.695v-2.53a8.391 8.391 0 0 1 1.761-1.007 10.655 10.655 0 0 1 2.126-.714Zm-1.847 8.836c0 .484.165.821.494 1.012.343.188.78.223 1.31.105a4.662 4.662 0 0 0 1.997-.994v-2.596l-1.632.363c-.673.149-1.203.407-1.589.771-.387.35-.58.796-.58 1.339Zm16.013-9.454-3.135.696v5.434c0 1.086.558 1.504 1.675 1.256.415-.092.902-.274 1.46-.544v2.42c-.587.291-1.124.491-1.611.599-1.446.322-2.512.214-3.2-.322-.687-.552-1.03-1.414-1.03-2.587v-5.654l-2.084.463v-2.31l2.084-.463v-2.904l2.706-.602v2.904l3.135-.696v2.31Zm6.052-3.875c1.374-.306 2.491-.217 3.35.267.873.481 1.31 1.484 1.31 3.009v7.502l-2.556.568v-.77c-.945.87-1.933 1.42-2.963 1.649-1.146.254-2.041.138-2.685-.35-.63-.491-.945-1.293-.945-2.408 0-1.129.401-2.106 1.203-2.929.802-.838 1.854-1.402 3.157-1.692l2.083-.463v-.33c0-.689-.215-1.155-.644-1.396-.43-.242-1.038-.276-1.826-.101-1.102.245-2.226.81-3.372 1.696v-2.53c.487-.373 1.074-.708 1.761-1.008a10.664 10.664 0 0 1 2.127-.714Zm-1.847 8.836c0 .484.164.822.494 1.012.343.188.78.223 1.31.105a4.662 4.662 0 0 0 1.997-.994v-2.596l-1.632.363c-.673.15-1.203.407-1.589.771-.387.35-.58.796-.58 1.339Zm22.174-17.82c1.489-.33 2.864-.335 4.124-.014v2.904c-.487-.2-1.074-.319-1.761-.356a7.221 7.221 0 0 0-2.126.164 7.087 7.087 0 0 0-2.685 1.212c-.787.586-1.417 1.349-1.89 2.29-.472.927-.708 1.991-.708 3.194 0 1.188.236 2.14.708 2.856.473.717 1.103 1.193 1.89 1.428.802.218 1.697.217 2.685-.002a9.174 9.174 0 0 0 2.126-.759 8.643 8.643 0 0 0 1.761-1.139v2.882c-1.289.902-2.663 1.516-4.124 1.84-1.575.35-2.985.312-4.23-.115-1.232-.445-2.191-1.215-2.878-2.309-.687-1.094-1.031-2.425-1.031-3.995 0-1.569.344-3.061 1.031-4.475a10.23 10.23 0 0 1 2.878-3.587 10.24 10.24 0 0 1 4.23-2.019Zm16.069 5.978c0 .41-.107.749-.322 1.017a1.508 1.508 0 0 1-.88.526l-6.508 1.446c.072 1.099.451 1.843 1.139 2.233.701.387 1.589.461 2.663.222a8.916 8.916 0 0 0 3.028-1.311v2.42a10.958 10.958 0 0 1-3.286 1.324c-1.131.252-2.162.253-3.093.006-.916-.251-1.653-.777-2.212-1.577-.544-.803-.816-1.872-.816-3.206 0-1.276.258-2.412.773-3.406.516-1.009 1.182-1.825 1.998-2.446.83-.625 1.711-1.04 2.641-1.247.888-.197 1.704-.18 2.449.05.744.23 1.331.687 1.761 1.368.443.665.665 1.525.665 2.581Zm-4.918-1.856c-.673.15-1.245.49-1.718 1.02-.458.513-.773 1.177-.945 1.992l5.112-1.136c-.058-.735-.315-1.264-.773-1.588-.459-.338-1.017-.434-1.676-.288Zm13.162-5.036c1.174-.261 2.112-.088 2.813.518.702.593 1.053 1.578 1.053 2.957v7.458l-2.706.601v-7.238c0-.69-.179-1.17-.537-1.443-.344-.29-.795-.373-1.353-.25-.859.192-1.718.757-2.577 1.696v8.228l-2.706.601V96.896l2.512-.558v1.21a7.364 7.364 0 0 1 1.611-1.392 5.866 5.866 0 0 1 1.89-.794Zm13.443-.48-3.136.697v5.434c0 1.085.559 1.504 1.675 1.256.416-.092.902-.274 1.461-.545v2.42c-.587.292-1.124.492-1.611.6-1.446.322-2.513.214-3.2-.323-.687-.551-1.031-1.413-1.031-2.587V96.18l-2.083.463v-2.31l2.083-.462v-2.904l2.706-.602v2.904l3.136-.697v2.31Zm11.807-.072c0 .411-.107.75-.322 1.018a1.507 1.507 0 0 1-.881.526l-6.507 1.446c.072 1.099.451 1.843 1.138 2.233.702.387 1.589.461 2.663.222a8.917 8.917 0 0 0 3.028-1.31v2.419a10.952 10.952 0 0 1-3.285 1.324c-1.132.252-2.162.253-3.093.006-.916-.251-1.654-.777-2.212-1.577-.544-.803-.816-1.872-.816-3.207 0-1.275.258-2.41.773-3.405.515-1.01 1.181-1.825 1.997-2.446.831-.625 1.711-1.04 2.642-1.247.888-.197 1.704-.18 2.448.05.745.23 1.332.687 1.761 1.369.444.663.666 1.523.666 2.58Zm-4.918-1.855c-.673.15-1.246.49-1.718 1.02-.458.513-.773 1.177-.945 1.992l5.111-1.136c-.057-.735-.315-1.264-.773-1.588-.458-.338-1.017-.434-1.675-.288Zm12.882-4.996c.63-.14 1.174-.144 1.633-.011v2.574a4.184 4.184 0 0 0-1.869-.003c-.988.22-1.918.786-2.792 1.699v8.228l-2.706.601V89.453l2.513-.559v1.254a6.599 6.599 0 0 1 1.482-1.407 4.897 4.897 0 0 1 1.739-.782Z"/><circle cx="25.749" cy="25.749" r="25.749" fill="#5F259F" transform="matrix(.97619 -.21693 0 1 434.949 29.966)"/><circle cx="21.271" cy="21.271" r="21.271" fill="#fff" transform="matrix(.97619 -.21693 0 1 439.322 33.473)"/><path stroke="#000" stroke-linecap="round" stroke-linejoin="round" stroke-width="2" d="M452.586 54.63c-1.5 1.26-2 5-2 5s3.74-.5 5-2c.71-.84.7-2.13-.09-2.91a2.181 2.181 0 0 0-2.91-.09ZM460.086 53.13l-3-3a21.974 21.974 0 0 1 2-3.95 12.881 12.881 0 0 1 11-6.05c0 2.72-.78 7.5-6 11a22.345 22.345 0 0 1-4 2Z"/><path stroke="#000" stroke-linecap="round" stroke-linejoin="round" stroke-width="2" d="M457.086 50.13h-5s.55-3.03 2-4c1.62-1.08 5 0 5 0M460.086 53.13v5s3.03-.55 4-2c1.08-1.62 0-5 0-5"/><path stroke="#5D37AD" stroke-dasharray="6" stroke-width="2" d="M355.119 396.071v93.963"/><rect width="233.488" height="119.219" fill="#FE638C" rx="9.16" transform="matrix(.96623 .25766 0 1 242.317 281.414)"/><path fill="#fff" d="m267.242 353.789 2.957.788v3.15a5.672 5.672 0 0 1-1.131-.175c-2.47-.659-4.661-2.701-4.661-5.797 0-3.042 2.105-3.939 4.505-3.299 1.304.348 2.539 1.037 3.322 1.75v-2.376c-.783-.587-1.948-1.258-3.514-1.675-4.017-1.071-6.817 1.062-6.817 4.932 0 3.888 2.904 7.525 6.974 8.61 1.374.366 2.33.369 3.043.217.366-.1.487-.356.487-.734v-6.066l-5.165-1.377v2.052Zm9.931-4.138c0-.756-.591-1.471-1.408-1.689-.835-.223-1.444.173-1.444.929 0 .738.609 1.458 1.444 1.681.817.218 1.408-.183 1.408-.921Zm-2.521 1.92 2.191.584v9.486l-2.191-.584v-9.486Zm9.003 2.221c-2.696-.719-5.026.117-5.026 3.339 0 2.79 2 5.124 4.574 5.81a3.912 3.912 0 0 0 1.739.086v1.098c0 .846-.469 1.207-1.339.975l-2.8-.747v1.944l2.8.747c2.174.579 3.461-.211 3.461-2.353v-9.288c-1.096-.742-2.296-1.315-3.409-1.611Zm-2.765 3.942c0-1.854 1.235-2.352 2.765-1.944.417.111.835.294 1.218.504v4.788c-.47.073-.957.051-1.444-.079-1.374-.366-2.539-1.487-2.539-3.269Zm8.745-5.822 2.33.622v13.14l-2.33-.622v-13.14Zm9.724 6.085c-1.095-.292-2.104-.093-2.834.397v-.99l-2.035-.543v9.486l2.191.584v-6.732c.557-.337 1.27-.579 2.087-.361.852.227 1.531.948 1.531 2.136v5.922l2.191.584v-6.102c0-2.304-1.27-3.884-3.131-4.381Zm11.009 3.26a5.272 5.272 0 0 0-1.67-.787c-2.609-.696-4.626.692-4.626 3.644 0 3.402 2.365 5.599 4.974 6.295a9.21 9.21 0 0 0 3.513.234v-12.618l-2.191-.584v3.816Zm-1.548 7.093c-1.409-.375-2.487-1.779-2.487-3.633 0-1.98 1.2-2.56 2.591-2.189.487.13.974.368 1.444.673v5.346a5.896 5.896 0 0 1-1.548-.197Zm8.658-7.951c0-.756-.591-1.472-1.409-1.69-.835-.222-1.443.173-1.443.929 0 .738.608 1.459 1.443 1.681.818.218 1.409-.182 1.409-.92Zm-2.522 1.92 2.191.584v9.486l-2.191-.584v-9.486Zm7.647 1.859c-1.2-.32-2.365-.361-3.148-.138v2.07a5.046 5.046 0 0 1 2.731-.046c1.234.33 2 1.056 2 2.208v.27l-1.687-.45c-2.07-.552-3.531.156-3.531 2.046 0 1.818 1.078 3.204 2.939 3.7.939.251 1.739.122 2.4-.17v.63l2.07.552v-6.138c0-2.682-1.774-4.001-3.774-4.534Zm-1.496 6.495c0-.936.731-1.137 1.757-.864l1.322.353v2.124c-.435.154-1.027.176-1.618.018-.835-.222-1.461-.803-1.461-1.631Zm8.238 5.293c0 .612-.418 1.4-1.131 2.416l1.305.348c.817-1.024 1.6-2.255 1.6-3.731 0-1.062-.627-1.877-1.514-2.114-.869-.232-1.495.231-1.495 1.149 0 .306.104.568.226.799.591.229 1.009.557 1.009 1.133Zm15.679-6.439c.139 1.297.348 2.595.626 3.857l1.653 7.046 2.852.761 3.322-12.254-2.522-.673-1.635 6.98a34.926 34.926 0 0 0-.574 3.411 49.22 49.22 0 0 0-.643-3.735l-1.774-7.889-2.54-.678-1.721 6.777a36.82 36.82 0 0 0-.679 3.563 46.787 46.787 0 0 0-.643-3.915l-1.583-7.658-2.591-.691 3.322 14.026 2.852.76 1.635-6.17c.295-1.109.504-2.295.643-3.518Zm17.126 9.355a5.347 5.347 0 0 0-3.948-5.211c-2.174-.58-4.382.379-4.382 3.655 0 3.402 2.295 5.634 4.956 6.344 1.166.311 2.053.295 2.661.224v-1.98c-.521.094-1.408.146-2.452-.132-1.617-.432-2.957-1.581-3.078-3.521l5.269 1.405c.592.158.974-.1.974-.784Zm-3.982-3.474c1.043.278 1.895 1.225 1.982 2.508l-4.139-1.103c.278-1.204 1.078-1.693 2.157-1.405Zm8.85.614c-1.2-.32-2.366-.361-3.148-.138v2.07a5.043 5.043 0 0 1 2.73-.046c1.235.33 2 1.056 2 2.208v.27l-1.687-.45c-2.069-.552-3.53.156-3.53 2.046 0 1.818 1.078 3.204 2.939 3.7.939.251 1.739.122 2.4-.17v.63l2.07.552v-6.138c0-2.682-1.774-4.001-3.774-4.534Zm-1.496 6.495c0-.936.73-1.137 1.757-.864l1.321.353v2.124c-.434.154-1.026.176-1.617.018-.835-.222-1.461-.803-1.461-1.631Zm7.403-8.394 2.191.584v13.14l-2.191-.584v-13.14Zm10.151 6.361-2.539-.677v-2.376l-2.192-.585v2.376l-1.687-.45v1.89l1.687.45v4.626c0 1.8.974 3.41 3.426 4.064.4.107.853.155 1.305.15v-1.98a4.48 4.48 0 0 1-1.183-.136c-.974-.259-1.356-.901-1.356-1.693v-4.446l2.539.677v-1.89Zm6.536 1.563c-.94-.251-1.844-.15-2.505.214v-4.356l-2.191-.585v13.14l2.191.585v-6.876c.539-.288 1.235-.463 2.018-.254.904.241 1.6.985 1.6 2.155v5.94l2.191.584v-6.12c0-2.286-1.339-3.903-3.304-4.427Zm14.206.314-4.174-1.113v13.14l4.174 1.113c3.722.993 6.54-1.046 6.54-4.808 0-3.762-2.818-7.339-6.54-8.332Zm-1.843 10.471v-8.766l1.843.491c2.348.626 4.035 2.786 4.035 5.468 0 2.664-1.687 3.924-4.035 3.298l-1.843-.491Zm18.059 1.485a5.345 5.345 0 0 0-3.948-5.21c-2.174-.58-4.383.379-4.383 3.655 0 3.402 2.296 5.634 4.957 6.344 1.165.31 2.052.295 2.661.223v-1.98c-.522.095-1.409.147-2.452-.132-1.618-.431-2.957-1.58-3.079-3.521l5.27 1.406c.591.157.974-.101.974-.785Zm-3.983-3.474c1.044.279 1.896 1.226 1.983 2.509l-4.14-1.104c.279-1.204 1.079-1.692 2.157-1.405Zm5.789 9.158c.713.496 1.792.964 2.887 1.256 1.931.515 3.74.007 3.74-2.099 0-1.872-1.287-2.827-2.609-3.522l-1.235-.653c-.678-.361-1.044-.692-1.044-1.178 0-.54.522-.689 1.392-.457.991.264 2.174.868 2.887 1.346v-1.962c-.696-.474-1.739-.95-2.766-1.224-1.913-.51-3.704-.142-3.704 1.874 0 1.836 1.217 2.701 2.452 3.336l1.252.658c.679.361 1.183.73 1.183 1.36 0 .594-.4.919-1.443.641-1.096-.292-2.366-1.009-2.992-1.41v2.034Zm14.212-5.39-2.313 1.741c-.4.325-.782.709-1.13 1.085v-7.398l-2.192-.585v13.14l2.192.585v-3.204l1.374-1.074 2.33 5.266 2.366.63-3.079-7.031 3.079-2.455-2.627-.7Zm4.712 11.066c0 .612-.418 1.401-1.131 2.417l1.304.348c.818-1.024 1.601-2.256 1.601-3.732 0-1.062-.627-1.877-1.514-2.113-.869-.232-1.495.231-1.495 1.149 0 .306.104.568.226.798.591.23 1.009.557 1.009 1.133Zm-157.477-20.138c-3.479-.927-6.192-4.513-6.192-8.401 0-3.87 2.713-6.026 6.192-5.099 3.496.933 6.192 4.532 6.192 8.402 0 3.888-2.696 6.031-6.192 5.098Zm0-2.196c2.104.562 3.67-.785 3.67-3.575 0-2.772-1.566-4.989-3.67-5.551-2.122-.565-3.687.817-3.687 3.589 0 2.79 1.565 4.972 3.687 5.537Zm11.65-4.543a9.23 9.23 0 0 0-3.513-.235v12.564l2.191.585v-3.762c.505.35 1.061.625 1.687.792 2.592.691 4.609-.715 4.609-3.721 0-3.366-2.365-5.527-4.974-6.223Zm.122 7.881c-.487-.13-.974-.368-1.444-.673v-5.346c.47-.001.992.048 1.566.201 1.408.376 2.469 1.757 2.469 3.557 0 2.034-1.182 2.636-2.591 2.261Zm14.363.14a5.347 5.347 0 0 0-3.948-5.211c-2.174-.58-4.383.379-4.383 3.655 0 3.402 2.296 5.634 4.957 6.344 1.165.311 2.052.295 2.661.224v-1.98c-.522.094-1.409.146-2.453-.132-1.617-.432-2.956-1.581-3.078-3.521l5.27 1.405c.591.158.974-.1.974-.784Zm-3.983-3.474c1.043.278 1.896 1.225 1.983 2.508l-4.14-1.103c.279-1.204 1.079-1.693 2.157-1.405Zm10.659 1.114c-1.096-.292-2.105-.093-2.835.396v-.99l-2.035-.543v9.486l2.191.585v-6.732c.557-.338 1.27-.58 2.087-.362.853.228 1.531.948 1.531 2.136v5.922l2.191.585v-6.102c0-2.304-1.269-3.885-3.13-4.381Zm12.782 12.985c2.626-.056 4.47-2.084 4.47-5.306 0-3.87-2.696-7.469-6.192-8.402-3.478-.927-6.191 1.229-6.191 5.099 0 3.78 2.574 7.275 5.913 8.327.504 2.115 2 4.404 5.304 5.051v-2.448c-1.252-.208-2.887-.86-3.304-2.321Zm-5.409-7.941c0-2.772 1.565-4.154 3.687-3.589 2.105.562 3.67 2.779 3.67 5.551 0 2.79-1.565 4.137-3.67 3.575-2.122-.565-3.687-2.747-3.687-5.537Zm25.284 10.667c.87-1.082 1.183-2.349 1.026-4.605l-2.069-.552c.156 1.5.017 2.435-.296 3.144l-2.261-3.411c-1.009-1.493-1.6-2.551-1.6-3.307 0-.882.626-1.021 1.339-.831.852.227 1.809.806 2.383 1.229v-2.214a7.041 7.041 0 0 0-2.418-1.166c-2.122-.566-3.652.214-3.652 2.284 0 .738.209 1.513.661 2.426-1.67.743-2.557 1.73-2.557 3.422 0 2.34 1.861 4.385 4.192 5.006 1.443.385 2.643.219 3.582-.485l1.044 1.539 2.765.737-2.139-3.216Zm-4.991-.557c-1.218-.325-2.14-1.345-2.14-2.659 0-.972.47-1.549 1.305-1.974.034.027.052.068.087.113l2.835 4.176c-.557.446-1.235.571-2.087.344Zm13.121-7.769 2.331.621v13.14l-2.331-.621v-13.14Zm9.725 6.085c-1.096-.292-2.104-.093-2.835.396v-.99l-2.035-.543v9.486l2.192.585v-6.732c.556-.338 1.269-.58 2.087-.362.852.228 1.53.948 1.53 2.136v5.922l2.192.585v-6.102c0-2.304-1.27-3.885-3.131-4.381Zm11.008 3.259a5.257 5.257 0 0 0-1.669-.787c-2.609-.695-4.627.693-4.627 3.645 0 3.402 2.366 5.598 4.974 6.294a9.234 9.234 0 0 0 3.514.235v-12.618l-2.192-.585v3.816Zm-1.548 7.094c-1.409-.376-2.487-1.78-2.487-3.634 0-1.98 1.2-2.559 2.592-2.188.487.129.974.367 1.443.672v5.346a5.944 5.944 0 0 1-1.548-.196Zm11.493 2.795a4.861 4.861 0 0 1-1.565-.148c-.922-.246-1.809-.95-1.809-2.192v-5.958l-2.191-.585v6.12c0 2.358 1.565 3.964 3.861 4.576 1.27.339 2.8.387 3.896.157v-8.784l-2.192-.584v7.398Zm4.597 3.007c.713.496 1.791.964 2.887 1.256 1.93.515 3.739.007 3.739-2.099 0-1.872-1.287-2.827-2.609-3.521l-1.235-.654c-.678-.361-1.043-.692-1.043-1.178 0-.54.522-.689 1.391-.457.992.264 2.174.868 2.887 1.346v-1.962c-.695-.474-1.739-.95-2.765-1.224-1.913-.51-3.705-.141-3.705 1.875 0 1.836 1.218 2.7 2.453 3.336l1.252.657c.678.361 1.183.73 1.183 1.36 0 .594-.4.919-1.444.641-1.096-.292-2.365-1.009-2.991-1.41v2.034Zm18.732 5.482c-3.478-.928-6.191-4.514-6.191-8.402 0-3.87 2.713-6.026 6.191-5.098 3.496.932 6.192 4.531 6.192 8.401 0 3.888-2.696 6.031-6.192 5.099Zm0-2.196c2.105.561 3.67-.786 3.67-3.576 0-2.772-1.565-4.989-3.67-5.55-2.122-.566-3.687.816-3.687 3.588 0 2.79 1.565 4.972 3.687 5.538Zm8.05 3.622c1.026.724 2.174 1.3 3.705 1.708 2.696.719 4.643-.22 4.643-2.686 0-2.142-1.304-3.551-3.426-4.927l-1.356-.902c-.87-.592-1.374-1.122-1.374-1.842 0-1.008.956-1.113 2-.835 1.304.348 2.591 1.123 3.391 1.696v-2.268a10.346 10.346 0 0 0-3.356-1.597c-2.592-.691-4.453.181-4.453 2.539 0 2.07 1.322 3.358 3.131 4.525l1.304.852c.992.66 1.739 1.309 1.739 2.245 0 1.17-.991 1.338-2.243 1.004-1.392-.371-2.87-1.179-3.705-1.78v2.268Z"/><path fill="#000" d="m328.839 349.527-1.965-.524-1.443-4.507-4.696-1.252-1.427 3.742-1.913-.511 4.679-11.892 2.087.556 4.678 14.388Zm-7.53-7.768 3.548.946-.644-2.026a145.3 145.3 0 0 1-.643-2.151l-.487-1.642-.487 1.382c-.232.67-.447 1.273-.644 1.808l-.643 1.683Zm10.082 3.715c0 .708.14 1.351.418 1.929.29.581.678 1.069 1.165 1.463a4.697 4.697 0 0 0 1.618.827c.429.114.863.17 1.304.168a4.057 4.057 0 0 0 1.165-.193v1.638a5.38 5.38 0 0 1-1.235.084 5.44 5.44 0 0 1-1.374-.186 6.476 6.476 0 0 1-2.365-1.207 6.786 6.786 0 0 1-1.739-2.156 6.1 6.1 0 0 1-.661-2.822c0-1.008.22-1.819.661-2.434a3.03 3.03 0 0 1 1.739-1.228c.731-.189 1.519-.171 2.365.055.453.12.911.303 1.374.546.464.232.876.48 1.235.744v1.638a6.26 6.26 0 0 0-1.165-.797 5.53 5.53 0 0 0-1.304-.546c-.916-.232-1.682-.142-2.296.27-.603.415-.905 1.151-.905 2.207Zm11.705-1.739c1.217.324 2.382.887 3.495 1.688v12.438l-1.669-.445v-3.924c-.626.169-1.299.157-2.018-.034a5.699 5.699 0 0 1-2.278-1.22 6.348 6.348 0 0 1-1.618-2.159 6.412 6.412 0 0 1-.591-2.732c0-1.02.209-1.84.626-2.461a2.909 2.909 0 0 1 1.705-1.201c.707-.196 1.49-.179 2.348.05Zm-.053 8.212c.673.179 1.299.19 1.879.033v-5.886a7.381 7.381 0 0 0-1.948-.844c-.534-.142-1.021-.14-1.461.007-.429.149-.771.442-1.026.878-.244.427-.365.983-.365 1.667 0 1.068.272 1.968.817 2.702.557.736 1.258 1.217 2.104 1.443Zm11.791-4.92 1.67.445v8.748a6.766 6.766 0 0 1-1.775.157 7.988 7.988 0 0 1-1.86-.262c-1.114-.297-2.018-.832-2.714-1.606-.695-.773-1.043-1.718-1.043-2.834v-6.174l1.687.45v6.084c0 .672.203 1.224.609 1.656.417.436.939.737 1.565.904.707.188 1.327.24 1.861.154v-7.722Zm6.405-1.082c0 .312-.11.547-.33.704-.221.157-.493.193-.818.106a1.641 1.641 0 0 1-.852-.551c-.22-.275-.33-.568-.33-.88 0-.324.11-.559.33-.704.232-.154.516-.187.852-.097.337.09.609.27.818.542.22.263.33.556.33.88Zm-2 2.257v9.432l1.67.445v-9.432l-1.67-.445Zm8.844 2.178a3.7 3.7 0 0 1 1.496.777v1.674c-.545-.469-1.085-.775-1.618-.917-.823-.22-1.6-.091-2.331.386v7.038l-1.669-.445v-9.432l1.548.413v.99a2.786 2.786 0 0 1 1.182-.531c.453-.095.916-.08 1.392.047Zm10.268 6.878c0 .276-.076.472-.227.588-.139.107-.342.125-.608.053l-5.653-1.507c.023 1.074.337 1.974.939 2.699.615.715 1.415 1.205 2.401 1.468.463.123.916.19 1.356.199a3.948 3.948 0 0 0 1.131-.148v1.584c-.835.137-1.699.087-2.592-.151a6.794 6.794 0 0 1-2.487-1.239 6.33 6.33 0 0 1-1.722-2.17c-.417-.855-.626-1.805-.626-2.849 0-.996.192-1.809.574-2.439.394-.626.91-1.041 1.548-1.243.649-.211 1.351-.216 2.105-.015a4.96 4.96 0 0 1 1.947 1.024 5.223 5.223 0 0 1 1.392 1.811c.348.717.522 1.495.522 2.335Zm-3.879-3.77c-.638-.17-1.177-.104-1.617.198-.441.291-.737.794-.887 1.51l4.817 1.285c-.046-.757-.284-1.402-.713-1.936a2.999 2.999 0 0 0-1.6-1.057Zm5.774 7.821c.348.249.777.508 1.287.776a8.294 8.294 0 0 0 1.548.592c.568.152.997.146 1.287-.016.301-.16.452-.444.452-.852a1.34 1.34 0 0 0-.348-.939c-.22-.262-.551-.518-.991-.768l-1.357-.758c-.719-.395-1.281-.833-1.687-1.314-.406-.492-.609-1.122-.609-1.89 0-.864.325-1.431.974-1.702.661-.268 1.467-.275 2.418-.021.487.129.968.306 1.443.529.487.225.911.464 1.27.716v1.548a8.125 8.125 0 0 0-1.304-.762 7.62 7.62 0 0 0-1.479-.574c-.51-.136-.916-.148-1.217-.037-.29.103-.435.322-.435.658 0 .288.093.547.278.777.197.232.493.461.887.686l1.305.744c.788.438 1.403.92 1.843 1.446.453.516.679 1.182.679 1.998 0 .636-.163 1.133-.487 1.491-.313.36-.737.577-1.27.651-.522.077-1.096.032-1.722-.135a9.228 9.228 0 0 1-1.513-.548 6.906 6.906 0 0 1-1.252-.694v-1.602Z"/><circle cx="22.902" cy="22.902" r="22.902" fill="#FE638C" transform="matrix(.96623 .25766 0 1 328.577 282.509)"/><circle cx="18.919" cy="18.919" r="18.919" fill="#FEFDFF" transform="matrix(.96623 .25766 0 1 332.425 287.519)"/><g stroke="#000" stroke-linecap="round" stroke-linejoin="round" stroke-width="2" clip-path="url(#c)"><path d="m353.356 302.125-8.297-1.844c-.518-.115-1.015-.015-1.381.279-.366.294-.572.757-.572 1.287v16c0 .531.206 1.085.572 1.541.366.457.863.778 1.381.893l11.714 2.603c.518.115 1.014.015 1.38-.279.366-.294.572-.757.572-1.287v-12.5l-5.369-6.693Z"/><path d="M352.868 302.017v6l5.857 1.301M354.82 313.45l-7.809-1.735M354.82 317.45l-7.809-1.735M348.963 308.149l-1.952-.434"/></g><path stroke="#5D37AD" stroke-dasharray="6" stroke-width="2" d="M1725.38 220.097v171.275"/><rect width="224.529" height="110.093" fill="#FE638C" rx="11.736" transform="matrix(.96623 .25766 0 1 1626.19 104.902)"/><path fill="#fff" d="M1648.03 159.431c.51.365 1.09.715 1.73 1.049.63.335 1.28.59 1.94.766.8.213 1.45.216 1.97.011.52-.214.79-.682.79-1.404 0-.57-.18-1.078-.52-1.524-.34-.459-.82-.898-1.45-1.318l-1.61-1.077c-.96-.634-1.7-1.301-2.23-1.998-.51-.707-.77-1.549-.77-2.524 0-1.14.41-1.931 1.22-2.375.8-.443 1.85-.493 3.13-.151 1.19.317 2.32.86 3.4 1.628v1.824c-1.22-.871-2.36-1.447-3.41-1.728-.69-.182-1.26-.184-1.73-.004-.45.184-.68.573-.68 1.168 0 .469.14.893.42 1.272.3.382.72.767 1.27 1.155l1.58 1.086c1.06.702 1.88 1.444 2.44 2.228.58.774.86 1.686.86 2.738 0 .823-.2 1.485-.6 1.985-.41.488-.96.795-1.67.923-.71.127-1.51.072-2.41-.167-1.27-.339-2.49-.919-3.67-1.739v-1.824Zm15.19-3.701c1.02.271 1.84.814 2.48 1.63.64.816.95 1.794.95 2.934v6.498l-1.76-.47v-6.403c0-.672-.18-1.24-.55-1.705a2.632 2.632 0 0 0-1.41-.928 3.097 3.097 0 0 0-2.46.332v7.524l-1.76-.47v-13.87l1.76.47v4.712c.36-.194.79-.315 1.26-.365.49-.06.99-.023 1.49.111Zm8.21-.566c0 .329-.12.577-.35.743-.23.166-.52.203-.86.112a1.698 1.698 0 0 1-.9-.582c-.23-.29-.35-.6-.35-.929 0-.342.12-.59.35-.743.24-.163.54-.197.9-.102.35.095.64.285.86.572.23.277.35.587.35.929Zm-2.11 2.382v9.956l1.76.47v-9.956l-1.76-.47Zm8.64-.221c-.66-.177-1.11-.145-1.35.093-.24.23-.35.598-.35 1.104v.874l2.88.769v1.577l-2.85-.759v8.379l-1.76-.47v-8.379l-1.65-.44v-1.577l1.65.44v-1.007c0-.924.25-1.606.74-2.046.49-.439 1.29-.509 2.42-.209.49.131.97.31 1.45.539v1.558a6.858 6.858 0 0 0-1.18-.446Zm8.58 6.389-2.96-.788v5.377c0 1.051.54 1.721 1.62 2.008.33.088.77.137 1.34.148v1.615c-.59-.017-1.07-.075-1.44-.173-1.11-.297-1.94-.789-2.48-1.477-.53-.701-.8-1.527-.8-2.477v-5.491l-1.95-.519v-1.577l1.95.519v-2.736l1.76.47v2.736l2.96.788v1.577Zm1.9 6.855c.37.263.82.536 1.36.819.55.273 1.1.482 1.64.625.6.16 1.05.154 1.36-.017.31-.169.47-.468.47-.899 0-.393-.12-.723-.36-.991-.24-.277-.59-.548-1.05-.811l-1.43-.8c-.76-.418-1.36-.88-1.78-1.387-.43-.519-.65-1.184-.65-1.995 0-.912.35-1.511 1.03-1.797.7-.283 1.55-.29 2.55-.022.52.137 1.03.323 1.53.558.51.238.96.49 1.34.756v1.634a8.679 8.679 0 0 0-1.38-.804 8.208 8.208 0 0 0-1.56-.606c-.54-.144-.97-.157-1.28-.039-.31.109-.46.34-.46.695 0 .304.09.577.29.819.21.246.52.487.94.725l1.37.785c.84.463 1.48.971 1.95 1.526.48.545.72 1.249.72 2.11 0 .671-.18 1.196-.52 1.573-.33.38-.78.61-1.34.687-.55.082-1.16.034-1.82-.142a9.637 9.637 0 0 1-1.59-.578c-.52-.226-.96-.47-1.33-.733v-1.691Zm19.57-6.62 1.76.47v13.262a8.615 8.615 0 0 1-3.69-.186 6.592 6.592 0 0 1-2.48-1.269 6.928 6.928 0 0 1-1.8-2.265c-.44-.903-.66-1.899-.66-2.989 0-1.013.21-1.85.63-2.512.41-.674.98-1.124 1.7-1.35.73-.238 1.53-.239 2.41-.004.76.202 1.47.568 2.13 1.099v-4.256Zm-2.06 11.878c.71.189 1.4.258 2.06.206v-6.232a5.31 5.31 0 0 0-1.98-1.022c-.9-.239-1.64-.132-2.23.319-.57.455-.86 1.24-.86 2.354 0 .735.13 1.409.39 2.022.27.604.63 1.112 1.08 1.524.47.403.98.679 1.54.829Zm10.74 4.498c.89.238 1.7.238 2.42 0 .73-.238 1.29-.695 1.71-1.369.43-.684.64-1.532.64-2.546 0-1.026-.2-1.98-.62-2.864a6.443 6.443 0 0 0-1.73-2.265 6.055 6.055 0 0 0-2.42-1.292c-.89-.239-1.71-.24-2.44-.006-.72.226-1.29.676-1.71 1.35-.41.662-.62 1.506-.62 2.532 0 1.013.21 1.974.62 2.883.43.9 1 1.661 1.73 2.284a6.058 6.058 0 0 0 2.42 1.293Zm0-8.702c.87.231 1.58.737 2.13 1.517.56.771.84 1.701.84 2.791 0 .722-.12 1.321-.38 1.797-.26.463-.61.78-1.07.951-.45.158-.96.162-1.52.012a3.725 3.725 0 0 1-1.52-.825 4.275 4.275 0 0 1-1.07-1.519c-.26-.613-.38-1.281-.38-2.003 0-1.089.27-1.87.82-2.344.57-.483 1.28-.609 2.15-.377Zm17.01 2.902c.88.235 1.6.717 2.15 1.447.56.733.84 1.599.84 2.6v6.897l-1.76-.47v-6.783c0-.545-.16-1.005-.48-1.381a2.17 2.17 0 0 0-1.19-.774c-.78-.209-1.53-.068-2.26.423.03.235.04.428.04.58v6.897l-1.78-.475v-6.783c0-.544-.15-1.003-.46-1.376-.31-.386-.7-.644-1.19-.774-.77-.206-1.52-.076-2.24.391v7.505l-1.76-.47v-9.956l1.63.435v1.026c.89-.572 1.82-.729 2.79-.472.56.151 1.06.411 1.5.782a3.8 3.8 0 0 1 1.07 1.329c1.02-.679 2.05-.879 3.1-.598Zm7.78-.682c0 .329-.12.577-.35.743-.24.166-.52.203-.87.112a1.777 1.777 0 0 1-.9-.582c-.23-.29-.34-.6-.34-.929 0-.342.11-.59.34-.743.25-.163.55-.197.9-.102.36.094.65.285.87.572.23.277.35.587.35.929Zm-2.12 2.382v9.956l1.77.47v-9.956l-1.77-.47Zm5.71 6.481c0 .748.15 1.426.44 2.037.31.613.72 1.128 1.23 1.544.52.403 1.09.694 1.71.873.45.121.91.18 1.38.177.46-.015.87-.083 1.23-.204v1.729c-.38.076-.82.106-1.31.09-.49-.004-.97-.07-1.45-.197a6.814 6.814 0 0 1-2.49-1.274 7.219 7.219 0 0 1-1.84-2.276 6.51 6.51 0 0 1-.7-2.979c0-1.064.24-1.92.7-2.569.47-.661 1.08-1.093 1.84-1.296.77-.2 1.6-.18 2.49.058.48.127.96.319 1.45.577.49.244.93.506 1.31.784v1.729c-.36-.31-.77-.59-1.23-.841a6.058 6.058 0 0 0-1.38-.576c-.97-.245-1.77-.15-2.42.285-.64.438-.96 1.215-.96 2.329Zm10.25-5.172c0 .329-.12.577-.35.743-.24.166-.52.203-.87.112a1.777 1.777 0 0 1-.9-.582c-.23-.29-.34-.6-.34-.929 0-.342.11-.59.34-.743.25-.163.55-.197.9-.102.36.094.65.285.87.572.23.277.35.587.35.929Zm-2.12 2.382v9.956l1.77.47v-9.956l-1.77-.47Zm4.63-2.681v13.87l1.76.47v-13.87l-1.76-.47Zm12.45 11.413c0 .291-.08.498-.24.621-.15.112-.36.131-.65.056l-5.96-1.591c.02 1.134.35 2.083.99 2.848.65.756 1.49 1.273 2.53 1.55.49.131.97.201 1.44.211.46-.003.86-.055 1.19-.157v1.672c-.88.145-1.79.092-2.74-.159a7.1 7.1 0 0 1-2.62-1.308 6.684 6.684 0 0 1-1.82-2.29c-.44-.903-.66-1.905-.66-3.007 0-1.052.2-1.91.61-2.575.41-.661.96-1.099 1.63-1.312.68-.223 1.43-.228 2.22-.016.76.203 1.44.563 2.06 1.081a5.64 5.64 0 0 1 1.47 1.911c.36.757.55 1.578.55 2.465Zm-4.1-3.98c-.67-.179-1.24-.109-1.71.21-.46.307-.77.838-.93 1.593l5.08 1.357c-.05-.799-.3-1.48-.75-2.044a3.141 3.141 0 0 0-1.69-1.116Zm14.82.132c-.66-.176-1.12-.145-1.36.094-.23.229-.35.597-.35 1.104v.874l2.88.769v1.577l-2.84-.759v8.379l-1.77-.47v-8.379l-1.65-.441v-1.577l1.65.441v-1.007c0-.925.25-1.607.74-2.046.49-.44 1.3-.509 2.42-.209.49.13.98.31 1.45.539v1.558a7.21 7.21 0 0 0-1.17-.447Zm7.32 4.29c.61.163 1.14.436 1.58.82v1.767c-.58-.495-1.15-.818-1.71-.968-.87-.232-1.69-.096-2.46.408v7.429l-1.76-.47v-9.956l1.63.435v1.045c.37-.282.79-.468 1.25-.56.48-.1.97-.084 1.47.05Zm7.07 12.223c.9.238 1.71.238 2.43 0 .72-.238 1.29-.695 1.71-1.369.42-.684.64-1.532.64-2.546 0-1.026-.21-1.98-.63-2.864a6.418 6.418 0 0 0-1.72-2.265 6.028 6.028 0 0 0-2.43-1.292c-.89-.239-1.7-.24-2.44-.006-.72.226-1.29.676-1.7 1.35-.42.662-.63 1.506-.63 2.532a6.793 6.793 0 0 0 2.35 5.167 6.058 6.058 0 0 0 2.42 1.293Zm0-8.702c.87.231 1.58.737 2.13 1.517.57.771.85 1.701.85 2.791 0 .722-.13 1.321-.39 1.797-.25.463-.61.78-1.06.951-.45.158-.96.162-1.53.012a3.725 3.725 0 0 1-1.52-.825 4.252 4.252 0 0 1-1.06-1.519 5.078 5.078 0 0 1-.39-2.003c0-1.089.28-1.87.83-2.344.56-.483 1.28-.609 2.14-.377Zm17.02 2.902a3.85 3.85 0 0 1 2.14 1.447c.57.733.85 1.599.85 2.6v6.897l-1.76-.47v-6.783c0-.545-.16-1.005-.48-1.381-.31-.386-.7-.644-1.19-.774-.79-.209-1.54-.068-2.26.423.02.235.03.428.03.58v6.897l-1.78-.475v-6.783c0-.544-.15-1.003-.45-1.376a2.232 2.232 0 0 0-1.2-.774c-.77-.206-1.52-.076-2.24.39v7.505l-1.76-.47v-9.956l1.63.436v1.026c.9-.572 1.83-.73 2.79-.472.57.15 1.07.411 1.51.782.45.361.81.804 1.06 1.329 1.02-.679 2.05-.879 3.11-.598Z"/><path fill="#232028" d="M1642.51 185.458c.58.418 1.28.833 2.11 1.243.82.41 1.63.72 2.42.932.82.219 1.48.241 1.98.065.51-.187.76-.617.76-1.292 0-.528-.18-1.002-.55-1.423-.36-.417-.88-.858-1.57-1.322l-1.6-1.041c-1.25-.802-2.2-1.627-2.85-2.475-.65-.864-.98-1.882-.98-3.055 0-.939.23-1.692.68-2.261.47-.564 1.12-.913 1.94-1.046.82-.147 1.76-.079 2.83.204 1.46.389 2.82 1.04 4.1 1.952v2.772c-.6-.423-1.26-.826-1.98-1.209-.72-.384-1.44-.672-2.17-.864-.7-.189-1.29-.207-1.76-.053-.45.143-.68.501-.68 1.073 0 .425.13.813.4 1.163.29.34.71.703 1.28 1.089l1.66 1.102c1.4.902 2.45 1.82 3.14 2.753.7.933 1.04 2.023 1.04 3.269 0 .983-.24 1.777-.72 2.382-.48.59-1.15.96-2.02 1.111-.85.155-1.83.085-2.93-.21-1.69-.45-3.2-1.146-4.53-2.087v-2.772Zm15.81-7.114c0 .454-.16.792-.49 1.013-.32.207-.73.244-1.23.111a2.55 2.55 0 0 1-1.28-.78c-.32-.395-.49-.819-.49-1.274 0-.469.17-.807.49-1.014.34-.217.77-.258 1.28-.122.5.133.91.396 1.23.791.33.38.49.805.49 1.275Zm-3.08 2.346v11.594l2.68.714v-11.594l-2.68-.714Zm12.3 3.083c1.16.31 2.09.938 2.79 1.886.69.933 1.04 2.089 1.04 3.468v7.458l-2.68-.714v-7.238c0-.69-.18-1.257-.53-1.704-.34-.457-.79-.76-1.34-.907-.85-.227-1.7-.079-2.55.442v8.228l-2.68-.714v-11.594l2.49.663v1.21c.47-.316 1-.519 1.59-.609a4.53 4.53 0 0 1 1.87.125Zm11.91 3.152c1.38.37 2.77 1.026 4.16 1.969v11.352c0 1.29-.37 2.182-1.1 2.675-.74.493-1.78.56-3.13.201l-3.42-.913v-2.376l3.42.913c.53.14.93.101 1.21-.117.29-.203.43-.561.43-1.075v-1.342c-.68.127-1.39.092-2.13-.105-1.05-.279-2-.76-2.85-1.441a7.763 7.763 0 0 1-2.02-2.519 7.04 7.04 0 0 1-.72-3.14c0-1.262.28-2.244.83-2.947.55-.718 1.29-1.16 2.21-1.325.94-.176 1.97-.113 3.11.19Zm-3.38 4.818c0 1.042.29 1.911.87 2.609a4.36 4.36 0 0 0 2.23 1.387 4.27 4.27 0 0 0 1.76.097v-5.852a6.733 6.733 0 0 0-1.48-.617c-1-.265-1.81-.203-2.45.184-.62.376-.93 1.107-.93 2.192Zm14.28-1.911c1.36.363 2.46.995 3.31 1.896.87.905 1.3 2.12 1.3 3.646v7.502l-2.53-.675v-.77c-.94.411-1.91.48-2.93.208-1.14-.302-2.02-.854-2.66-1.655-.62-.797-.94-1.752-.94-2.867 0-1.129.4-1.911 1.19-2.345.8-.448 1.84-.5 3.13-.156l2.06.55v-.33c0-.69-.21-1.26-.64-1.71-.42-.451-1.02-.78-1.8-.988-1.09-.291-2.21-.273-3.34.056v-2.53c.48-.136 1.06-.186 1.74-.151.68.02 1.38.126 2.11.319Zm-1.83 7.938c0 .484.16.902.49 1.253.34.354.77.602 1.29.741.73.193 1.39.186 1.98-.022v-2.596l-1.61-.431c-.67-.178-1.19-.178-1.58-.002-.38.162-.57.515-.57 1.057Zm13.34-4.868c1.11.295 2.12.785 3.04 1.471a7.629 7.629 0 0 1 2.21 2.591c.55 1.042.83 2.223.83 3.543 0 1.203-.25 2.2-.74 2.992a3.652 3.652 0 0 1-2.05 1.568c-.85.272-1.79.268-2.84-.012a6.612 6.612 0 0 1-2.07-.968v4.598l-2.67-.714v-15.356c1.43-.19 2.86-.095 4.29.287Zm.15 9.632c.92.245 1.68.147 2.27-.296.6-.457.9-1.28.9-2.468 0-1.085-.29-2.019-.85-2.8-.57-.797-1.29-1.312-2.17-1.547a7.36 7.36 0 0 0-1.92-.246v6.534c.61.397 1.2.671 1.77.823Zm13.09 5.932c1.06.284 2.03.292 2.89.023a3.677 3.677 0 0 0 2.06-1.584c.51-.788.77-1.776.77-2.964s-.26-2.297-.77-3.328a7.693 7.693 0 0 0-2.06-2.662 7.388 7.388 0 0 0-2.89-1.519c-1.06-.283-2.03-.292-2.91-.028-.87.268-1.55.789-2.06 1.562-.5.762-.75 1.738-.75 2.926 0 1.188.25 2.31.75 3.366a8.226 8.226 0 0 0 2.06 2.684 7.55 7.55 0 0 0 2.91 1.524Zm0-9.592c.85.227 1.56.739 2.13 1.535.56.782.85 1.716.85 2.801 0 1.1-.29 1.905-.85 2.413-.57.495-1.28.628-2.13.401-.85-.226-1.56-.738-2.13-1.534-.55-.808-.83-1.761-.83-2.861 0-1.086.28-1.87.83-2.353.57-.495 1.28-.628 2.13-.402Zm13.61 1.189c.63.166 1.17.427 1.62.783v2.574c-.61-.442-1.23-.745-1.85-.912-.98-.26-1.9-.147-2.76.341v8.228l-2.68-.714v-11.594l2.48.663v1.254c.44-.352.93-.581 1.47-.686a3.649 3.649 0 0 1 1.72.063Zm12.53 8.421c0 .411-.11.698-.32.861-.22.163-.51.196-.87.098l-6.45-1.718c.08 1.134.45 2.063 1.13 2.787.7.727 1.57 1.233 2.64 1.516 1.05.28 2.04.334 2.99.162v2.42c-1.03.12-2.11.029-3.25-.274a8.685 8.685 0 0 1-3.06-1.498 7.722 7.722 0 0 1-2.19-2.652c-.54-1.067-.81-2.268-.81-3.603 0-1.276.26-2.286.77-3.03.51-.759 1.17-1.25 1.98-1.475.82-.221 1.69-.208 2.61.037.88.235 1.69.648 2.42 1.241a6.318 6.318 0 0 1 1.75 2.224c.44.88.66 1.848.66 2.904Zm-4.87-4.246c-.67-.178-1.23-.116-1.7.185-.46.289-.77.8-.94 1.532l5.06 1.349c-.06-.763-.31-1.418-.76-1.964-.46-.561-1.01-.928-1.66-1.102Zm19.27 5.536-3.1-.828v5.434c0 1.086.55 1.776 1.66 2.071.41.109.89.164 1.44.165v2.42a5.925 5.925 0 0 1-1.59-.183c-1.43-.382-2.49-1.008-3.17-1.879-.68-.885-1.02-1.914-1.02-3.088v-5.654l-2.06-.55v-2.31l2.06.55v-2.904l2.68.714v2.904l3.1.828v2.31Zm7.23 11.43c1.06.284 2.02.291 2.89.023a3.71 3.71 0 0 0 2.06-1.584c.51-.788.76-1.776.76-2.964s-.25-2.297-.76-3.328a7.805 7.805 0 0 0-2.06-2.662 7.457 7.457 0 0 0-2.89-1.519c-1.07-.283-2.04-.293-2.92-.028a3.74 3.74 0 0 0-2.06 1.562c-.49.762-.74 1.737-.74 2.925 0 1.188.25 2.31.74 3.367a8.365 8.365 0 0 0 2.06 2.684 7.519 7.519 0 0 0 2.92 1.524Zm0-9.592c.85.227 1.55.739 2.12 1.535.57.782.85 1.715.85 2.801 0 1.1-.28 1.904-.85 2.413-.57.494-1.27.628-2.12.401-.85-.227-1.56-.738-2.13-1.535-.55-.807-.83-1.761-.83-2.861 0-1.085.28-1.869.83-2.353.57-.494 1.28-.628 2.13-.401Zm13.48-3.092v16.06l2.85.76v-16.06l-2.85-.76Zm11.89 7.437c1.16.31 2.09.939 2.78 1.887.69.933 1.04 2.089 1.04 3.468v7.458l-2.68-.714v-7.238c0-.69-.17-1.258-.53-1.704-.34-.458-.78-.76-1.34-.907-.85-.227-1.7-.08-2.55.441v8.228l-2.68-.714v-11.594l2.49.663v1.21c.47-.315 1-.518 1.59-.608.6-.091 1.22-.049 1.88.124Zm13.45-.68 2.68.715v15.422c-1.43.19-2.86.094-4.3-.288a9.002 9.002 0 0 1-3.04-1.47c-.92-.7-1.65-1.579-2.21-2.636-.55-1.056-.83-2.252-.83-3.587 0-1.173.25-2.141.75-2.903a3.644 3.644 0 0 1 2.02-1.574c.86-.268 1.83-.26 2.89.023.71.189 1.39.51 2.04.962v-4.664Zm-1.89 13.334c.61.162 1.24.242 1.89.24v-6.534c-.61-.397-1.2-.671-1.76-.822-.91-.242-1.67-.144-2.28.295-.59.443-.89 1.236-.89 2.38 0 1.115.28 2.078.85 2.889.58.8 1.31 1.317 2.19 1.552Zm10.58-9.718c0 .454-.16.792-.49 1.013-.32.207-.74.244-1.23.112a2.56 2.56 0 0 1-1.28-.781c-.32-.394-.49-.819-.49-1.274 0-.469.17-.807.49-1.014.34-.217.77-.258 1.28-.121.49.132.91.395 1.23.79.33.381.49.805.49 1.275Zm-3.08 2.346v11.594l2.68.714v-11.594l-2.68-.714Zm9.34 2.272c1.36.363 2.47.995 3.32 1.896.86.906 1.3 2.121 1.3 3.646v7.502l-2.53-.674v-.77c-.94.41-1.92.479-2.94.207-1.13-.302-2.02-.854-2.65-1.654-.63-.797-.94-1.753-.94-2.868 0-1.129.4-1.911 1.19-2.344.8-.449 1.84-.501 3.13-.157l2.06.55v-.33c0-.689-.21-1.259-.64-1.71-.42-.451-1.03-.78-1.81-.988-1.09-.291-2.2-.272-3.33.056v-2.53c.48-.135 1.06-.186 1.74-.151.68.02 1.38.126 2.1.319Zm-1.82 7.939c0 .484.16.901.48 1.252.35.355.78.602 1.3.742.72.192 1.38.185 1.98-.023v-2.596l-1.62-.431c-.66-.178-1.19-.178-1.57-.001-.38.162-.57.514-.57 1.057Z"/><circle cx="27.473" cy="27.473" r="27.473" fill="#FE638C" transform="matrix(.96623 .25766 0 1 1703.7 104.844)"/><circle cx="20.979" cy="20.979" r="20.979" fill="#FEFDFF" transform="matrix(.96623 .25766 0 1 1709.98 110.854)"/><g stroke="#000" stroke-linecap="round" stroke-linejoin="round" stroke-width="2" clip-path="url(#d)"><path d="M1738.13 136.593c0 6-7.88 10.646-7.88 10.646s-7.89-7.355-7.89-13.355c0-2.122.83-4.014 2.31-5.26 1.48-1.246 3.49-1.745 5.58-1.385 2.09.359 4.09 1.546 5.57 3.301 1.48 1.754 2.31 3.932 2.31 6.053Z"/><path d="M1730.25 138.239c1.63.28 2.95-.836 2.95-2.492 0-1.657-1.32-3.228-2.95-3.508-1.64-.281-2.96.835-2.96 2.491 0 1.657 1.32 3.228 2.96 3.509Z"/></g></g><defs><clipPath id="a"><path fill="#fff" d="M0 .078h1920v580H0z"/></clipPath><clipPath id="b"><path fill="#fff" d="m1430.3 261.818 14.144-3.396v14.546l-14.144 3.396z"/></clipPath><clipPath id="c"><path fill="#fff" d="m339.201 296.979 23.428 5.206v24l-23.428-5.206z"/></clipPath><clipPath id="d"><path fill="#fff" d="m1718.42 123.207 23.653 4.064v24l-23.653-4.064z"/></clipPath></defs></svg>