<svg width="1920" height="580" viewBox="0 0 1920 580" fill="none" xmlns="http://www.w3.org/2000/svg">
<g clip-path="url(#clip0_246_8833)">
<path d="M1340.8 188.748V336.915" stroke="#5D37AD" stroke-width="2" stroke-dasharray="6"/>
<rect width="232.788" height="119.317" rx="11.7361" transform="matrix(0.976187 -0.21693 0 1 1225.86 97.5273)" fill="#FEB767"/>
<path d="M1266.8 169.892C1267.32 170.01 1267.95 170.073 1268.69 170.078C1269.43 170.084 1270.16 170.007 1270.87 169.848C1271.61 169.684 1272.2 169.415 1272.65 169.041C1273.11 168.652 1273.34 168.157 1273.34 167.556C1273.34 167.086 1273.17 166.744 1272.84 166.53C1272.52 166.313 1272.05 166.151 1271.42 166.041L1269.99 165.811C1268.87 165.643 1268.01 165.323 1267.43 164.853C1266.84 164.369 1266.55 163.605 1266.55 162.56C1266.55 161.723 1266.75 160.953 1267.16 160.248C1267.58 159.541 1268.16 158.948 1268.9 158.47C1269.64 157.98 1270.49 157.628 1271.44 157.415C1272.76 157.123 1273.99 157.105 1275.14 157.359V159.828C1274.6 159.712 1274.01 159.641 1273.36 159.616C1272.71 159.591 1272.06 159.65 1271.41 159.795C1270.77 159.936 1270.24 160.178 1269.82 160.52C1269.41 160.846 1269.21 161.263 1269.21 161.773C1269.21 162.152 1269.33 162.438 1269.57 162.633C1269.82 162.811 1270.21 162.948 1270.72 163.044L1272.21 163.3C1273.47 163.49 1274.41 163.848 1275.04 164.376C1275.66 164.903 1275.98 165.722 1275.98 166.832C1275.98 167.707 1275.76 168.52 1275.33 169.269C1274.89 170.006 1274.29 170.63 1273.51 171.143C1272.74 171.652 1271.86 172.018 1270.87 172.239C1269.35 172.576 1267.99 172.617 1266.8 172.36V169.892ZM1289.48 157.405C1290.46 157.187 1291.24 157.334 1291.81 157.847C1292.38 158.346 1292.67 159.184 1292.67 160.36V167.198L1290.26 167.734V161.091C1290.26 160.529 1290.11 160.144 1289.82 159.935C1289.54 159.71 1289.16 159.65 1288.69 159.755C1288.03 159.902 1287.34 160.349 1286.63 161.095C1286.65 161.351 1286.66 161.551 1286.66 161.694V168.533L1284.25 169.068V162.426C1284.25 161.864 1284.11 161.479 1283.81 161.27C1283.53 161.044 1283.16 160.984 1282.69 161.089C1281.98 161.245 1281.31 161.683 1280.66 162.402V169.868L1278.25 170.403V160.077L1280.49 159.579V160.657C1280.89 160.188 1281.35 159.785 1281.86 159.45C1282.37 159.101 1282.9 158.866 1283.45 158.744C1284.05 158.611 1284.58 158.617 1285.04 158.764C1285.51 158.907 1285.89 159.189 1286.17 159.61C1287.24 158.392 1288.34 157.657 1289.48 157.405ZM1298.46 155.388C1299.69 155.116 1300.68 155.196 1301.45 155.627C1302.23 156.055 1302.61 156.948 1302.61 158.307V164.988L1300.34 165.494V164.808C1299.5 165.583 1298.62 166.073 1297.7 166.277C1296.68 166.503 1295.88 166.4 1295.31 165.966C1294.75 165.528 1294.47 164.814 1294.47 163.821C1294.47 162.815 1294.82 161.945 1295.54 161.212C1296.25 160.465 1297.19 159.963 1298.35 159.705L1300.2 159.293V158.999C1300.2 158.385 1300.01 157.97 1299.63 157.755C1299.25 157.539 1298.71 157.51 1298 157.665C1297.02 157.884 1296.02 158.387 1295 159.175V156.922C1295.44 156.59 1295.96 156.291 1296.57 156.025C1297.18 155.745 1297.81 155.533 1298.46 155.388ZM1296.82 163.259C1296.82 163.69 1296.97 163.99 1297.26 164.16C1297.57 164.327 1297.95 164.359 1298.43 164.254C1299.08 164.109 1299.67 163.814 1300.2 163.369V161.056L1298.75 161.379C1298.15 161.513 1297.68 161.742 1297.34 162.066C1296.99 162.378 1296.82 162.775 1296.82 163.259ZM1304.96 150.163V164.467L1307.37 163.932V149.627L1304.96 150.163ZM1310 149.042V163.346L1312.41 162.811V148.507L1310 149.042ZM1320.04 161.117V146.812L1323.33 146.081L1325.74 150.875C1325.99 151.393 1326.33 152.194 1326.75 153.276C1327.17 152.007 1327.51 151.056 1327.77 150.425L1330.18 144.559L1333.47 143.828V158.133L1330.88 158.706V151.241C1330.9 150.454 1330.96 149.264 1331.08 147.671L1330.83 148.334C1330.42 149.483 1330.02 150.545 1329.62 151.521L1328 155.175L1325.51 155.727L1323.88 152.797C1323.49 151.996 1323.09 151.112 1322.68 150.145L1322.43 149.592C1322.54 151.148 1322.6 152.311 1322.6 153.081V160.547L1320.04 161.117ZM1344.72 149.635C1344.72 150.001 1344.63 150.303 1344.44 150.541C1344.25 150.78 1343.98 150.936 1343.65 151.009L1337.86 152.297C1337.92 153.276 1338.26 153.939 1338.87 154.286C1339.5 154.631 1340.29 154.697 1341.24 154.484C1342.19 154.275 1343.08 153.885 1343.94 153.317V155.472C1343.01 156.032 1342.03 156.425 1341.01 156.652C1340.01 156.875 1339.09 156.877 1338.26 156.656C1337.44 156.433 1336.79 155.965 1336.29 155.252C1335.8 154.537 1335.56 153.585 1335.56 152.396C1335.56 151.26 1335.79 150.248 1336.25 149.363C1336.71 148.464 1337.3 147.738 1338.03 147.184C1338.77 146.628 1339.55 146.258 1340.38 146.073C1341.17 145.898 1341.9 145.913 1342.56 146.118C1343.23 146.323 1343.75 146.73 1344.13 147.337C1344.53 147.928 1344.72 148.694 1344.72 149.635ZM1340.34 147.983C1339.74 148.116 1339.23 148.419 1338.81 148.891C1338.4 149.347 1338.12 149.939 1337.97 150.665L1342.52 149.653C1342.47 148.999 1342.24 148.527 1341.84 148.239C1341.43 147.938 1340.93 147.852 1340.34 147.983ZM1351.82 143.532C1352.38 143.407 1352.86 143.404 1353.27 143.523V145.815C1352.72 145.689 1352.17 145.688 1351.61 145.813C1350.73 146.008 1349.9 146.512 1349.12 147.325V154.654L1346.71 155.189V144.863L1348.95 144.366V145.483C1349.34 144.977 1349.78 144.559 1350.27 144.229C1350.77 143.883 1351.28 143.651 1351.82 143.532ZM1356.41 147.841C1356.41 148.873 1356.71 149.597 1357.31 150.012C1357.91 150.428 1358.65 150.544 1359.53 150.362C1360 150.257 1360.47 150.087 1360.94 149.851C1361.43 149.6 1361.84 149.333 1362.17 149.05V151.304C1361.79 151.585 1361.33 151.842 1360.81 152.076C1360.29 152.31 1359.76 152.485 1359.24 152.601C1358.34 152.802 1357.47 152.791 1356.66 152.567C1355.86 152.341 1355.2 151.879 1354.69 151.183C1354.18 150.486 1353.92 149.556 1353.92 148.394C1353.92 147.244 1354.18 146.214 1354.69 145.304C1355.2 144.381 1355.86 143.634 1356.66 143.064C1357.47 142.477 1358.34 142.084 1359.24 141.882C1359.78 141.763 1360.3 141.706 1360.81 141.71C1361.33 141.712 1361.79 141.768 1362.17 141.879V144.132C1361.84 143.997 1361.43 143.918 1360.94 143.895C1360.47 143.856 1360 143.889 1359.53 143.994C1358.64 144.205 1357.89 144.645 1357.29 145.314C1356.7 145.98 1356.41 146.822 1356.41 147.841ZM1369.32 139.642C1370.43 139.396 1371.31 139.54 1371.96 140.075C1372.62 140.593 1372.96 141.467 1372.96 142.695V149.357L1370.55 149.893V143.426C1370.55 142.812 1370.38 142.385 1370.05 142.146C1369.73 141.89 1369.31 141.82 1368.79 141.936C1368.03 142.103 1367.29 142.555 1366.57 143.292V150.777L1364.16 151.312V137.008L1366.57 136.473V141.215C1366.94 140.832 1367.36 140.503 1367.83 140.229C1368.31 139.951 1368.81 139.756 1369.32 139.642ZM1378.73 137.551C1379.96 137.279 1380.95 137.359 1381.72 137.789C1382.49 138.217 1382.88 139.111 1382.88 140.469V147.151L1380.61 147.657V146.971C1379.76 147.746 1378.88 148.236 1377.97 148.44C1376.95 148.666 1376.15 148.563 1375.58 148.128C1375.01 147.691 1374.73 146.976 1374.73 145.984C1374.73 144.978 1375.09 144.108 1375.8 143.375C1376.52 142.628 1377.46 142.126 1378.62 141.868L1380.47 141.456V141.162C1380.47 140.548 1380.28 140.133 1379.9 139.918C1379.52 139.702 1378.97 139.672 1378.27 139.828C1377.29 140.046 1376.29 140.55 1375.27 141.338V139.085C1375.7 138.753 1376.23 138.454 1376.84 138.188C1377.45 137.908 1378.08 137.696 1378.73 137.551ZM1377.09 145.422C1377.09 145.853 1377.23 146.153 1377.53 146.323C1377.83 146.49 1378.22 146.521 1378.69 146.417C1379.34 146.272 1379.94 145.977 1380.47 145.531V143.219L1379.02 143.542C1378.42 143.675 1377.95 143.904 1377.6 144.229C1377.26 144.541 1377.09 144.938 1377.09 145.422ZM1390.58 134.937C1391.63 134.705 1392.46 134.859 1393.09 135.399C1393.71 135.926 1394.03 136.804 1394.03 138.032V144.675L1391.62 145.21V138.764C1391.62 138.15 1391.46 137.721 1391.14 137.479C1390.83 137.22 1390.43 137.146 1389.93 137.256C1389.17 137.426 1388.4 137.93 1387.64 138.766V146.094L1385.23 146.63V136.303L1387.47 135.806V136.884C1387.89 136.398 1388.36 135.985 1388.9 135.644C1389.44 135.303 1390 135.067 1390.58 134.937ZM1402.56 134.51L1399.76 135.131V139.971C1399.76 140.937 1400.26 141.31 1401.26 141.089C1401.63 141.007 1402.06 140.845 1402.56 140.604V142.759C1402.03 143.019 1401.56 143.197 1401.12 143.294C1399.83 143.58 1398.88 143.484 1398.27 143.006C1397.66 142.515 1397.35 141.747 1397.35 140.702V135.666L1395.5 136.079V134.021L1397.35 133.609V131.022L1399.76 130.487V133.073L1402.56 132.453V134.51ZM1404.58 139.782C1405.03 139.853 1405.55 139.893 1406.15 139.904C1406.76 139.898 1407.33 139.836 1407.87 139.717C1408.42 139.595 1408.82 139.408 1409.08 139.155C1409.33 138.89 1409.46 138.587 1409.46 138.247C1409.46 137.934 1409.35 137.723 1409.13 137.614C1408.92 137.493 1408.59 137.421 1408.16 137.4L1406.78 137.353C1405.95 137.329 1405.29 137.161 1404.81 136.851C1404.33 136.54 1404.08 135.934 1404.08 135.033C1404.08 134.001 1404.47 133.137 1405.25 132.442C1406.04 131.744 1407.01 131.267 1408.16 131.012C1408.71 130.89 1409.25 130.822 1409.78 130.808C1410.33 130.777 1410.8 130.796 1411.2 130.865V133.001C1410.77 132.928 1410.25 132.897 1409.67 132.91C1409.08 132.91 1408.53 132.966 1408.02 133.08C1407.54 133.187 1407.16 133.349 1406.89 133.566C1406.63 133.782 1406.49 134.034 1406.49 134.321C1406.49 134.569 1406.58 134.752 1406.76 134.869C1406.95 134.97 1407.25 135.029 1407.64 135.046L1409 135.097C1409.88 135.123 1410.57 135.308 1411.08 135.652C1411.61 135.98 1411.87 136.608 1411.87 137.536C1411.87 138.267 1411.68 138.93 1411.29 139.525C1410.92 140.116 1410.43 140.606 1409.8 140.993C1409.18 141.38 1408.5 141.655 1407.76 141.82C1407.16 141.953 1406.58 142.036 1406.01 142.069C1405.45 142.103 1404.98 142.078 1404.58 141.996V139.782Z" fill="#642BA3"/>
<path d="M1250.51 132.765C1252 132.433 1253.35 132.48 1254.54 132.907C1255.76 133.331 1256.71 134.072 1257.4 135.131C1258.1 136.172 1258.45 137.436 1258.45 138.923C1258.45 140.409 1258.11 141.828 1257.42 143.18C1256.73 144.531 1255.78 145.688 1254.56 146.65C1253.35 147.598 1252 148.237 1250.51 148.569L1245.43 149.696V133.892L1250.51 132.765ZM1250.51 145.95C1251.45 145.74 1252.3 145.335 1253.04 144.736C1253.79 144.138 1254.37 143.396 1254.78 142.511C1255.2 141.623 1255.41 140.653 1255.41 139.599C1255.41 138.546 1255.2 137.669 1254.78 136.969C1254.37 136.251 1253.79 135.759 1253.04 135.492C1252.3 135.225 1251.45 135.196 1250.51 135.406L1248.27 135.904V146.447L1250.51 145.95ZM1263.89 131.068C1263.89 131.515 1263.73 131.926 1263.41 132.302C1263.08 132.662 1262.67 132.897 1262.18 133.007C1261.67 133.12 1261.25 133.069 1260.91 132.856C1260.59 132.625 1260.43 132.285 1260.43 131.838C1260.43 131.376 1260.59 130.965 1260.91 130.604C1261.25 130.226 1261.67 129.98 1262.18 129.868C1262.67 129.758 1263.08 129.819 1263.41 130.05C1263.73 130.267 1263.89 130.606 1263.89 131.068ZM1260.83 134.866V146.276L1263.49 145.684V134.275L1260.83 134.866ZM1271.77 132.219C1273.15 131.912 1274.53 131.886 1275.91 132.142V143.314C1275.91 144.584 1275.54 145.639 1274.81 146.48C1274.08 147.322 1273.04 147.891 1271.71 148.188L1268.3 148.945V146.606L1271.71 145.85C1272.23 145.734 1272.63 145.501 1272.91 145.15C1273.19 144.813 1273.33 144.392 1273.33 143.887V142.566C1272.66 143.019 1271.95 143.327 1271.22 143.49C1270.18 143.722 1269.23 143.708 1268.39 143.448C1267.54 143.174 1266.87 142.674 1266.38 141.946C1265.9 141.215 1265.66 140.302 1265.66 139.205C1265.66 137.963 1265.94 136.863 1266.48 135.904C1267.03 134.93 1267.77 134.14 1268.68 133.532C1269.61 132.907 1270.64 132.469 1271.77 132.219ZM1268.41 138.594C1268.41 139.619 1268.7 140.334 1269.27 140.74C1269.87 141.128 1270.61 141.223 1271.49 141.026C1272.07 140.898 1272.66 140.645 1273.25 140.268V134.509C1272.73 134.481 1272.23 134.518 1271.77 134.622C1270.78 134.841 1269.97 135.295 1269.34 135.984C1268.72 136.656 1268.41 137.526 1268.41 138.594ZM1281.95 127.055C1281.95 127.502 1281.79 127.913 1281.47 128.288C1281.14 128.649 1280.73 128.884 1280.24 128.994C1279.73 129.107 1279.31 129.056 1278.97 128.843C1278.65 128.612 1278.49 128.272 1278.49 127.825C1278.49 127.363 1278.65 126.952 1278.97 126.591C1279.31 126.213 1279.73 125.967 1280.24 125.855C1280.73 125.745 1281.14 125.806 1281.47 126.037C1281.79 126.254 1281.95 126.593 1281.95 127.055ZM1278.89 130.853V142.263L1281.55 141.671V130.261L1278.89 130.853ZM1291.22 130.385L1288.14 131.071V136.418C1288.14 137.486 1288.69 137.898 1289.79 137.654C1290.19 137.563 1290.67 137.385 1291.22 137.118V139.5C1290.64 139.787 1290.12 139.984 1289.64 140.09C1288.21 140.406 1287.16 140.3 1286.49 139.772C1285.81 139.23 1285.47 138.381 1285.47 137.227V131.663L1283.42 132.118V129.845L1285.47 129.389V126.532L1288.14 125.94V128.798L1291.22 128.112V130.385ZM1296.52 123.817C1296.52 124.264 1296.36 124.675 1296.04 125.051C1295.71 125.411 1295.3 125.646 1294.81 125.756C1294.3 125.869 1293.88 125.818 1293.54 125.605C1293.22 125.374 1293.06 125.034 1293.06 124.587C1293.06 124.125 1293.22 123.714 1293.54 123.353C1293.88 122.975 1294.3 122.729 1294.81 122.617C1295.3 122.507 1295.71 122.568 1296.04 122.799C1296.36 123.016 1296.52 123.355 1296.52 123.817ZM1293.46 127.615V139.025L1296.12 138.433V127.023L1293.46 127.615ZM1302.43 129.994C1303.1 129.053 1303.74 128.225 1304.36 127.51C1303.54 127.749 1302.9 127.921 1302.43 128.024L1298.69 128.855V126.452L1307.61 124.47V126.678L1303.21 132.873C1302.61 133.7 1302.08 134.381 1301.63 134.914C1302.33 134.685 1302.96 134.51 1303.51 134.387L1307.8 133.434V135.837L1298.48 137.908V135.722L1302.43 129.994ZM1319.56 126.6C1319.56 127.004 1319.45 127.338 1319.24 127.601C1319.03 127.864 1318.74 128.037 1318.38 128.118L1311.97 129.541C1312.04 130.623 1312.42 131.355 1313.09 131.739C1313.78 132.119 1314.66 132.192 1315.71 131.957C1316.75 131.726 1317.75 131.296 1318.69 130.667V133.049C1317.66 133.667 1316.59 134.101 1315.46 134.352C1314.35 134.599 1313.33 134.601 1312.42 134.357C1311.51 134.11 1310.79 133.593 1310.24 132.806C1309.7 132.015 1309.44 130.964 1309.44 129.65C1309.44 128.395 1309.69 127.277 1310.2 126.299C1310.7 125.306 1311.36 124.503 1312.16 123.892C1312.98 123.277 1313.85 122.868 1314.76 122.665C1315.63 122.471 1316.44 122.487 1317.17 122.714C1317.9 122.941 1318.48 123.39 1318.9 124.061C1319.34 124.714 1319.56 125.56 1319.56 126.6ZM1314.72 124.774C1314.06 124.921 1313.49 125.256 1313.03 125.778C1312.58 126.282 1312.27 126.935 1312.1 127.738L1317.13 126.62C1317.07 125.897 1316.82 125.376 1316.37 125.057C1315.92 124.724 1315.37 124.63 1314.72 124.774ZM1321.75 129.922C1322.25 130 1322.82 130.045 1323.49 130.057C1324.16 130.051 1324.8 129.982 1325.39 129.85C1325.99 129.716 1326.44 129.509 1326.72 129.23C1327 128.936 1327.14 128.602 1327.14 128.227C1327.14 127.88 1327.02 127.647 1326.78 127.527C1326.54 127.393 1326.18 127.314 1325.71 127.29L1324.18 127.239C1323.27 127.211 1322.54 127.026 1322.01 126.683C1321.47 126.34 1321.2 125.671 1321.2 124.675C1321.2 123.535 1321.63 122.581 1322.49 121.812C1323.37 121.041 1324.44 120.514 1325.71 120.233C1326.31 120.098 1326.91 120.023 1327.5 120.007C1328.11 119.973 1328.63 119.994 1329.07 120.07V122.43C1328.59 122.349 1328.02 122.315 1327.38 122.33C1326.73 122.329 1326.12 122.392 1325.56 122.517C1325.02 122.636 1324.61 122.815 1324.31 123.054C1324.01 123.293 1323.87 123.571 1323.87 123.889C1323.87 124.163 1323.97 124.365 1324.16 124.494C1324.37 124.606 1324.7 124.671 1325.13 124.689L1326.64 124.746C1327.61 124.775 1328.38 124.979 1328.94 125.359C1329.52 125.722 1329.81 126.415 1329.81 127.44C1329.81 128.248 1329.59 128.981 1329.17 129.638C1328.76 130.291 1328.21 130.832 1327.52 131.26C1326.83 131.687 1326.08 131.992 1325.26 132.174C1324.6 132.321 1323.96 132.413 1323.34 132.449C1322.72 132.486 1322.19 132.459 1321.75 132.369V129.922ZM1349.04 124.054V126.673L1337.73 129.186V126.913C1339.78 124.64 1341.33 122.844 1342.4 121.523C1343.47 120.188 1344.22 119.127 1344.64 118.341C1345.08 117.551 1345.3 116.867 1345.3 116.29C1345.3 115.539 1345.03 115.05 1344.5 114.823C1343.97 114.578 1343.28 114.551 1342.42 114.742C1341.06 115.046 1339.59 115.739 1338.03 116.823V114.095C1338.75 113.604 1339.48 113.195 1340.23 112.871C1340.99 112.528 1341.84 112.252 1342.78 112.043C1344.5 111.661 1345.85 111.759 1346.82 112.336C1347.79 112.9 1348.28 113.889 1348.28 115.303C1348.28 116.616 1347.74 118.078 1346.67 119.687C1345.62 121.278 1343.9 123.291 1341.52 125.726L1349.04 124.054ZM1352.5 122.528C1353.1 122.667 1353.82 122.738 1354.65 122.741C1355.5 122.741 1356.31 122.655 1357.08 122.483C1358.17 122.242 1359.03 121.849 1359.66 121.304C1360.31 120.741 1360.63 120.027 1360.63 119.161C1360.63 118.194 1360.13 117.576 1359.13 117.308C1358.15 117.036 1356.77 117.096 1355.01 117.487C1354.32 117.641 1353.67 117.815 1353.05 118.011L1354.02 109.763L1362.96 107.776V110.417L1356.49 111.854L1356.11 114.905C1358.32 114.356 1360.11 114.348 1361.48 114.881C1362.86 115.411 1363.55 116.571 1363.55 118.361C1363.55 119.472 1363.27 120.493 1362.72 121.424C1362.18 122.34 1361.42 123.113 1360.46 123.745C1359.51 124.362 1358.41 124.806 1357.19 125.079C1356.33 125.27 1355.48 125.378 1354.65 125.404C1353.82 125.43 1353.1 125.381 1352.5 125.255V122.528ZM1384.25 107.244C1385.33 107.003 1386.19 107.166 1386.83 107.732C1387.46 108.284 1387.78 109.21 1387.78 110.509V118.064L1385.12 118.656V111.317C1385.12 110.696 1384.95 110.27 1384.63 110.039C1384.32 109.791 1383.9 109.724 1383.38 109.84C1382.65 110.003 1381.89 110.497 1381.1 111.322C1381.13 111.604 1381.14 111.825 1381.14 111.983V119.539L1378.48 120.131V112.792C1378.48 112.171 1378.32 111.745 1377.99 111.514C1377.68 111.265 1377.27 111.199 1376.75 111.315C1375.97 111.487 1375.23 111.971 1374.51 112.765V121.014L1371.84 121.605V110.196L1374.32 109.647V110.837C1374.77 110.319 1375.27 109.874 1375.84 109.503C1376.4 109.118 1376.99 108.859 1377.59 108.724C1378.25 108.577 1378.84 108.584 1379.35 108.745C1379.87 108.904 1380.28 109.216 1380.59 109.681C1381.78 108.335 1383 107.523 1384.25 107.244ZM1393.52 102.261C1393.52 102.708 1393.36 103.119 1393.04 103.495C1392.71 103.855 1392.31 104.09 1391.81 104.2C1391.31 104.313 1390.88 104.262 1390.54 104.049C1390.22 103.818 1390.06 103.478 1390.06 103.031C1390.06 102.569 1390.22 102.158 1390.54 101.797C1390.88 101.419 1391.31 101.173 1391.81 101.061C1392.31 100.951 1392.71 101.012 1393.04 101.243C1393.36 101.46 1393.52 101.799 1393.52 102.261ZM1390.46 106.059V117.469L1393.12 116.877V105.467L1390.46 106.059ZM1396.03 100.426V116.23L1398.7 115.638V99.8343L1396.03 100.426ZM1401.6 99.1877V114.992L1404.27 114.4V98.596L1401.6 99.1877ZM1410.24 98.5458C1410.24 98.9932 1410.08 99.4044 1409.76 99.7795C1409.43 100.14 1409.02 100.375 1408.53 100.485C1408.02 100.598 1407.6 100.547 1407.26 100.334C1406.94 100.103 1406.78 99.7634 1406.78 99.316C1406.78 98.8541 1406.94 98.4428 1407.26 98.0822C1407.6 97.7039 1408.02 97.4585 1408.53 97.3457C1409.02 97.2362 1409.43 97.2969 1409.76 97.528C1410.08 97.7446 1410.24 98.0839 1410.24 98.5458ZM1407.18 102.344V113.754L1409.84 113.162V101.753L1407.18 102.344ZM1417.69 111.633C1418.75 111.398 1419.71 110.94 1420.57 110.258C1421.44 109.559 1422.13 108.707 1422.62 107.702C1423.13 106.68 1423.38 105.585 1423.38 104.416C1423.38 103.247 1423.13 102.278 1422.62 101.511C1422.13 100.725 1421.44 100.184 1420.57 99.8879C1419.71 99.5881 1418.75 99.5557 1417.69 99.7905C1416.64 100.025 1415.67 100.485 1414.8 101.17C1413.94 101.852 1413.26 102.696 1412.75 103.704C1412.26 104.694 1412.01 105.773 1412.01 106.943C1412.01 108.112 1412.26 109.096 1412.75 109.896C1413.26 110.678 1413.94 111.226 1414.8 111.54C1415.67 111.837 1416.64 111.868 1417.69 111.633ZM1417.69 102.194C1418.54 102.006 1419.24 102.167 1419.81 102.677C1420.37 103.172 1420.65 103.954 1420.65 105.022C1420.65 106.104 1420.37 107.033 1419.81 107.807C1419.24 108.568 1418.54 109.042 1417.69 109.23C1416.85 109.418 1416.15 109.257 1415.58 108.747C1415.03 108.219 1414.76 107.414 1414.76 106.332C1414.76 105.264 1415.03 104.359 1415.58 103.616C1416.15 102.856 1416.85 102.381 1417.69 102.194ZM1431.5 96.7434C1432.66 96.4866 1433.58 96.6568 1434.27 97.2539C1434.96 97.8366 1435.31 98.8063 1435.31 100.163V107.502L1432.65 108.094V100.971C1432.65 100.293 1432.47 99.8196 1432.12 99.5515C1431.78 99.2658 1431.34 99.184 1430.79 99.3062C1429.94 99.494 1429.1 100.05 1428.25 100.974V109.071L1425.59 109.663V98.2532L1428.06 97.7037V98.8945C1428.52 98.3582 1429.05 97.9016 1429.64 97.5247C1430.24 97.1478 1430.86 96.8874 1431.5 96.7434Z" fill="black"/>
<circle r="29.3428" transform="matrix(0.976187 -0.21693 0 1 1333.77 74.8212)" fill="#FEB767"/>
<circle r="24.2395" transform="matrix(0.976187 -0.21693 0 1 1333.77 74.821)" fill="white"/>
<g clip-path="url(#clip1_246_8833)">
<path d="M1333.47 67.6055L1326.71 69.4092V76.4092L1333.47 74.6055V67.6055Z" stroke="black" stroke-width="2" stroke-linecap="round" stroke-linejoin="round"/>
<path d="M1344.1 64.7716L1337.34 66.5752V73.5752L1344.1 71.7716V64.7716Z" stroke="black" stroke-width="2" stroke-linecap="round" stroke-linejoin="round"/>
<path d="M1344.1 75.7716L1337.34 77.5752V84.5752L1344.1 82.7716V75.7716Z" stroke="black" stroke-width="2" stroke-linecap="round" stroke-linejoin="round"/>
<path d="M1333.47 78.6055L1326.71 80.4092V87.4092L1333.47 85.6055V78.6055Z" stroke="black" stroke-width="2" stroke-linecap="round" stroke-linejoin="round"/>
</g>
<path d="M656.764 337.718V485.885" stroke="#5D37AD" stroke-width="2" stroke-dasharray="6"/>
<rect width="205.816" height="119.978" rx="9.15998" transform="matrix(0.976187 -0.21693 0 1 554.993 243.57)" fill="#00BCD5"/>
<path d="M611.901 273.666V288.868L616.506 287.845V290.865L603.664 293.719V290.699L608.635 289.594V277.887L603.64 280.569V277.499L609.269 274.251L611.901 273.666ZM626.46 288.653V270.431L630.651 269.499L633.722 275.607C634.047 276.267 634.477 277.286 635.013 278.665C635.549 277.048 635.98 275.837 636.305 275.033L639.375 267.561L643.566 266.629V284.852L640.277 285.583V276.072C640.293 275.07 640.374 273.554 640.52 271.525L640.204 272.369C639.684 273.833 639.172 275.186 638.668 276.43L636.597 281.084L633.429 281.788L631.358 278.054C630.854 277.034 630.343 275.908 629.823 274.676L629.506 273.972C629.652 275.954 629.725 277.435 629.725 278.417V287.928L626.46 288.653ZM650.621 266.534C650.621 267.05 650.435 267.524 650.061 267.957C649.687 268.373 649.216 268.644 648.648 268.77C648.063 268.9 647.575 268.842 647.186 268.596C646.812 268.329 646.625 267.938 646.625 267.422C646.625 266.89 646.812 266.416 647.186 266C647.575 265.564 648.063 265.281 648.648 265.151C649.216 265.024 649.687 265.094 650.061 265.361C650.435 265.611 650.621 266.002 650.621 266.534ZM647.088 270.914V284.069L650.158 283.387V270.232L647.088 270.914ZM653.513 264.419V282.642L656.584 281.959V263.737L653.513 264.419ZM659.938 262.991V281.214L663.009 280.531V262.309L659.938 262.991ZM669.897 262.251C669.897 262.767 669.71 263.241 669.337 263.673C668.963 264.089 668.492 264.36 667.923 264.487C667.338 264.617 666.851 264.559 666.461 264.312C666.087 264.046 665.901 263.655 665.901 263.139C665.901 262.606 666.087 262.132 666.461 261.716C666.851 261.28 667.338 260.997 667.923 260.867C668.492 260.741 668.963 260.811 669.337 261.077C669.71 261.327 669.897 261.718 669.897 262.251ZM666.364 266.631V279.786L669.434 279.104V265.948L666.364 266.631ZM678.491 277.341C679.709 277.07 680.814 276.541 681.805 275.755C682.812 274.949 683.6 273.967 684.169 272.809C684.754 271.63 685.046 270.367 685.046 269.019C685.046 267.671 684.754 266.555 684.169 265.669C683.6 264.764 682.812 264.14 681.805 263.798C680.814 263.453 679.709 263.415 678.491 263.686C677.273 263.957 676.16 264.487 675.153 265.277C674.162 266.063 673.374 267.037 672.789 268.198C672.22 269.34 671.936 270.585 671.936 271.933C671.936 273.281 672.22 274.416 672.789 275.338C673.374 276.239 674.162 276.871 675.153 277.234C676.16 277.576 677.273 277.611 678.491 277.341ZM678.491 266.457C679.466 266.24 680.278 266.426 680.928 267.014C681.578 267.585 681.903 268.486 681.903 269.718C681.903 270.966 681.578 272.037 680.928 272.93C680.278 273.806 679.466 274.353 678.491 274.57C677.516 274.786 676.704 274.601 676.054 274.013C675.421 273.405 675.104 272.477 675.104 271.229C675.104 269.997 675.421 268.953 676.054 268.097C676.704 267.22 677.516 266.673 678.491 266.457ZM694.414 260.173C695.746 259.877 696.81 260.073 697.606 260.761C698.402 261.433 698.8 262.551 698.8 264.116V272.578L695.73 273.26V265.047C695.73 264.265 695.527 263.72 695.12 263.41C694.73 263.081 694.219 262.987 693.585 263.128C692.61 263.344 691.636 263.985 690.661 265.05V274.386L687.591 275.069V261.914L690.442 261.28V262.653C690.978 262.034 691.587 261.508 692.269 261.074C692.952 260.639 693.666 260.339 694.414 260.173ZM707.303 260.304L710.593 259.573V262.169L707.303 262.9V266.245L704.769 266.808V263.463L701.479 264.194V261.598L704.769 260.867V257.497L707.303 256.934V260.304Z" fill="white"/>
<path d="M596.885 308.696L599.467 308.122V316.842C599.454 317.851 599.684 318.616 600.156 319.138C600.64 319.658 601.342 319.815 602.26 319.611C603.204 319.402 603.911 318.937 604.383 318.218C604.855 317.487 605.091 316.611 605.091 315.592V306.873L607.673 306.299V315.156C607.673 316.253 607.463 317.279 607.042 318.235C606.621 319.178 606.003 319.981 605.187 320.646C604.37 321.298 603.395 321.75 602.26 322.002C601.138 322.251 600.169 322.225 599.352 321.923C598.549 321.618 597.937 321.088 597.516 320.332C597.095 319.577 596.885 318.65 596.885 317.553V308.696ZM615.272 304.61C616.279 304.386 617.178 304.363 617.969 304.54C618.759 304.717 619.378 305.108 619.824 305.715C620.283 306.318 620.513 307.123 620.513 308.129C620.513 309.121 620.283 310.021 619.824 310.829C619.378 311.634 618.753 312.308 617.95 312.852C617.159 313.381 616.266 313.755 615.272 313.976L612.919 314.499V319.437L610.356 320.007V305.703L615.272 304.61ZM615.138 311.635C615.954 311.454 616.611 311.118 617.108 310.629C617.618 310.137 617.873 309.499 617.873 308.715C617.873 307.931 617.618 307.413 617.108 307.161C616.611 306.893 615.954 306.849 615.138 307.03L612.919 307.524V312.128L615.138 311.635ZM622.536 302.996V317.3L625.1 316.73V302.426L622.536 302.996ZM632.866 315.004V300.7L636.156 299.969L638.567 304.763C638.822 305.281 639.16 306.082 639.58 307.164C640.001 305.894 640.339 304.944 640.594 304.313L643.004 298.447L646.294 297.716V312.02L643.712 312.594V305.129C643.725 304.342 643.789 303.152 643.903 301.559L643.655 302.222C643.247 303.371 642.845 304.433 642.45 305.409L640.824 309.062L638.337 309.615L636.711 306.684C636.316 305.884 635.914 305 635.506 304.033L635.257 303.48C635.372 305.036 635.43 306.198 635.43 306.969V314.435L632.866 315.004ZM652.425 300.136C653.649 299.864 654.644 299.943 655.409 300.374C656.187 300.802 656.576 301.695 656.576 303.054V309.736L654.3 310.241V309.556C653.458 310.33 652.578 310.82 651.66 311.024C650.64 311.251 649.843 311.147 649.269 310.713C648.708 310.276 648.427 309.561 648.427 308.568C648.427 307.562 648.785 306.692 649.499 305.959C650.213 305.212 651.15 304.71 652.311 304.452L654.166 304.04V303.746C654.166 303.132 653.975 302.717 653.592 302.502C653.21 302.287 652.668 302.257 651.966 302.413C650.984 302.631 649.983 303.134 648.963 303.923V301.669C649.397 301.338 649.919 301.039 650.532 300.772C651.144 300.492 651.775 300.28 652.425 300.136ZM650.78 308.006C650.78 308.437 650.927 308.738 651.22 308.908C651.526 309.075 651.915 309.106 652.387 309.001C653.037 308.856 653.63 308.561 654.166 308.116V305.804L652.712 306.127C652.113 306.26 651.641 306.489 651.297 306.813C650.952 307.125 650.78 307.523 650.78 308.006ZM664.278 297.521C665.323 297.289 666.159 297.443 666.783 297.983C667.408 298.511 667.721 299.388 667.721 300.616V307.259L665.311 307.795V301.348C665.311 300.734 665.151 300.306 664.832 300.063C664.526 299.804 664.125 299.73 663.627 299.841C662.862 300.011 662.097 300.514 661.332 301.35V308.679L658.922 309.214V298.888L661.16 298.391V299.468C661.581 298.983 662.059 298.57 662.594 298.228C663.13 297.887 663.691 297.652 664.278 297.521ZM676.385 291.029L678.795 290.494V304.23C677.507 305.026 676.219 305.566 674.931 305.853C673.936 306.074 673.024 306.08 672.195 305.873C671.367 305.652 670.703 305.192 670.206 304.492C669.709 303.793 669.46 302.849 669.46 301.66C669.46 300.615 669.683 299.645 670.13 298.749C670.576 297.839 671.182 297.078 671.947 296.464C672.725 295.847 673.592 295.432 674.548 295.219C675.186 295.078 675.798 295.066 676.385 295.184V291.029ZM674.682 303.733C675.23 303.611 675.798 303.407 676.385 303.119V297.3C675.836 297.213 675.307 297.226 674.797 297.339C673.981 297.52 673.299 297.94 672.75 298.597C672.215 299.252 671.947 300.089 671.947 301.108C671.947 302.1 672.202 302.834 672.712 303.309C673.235 303.767 673.892 303.909 674.682 303.733ZM684.798 292.942C686.022 292.67 687.016 292.749 687.782 293.18C688.559 293.608 688.948 294.501 688.948 295.86V302.542L686.672 303.048V302.362C685.83 303.137 684.951 303.626 684.032 303.83C683.012 304.057 682.215 303.953 681.641 303.519C681.08 303.082 680.8 302.367 680.8 301.374C680.8 300.368 681.157 299.499 681.871 298.765C682.585 298.019 683.522 297.516 684.683 297.259L686.538 296.846V296.552C686.538 295.938 686.347 295.524 685.964 295.308C685.582 295.093 685.04 295.063 684.338 295.219C683.357 295.437 682.355 295.94 681.335 296.729V294.475C681.769 294.144 682.292 293.845 682.904 293.578C683.516 293.298 684.147 293.086 684.798 292.942ZM683.152 300.812C683.152 301.243 683.299 301.544 683.592 301.714C683.898 301.881 684.287 301.912 684.759 301.807C685.41 301.663 686.003 301.368 686.538 300.922V298.61L685.084 298.933C684.485 299.066 684.013 299.295 683.669 299.62C683.325 299.931 683.152 300.329 683.152 300.812ZM697.415 292.391L694.622 293.012V297.852C694.622 298.818 695.12 299.191 696.114 298.97C696.484 298.888 696.918 298.726 697.415 298.485V300.641C696.892 300.901 696.414 301.079 695.98 301.175C694.692 301.461 693.742 301.365 693.13 300.887C692.518 300.396 692.212 299.628 692.212 298.583V293.547L690.357 293.96V291.902L692.212 291.49V288.903L694.622 288.368V290.954L697.415 290.334V292.391ZM707.931 292.327C707.931 292.693 707.836 292.995 707.644 293.234C707.453 293.472 707.192 293.628 706.86 293.702L701.064 294.99C701.128 295.968 701.466 296.631 702.078 296.979C702.703 297.323 703.494 297.389 704.45 297.177C705.394 296.967 706.293 296.578 707.147 296.009V298.164C706.216 298.724 705.241 299.117 704.22 299.344C703.213 299.568 702.295 299.569 701.466 299.349C700.65 299.125 699.993 298.657 699.496 297.944C699.011 297.229 698.769 296.277 698.769 295.088C698.769 293.952 698.998 292.941 699.457 292.055C699.917 291.156 700.51 290.43 701.236 289.876C701.976 289.32 702.76 288.95 703.589 288.766C704.38 288.59 705.107 288.605 705.77 288.81C706.433 289.016 706.956 289.422 707.338 290.029C707.734 290.621 707.931 291.387 707.931 292.327ZM703.551 290.675C702.952 290.808 702.441 291.111 702.021 291.583C701.613 292.04 701.332 292.631 701.179 293.358L705.732 292.346C705.681 291.691 705.451 291.219 705.043 290.931C704.635 290.63 704.138 290.545 703.551 290.675ZM709.918 295.335C710.364 295.405 710.887 295.446 711.486 295.456C712.098 295.451 712.672 295.389 713.208 295.27C713.756 295.148 714.158 294.961 714.413 294.708C714.668 294.442 714.795 294.14 714.795 293.8C714.795 293.486 714.687 293.275 714.47 293.167C714.253 293.045 713.928 292.974 713.495 292.952L712.118 292.906C711.289 292.881 710.632 292.713 710.147 292.403C709.663 292.093 709.42 291.487 709.42 290.586C709.42 289.554 709.809 288.69 710.587 287.994C711.378 287.296 712.347 286.82 713.495 286.565C714.043 286.443 714.585 286.375 715.121 286.36C715.669 286.33 716.141 286.349 716.536 286.418V288.554C716.103 288.48 715.592 288.45 715.006 288.463C714.419 288.462 713.871 288.519 713.361 288.632C712.876 288.74 712.5 288.902 712.232 289.118C711.964 289.334 711.831 289.586 711.831 289.874C711.831 290.122 711.92 290.304 712.098 290.422C712.29 290.523 712.583 290.582 712.978 290.598L714.336 290.649C715.216 290.676 715.911 290.861 716.421 291.205C716.944 291.533 717.206 292.161 717.206 293.088C717.206 293.82 717.014 294.483 716.632 295.077C716.262 295.669 715.765 296.158 715.14 296.545C714.515 296.932 713.833 297.208 713.093 297.372C712.494 297.505 711.913 297.589 711.352 297.622C710.791 297.655 710.313 297.631 709.918 297.549V295.335Z" fill="black"/>
<circle r="29.3428" transform="matrix(0.976187 -0.21693 0 1 649.738 223.791)" fill="#00BCD5"/>
<circle r="24.2395" transform="matrix(0.976187 -0.21693 0 1 649.738 223.791)" fill="white"/>
<path d="M650.184 235.699C650.184 235.699 659.221 228.614 659.221 221.599V213.416L650.184 212.319L641.148 218.236V226.419C641.148 233.433 650.184 235.699 650.184 235.699Z" stroke="black" stroke-width="2" stroke-linecap="round" stroke-linejoin="round"/>
<path d="M654.087 220.16L649.263 226.44L647.07 224.755" stroke="black" stroke-width="1.64643" stroke-linecap="round" stroke-linejoin="round"/>
<path d="M473.273 132.956V317.078" stroke="#5D37AD" stroke-width="2.61657" stroke-dasharray="7.85"/>
<rect width="213.904" height="104.704" rx="10.2988" transform="matrix(0.976187 -0.21693 0 1 369.052 70.0615)" fill="#5F259F"/>
<path d="M437.336 102.681V105.67L424.435 108.537V105.943C426.766 103.35 428.542 101.3 429.764 99.7936C430.986 98.2705 431.838 97.0601 432.32 96.1625C432.818 95.2612 433.068 94.4813 433.068 93.8225C433.068 92.9662 432.762 92.4083 432.151 92.1488C431.556 91.8693 430.769 91.8385 429.788 92.0564C428.229 92.4029 426.557 93.1944 424.772 94.4308V91.3183C425.592 90.7573 426.428 90.2916 427.28 89.9211C428.148 89.5306 429.121 89.2156 430.198 88.9763C432.159 88.5404 433.695 88.6522 434.804 89.3114C435.913 89.9542 436.468 91.0825 436.468 92.6964C436.468 94.195 435.857 95.8623 434.635 97.6983C433.429 99.5143 431.468 101.811 428.751 104.589L437.336 102.681ZM456.422 92.0417C457.483 92.0529 458.311 92.3877 458.905 93.046C459.516 93.6842 459.822 94.4974 459.822 95.4855C459.822 96.5889 459.532 97.5919 458.954 98.4945C458.391 99.3935 457.611 100.16 456.614 100.793C455.634 101.406 454.525 101.85 453.287 102.125L447.017 103.518V85.4857L453.142 84.1246C454.926 83.7281 456.381 83.8247 457.507 84.4145C458.632 84.9879 459.195 86.0403 459.195 87.5719C459.195 88.4447 458.962 89.2787 458.495 90.074C458.045 90.8492 457.354 91.5051 456.422 92.0417ZM450.248 87.6826V92.129L453.287 91.4538C454.074 91.2787 454.701 90.9583 455.168 90.4924C455.634 90.0265 455.867 89.4147 455.867 88.6572C455.867 87.8997 455.618 87.3951 455.119 87.1436C454.621 86.892 453.962 86.8573 453.142 87.0395L450.248 87.6826ZM453.456 99.1728C454.356 98.9728 455.087 98.6126 455.65 98.0923C456.213 97.5556 456.494 96.8755 456.494 96.0521C456.494 95.2287 456.213 94.6819 455.65 94.4117C455.103 94.1379 454.372 94.1028 453.456 94.3065L450.248 95.0192V99.8855L453.456 99.1728ZM466.123 82.6975C466.123 83.208 465.938 83.6773 465.568 84.1053C465.198 84.5168 464.732 84.7851 464.169 84.9101C463.591 85.0387 463.108 84.9812 462.723 84.7376C462.353 84.4739 462.168 84.0868 462.168 83.5763C462.168 83.0494 462.353 82.5801 462.723 82.1686C463.108 81.737 463.591 81.4569 464.169 81.3283C464.732 81.2033 465.198 81.2726 465.568 81.5362C465.938 81.7834 466.123 82.1705 466.123 82.6975ZM462.626 87.0317V100.05L465.664 99.3746V86.3565L462.626 87.0317ZM468.984 80.6041V98.6369L472.023 97.9617V79.9289L468.984 80.6041ZM475.343 79.1912V97.2239L478.381 96.5487V78.516L475.343 79.1912ZM485.197 78.4587C485.197 78.9692 485.012 79.4385 484.643 79.8665C484.273 80.278 483.807 80.5463 483.244 80.6713C482.665 80.7999 482.183 80.7424 481.797 80.4988C481.427 80.2351 481.243 79.848 481.243 79.3375C481.243 78.8105 481.427 78.3413 481.797 77.9297C482.183 77.4982 482.665 77.2181 483.244 77.0895C483.807 76.9644 484.273 77.0338 484.643 77.2974C485.012 77.5446 485.197 77.9317 485.197 78.4587ZM481.701 82.7928V95.811L484.739 95.1358V82.1177L481.701 82.7928ZM493.702 93.3912C494.907 93.1232 496.001 92.6003 496.981 91.8225C497.978 91.0246 498.758 90.0526 499.32 88.9066C499.899 87.7405 500.188 86.4904 500.188 85.1565C500.188 83.8226 499.899 82.7176 499.32 81.8417C498.758 80.9457 497.978 80.3285 496.981 79.99C496.001 79.648 494.907 79.611 493.702 79.879C492.496 80.1469 491.395 80.6716 490.398 81.453C489.417 82.2308 488.638 83.1946 488.059 84.3442C487.496 85.4738 487.215 86.7056 487.215 88.0395C487.215 89.3734 487.496 90.4966 488.059 91.4091C488.638 92.3015 489.417 92.9269 490.398 93.2854C491.395 93.6238 492.496 93.6591 493.702 93.3912ZM493.702 82.6209C494.666 82.4066 495.47 82.5902 496.113 83.1719C496.756 83.7372 497.078 84.6291 497.078 85.8478C497.078 87.0829 496.756 88.1424 496.113 89.0264C495.47 89.8939 494.666 90.4348 493.702 90.6492C492.737 90.8635 491.933 90.6799 491.29 90.0982C490.663 89.4964 490.35 88.578 490.35 87.3429C490.35 86.1242 490.663 85.0911 491.29 84.2437C491.933 83.3762 492.737 82.8353 493.702 82.6209ZM509.458 76.4022C510.777 76.1092 511.83 76.3034 512.617 76.9847C513.405 77.6495 513.799 78.7559 513.799 80.304V88.6781L510.761 89.3533V81.2262C510.761 80.4522 510.56 79.9122 510.158 79.6063C509.772 79.2803 509.265 79.187 508.638 79.3263C507.674 79.5407 506.709 80.175 505.745 81.2292V90.4679L502.706 91.1431V78.1249L505.528 77.498V78.8566C506.058 78.2446 506.661 77.7237 507.336 77.2937C508.012 76.8637 508.719 76.5665 509.458 76.4022ZM522.213 76.532L525.469 75.8086V78.3777L522.213 79.1011V82.4112L519.705 82.9685V79.6584L516.45 80.3818V77.8128L519.705 77.0893V73.7545L522.213 73.1972V76.532ZM416.123 123.351V126.365L411.107 127.479V142.498L407.9 143.211V128.192L402.884 129.307V126.293L416.123 123.351ZM424.475 126.263C425.182 126.106 425.793 126.102 426.307 126.251V129.141C425.616 128.982 424.917 128.981 424.209 129.138C423.1 129.384 422.055 130.02 421.074 131.045V140.283L418.036 140.959V127.941L420.857 127.314V128.722C421.356 128.084 421.91 127.557 422.521 127.141C423.148 126.706 423.799 126.413 424.475 126.263ZM432.336 124.516C433.879 124.173 435.133 124.273 436.097 124.816C437.078 125.356 437.568 126.482 437.568 128.195V136.618L434.699 137.256V136.391C433.638 137.368 432.529 137.985 431.371 138.242C430.085 138.528 429.08 138.397 428.357 137.85C427.649 137.299 427.296 136.398 427.296 135.146C427.296 133.878 427.746 132.782 428.646 131.857C429.546 130.916 430.728 130.283 432.191 129.958L434.53 129.438V129.067C434.53 128.293 434.289 127.771 433.807 127.499C433.324 127.227 432.641 127.19 431.757 127.386C430.519 127.662 429.257 128.296 427.971 129.29V126.449C428.518 126.031 429.177 125.654 429.948 125.318C430.72 124.965 431.516 124.698 432.336 124.516ZM430.262 134.438C430.262 134.981 430.447 135.36 430.816 135.574C431.202 135.785 431.693 135.824 432.287 135.692C433.107 135.51 433.855 135.138 434.53 134.576V131.661L432.697 132.069C431.942 132.236 431.347 132.525 430.913 132.934C430.479 133.327 430.262 133.828 430.262 134.438ZM447.277 121.22C448.596 120.927 449.649 121.121 450.436 121.803C451.224 122.468 451.618 123.574 451.618 125.122V133.496L448.579 134.171V126.044C448.579 125.27 448.379 124.73 447.977 124.424C447.591 124.098 447.084 124.005 446.457 124.144C445.493 124.359 444.528 124.993 443.564 126.047V135.286L440.525 135.961V122.943L443.347 122.316V123.675C443.877 123.063 444.48 122.542 445.155 122.112C445.83 121.682 446.538 121.385 447.277 121.22ZM454.655 129.61C455.217 129.699 455.877 129.75 456.632 129.763C457.404 129.757 458.127 129.678 458.802 129.528C459.494 129.374 460 129.138 460.322 128.82C460.643 128.485 460.804 128.103 460.804 127.675C460.804 127.28 460.667 127.014 460.394 126.877C460.121 126.724 459.711 126.634 459.164 126.607L457.428 126.548C456.383 126.517 455.555 126.306 454.944 125.914C454.333 125.523 454.028 124.759 454.028 123.623C454.028 122.322 454.518 121.233 455.499 120.357C456.495 119.476 457.717 118.875 459.164 118.554C459.855 118.4 460.539 118.314 461.214 118.296C461.905 118.258 462.5 118.282 462.998 118.369V121.061C462.452 120.969 461.809 120.931 461.069 120.947C460.33 120.946 459.638 121.018 458.995 121.161C458.384 121.296 457.91 121.5 457.573 121.773C457.235 122.046 457.066 122.363 457.066 122.726C457.066 123.038 457.179 123.269 457.404 123.416C457.645 123.544 458.015 123.618 458.513 123.639L460.225 123.703C461.334 123.737 462.21 123.97 462.854 124.404C463.513 124.817 463.842 125.609 463.842 126.778C463.842 127.7 463.601 128.536 463.119 129.285C462.653 130.031 462.026 130.648 461.238 131.136C460.45 131.624 459.59 131.971 458.658 132.179C457.902 132.347 457.171 132.452 456.463 132.493C455.756 132.535 455.153 132.505 454.655 132.401V129.61ZM470.791 115.97C472.334 115.627 473.588 115.727 474.553 116.271C475.533 116.81 476.024 117.936 476.024 119.649V128.073L473.154 128.71V127.846C472.093 128.822 470.984 129.44 469.826 129.697C468.54 129.983 467.536 129.852 466.812 129.304C466.105 128.753 465.751 127.852 465.751 126.601C465.751 125.333 466.201 124.236 467.102 123.312C468.002 122.37 469.183 121.737 470.646 121.412L472.985 120.892V120.522C472.985 119.748 472.744 119.225 472.262 118.953C471.78 118.682 471.096 118.644 470.212 118.841C468.974 119.116 467.712 119.75 466.426 120.744V117.904C466.973 117.486 467.632 117.109 468.404 116.772C469.175 116.42 469.971 116.152 470.791 115.97ZM468.717 125.892C468.717 126.436 468.902 126.814 469.272 127.029C469.658 127.239 470.148 127.279 470.743 127.146C471.563 126.964 472.31 126.592 472.985 126.03V123.116L471.153 123.523C470.397 123.691 469.802 123.979 469.368 124.389C468.934 124.782 468.717 125.283 468.717 125.892ZM481.272 120.36C481.272 121.661 481.649 122.574 482.405 123.097C483.161 123.621 484.093 123.768 485.202 123.538C485.797 123.406 486.392 123.191 486.987 122.894C487.598 122.577 488.112 122.241 488.53 121.884V124.725C488.048 125.079 487.477 125.404 486.818 125.699C486.159 125.993 485.5 126.214 484.841 126.36C483.699 126.614 482.614 126.6 481.585 126.318C480.572 126.032 479.744 125.451 479.101 124.573C478.458 123.694 478.137 122.523 478.137 121.057C478.137 119.608 478.458 118.309 479.101 117.162C479.744 115.998 480.572 115.056 481.585 114.337C482.614 113.598 483.699 113.102 484.841 112.848C485.516 112.698 486.175 112.626 486.818 112.631C487.477 112.633 488.048 112.704 488.53 112.843V115.684C488.112 115.514 487.598 115.414 486.987 115.385C486.392 115.336 485.797 115.377 485.202 115.51C484.077 115.776 483.136 116.331 482.381 117.174C481.641 118.014 481.272 119.076 481.272 120.36ZM498.754 112.597L495.234 113.379V119.481C495.234 120.699 495.861 121.169 497.115 120.891C497.581 120.787 498.127 120.583 498.754 120.279V122.997C498.095 123.324 497.492 123.549 496.946 123.67C495.322 124.031 494.124 123.91 493.353 123.308C492.581 122.689 492.195 121.72 492.195 120.403V114.054L489.856 114.574V111.98L492.195 111.461V108.2L495.234 107.525V110.786L498.754 110.003V112.597ZM504.802 105.102C504.802 105.613 504.617 106.082 504.247 106.51C503.877 106.921 503.411 107.19 502.849 107.315C502.27 107.443 501.788 107.386 501.402 107.142C501.032 106.879 500.847 106.491 500.847 105.981C500.847 105.454 501.032 104.985 501.402 104.573C501.788 104.142 502.27 103.862 502.849 103.733C503.411 103.608 503.877 103.677 504.247 103.941C504.617 104.188 504.802 104.575 504.802 105.102ZM501.305 109.436V122.454L504.344 121.779V108.761L501.305 109.436ZM513.306 120.035C514.512 119.767 515.605 119.244 516.586 118.466C517.582 117.668 518.362 116.696 518.925 115.55C519.503 114.384 519.793 113.134 519.793 111.8C519.793 110.466 519.503 109.361 518.925 108.485C518.362 107.589 517.582 106.972 516.586 106.633C515.605 106.291 514.512 106.254 513.306 106.522C512.1 106.79 510.999 107.315 510.003 108.096C509.022 108.874 508.242 109.838 507.663 110.988C507.101 112.117 506.819 113.349 506.819 114.683C506.819 116.017 507.101 117.14 507.663 118.053C508.242 118.945 509.022 119.57 510.003 119.929C510.999 120.267 512.1 120.303 513.306 120.035ZM513.306 109.264C514.271 109.05 515.075 109.234 515.718 109.815C516.361 110.381 516.682 111.273 516.682 112.491C516.682 113.726 516.361 114.786 515.718 115.67C515.075 116.537 514.271 117.078 513.306 117.293C512.342 117.507 511.538 117.323 510.895 116.742C510.268 116.14 509.954 115.221 509.954 113.986C509.954 112.768 510.268 111.735 510.895 110.887C511.538 110.02 512.342 109.479 513.306 109.264ZM529.063 103.046C530.381 102.753 531.434 102.947 532.222 103.628C533.01 104.293 533.403 105.399 533.403 106.947V115.322L530.365 115.997V107.87C530.365 107.096 530.164 106.556 529.762 106.25C529.376 105.924 528.87 105.83 528.243 105.97C527.278 106.184 526.314 106.818 525.349 107.873V117.111L522.311 117.787V104.768L525.132 104.141V105.5C525.663 104.888 526.266 104.367 526.941 103.937C527.616 103.507 528.323 103.21 529.063 103.046ZM536.44 111.435C537.003 111.524 537.662 111.576 538.418 111.589C539.189 111.582 539.913 111.504 540.588 111.354C541.279 111.2 541.786 110.964 542.107 110.645C542.429 110.31 542.589 109.929 542.589 109.501C542.589 109.105 542.453 108.839 542.179 108.703C541.906 108.549 541.496 108.459 540.95 108.432L539.213 108.374C538.168 108.342 537.341 108.131 536.73 107.74C536.119 107.349 535.813 106.585 535.813 105.448C535.813 104.147 536.304 103.059 537.284 102.182C538.281 101.302 539.503 100.701 540.95 100.379C541.641 100.226 542.324 100.14 542.999 100.122C543.691 100.083 544.285 100.107 544.784 100.194V102.887C544.237 102.794 543.594 102.756 542.855 102.772C542.115 102.772 541.424 102.843 540.781 102.986C540.17 103.122 539.696 103.326 539.358 103.599C539.021 103.871 538.852 104.189 538.852 104.551C538.852 104.864 538.964 105.094 539.189 105.242C539.43 105.369 539.8 105.444 540.299 105.465L542.011 105.529C543.12 105.562 543.996 105.796 544.639 106.229C545.298 106.643 545.628 107.434 545.628 108.603C545.628 109.525 545.387 110.361 544.904 111.111C544.438 111.857 543.811 112.473 543.023 112.961C542.236 113.449 541.376 113.797 540.443 114.004C539.688 114.172 538.956 114.277 538.249 114.319C537.542 114.361 536.939 114.33 536.44 114.227V111.435Z" fill="white"/>
<circle r="25.7491" transform="matrix(0.976187 -0.21693 0 1 468.443 49.093)" fill="#5F259F"/>
<circle r="21.2708" transform="matrix(0.976187 -0.21693 0 1 468.444 49.093)" fill="white"/>
<path d="M467.922 58.1567V46.6699" stroke="black" stroke-width="2.63258" stroke-linecap="round" stroke-linejoin="round"/>
<path d="M474.814 56.6201V38.2412" stroke="black" stroke-width="2.63258" stroke-linecap="round" stroke-linejoin="round"/>
<path d="M461.03 59.5752V54.9805" stroke="black" stroke-width="2.63258" stroke-linecap="round" stroke-linejoin="round"/>
<path d="M355.119 395.993L355.119 489.956" stroke="#5D37AD" stroke-width="2" stroke-dasharray="6"/>
<rect width="168.945" height="119.219" rx="9.15998" transform="matrix(0.966235 0.257663 0 1 273.499 289.65)" fill="#FE638C"/>
<path d="M295.593 339.173L298.835 340.038L302.705 347.131C303.611 348.787 304.35 350.239 304.922 351.489C304.782 350.037 304.713 348.763 304.713 347.666V341.605L308.164 342.525V358.328L304.922 357.463L301.303 350.827C300.146 348.656 299.309 347.07 298.793 346.066C298.961 347.626 299.044 348.991 299.044 350.159V355.896L295.593 354.976V339.173ZM316.054 360.648C317.141 360.938 318.125 360.948 319.003 360.677C319.895 360.41 320.593 359.889 321.095 359.114C321.611 358.342 321.869 357.372 321.869 356.203C321.869 355.034 321.611 353.933 321.095 352.901C320.593 351.872 319.895 350.993 319.003 350.265C318.125 349.54 317.141 349.032 316.054 348.742C314.966 348.452 313.983 348.435 313.105 348.692C312.226 348.948 311.529 349.455 311.013 350.212C310.511 350.973 310.26 351.938 310.26 353.107C310.26 354.276 310.511 355.382 311.013 356.425C311.529 357.472 312.226 358.365 313.105 359.104C313.983 359.844 314.966 360.358 316.054 360.648ZM316.054 351.686C316.765 351.876 317.351 352.299 317.811 352.956C318.285 353.616 318.522 354.401 318.522 355.31C318.522 356.248 318.285 356.928 317.811 357.35C317.351 357.776 316.765 357.894 316.054 357.704C315.343 357.515 314.757 357.084 314.297 356.413C313.837 355.742 313.607 354.938 313.607 353.999C313.607 353.076 313.837 352.416 314.297 352.019C314.757 351.608 315.343 351.497 316.054 351.686ZM324.815 362.985C324.201 362.821 323.692 362.49 323.288 361.993C322.897 361.485 322.702 360.928 322.702 360.321C322.702 359.701 322.897 359.248 323.288 358.962C323.692 358.681 324.201 358.621 324.815 358.785C325.428 358.949 325.93 359.277 326.321 359.771C326.725 360.269 326.927 360.828 326.927 361.448C326.927 362.054 326.725 362.506 326.321 362.802C325.93 363.087 325.428 363.148 324.815 362.985ZM336.789 350.159V362.714L340.365 363.668V366.915L329.3 363.964V360.717L333.337 361.794V352.897L329.3 353.032V349.764L333.944 349.4L336.789 350.159ZM354.784 354.957C355.885 355.251 356.875 355.717 357.754 356.355C358.632 356.994 359.323 357.784 359.825 358.726C360.327 359.654 360.578 360.695 360.578 361.849C360.578 362.989 360.32 363.895 359.804 364.565C359.302 365.24 358.612 365.669 357.733 365.853C356.868 366.027 355.885 365.967 354.784 365.673L352.337 365.02V370.107L348.885 369.187V353.384L354.784 354.957ZM354.575 362.37C355.3 362.563 355.885 362.546 356.332 362.319C356.792 362.095 357.022 361.623 357.022 360.901C357.022 360.208 356.792 359.627 356.332 359.158C355.885 358.693 355.3 358.364 354.575 358.17L352.337 357.573V361.773L354.575 362.37ZM362.464 357.005V372.808L365.706 373.673V357.87L362.464 357.005ZM372.219 363.72C373.642 364.099 374.792 364.745 375.67 365.658C376.549 366.57 376.988 367.806 376.988 369.364V376.681L373.934 375.867V375.152C373.098 375.55 372.156 375.609 371.111 375.33C370.009 375.036 369.144 374.496 368.517 373.708C367.903 372.909 367.597 371.961 367.597 370.865C367.597 369.753 367.98 368.983 368.747 368.552C369.528 368.111 370.532 368.054 371.759 368.381L373.746 368.911V368.738C373.746 367.627 372.993 366.87 371.487 366.469C370.469 366.197 369.402 366.194 368.287 366.459V363.45C368.747 363.328 369.326 363.295 370.023 363.351C370.72 363.392 371.452 363.515 372.219 363.72ZM370.755 371.62C370.755 371.996 370.894 372.321 371.173 372.598C371.452 372.86 371.808 373.048 372.24 373.164C372.742 373.297 373.244 373.309 373.746 373.197V371.227L372.345 370.854C371.857 370.723 371.466 370.72 371.173 370.844C370.894 370.958 370.755 371.216 370.755 371.62ZM386.184 367.66L389.907 368.653L385.117 380.321C384.783 381.141 384.316 381.716 383.716 382.047C383.116 382.392 382.266 382.418 381.164 382.124L379.198 381.6V378.786L380.537 379.143C380.927 379.247 381.234 379.278 381.457 379.237C381.68 379.195 381.827 379.075 381.896 378.877L382.189 378.09L377.943 365.463L381.645 366.45L383.005 371.12C383.326 372.216 383.632 373.618 383.925 375.327C384.19 373.882 384.497 372.644 384.845 371.611L386.184 367.66ZM400.724 376.365C400.724 376.827 400.599 377.147 400.348 377.325C400.111 377.507 399.783 377.543 399.365 377.431L393.487 375.864C393.599 376.803 393.968 377.565 394.596 378.151C395.237 378.726 396.004 379.133 396.897 379.371C397.901 379.638 398.87 379.716 399.804 379.605V382.462C398.744 382.526 397.656 382.409 396.541 382.112C395.439 381.818 394.428 381.332 393.508 380.653C392.588 379.975 391.842 379.105 391.27 378.043C390.712 376.971 390.433 375.742 390.433 374.357C390.433 373.072 390.691 372.066 391.207 371.338C391.737 370.599 392.413 370.137 393.236 369.952C394.059 369.753 394.93 369.776 395.851 370.021C396.729 370.256 397.538 370.666 398.277 371.253C399.016 371.84 399.609 372.575 400.055 373.459C400.501 374.328 400.724 375.297 400.724 376.365ZM395.788 372.494C395.258 372.353 394.805 372.398 394.428 372.63C394.052 372.847 393.78 373.243 393.613 373.819L397.796 374.935C397.74 374.328 397.524 373.809 397.148 373.376C396.771 372.93 396.318 372.636 395.788 372.494ZM408.793 373.473C409.309 373.61 409.769 373.812 410.173 374.079V377.131C409.574 376.784 409.009 376.539 408.479 376.398C407.531 376.145 406.653 376.221 405.844 376.626V384.376L402.602 383.511V372.038L405.635 372.847V374.081C406.081 373.738 406.569 373.515 407.099 373.411C407.643 373.296 408.207 373.317 408.793 373.473Z" fill="white"/>
<path d="M322.882 384.359C323.751 384.591 324.54 384.597 325.247 384.378C325.966 384.15 326.528 383.718 326.934 383.082C327.352 382.437 327.56 381.629 327.56 380.657C327.56 379.685 327.352 378.777 326.934 377.934C326.528 377.082 325.966 376.356 325.247 375.756C324.54 375.159 323.751 374.745 322.882 374.513C322.012 374.281 321.218 374.273 320.499 374.49C319.792 374.709 319.229 375.135 318.812 375.768C318.406 376.392 318.203 377.19 318.203 378.162C318.203 379.134 318.406 380.052 318.812 380.916C319.229 381.771 319.792 382.503 320.499 383.112C321.218 383.711 322.012 384.127 322.882 384.359ZM322.882 376.511C323.577 376.697 324.157 377.115 324.621 377.767C325.085 378.407 325.317 379.17 325.317 380.058C325.317 380.958 325.085 381.617 324.621 382.033C324.157 382.437 323.577 382.547 322.882 382.361C322.186 382.176 321.606 381.757 321.143 381.105C320.69 380.445 320.464 379.664 320.464 378.764C320.464 377.876 320.69 377.235 321.143 376.839C321.606 376.435 322.186 376.326 322.882 376.511ZM334.246 377.562C335.197 377.815 335.956 378.33 336.525 379.105C337.093 379.869 337.377 380.814 337.377 381.942V388.044L335.185 387.46V381.538C335.185 380.974 335.04 380.509 334.751 380.144C334.472 379.77 334.107 379.523 333.655 379.402C332.959 379.216 332.264 379.337 331.568 379.763V386.495L329.376 385.911V376.425L331.411 376.968V377.958C331.794 377.7 332.229 377.534 332.716 377.46C333.203 377.385 333.713 377.419 334.246 377.562ZM350.888 384.807C351.653 385.192 352.25 385.729 352.679 386.419C353.12 387.101 353.34 387.801 353.34 388.521C353.34 389.325 353.131 389.954 352.714 390.406C352.308 390.862 351.746 391.144 351.027 391.253C350.32 391.352 349.52 391.283 348.627 391.045L344.105 389.839V376.699L348.523 377.877C349.81 378.22 350.859 378.806 351.671 379.634C352.482 380.451 352.888 381.417 352.888 382.533C352.888 383.169 352.72 383.694 352.384 384.108C352.059 384.514 351.56 384.747 350.888 384.807ZM346.435 379.444V382.684L348.627 383.269C349.195 383.42 349.647 383.409 349.984 383.234C350.32 383.06 350.488 382.697 350.488 382.145C350.488 381.593 350.308 381.137 349.949 380.777C349.589 380.417 349.114 380.158 348.523 380.001L346.435 379.444ZM348.749 388.953C349.398 389.126 349.926 389.123 350.331 388.943C350.737 388.751 350.94 388.355 350.94 387.755C350.94 387.155 350.737 386.657 350.331 386.261C349.937 385.868 349.41 385.583 348.749 385.407L346.435 384.79V388.336L348.749 388.953ZM362.268 387.842C363.033 388.226 363.63 388.763 364.059 389.454C364.5 390.135 364.72 390.836 364.72 391.556C364.72 392.36 364.511 392.988 364.094 393.441C363.688 393.897 363.126 394.179 362.407 394.287C361.699 394.387 360.899 394.317 360.007 394.079L355.485 392.873V379.733L359.902 380.911C361.189 381.254 362.239 381.84 363.05 382.669C363.862 383.485 364.268 384.451 364.268 385.567C364.268 386.203 364.1 386.729 363.763 387.143C363.439 387.548 362.94 387.781 362.268 387.842ZM357.815 382.479V385.719L360.007 386.303C360.575 386.455 361.027 386.443 361.363 386.269C361.699 386.095 361.868 385.731 361.868 385.179C361.868 384.627 361.688 384.171 361.328 383.812C360.969 383.452 360.494 383.193 359.902 383.035L357.815 382.479ZM360.128 391.988C360.778 392.161 361.305 392.157 361.711 391.978C362.117 391.786 362.32 391.39 362.32 390.79C362.32 390.19 362.117 389.692 361.711 389.296C361.317 388.902 360.789 388.618 360.128 388.442L357.815 387.825V391.371L360.128 391.988ZM371.282 383.946C372.198 384.19 373.015 384.57 373.734 385.086C374.453 385.601 375.015 386.237 375.421 386.994C375.839 387.753 376.047 388.595 376.047 389.519C376.047 390.431 375.839 391.155 375.421 391.692C375.015 392.231 374.447 392.572 373.717 392.713C372.998 392.845 372.186 392.791 371.282 392.55L369.143 391.979V396.515L366.812 395.894V382.754L371.282 383.946ZM371.16 390.339C371.902 390.537 372.499 390.523 372.952 390.295C373.415 390.071 373.647 389.599 373.647 388.879C373.647 388.159 373.415 387.569 372.952 387.109C372.499 386.641 371.902 386.307 371.16 386.109L369.143 385.571V389.801L371.16 390.339ZM377.679 395.984C378.154 396.326 378.728 396.665 379.4 397.001C380.073 397.336 380.734 397.59 381.383 397.764C382.056 397.943 382.595 397.961 383.001 397.817C383.418 397.664 383.627 397.312 383.627 396.76C383.627 396.328 383.476 395.94 383.175 395.595C382.885 395.254 382.456 394.894 381.888 394.514L380.583 393.662C379.563 393.006 378.786 392.331 378.253 391.637C377.719 390.93 377.452 390.097 377.452 389.137C377.452 388.369 377.638 387.753 378.009 387.288C378.392 386.826 378.919 386.54 379.592 386.432C380.264 386.311 381.035 386.367 381.905 386.599C383.099 386.917 384.218 387.449 385.262 388.196V390.464C384.775 390.118 384.235 389.788 383.644 389.474C383.053 389.161 382.461 388.925 381.87 388.767C381.29 388.613 380.809 388.598 380.427 388.724C380.056 388.841 379.87 389.134 379.87 389.602C379.87 389.95 379.98 390.267 380.2 390.554C380.432 390.832 380.78 391.129 381.244 391.444L382.601 392.346C383.748 393.084 384.606 393.835 385.175 394.599C385.743 395.362 386.027 396.254 386.027 397.274C386.027 398.078 385.83 398.727 385.436 399.222C385.041 399.705 384.491 400.008 383.783 400.132C383.088 400.258 382.288 400.201 381.383 399.96C380.003 399.592 378.769 399.022 377.679 398.252V395.984Z" fill="black"/>
<circle r="22.9019" transform="matrix(0.966235 0.257663 0 1 350.705 311.233)" fill="#FE638C"/>
<circle r="18.9187" transform="matrix(0.966235 0.257663 0 1 350.705 311.234)" fill="#FEFDFF"/>
<g clip-path="url(#clip2_246_8833)">
<path d="M353.356 302.047L345.059 300.203C344.541 300.088 344.044 300.189 343.678 300.482C343.312 300.776 343.106 301.239 343.106 301.77V317.77C343.106 318.3 343.312 318.854 343.678 319.311C344.044 319.767 344.541 320.088 345.059 320.203L356.773 322.807C357.291 322.922 357.787 322.821 358.153 322.528C358.52 322.234 358.725 321.771 358.725 321.24V308.74L353.356 302.047Z" stroke="black" stroke-width="2" stroke-linecap="round" stroke-linejoin="round"/>
<path d="M352.868 301.938V307.938L358.725 309.24" stroke="black" stroke-width="2" stroke-linecap="round" stroke-linejoin="round"/>
<path d="M354.82 313.372L347.011 311.637" stroke="black" stroke-width="2" stroke-linecap="round" stroke-linejoin="round"/>
<path d="M354.82 317.372L347.011 315.637" stroke="black" stroke-width="2" stroke-linecap="round" stroke-linejoin="round"/>
<path d="M348.963 308.071L347.011 307.637" stroke="black" stroke-width="2" stroke-linecap="round" stroke-linejoin="round"/>
</g>
<path d="M1725.38 297.332L1725.38 391.294" stroke="#5D37AD" stroke-width="2" stroke-dasharray="6"/>
<rect width="180.768" height="98.9741" rx="11.7361" transform="matrix(0.966235 0.257663 0 1 1638.04 181.384)" fill="#FE638C"/>
<path d="M1672.46 229.689C1672.46 230.171 1672.78 230.538 1673.42 230.79C1673.56 231.044 1673.62 231.297 1673.62 231.549C1673.62 231.986 1673.49 232.306 1673.23 232.51C1672.96 232.704 1672.62 232.744 1672.19 232.631C1671.77 232.519 1671.42 232.282 1671.15 231.921C1670.88 231.552 1670.75 231.12 1670.75 230.627C1670.75 229.972 1670.88 229.361 1671.16 228.792C1671.44 228.211 1671.81 227.627 1672.28 227.04L1673.52 227.373C1673.17 227.909 1672.9 228.361 1672.73 228.727C1672.55 229.093 1672.46 229.413 1672.46 229.689ZM1683.78 230.109V232.209L1677.93 230.648V233.627L1683.25 235.047V237.147L1677.93 235.728V239.034L1683.78 240.596V242.679L1675.7 240.523V227.952L1683.78 230.109ZM1690.88 235.496L1693.29 236.139L1690.49 239.785L1693.29 245.214L1690.86 244.566L1689.06 240.884L1687.23 243.599L1684.84 242.96L1687.63 239.125L1684.84 233.885L1687.27 234.533L1689.06 238.043L1690.88 235.496ZM1696.24 241.437C1696.24 242.344 1696.5 243.108 1697.02 243.729C1697.54 244.35 1698.18 244.769 1698.95 244.984C1699.36 245.094 1699.77 245.146 1700.18 245.14C1700.6 245.126 1700.96 245.066 1701.25 244.959V246.94C1700.91 247.023 1700.52 247.056 1700.07 247.038C1699.61 247.02 1699.16 246.95 1698.7 246.829C1697.91 246.619 1697.16 246.241 1696.45 245.696C1695.76 245.154 1695.18 244.468 1694.74 243.638C1694.3 242.808 1694.08 241.882 1694.08 240.86C1694.08 239.85 1694.3 239.054 1694.74 238.472C1695.18 237.878 1695.76 237.503 1696.45 237.345C1697.16 237.178 1697.91 237.2 1698.7 237.41C1699.17 237.534 1699.62 237.707 1700.07 237.929C1700.52 238.153 1700.91 238.396 1701.25 238.657V240.637C1700.96 240.377 1700.6 240.133 1700.18 239.905C1699.77 239.67 1699.36 239.497 1698.95 239.388C1698.17 239.192 1697.52 239.26 1697 239.592C1696.49 239.926 1696.24 240.541 1696.24 241.437ZM1710.36 244.498C1710.36 244.819 1710.28 245.044 1710.11 245.172C1709.95 245.3 1709.72 245.325 1709.43 245.248L1704.39 243.904C1704.45 244.791 1704.74 245.518 1705.27 246.085C1705.82 246.654 1706.5 247.05 1707.34 247.272C1708.16 247.491 1708.94 247.533 1709.68 247.398V249.293C1708.87 249.387 1708.02 249.315 1707.14 249.079C1706.26 248.845 1705.46 248.454 1704.74 247.906C1704.03 247.361 1703.46 246.669 1703.03 245.83C1702.61 244.995 1702.39 244.054 1702.39 243.01C1702.39 242.011 1702.59 241.22 1702.99 240.638C1703.39 240.044 1703.91 239.66 1704.54 239.484C1705.18 239.311 1705.87 239.321 1706.59 239.513C1707.28 239.696 1707.91 240.02 1708.48 240.484C1709.06 240.947 1709.52 241.528 1709.85 242.225C1710.19 242.914 1710.36 243.671 1710.36 244.498ZM1706.55 241.174C1706.03 241.035 1705.59 241.083 1705.22 241.319C1704.87 241.546 1704.62 241.945 1704.49 242.518L1708.45 243.574C1708.41 242.977 1708.21 242.465 1707.85 242.037C1707.5 241.598 1707.06 241.31 1706.55 241.174ZM1712.09 237.657V250.228L1714.19 250.787V238.216L1712.09 237.657ZM1716.48 238.827V251.398L1718.58 251.957V239.386L1716.48 238.827ZM1728.25 249.268C1728.25 249.59 1728.17 249.815 1728 249.942C1727.84 250.07 1727.61 250.096 1727.32 250.019L1722.28 248.674C1722.34 249.562 1722.63 250.289 1723.16 250.855C1723.71 251.425 1724.39 251.821 1725.23 252.043C1726.05 252.262 1726.83 252.304 1727.57 252.169V254.063C1726.76 254.157 1725.91 254.086 1725.03 253.849C1724.15 253.616 1723.35 253.225 1722.63 252.676C1721.92 252.131 1721.35 251.439 1720.92 250.601C1720.49 249.765 1720.28 248.825 1720.28 247.78C1720.28 246.782 1720.48 245.991 1720.88 245.409C1721.28 244.815 1721.8 244.43 1722.43 244.254C1723.07 244.081 1723.76 244.091 1724.48 244.283C1725.16 244.467 1725.8 244.79 1726.37 245.254C1726.95 245.718 1727.41 246.298 1727.74 246.996C1728.08 247.684 1728.25 248.442 1728.25 249.268ZM1724.44 245.945C1723.92 245.806 1723.48 245.854 1723.11 246.089C1722.76 246.316 1722.51 246.716 1722.38 247.289L1726.34 248.345C1726.3 247.748 1726.1 247.235 1725.74 246.808C1725.39 246.369 1724.95 246.081 1724.44 245.945ZM1734.64 247.011C1735.55 247.254 1736.28 247.746 1736.82 248.488C1737.36 249.218 1737.64 250.123 1737.64 251.202V257.04L1735.54 256.481V250.815C1735.54 250.276 1735.4 249.831 1735.12 249.482C1734.86 249.124 1734.51 248.887 1734.08 248.772C1733.41 248.594 1732.74 248.709 1732.08 249.117V255.558L1729.98 254.999V245.924L1731.93 246.443V247.39C1732.29 247.143 1732.71 246.984 1733.18 246.913C1733.64 246.842 1734.13 246.875 1734.64 247.011ZM1741.31 253.457C1741.31 254.363 1741.57 255.128 1742.09 255.749C1742.62 256.37 1743.26 256.788 1744.02 257.004C1744.43 257.113 1744.84 257.165 1745.26 257.16C1745.68 257.146 1746.03 257.086 1746.32 256.979V258.959C1745.99 259.043 1745.59 259.076 1745.14 259.058C1744.68 259.04 1744.23 258.97 1743.77 258.849C1742.99 258.639 1742.24 258.261 1741.53 257.716C1740.83 257.174 1740.26 256.488 1739.81 255.657C1739.37 254.827 1739.15 253.901 1739.15 252.88C1739.15 251.87 1739.37 251.073 1739.81 250.491C1740.26 249.898 1740.83 249.522 1741.53 249.364C1742.24 249.198 1742.99 249.219 1743.77 249.429C1744.24 249.554 1744.69 249.727 1745.14 249.948C1745.59 250.173 1745.99 250.416 1746.32 250.677V252.657C1746.03 252.396 1745.68 252.152 1745.26 251.925C1744.84 251.689 1744.43 251.517 1744.02 251.407C1743.25 251.212 1742.6 251.28 1742.08 251.611C1741.57 251.946 1741.31 252.561 1741.31 253.457ZM1755.44 256.518C1755.44 256.839 1755.35 257.064 1755.19 257.191C1755.02 257.319 1754.79 257.345 1754.51 257.268L1749.46 255.923C1749.52 256.811 1749.81 257.538 1750.35 258.104C1750.89 258.674 1751.58 259.07 1752.41 259.292C1753.23 259.511 1754.01 259.553 1754.76 259.418V261.312C1753.95 261.406 1753.1 261.335 1752.21 261.098C1751.33 260.865 1750.54 260.474 1749.81 259.926C1749.1 259.38 1748.53 258.688 1748.1 257.85C1747.68 257.014 1747.47 256.074 1747.47 255.029C1747.47 254.031 1747.67 253.24 1748.07 252.658C1748.47 252.064 1748.98 251.679 1749.61 251.503C1750.26 251.331 1750.94 251.34 1751.66 251.533C1752.35 251.716 1752.98 252.039 1753.56 252.503C1754.13 252.967 1754.59 253.548 1754.92 254.245C1755.27 254.933 1755.44 255.691 1755.44 256.518ZM1751.63 253.194C1751.11 253.055 1750.66 253.103 1750.3 253.338C1749.94 253.565 1749.7 253.965 1749.56 254.538L1753.52 255.594C1753.48 254.997 1753.28 254.484 1752.93 254.057C1752.57 253.618 1752.14 253.33 1751.63 253.194ZM1763.8 252.463C1763.8 252.819 1763.68 253.083 1763.42 253.256C1763.17 253.418 1762.84 253.447 1762.46 253.343C1762.06 253.237 1761.72 253.033 1761.46 252.733C1761.2 252.424 1761.07 252.091 1761.07 251.735C1761.07 251.368 1761.2 251.103 1761.46 250.942C1761.72 250.772 1762.06 250.74 1762.46 250.846C1762.84 250.95 1763.17 251.156 1763.42 251.465C1763.68 251.763 1763.8 252.096 1763.8 252.463ZM1761.39 254.299V263.374L1763.49 263.933V254.858L1761.39 254.299ZM1771.02 256.712C1771.93 256.955 1772.66 257.447 1773.2 258.189C1773.74 258.92 1774.02 259.824 1774.02 260.903V266.741L1771.92 266.182V260.517C1771.92 259.977 1771.78 259.533 1771.5 259.183C1771.24 258.825 1770.89 258.588 1770.46 258.473C1769.79 258.296 1769.12 258.411 1768.46 258.819V265.259L1766.36 264.7V255.625L1768.31 256.144V257.091C1768.68 256.845 1769.09 256.686 1769.56 256.615C1770.02 256.544 1770.51 256.576 1771.02 256.712ZM1657.3 244.047V256.618L1659.53 257.213V244.642L1657.3 244.047ZM1666.61 249.869C1667.52 250.111 1668.24 250.604 1668.79 251.346C1669.33 252.076 1669.6 252.981 1669.6 254.06V259.897L1667.51 259.338V253.673C1667.51 253.133 1667.37 252.689 1667.09 252.339C1666.82 251.981 1666.47 251.745 1666.04 251.629C1665.38 251.452 1664.71 251.567 1664.05 251.975V258.416L1661.95 257.856V248.782L1663.9 249.301V250.248C1664.26 250.001 1664.68 249.842 1665.14 249.771C1665.61 249.7 1666.1 249.733 1666.61 249.869ZM1671.7 258.218C1672.09 258.47 1672.54 258.729 1673.06 258.995C1673.6 259.252 1674.09 259.442 1674.56 259.566C1675.04 259.693 1675.39 259.701 1675.61 259.588C1675.83 259.463 1675.94 259.251 1675.94 258.953C1675.94 258.677 1675.85 258.446 1675.66 258.258C1675.47 258.058 1675.19 257.856 1674.81 257.653L1673.61 257.023C1672.89 256.647 1672.32 256.219 1671.9 255.74C1671.48 255.26 1671.27 254.624 1671.27 253.832C1671.27 252.925 1671.6 252.332 1672.28 252.053C1672.97 251.777 1673.81 251.773 1674.81 252.039C1675.29 252.166 1675.76 252.338 1676.22 252.554C1676.7 252.761 1677.11 252.98 1677.46 253.209V255.086C1677.08 254.836 1676.63 254.592 1676.12 254.352C1675.61 254.102 1675.14 253.917 1674.69 253.799C1674.27 253.686 1673.94 253.668 1673.71 253.743C1673.48 253.819 1673.36 253.983 1673.36 254.236C1673.36 254.454 1673.44 254.653 1673.6 254.832C1673.76 255.002 1674.02 255.179 1674.36 255.363L1675.54 255.988C1676.31 256.387 1676.91 256.847 1677.36 257.367C1677.81 257.879 1678.04 258.542 1678.04 259.357C1678.04 260 1677.87 260.501 1677.54 260.86C1677.22 261.222 1676.78 261.439 1676.24 261.513C1675.7 261.586 1675.1 261.537 1674.46 261.365C1673.94 261.226 1673.43 261.051 1672.95 260.841C1672.46 260.63 1672.04 260.404 1671.7 260.164V258.218ZM1685.03 254.936L1687.12 255.495V263.898C1686.59 264.009 1685.99 264.054 1685.31 264.035C1684.63 264.004 1684 263.908 1683.4 263.748C1682.27 263.447 1681.37 262.92 1680.7 262.169C1680.04 261.406 1679.7 260.473 1679.7 259.371V253.516L1681.8 254.075V259.775C1681.8 260.326 1681.97 260.784 1682.3 261.148C1682.63 261.501 1683.04 261.742 1683.53 261.872C1684.03 262.006 1684.53 262.053 1685.03 262.013V254.936ZM1693.87 257.121C1694.36 257.251 1694.78 257.455 1695.13 257.734V259.748C1694.66 259.403 1694.17 259.165 1693.68 259.035C1692.92 258.831 1692.2 258.92 1691.52 259.302V265.743L1689.43 265.184V256.109L1691.37 256.628V257.609C1691.72 257.334 1692.1 257.154 1692.52 257.072C1692.95 256.98 1693.4 256.997 1693.87 257.121ZM1699.29 258.567C1700.36 258.851 1701.22 259.346 1701.89 260.052C1702.56 260.76 1702.9 261.711 1702.9 262.905V268.777L1700.92 268.249V267.647C1700.19 267.968 1699.43 268.022 1698.63 267.809C1697.74 267.573 1697.05 267.141 1696.55 266.514C1696.06 265.89 1695.81 265.142 1695.81 264.27C1695.81 263.386 1696.13 262.774 1696.75 262.435C1697.37 262.084 1698.18 262.043 1699.19 262.312L1700.81 262.742V262.484C1700.81 261.945 1700.64 261.498 1700.31 261.146C1699.97 260.793 1699.5 260.535 1698.89 260.372C1698.04 260.145 1697.17 260.159 1696.28 260.416V258.436C1696.66 258.33 1697.11 258.29 1697.64 258.318C1698.18 258.333 1698.73 258.417 1699.29 258.567ZM1697.86 264.781C1697.86 265.16 1697.99 265.487 1698.24 265.761C1698.51 266.039 1698.85 266.233 1699.26 266.342C1699.82 266.493 1700.34 266.487 1700.81 266.324V264.292L1699.54 263.955C1699.02 263.816 1698.61 263.816 1698.31 263.954C1698.01 264.081 1697.86 264.356 1697.86 264.781ZM1709.6 261.334C1710.51 261.576 1711.24 262.069 1711.78 262.811C1712.32 263.541 1712.6 264.446 1712.6 265.525V271.362L1710.5 270.803V265.138C1710.5 264.598 1710.36 264.154 1710.08 263.804C1709.82 263.447 1709.47 263.21 1709.04 263.094C1708.37 262.917 1707.7 263.032 1707.04 263.44V269.881L1704.94 269.321V260.247L1706.89 260.766V261.713C1707.26 261.466 1707.67 261.307 1708.14 261.236C1708.6 261.165 1709.09 261.198 1709.6 261.334ZM1716.27 267.779C1716.27 268.686 1716.53 269.45 1717.05 270.072C1717.58 270.693 1718.22 271.111 1718.98 271.327C1719.4 271.436 1719.81 271.488 1720.22 271.483C1720.64 271.469 1720.99 271.409 1721.28 271.302V273.282C1720.95 273.366 1720.55 273.398 1720.1 273.38C1719.64 273.363 1719.19 273.293 1718.74 273.172C1717.95 272.962 1717.2 272.584 1716.49 272.039C1715.79 271.497 1715.22 270.81 1714.78 269.98C1714.33 269.15 1714.11 268.224 1714.11 267.203C1714.11 266.192 1714.33 265.396 1714.78 264.814C1715.22 264.221 1715.79 263.845 1716.49 263.687C1717.2 263.521 1717.95 263.542 1718.74 263.752C1719.2 263.877 1719.66 264.049 1720.1 264.271C1720.55 264.496 1720.95 264.738 1721.28 264.999V266.98C1720.99 266.719 1720.64 266.475 1720.22 266.248C1719.81 266.012 1719.4 265.84 1718.98 265.73C1718.21 265.535 1717.56 265.603 1717.04 265.934C1716.53 266.269 1716.27 266.884 1716.27 267.779ZM1730.4 270.84C1730.4 271.162 1730.32 271.386 1730.15 271.514C1729.98 271.642 1729.76 271.668 1729.47 271.591L1724.43 270.246C1724.48 271.134 1724.77 271.861 1725.31 272.427C1725.85 272.997 1726.54 273.393 1727.37 273.615C1728.19 273.834 1728.97 273.876 1729.72 273.741V275.635C1728.91 275.729 1728.06 275.658 1727.17 275.421C1726.29 275.187 1725.5 274.797 1724.77 274.248C1724.07 273.703 1723.49 273.011 1723.06 272.173C1722.64 271.337 1722.43 270.397 1722.43 269.352C1722.43 268.353 1722.63 267.563 1723.03 266.981C1723.43 266.387 1723.94 266.002 1724.58 265.826C1725.22 265.653 1725.9 265.663 1726.62 265.855C1727.31 266.039 1727.94 266.362 1728.52 266.826C1729.1 267.29 1729.55 267.87 1729.88 268.568C1730.23 269.256 1730.4 270.014 1730.4 270.84ZM1726.59 267.517C1726.07 267.378 1725.62 267.426 1725.26 267.661C1724.9 267.888 1724.66 268.288 1724.53 268.861L1728.49 269.917C1728.44 269.32 1728.24 268.807 1727.89 268.38C1727.53 267.941 1727.1 267.653 1726.59 267.517ZM1732.6 266.968C1732.6 266.703 1732.52 266.486 1732.35 266.316C1732.18 266.145 1731.95 266.001 1731.64 265.884C1731.49 265.616 1731.42 265.361 1731.42 265.12C1731.42 264.684 1731.55 264.363 1731.82 264.159C1732.08 263.954 1732.43 263.908 1732.85 264.021C1733.28 264.136 1733.63 264.378 1733.9 264.748C1734.16 265.106 1734.3 265.537 1734.3 266.043C1734.3 266.685 1734.16 267.297 1733.88 267.877C1733.6 268.446 1733.23 269.025 1732.77 269.612L1731.52 269.279C1731.87 268.766 1732.14 268.32 1732.32 267.943C1732.51 267.568 1732.6 267.243 1732.6 266.968Z" fill="black"/>
<path d="M1750.78 281.544L1748.3 280.883L1747.15 277.047L1743.01 275.942L1741.86 279.166L1739.46 278.527L1743.71 267.088L1746.54 267.842L1750.78 281.544ZM1743.67 274.053L1746.49 274.803L1746.09 273.474C1745.91 272.887 1745.67 272.013 1745.35 270.851L1745.07 269.828L1744.72 270.958L1744.07 272.937L1743.67 274.053ZM1758.06 280.077C1757.79 279.064 1757.53 277.782 1757.26 276.23C1757.05 277.437 1756.79 278.579 1756.48 279.655L1755.51 282.807L1753.35 282.231L1750.84 272.486L1752.99 273.058L1753.78 276.353C1753.91 276.88 1754.03 277.539 1754.17 278.332C1754.3 279.126 1754.41 279.844 1754.5 280.488C1754.6 279.929 1754.73 279.281 1754.9 278.545C1755.07 277.797 1755.22 277.19 1755.37 276.723L1756.25 273.928L1758.31 274.478L1759.19 277.761C1759.43 278.581 1759.71 279.984 1760.06 281.969C1760.15 281.373 1760.26 280.714 1760.39 279.992C1760.52 279.27 1760.65 278.684 1760.77 278.234L1761.57 275.347L1763.7 275.915L1761.17 284.316L1759.01 283.739L1758.06 280.077ZM1767.75 276.822C1768.81 277.106 1769.68 277.601 1770.34 278.306C1771.02 279.015 1771.36 279.966 1771.36 281.16V287.032L1769.38 286.504V285.901C1768.65 286.223 1767.88 286.277 1767.08 286.064C1766.19 285.827 1765.5 285.396 1765 284.769C1764.51 284.145 1764.27 283.397 1764.27 282.525C1764.27 281.641 1764.58 281.029 1765.2 280.689C1765.82 280.338 1766.64 280.298 1767.65 280.567L1769.26 280.997V280.739C1769.26 280.199 1769.1 279.753 1768.76 279.4C1768.43 279.048 1767.96 278.79 1767.35 278.627C1766.49 278.399 1765.62 278.414 1764.74 278.671V276.691C1765.11 276.585 1765.57 276.545 1766.1 276.572C1766.63 276.588 1767.18 276.671 1767.75 276.822ZM1766.32 283.036C1766.32 283.415 1766.44 283.741 1766.7 284.016C1766.97 284.294 1767.3 284.487 1767.71 284.597C1768.28 284.748 1768.8 284.742 1769.26 284.579V282.547L1768 282.21C1767.48 282.071 1767.07 282.07 1766.77 282.209C1766.47 282.335 1766.32 282.611 1766.32 283.036ZM1777.84 279.514C1778.33 279.644 1778.75 279.848 1779.11 280.126V282.141C1778.63 281.796 1778.15 281.558 1777.66 281.428C1776.89 281.224 1776.17 281.313 1775.49 281.695V288.135L1773.4 287.576V278.501L1775.34 279.02V280.002C1775.69 279.726 1776.07 279.547 1776.49 279.464C1776.93 279.373 1777.37 279.39 1777.84 279.514ZM1785.7 278.285L1787.79 278.844V290.915C1786.67 291.064 1785.55 290.989 1784.43 290.691C1783.57 290.46 1782.77 290.076 1782.05 289.54C1781.33 288.991 1780.75 288.304 1780.32 287.477C1779.89 286.65 1779.67 285.714 1779.67 284.669C1779.67 283.751 1779.87 282.993 1780.26 282.396C1780.64 281.788 1781.17 281.377 1781.84 281.165C1782.51 280.955 1783.27 280.961 1784.1 281.183C1784.65 281.33 1785.19 281.581 1785.7 281.936V278.285ZM1784.22 288.722C1784.69 288.849 1785.19 288.911 1785.7 288.91V283.795C1785.22 283.485 1784.76 283.27 1784.31 283.152C1783.61 282.962 1783.01 283.039 1782.53 283.383C1782.07 283.729 1781.84 284.35 1781.84 285.246C1781.84 286.118 1782.06 286.872 1782.5 287.507C1782.96 288.133 1783.53 288.538 1784.22 288.722Z" fill="white"/>
<circle r="27.4731" transform="matrix(0.966235 0.257663 0 1 1720.96 210.239)" fill="#FE638C"/>
<circle r="20.9794" transform="matrix(0.966235 0.257663 0 1 1720.96 208.082)" fill="#FEFDFF"/>
<path d="M1715.29 204.562L1713.84 204.206C1713.19 204.048 1712.57 203.634 1712.12 203.054C1711.66 202.474 1711.41 201.775 1711.41 201.112C1711.41 200.449 1711.66 199.876 1712.12 199.518C1712.57 199.161 1713.19 199.048 1713.84 199.206L1715.29 199.562" stroke="black" stroke-width="2" stroke-linecap="round" stroke-linejoin="round"/>
<path d="M1726.95 207.411L1728.41 207.767C1729.05 207.925 1729.67 207.812 1730.12 207.455C1730.58 207.097 1730.84 206.524 1730.84 205.861C1730.84 205.198 1730.58 204.499 1730.12 203.919C1729.67 203.339 1729.05 202.925 1728.41 202.767L1726.95 202.411" stroke="black" stroke-width="2" stroke-linecap="round" stroke-linejoin="round"/>
<path d="M1713.35 217.087L1728.89 220.886" stroke="black" stroke-width="2" stroke-linecap="round" stroke-linejoin="round"/>
<path d="M1719.18 211.172V213.512C1719.18 214.062 1718.72 214.381 1718.24 214.492C1717.09 214.752 1716.26 216.04 1716.26 217.8" stroke="black" stroke-width="2" stroke-linecap="round" stroke-linejoin="round"/>
<path d="M1723.06 212.122V214.462C1723.06 215.012 1723.52 215.554 1724.01 215.902C1725.15 216.723 1725.98 218.414 1725.98 220.174" stroke="black" stroke-width="2" stroke-linecap="round" stroke-linejoin="round"/>
<path d="M1726.95 200.412L1715.29 197.562V204.562C1715.29 206.154 1715.91 207.83 1717 209.222C1718.09 210.615 1719.58 211.609 1721.12 211.987C1722.67 212.365 1724.15 212.095 1725.24 211.237C1726.34 210.379 1726.95 209.003 1726.95 207.412V200.412Z" stroke="black" stroke-width="2" stroke-linecap="round" stroke-linejoin="round"/>
</g>
<defs>
<clipPath id="clip0_246_8833">
<rect width="1920" height="580" fill="white"/>
</clipPath>
<clipPath id="clip1_246_8833">
<rect width="24" height="24" fill="white" transform="matrix(0.966235 -0.257663 0 1 1323.81 67.1826)"/>
</clipPath>
<clipPath id="clip2_246_8833">
<rect width="24" height="24" fill="white" transform="matrix(0.976187 0.21693 0 1 339.201 296.901)"/>
</clipPath>
</defs>
</svg>
