<svg width="44" height="44" viewBox="0 0 44 44" fill="none" xmlns="http://www.w3.org/2000/svg">
<path d="M19.2499 2.75C19.2499 2.02065 19.5396 1.32118 20.0553 0.805457C20.571 0.289732 21.2705 0 21.9999 0C22.7292 0 23.4287 0.289732 23.9444 0.805457C24.4601 1.32118 24.7499 2.02065 24.7499 2.75V22.4345L33.6681 13.5163L37.5566 17.4048L21.9999 32.9615L6.44312 17.4075L10.3316 13.519L19.2499 22.4345V2.75Z" fill="white"/>
<path d="M0 27.5H5.5V38.5H38.5V27.5H44V38.5C44 39.9587 43.4205 41.3576 42.3891 42.3891C41.3576 43.4205 39.9587 44 38.5 44H5.5C4.04131 44 2.64236 43.4205 1.61091 42.3891C0.579462 41.3576 0 39.9587 0 38.5V27.5Z" fill="white"/>
</svg>
